%TF.GenerationSoftware,KiCad,Pcbnew,(6.0.7)*%
%TF.CreationDate,2022-10-02T18:15:39+02:00*%
%TF.ProjectId,k1-aioc,6b312d61-696f-4632-9e6b-696361645f70,rev?*%
%TF.SameCoordinates,Original*%
%TF.FileFunction,Soldermask,Top*%
%TF.FilePolarity,Negative*%
%FSLAX46Y46*%
G04 Gerber Fmt 4.6, Leading zero omitted, Abs format (unit mm)*
G04 Created by KiCad (PCBNEW (6.0.7)) date 2022-10-02 18:15:39*
%MOMM*%
%LPD*%
G01*
G04 APERTURE LIST*
G04 Aperture macros list*
%AMRoundRect*
0 Rectangle with rounded corners*
0 $1 Rounding radius*
0 $2 $3 $4 $5 $6 $7 $8 $9 X,Y pos of 4 corners*
0 Add a 4 corners polygon primitive as box body*
4,1,4,$2,$3,$4,$5,$6,$7,$8,$9,$2,$3,0*
0 Add four circle primitives for the rounded corners*
1,1,$1+$1,$2,$3*
1,1,$1+$1,$4,$5*
1,1,$1+$1,$6,$7*
1,1,$1+$1,$8,$9*
0 Add four rect primitives between the rounded corners*
20,1,$1+$1,$2,$3,$4,$5,0*
20,1,$1+$1,$4,$5,$6,$7,0*
20,1,$1+$1,$6,$7,$8,$9,0*
20,1,$1+$1,$8,$9,$2,$3,0*%
G04 Aperture macros list end*
%ADD10C,0.150000*%
%ADD11RoundRect,0.050000X0.500000X0.500000X-0.500000X0.500000X-0.500000X-0.500000X0.500000X-0.500000X0*%
%ADD12O,1.100000X1.100000*%
%ADD13RoundRect,0.250000X-0.275000X0.200000X-0.275000X-0.200000X0.275000X-0.200000X0.275000X0.200000X0*%
%ADD14RoundRect,0.268750X0.218750X0.256250X-0.218750X0.256250X-0.218750X-0.256250X0.218750X-0.256250X0*%
%ADD15RoundRect,0.275000X0.225000X0.250000X-0.225000X0.250000X-0.225000X-0.250000X0.225000X-0.250000X0*%
%ADD16RoundRect,0.250000X-0.200000X-0.275000X0.200000X-0.275000X0.200000X0.275000X-0.200000X0.275000X0*%
%ADD17O,0.900000X1.500000*%
%ADD18RoundRect,0.050000X0.150000X0.350000X-0.150000X0.350000X-0.150000X-0.350000X0.150000X-0.350000X0*%
%ADD19O,1.050000X0.750000*%
%ADD20C,0.750000*%
%ADD21RoundRect,0.268750X-0.218750X-0.256250X0.218750X-0.256250X0.218750X0.256250X-0.218750X0.256250X0*%
%ADD22RoundRect,0.275000X-0.250000X0.225000X-0.250000X-0.225000X0.250000X-0.225000X0.250000X0.225000X0*%
%ADD23RoundRect,0.275000X-0.225000X-0.250000X0.225000X-0.250000X0.225000X0.250000X-0.225000X0.250000X0*%
%ADD24RoundRect,0.125000X0.075000X-0.662500X0.075000X0.662500X-0.075000X0.662500X-0.075000X-0.662500X0*%
%ADD25RoundRect,0.125000X0.662500X-0.075000X0.662500X0.075000X-0.662500X0.075000X-0.662500X-0.075000X0*%
%ADD26RoundRect,0.250000X0.200000X0.275000X-0.200000X0.275000X-0.200000X-0.275000X0.200000X-0.275000X0*%
%ADD27RoundRect,0.275000X0.250000X-0.225000X0.250000X0.225000X-0.250000X0.225000X-0.250000X-0.225000X0*%
%ADD28RoundRect,0.050000X-0.325000X-0.200000X0.325000X-0.200000X0.325000X0.200000X-0.325000X0.200000X0*%
%ADD29RoundRect,0.200000X-0.150000X0.512500X-0.150000X-0.512500X0.150000X-0.512500X0.150000X0.512500X0*%
%ADD30RoundRect,0.268750X-0.256250X0.218750X-0.256250X-0.218750X0.256250X-0.218750X0.256250X0.218750X0*%
%ADD31RoundRect,0.050000X-1.000000X-1.200000X1.000000X-1.200000X1.000000X1.200000X-1.000000X1.200000X0*%
%ADD32RoundRect,0.250000X0.275000X-0.200000X0.275000X0.200000X-0.275000X0.200000X-0.275000X-0.200000X0*%
G04 APERTURE END LIST*
D10*
X119500000Y-109000000D02*
X124500000Y-109000000D01*
X124500000Y-109000000D02*
X124500000Y-111000000D01*
X124500000Y-111000000D02*
X119500000Y-111000000D01*
X119500000Y-111000000D02*
X119500000Y-109000000D01*
G36*
X119500000Y-109000000D02*
G01*
X124500000Y-109000000D01*
X124500000Y-111000000D01*
X119500000Y-111000000D01*
X119500000Y-109000000D01*
G37*
X120500000Y-92000000D02*
X124500000Y-92000000D01*
X124500000Y-92000000D02*
X124500000Y-96000000D01*
X124500000Y-96000000D02*
X120500000Y-96000000D01*
X120500000Y-96000000D02*
X120500000Y-92000000D01*
G36*
X120500000Y-92000000D02*
G01*
X124500000Y-92000000D01*
X124500000Y-96000000D01*
X120500000Y-96000000D01*
X120500000Y-92000000D01*
G37*
X119500000Y-97000000D02*
X124500000Y-97000000D01*
X124500000Y-97000000D02*
X124500000Y-99000000D01*
X124500000Y-99000000D02*
X119500000Y-99000000D01*
X119500000Y-99000000D02*
X119500000Y-97000000D01*
G36*
X119500000Y-97000000D02*
G01*
X124500000Y-97000000D01*
X124500000Y-99000000D01*
X119500000Y-99000000D01*
X119500000Y-97000000D01*
G37*
X120500000Y-104000000D02*
X124500000Y-104000000D01*
X124500000Y-104000000D02*
X124500000Y-108000000D01*
X124500000Y-108000000D02*
X120500000Y-108000000D01*
X120500000Y-108000000D02*
X120500000Y-104000000D01*
G36*
X120500000Y-104000000D02*
G01*
X124500000Y-104000000D01*
X124500000Y-108000000D01*
X120500000Y-108000000D01*
X120500000Y-104000000D01*
G37*
X119500000Y-109000000D02*
X124500000Y-109000000D01*
X124500000Y-109000000D02*
X124500000Y-111000000D01*
X124500000Y-111000000D02*
X119500000Y-111000000D01*
X119500000Y-111000000D02*
X119500000Y-109000000D01*
G36*
X119500000Y-109000000D02*
G01*
X124500000Y-109000000D01*
X124500000Y-111000000D01*
X119500000Y-111000000D01*
X119500000Y-109000000D01*
G37*
X120500000Y-92000000D02*
X124500000Y-92000000D01*
X124500000Y-92000000D02*
X124500000Y-96000000D01*
X124500000Y-96000000D02*
X120500000Y-96000000D01*
X120500000Y-96000000D02*
X120500000Y-92000000D01*
G36*
X120500000Y-92000000D02*
G01*
X124500000Y-92000000D01*
X124500000Y-96000000D01*
X120500000Y-96000000D01*
X120500000Y-92000000D01*
G37*
X119500000Y-97000000D02*
X124500000Y-97000000D01*
X124500000Y-97000000D02*
X124500000Y-99000000D01*
X124500000Y-99000000D02*
X119500000Y-99000000D01*
X119500000Y-99000000D02*
X119500000Y-97000000D01*
G36*
X119500000Y-97000000D02*
G01*
X124500000Y-97000000D01*
X124500000Y-99000000D01*
X119500000Y-99000000D01*
X119500000Y-97000000D01*
G37*
X120500000Y-104000000D02*
X124500000Y-104000000D01*
X124500000Y-104000000D02*
X124500000Y-108000000D01*
X124500000Y-108000000D02*
X120500000Y-108000000D01*
X120500000Y-108000000D02*
X120500000Y-104000000D01*
G36*
X120500000Y-104000000D02*
G01*
X124500000Y-104000000D01*
X124500000Y-108000000D01*
X120500000Y-108000000D01*
X120500000Y-104000000D01*
G37*
D11*
%TO.C,J2*%
X105250000Y-89020000D03*
D12*
X105250000Y-87750000D03*
X105250000Y-86480000D03*
X105250000Y-85210000D03*
X105250000Y-83940000D03*
X105250000Y-82670000D03*
X105250000Y-81400000D03*
%TD*%
D13*
%TO.C,R2*%
X119000000Y-101425000D03*
X119000000Y-103075000D03*
%TD*%
D14*
%TO.C,D2*%
X104712500Y-103500000D03*
X106287500Y-103500000D03*
%TD*%
D15*
%TO.C,C11*%
X119525000Y-93500000D03*
X117975000Y-93500000D03*
%TD*%
D16*
%TO.C,R15*%
X104675000Y-102000000D03*
X106325000Y-102000000D03*
%TD*%
D17*
%TO.C,J1*%
X115990000Y-81160000D03*
X115630000Y-87110000D03*
X107010000Y-81160000D03*
X107370000Y-87110000D03*
D18*
X114500000Y-87320000D03*
X114000000Y-87320000D03*
X113500000Y-87320000D03*
X113000000Y-87320000D03*
X112500000Y-87320000D03*
X112000000Y-87320000D03*
X111500000Y-87320000D03*
X111000000Y-87320000D03*
X110500000Y-87320000D03*
X110000000Y-87320000D03*
X109500000Y-87320000D03*
X109000000Y-87320000D03*
X108750000Y-89020000D03*
X109250000Y-89020000D03*
X109750000Y-89020000D03*
X110250000Y-89020000D03*
X110750000Y-89020000D03*
X111250000Y-89020000D03*
X111750000Y-89020000D03*
X112250000Y-89020000D03*
X112750000Y-89020000D03*
X113250000Y-89020000D03*
X113750000Y-89020000D03*
X114250000Y-89020000D03*
D19*
X107900000Y-88360000D03*
D20*
X115100000Y-88360000D03*
%TD*%
D15*
%TO.C,C1*%
X106275000Y-106500000D03*
X104725000Y-106500000D03*
%TD*%
D21*
%TO.C,D1*%
X106287500Y-105000000D03*
X104712500Y-105000000D03*
%TD*%
D22*
%TO.C,C9*%
X113500000Y-105475000D03*
X113500000Y-107025000D03*
%TD*%
D23*
%TO.C,C12*%
X120475000Y-103000000D03*
X122025000Y-103000000D03*
%TD*%
D13*
%TO.C,R13*%
X118000000Y-108675000D03*
X118000000Y-110325000D03*
%TD*%
D21*
%TO.C,FB2*%
X108212500Y-91000000D03*
X109787500Y-91000000D03*
%TD*%
D13*
%TO.C,R8*%
X114750000Y-91175000D03*
X114750000Y-92825000D03*
%TD*%
%TO.C,R11*%
X116500000Y-105425000D03*
X116500000Y-107075000D03*
%TD*%
%TO.C,R9*%
X113250000Y-91175000D03*
X113250000Y-92825000D03*
%TD*%
D24*
%TO.C,U2*%
X110000000Y-103412500D03*
X110500000Y-103412500D03*
X111000000Y-103412500D03*
X111500000Y-103412500D03*
X112000000Y-103412500D03*
X112500000Y-103412500D03*
X113000000Y-103412500D03*
X113500000Y-103412500D03*
X114000000Y-103412500D03*
X114500000Y-103412500D03*
X115000000Y-103412500D03*
X115500000Y-103412500D03*
D25*
X116912500Y-102000000D03*
X116912500Y-101500000D03*
X116912500Y-101000000D03*
X116912500Y-100500000D03*
X116912500Y-100000000D03*
X116912500Y-99500000D03*
X116912500Y-99000000D03*
X116912500Y-98500000D03*
X116912500Y-98000000D03*
X116912500Y-97500000D03*
X116912500Y-97000000D03*
X116912500Y-96500000D03*
D24*
X115500000Y-95087500D03*
X115000000Y-95087500D03*
X114500000Y-95087500D03*
X114000000Y-95087500D03*
X113500000Y-95087500D03*
X113000000Y-95087500D03*
X112500000Y-95087500D03*
X112000000Y-95087500D03*
X111500000Y-95087500D03*
X111000000Y-95087500D03*
X110500000Y-95087500D03*
X110000000Y-95087500D03*
D25*
X108587500Y-96500000D03*
X108587500Y-97000000D03*
X108587500Y-97500000D03*
X108587500Y-98000000D03*
X108587500Y-98500000D03*
X108587500Y-99000000D03*
X108587500Y-99500000D03*
X108587500Y-100000000D03*
X108587500Y-100500000D03*
X108587500Y-101000000D03*
X108587500Y-101500000D03*
X108587500Y-102000000D03*
%TD*%
D15*
%TO.C,C6*%
X106275000Y-91000000D03*
X104725000Y-91000000D03*
%TD*%
D26*
%TO.C,R4*%
X122075000Y-101500000D03*
X120425000Y-101500000D03*
%TD*%
D22*
%TO.C,C3*%
X104750000Y-96975000D03*
X104750000Y-98525000D03*
%TD*%
D23*
%TO.C,C2*%
X109725000Y-106500000D03*
X111275000Y-106500000D03*
%TD*%
D13*
%TO.C,R10*%
X115000000Y-105425000D03*
X115000000Y-107075000D03*
%TD*%
D27*
%TO.C,C4*%
X108250000Y-95025000D03*
X108250000Y-93475000D03*
%TD*%
D28*
%TO.C,Q1*%
X114800000Y-108850000D03*
X114800000Y-109500000D03*
X114800000Y-110150000D03*
X116700000Y-110150000D03*
X116700000Y-109500000D03*
X116700000Y-108850000D03*
%TD*%
D23*
%TO.C,C14*%
X117975000Y-90500000D03*
X119525000Y-90500000D03*
%TD*%
D26*
%TO.C,R5*%
X119575000Y-92000000D03*
X117925000Y-92000000D03*
%TD*%
D22*
%TO.C,C15*%
X112600000Y-108725000D03*
X112600000Y-110275000D03*
%TD*%
D23*
%TO.C,C7*%
X118975000Y-100000000D03*
X120525000Y-100000000D03*
%TD*%
D22*
%TO.C,C8*%
X108250000Y-103225000D03*
X108250000Y-104775000D03*
%TD*%
D29*
%TO.C,U1*%
X106450000Y-93112500D03*
X105500000Y-93112500D03*
X104550000Y-93112500D03*
X104550000Y-95387500D03*
X106450000Y-95387500D03*
%TD*%
D16*
%TO.C,R3*%
X117925000Y-95000000D03*
X119575000Y-95000000D03*
%TD*%
D27*
%TO.C,C10*%
X116250000Y-92775000D03*
X116250000Y-91225000D03*
%TD*%
D16*
%TO.C,R14*%
X106325000Y-100500000D03*
X104675000Y-100500000D03*
%TD*%
D13*
%TO.C,R6*%
X117750000Y-82425000D03*
X117750000Y-84075000D03*
%TD*%
D30*
%TO.C,FB1*%
X106250000Y-96962500D03*
X106250000Y-98537500D03*
%TD*%
D22*
%TO.C,C13*%
X119500000Y-105475000D03*
X119500000Y-107025000D03*
%TD*%
D31*
%TO.C,Y1*%
X106150000Y-109250000D03*
X109850000Y-109250000D03*
%TD*%
D13*
%TO.C,R12*%
X118000000Y-105425000D03*
X118000000Y-107075000D03*
%TD*%
D32*
%TO.C,R7*%
X117750000Y-87075000D03*
X117750000Y-85425000D03*
%TD*%
M02*
