%TF.GenerationSoftware,KiCad,Pcbnew,(6.0.7)*%
%TF.CreationDate,2022-10-02T17:39:17+02:00*%
%TF.ProjectId,k1-aioc,6b312d61-696f-4632-9e6b-696361645f70,rev?*%
%TF.SameCoordinates,Original*%
%TF.FileFunction,Legend,Bot*%
%TF.FilePolarity,Positive*%
%FSLAX46Y46*%
G04 Gerber Fmt 4.6, Leading zero omitted, Abs format (unit mm)*
G04 Created by KiCad (PCBNEW (6.0.7)) date 2022-10-02 17:39:17*
%MOMM*%
%LPD*%
G01*
G04 APERTURE LIST*
G04 Aperture macros list*
%AMRoundRect*
0 Rectangle with rounded corners*
0 $1 Rounding radius*
0 $2 $3 $4 $5 $6 $7 $8 $9 X,Y pos of 4 corners*
0 Add a 4 corners polygon primitive as box body*
4,1,4,$2,$3,$4,$5,$6,$7,$8,$9,$2,$3,0*
0 Add four circle primitives for the rounded corners*
1,1,$1+$1,$2,$3*
1,1,$1+$1,$4,$5*
1,1,$1+$1,$6,$7*
1,1,$1+$1,$8,$9*
0 Add four rect primitives between the rounded corners*
20,1,$1+$1,$2,$3,$4,$5,0*
20,1,$1+$1,$4,$5,$6,$7,0*
20,1,$1+$1,$6,$7,$8,$9,0*
20,1,$1+$1,$8,$9,$2,$3,0*%
G04 Aperture macros list end*
%ADD10C,0.100000*%
%ADD11C,0.200000*%
%ADD12C,0.150000*%
%ADD13C,0.750000*%
%ADD14O,1.050000X0.750000*%
%ADD15O,0.900000X1.500000*%
%ADD16RoundRect,0.050000X0.500000X0.500000X-0.500000X0.500000X-0.500000X-0.500000X0.500000X-0.500000X0*%
%ADD17O,1.100000X1.100000*%
G04 APERTURE END LIST*
D10*
X104469047Y-89545238D02*
X104469047Y-89297619D01*
X104316666Y-89430952D01*
X104316666Y-89373809D01*
X104297619Y-89335714D01*
X104278571Y-89316666D01*
X104240476Y-89297619D01*
X104145238Y-89297619D01*
X104107142Y-89316666D01*
X104088095Y-89335714D01*
X104069047Y-89373809D01*
X104069047Y-89488095D01*
X104088095Y-89526190D01*
X104107142Y-89545238D01*
X104469047Y-89183333D02*
X104069047Y-89050000D01*
X104469047Y-88916666D01*
X104469047Y-88821428D02*
X104469047Y-88573809D01*
X104316666Y-88707142D01*
X104316666Y-88650000D01*
X104297619Y-88611904D01*
X104278571Y-88592857D01*
X104240476Y-88573809D01*
X104145238Y-88573809D01*
X104107142Y-88592857D01*
X104088095Y-88611904D01*
X104069047Y-88650000D01*
X104069047Y-88764285D01*
X104088095Y-88802380D01*
X104107142Y-88821428D01*
X104278571Y-88083333D02*
X104259523Y-88026190D01*
X104240476Y-88007142D01*
X104202380Y-87988095D01*
X104145238Y-87988095D01*
X104107142Y-88007142D01*
X104088095Y-88026190D01*
X104069047Y-88064285D01*
X104069047Y-88216666D01*
X104469047Y-88216666D01*
X104469047Y-88083333D01*
X104450000Y-88045238D01*
X104430952Y-88026190D01*
X104392857Y-88007142D01*
X104354761Y-88007142D01*
X104316666Y-88026190D01*
X104297619Y-88045238D01*
X104278571Y-88083333D01*
X104278571Y-88216666D01*
X104069047Y-87626190D02*
X104069047Y-87816666D01*
X104469047Y-87816666D01*
X104069047Y-87492857D02*
X104469047Y-87492857D01*
X104469047Y-87397619D01*
X104450000Y-87340476D01*
X104411904Y-87302380D01*
X104373809Y-87283333D01*
X104297619Y-87264285D01*
X104240476Y-87264285D01*
X104164285Y-87283333D01*
X104126190Y-87302380D01*
X104088095Y-87340476D01*
X104069047Y-87397619D01*
X104069047Y-87492857D01*
X104069047Y-86769047D02*
X104259523Y-86902380D01*
X104069047Y-86997619D02*
X104469047Y-86997619D01*
X104469047Y-86845238D01*
X104450000Y-86807142D01*
X104430952Y-86788095D01*
X104392857Y-86769047D01*
X104335714Y-86769047D01*
X104297619Y-86788095D01*
X104278571Y-86807142D01*
X104259523Y-86845238D01*
X104259523Y-86997619D01*
X104088095Y-86616666D02*
X104069047Y-86559523D01*
X104069047Y-86464285D01*
X104088095Y-86426190D01*
X104107142Y-86407142D01*
X104145238Y-86388095D01*
X104183333Y-86388095D01*
X104221428Y-86407142D01*
X104240476Y-86426190D01*
X104259523Y-86464285D01*
X104278571Y-86540476D01*
X104297619Y-86578571D01*
X104316666Y-86597619D01*
X104354761Y-86616666D01*
X104392857Y-86616666D01*
X104430952Y-86597619D01*
X104450000Y-86578571D01*
X104469047Y-86540476D01*
X104469047Y-86445238D01*
X104450000Y-86388095D01*
X104469047Y-86273809D02*
X104469047Y-86045238D01*
X104069047Y-86159523D02*
X104469047Y-86159523D01*
X104088095Y-85792857D02*
X104069047Y-85735714D01*
X104069047Y-85640476D01*
X104088095Y-85602380D01*
X104107142Y-85583333D01*
X104145238Y-85564285D01*
X104183333Y-85564285D01*
X104221428Y-85583333D01*
X104240476Y-85602380D01*
X104259523Y-85640476D01*
X104278571Y-85716666D01*
X104297619Y-85754761D01*
X104316666Y-85773809D01*
X104354761Y-85792857D01*
X104392857Y-85792857D01*
X104430952Y-85773809D01*
X104450000Y-85754761D01*
X104469047Y-85716666D01*
X104469047Y-85621428D01*
X104450000Y-85564285D01*
X104469047Y-85430952D02*
X104069047Y-85335714D01*
X104354761Y-85259523D01*
X104069047Y-85183333D01*
X104469047Y-85088095D01*
X104107142Y-84707142D02*
X104088095Y-84726190D01*
X104069047Y-84783333D01*
X104069047Y-84821428D01*
X104088095Y-84878571D01*
X104126190Y-84916666D01*
X104164285Y-84935714D01*
X104240476Y-84954761D01*
X104297619Y-84954761D01*
X104373809Y-84935714D01*
X104411904Y-84916666D01*
X104450000Y-84878571D01*
X104469047Y-84821428D01*
X104469047Y-84783333D01*
X104450000Y-84726190D01*
X104430952Y-84707142D01*
X104088095Y-84492857D02*
X104069047Y-84435714D01*
X104069047Y-84340476D01*
X104088095Y-84302380D01*
X104107142Y-84283333D01*
X104145238Y-84264285D01*
X104183333Y-84264285D01*
X104221428Y-84283333D01*
X104240476Y-84302380D01*
X104259523Y-84340476D01*
X104278571Y-84416666D01*
X104297619Y-84454761D01*
X104316666Y-84473809D01*
X104354761Y-84492857D01*
X104392857Y-84492857D01*
X104430952Y-84473809D01*
X104450000Y-84454761D01*
X104469047Y-84416666D01*
X104469047Y-84321428D01*
X104450000Y-84264285D01*
X104469047Y-84130952D02*
X104069047Y-84035714D01*
X104354761Y-83959523D01*
X104069047Y-83883333D01*
X104469047Y-83788095D01*
X104069047Y-83635714D02*
X104469047Y-83635714D01*
X104469047Y-83540476D01*
X104450000Y-83483333D01*
X104411904Y-83445238D01*
X104373809Y-83426190D01*
X104297619Y-83407142D01*
X104240476Y-83407142D01*
X104164285Y-83426190D01*
X104126190Y-83445238D01*
X104088095Y-83483333D01*
X104069047Y-83540476D01*
X104069047Y-83635714D01*
X104450000Y-83004761D02*
X104469047Y-83042857D01*
X104469047Y-83100000D01*
X104450000Y-83157142D01*
X104411904Y-83195238D01*
X104373809Y-83214285D01*
X104297619Y-83233333D01*
X104240476Y-83233333D01*
X104164285Y-83214285D01*
X104126190Y-83195238D01*
X104088095Y-83157142D01*
X104069047Y-83100000D01*
X104069047Y-83061904D01*
X104088095Y-83004761D01*
X104107142Y-82985714D01*
X104240476Y-82985714D01*
X104240476Y-83061904D01*
X104069047Y-82814285D02*
X104469047Y-82814285D01*
X104069047Y-82585714D01*
X104469047Y-82585714D01*
X104069047Y-82395238D02*
X104469047Y-82395238D01*
X104469047Y-82300000D01*
X104450000Y-82242857D01*
X104411904Y-82204761D01*
X104373809Y-82185714D01*
X104297619Y-82166666D01*
X104240476Y-82166666D01*
X104164285Y-82185714D01*
X104126190Y-82204761D01*
X104088095Y-82242857D01*
X104069047Y-82300000D01*
X104069047Y-82395238D01*
D11*
X123154761Y-109461904D02*
X122659523Y-109461904D01*
X122926190Y-109766666D01*
X122811904Y-109766666D01*
X122735714Y-109804761D01*
X122697619Y-109842857D01*
X122659523Y-109919047D01*
X122659523Y-110109523D01*
X122697619Y-110185714D01*
X122735714Y-110223809D01*
X122811904Y-110261904D01*
X123040476Y-110261904D01*
X123116666Y-110223809D01*
X123154761Y-110185714D01*
X122316666Y-110185714D02*
X122278571Y-110223809D01*
X122316666Y-110261904D01*
X122354761Y-110223809D01*
X122316666Y-110185714D01*
X122316666Y-110261904D01*
X121554761Y-109461904D02*
X121935714Y-109461904D01*
X121973809Y-109842857D01*
X121935714Y-109804761D01*
X121859523Y-109766666D01*
X121669047Y-109766666D01*
X121592857Y-109804761D01*
X121554761Y-109842857D01*
X121516666Y-109919047D01*
X121516666Y-110109523D01*
X121554761Y-110185714D01*
X121592857Y-110223809D01*
X121669047Y-110261904D01*
X121859523Y-110261904D01*
X121935714Y-110223809D01*
X121973809Y-110185714D01*
X121173809Y-110261904D02*
X121173809Y-109728571D01*
X121173809Y-109804761D02*
X121135714Y-109766666D01*
X121059523Y-109728571D01*
X120945238Y-109728571D01*
X120869047Y-109766666D01*
X120830952Y-109842857D01*
X120830952Y-110261904D01*
X120830952Y-109842857D02*
X120792857Y-109766666D01*
X120716666Y-109728571D01*
X120602380Y-109728571D01*
X120526190Y-109766666D01*
X120488095Y-109842857D01*
X120488095Y-110261904D01*
X120107142Y-110261904D02*
X120107142Y-109728571D01*
X120107142Y-109804761D02*
X120069047Y-109766666D01*
X119992857Y-109728571D01*
X119878571Y-109728571D01*
X119802380Y-109766666D01*
X119764285Y-109842857D01*
X119764285Y-110261904D01*
X119764285Y-109842857D02*
X119726190Y-109766666D01*
X119650000Y-109728571D01*
X119535714Y-109728571D01*
X119459523Y-109766666D01*
X119421428Y-109842857D01*
X119421428Y-110261904D01*
X122866666Y-97488095D02*
X122828571Y-97450000D01*
X122752380Y-97411904D01*
X122561904Y-97411904D01*
X122485714Y-97450000D01*
X122447619Y-97488095D01*
X122409523Y-97564285D01*
X122409523Y-97640476D01*
X122447619Y-97754761D01*
X122904761Y-98211904D01*
X122409523Y-98211904D01*
X122066666Y-98135714D02*
X122028571Y-98173809D01*
X122066666Y-98211904D01*
X122104761Y-98173809D01*
X122066666Y-98135714D01*
X122066666Y-98211904D01*
X121304761Y-97411904D02*
X121685714Y-97411904D01*
X121723809Y-97792857D01*
X121685714Y-97754761D01*
X121609523Y-97716666D01*
X121419047Y-97716666D01*
X121342857Y-97754761D01*
X121304761Y-97792857D01*
X121266666Y-97869047D01*
X121266666Y-98059523D01*
X121304761Y-98135714D01*
X121342857Y-98173809D01*
X121419047Y-98211904D01*
X121609523Y-98211904D01*
X121685714Y-98173809D01*
X121723809Y-98135714D01*
X120923809Y-98211904D02*
X120923809Y-97678571D01*
X120923809Y-97754761D02*
X120885714Y-97716666D01*
X120809523Y-97678571D01*
X120695238Y-97678571D01*
X120619047Y-97716666D01*
X120580952Y-97792857D01*
X120580952Y-98211904D01*
X120580952Y-97792857D02*
X120542857Y-97716666D01*
X120466666Y-97678571D01*
X120352380Y-97678571D01*
X120276190Y-97716666D01*
X120238095Y-97792857D01*
X120238095Y-98211904D01*
X119857142Y-98211904D02*
X119857142Y-97678571D01*
X119857142Y-97754761D02*
X119819047Y-97716666D01*
X119742857Y-97678571D01*
X119628571Y-97678571D01*
X119552380Y-97716666D01*
X119514285Y-97792857D01*
X119514285Y-98211904D01*
X119514285Y-97792857D02*
X119476190Y-97716666D01*
X119400000Y-97678571D01*
X119285714Y-97678571D01*
X119209523Y-97716666D01*
X119171428Y-97792857D01*
X119171428Y-98211904D01*
X114928571Y-81239333D02*
X114547619Y-81239333D01*
X115004761Y-81467904D02*
X114738095Y-80667904D01*
X114471428Y-81467904D01*
X114204761Y-81467904D02*
X114204761Y-80667904D01*
X113671428Y-80667904D02*
X113519047Y-80667904D01*
X113442857Y-80706000D01*
X113366666Y-80782190D01*
X113328571Y-80934571D01*
X113328571Y-81201238D01*
X113366666Y-81353619D01*
X113442857Y-81429809D01*
X113519047Y-81467904D01*
X113671428Y-81467904D01*
X113747619Y-81429809D01*
X113823809Y-81353619D01*
X113861904Y-81201238D01*
X113861904Y-80934571D01*
X113823809Y-80782190D01*
X113747619Y-80706000D01*
X113671428Y-80667904D01*
X112528571Y-81391714D02*
X112566666Y-81429809D01*
X112680952Y-81467904D01*
X112757142Y-81467904D01*
X112871428Y-81429809D01*
X112947619Y-81353619D01*
X112985714Y-81277428D01*
X113023809Y-81125047D01*
X113023809Y-81010761D01*
X112985714Y-80858380D01*
X112947619Y-80782190D01*
X112871428Y-80706000D01*
X112757142Y-80667904D01*
X112680952Y-80667904D01*
X112566666Y-80706000D01*
X112528571Y-80744095D01*
X111119047Y-81467904D02*
X111385714Y-81086952D01*
X111576190Y-81467904D02*
X111576190Y-80667904D01*
X111271428Y-80667904D01*
X111195238Y-80706000D01*
X111157142Y-80744095D01*
X111119047Y-80820285D01*
X111119047Y-80934571D01*
X111157142Y-81010761D01*
X111195238Y-81048857D01*
X111271428Y-81086952D01*
X111576190Y-81086952D01*
X110471428Y-81429809D02*
X110547619Y-81467904D01*
X110700000Y-81467904D01*
X110776190Y-81429809D01*
X110814285Y-81353619D01*
X110814285Y-81048857D01*
X110776190Y-80972666D01*
X110700000Y-80934571D01*
X110547619Y-80934571D01*
X110471428Y-80972666D01*
X110433333Y-81048857D01*
X110433333Y-81125047D01*
X110814285Y-81201238D01*
X110166666Y-80934571D02*
X109976190Y-81467904D01*
X109785714Y-80934571D01*
X109480952Y-81391714D02*
X109442857Y-81429809D01*
X109480952Y-81467904D01*
X109519047Y-81429809D01*
X109480952Y-81391714D01*
X109480952Y-81467904D01*
X108338095Y-80667904D02*
X108261904Y-80667904D01*
X108185714Y-80706000D01*
X108147619Y-80744095D01*
X108109523Y-80820285D01*
X108071428Y-80972666D01*
X108071428Y-81163142D01*
X108109523Y-81315523D01*
X108147619Y-81391714D01*
X108185714Y-81429809D01*
X108261904Y-81467904D01*
X108338095Y-81467904D01*
X108414285Y-81429809D01*
X108452380Y-81391714D01*
X108490476Y-81315523D01*
X108528571Y-81163142D01*
X108528571Y-80972666D01*
X108490476Y-80820285D01*
X108452380Y-80744095D01*
X108414285Y-80706000D01*
X108338095Y-80667904D01*
X114966666Y-82717809D02*
X114852380Y-82755904D01*
X114661904Y-82755904D01*
X114585714Y-82717809D01*
X114547619Y-82679714D01*
X114509523Y-82603523D01*
X114509523Y-82527333D01*
X114547619Y-82451142D01*
X114585714Y-82413047D01*
X114661904Y-82374952D01*
X114814285Y-82336857D01*
X114890476Y-82298761D01*
X114928571Y-82260666D01*
X114966666Y-82184476D01*
X114966666Y-82108285D01*
X114928571Y-82032095D01*
X114890476Y-81994000D01*
X114814285Y-81955904D01*
X114623809Y-81955904D01*
X114509523Y-81994000D01*
X114166666Y-82679714D02*
X114128571Y-82717809D01*
X114166666Y-82755904D01*
X114204761Y-82717809D01*
X114166666Y-82679714D01*
X114166666Y-82755904D01*
X113176190Y-82755904D02*
X113176190Y-81955904D01*
X112719047Y-82755904D02*
X113061904Y-82298761D01*
X112719047Y-81955904D02*
X113176190Y-82413047D01*
X112033333Y-82222571D02*
X112033333Y-82755904D01*
X112376190Y-82222571D02*
X112376190Y-82641619D01*
X112338095Y-82717809D01*
X112261904Y-82755904D01*
X112147619Y-82755904D01*
X112071428Y-82717809D01*
X112033333Y-82679714D01*
X111347619Y-82717809D02*
X111423809Y-82755904D01*
X111576190Y-82755904D01*
X111652380Y-82717809D01*
X111690476Y-82641619D01*
X111690476Y-82336857D01*
X111652380Y-82260666D01*
X111576190Y-82222571D01*
X111423809Y-82222571D01*
X111347619Y-82260666D01*
X111309523Y-82336857D01*
X111309523Y-82413047D01*
X111690476Y-82489238D01*
X110966666Y-82222571D02*
X110966666Y-83022571D01*
X110966666Y-82260666D02*
X110890476Y-82222571D01*
X110738095Y-82222571D01*
X110661904Y-82260666D01*
X110623809Y-82298761D01*
X110585714Y-82374952D01*
X110585714Y-82603523D01*
X110623809Y-82679714D01*
X110661904Y-82717809D01*
X110738095Y-82755904D01*
X110890476Y-82755904D01*
X110966666Y-82717809D01*
X110242857Y-82222571D02*
X110242857Y-83022571D01*
X110242857Y-82260666D02*
X110166666Y-82222571D01*
X110014285Y-82222571D01*
X109938095Y-82260666D01*
X109900000Y-82298761D01*
X109861904Y-82374952D01*
X109861904Y-82603523D01*
X109900000Y-82679714D01*
X109938095Y-82717809D01*
X110014285Y-82755904D01*
X110166666Y-82755904D01*
X110242857Y-82717809D01*
X109214285Y-82717809D02*
X109290476Y-82755904D01*
X109442857Y-82755904D01*
X109519047Y-82717809D01*
X109557142Y-82641619D01*
X109557142Y-82336857D01*
X109519047Y-82260666D01*
X109442857Y-82222571D01*
X109290476Y-82222571D01*
X109214285Y-82260666D01*
X109176190Y-82336857D01*
X109176190Y-82413047D01*
X109557142Y-82489238D01*
X108833333Y-82755904D02*
X108833333Y-82222571D01*
X108833333Y-82374952D02*
X108795238Y-82298761D01*
X108757142Y-82260666D01*
X108680952Y-82222571D01*
X108604761Y-82222571D01*
X108376190Y-82717809D02*
X108300000Y-82755904D01*
X108147619Y-82755904D01*
X108071428Y-82717809D01*
X108033333Y-82641619D01*
X108033333Y-82603523D01*
X108071428Y-82527333D01*
X108147619Y-82489238D01*
X108261904Y-82489238D01*
X108338095Y-82451142D01*
X108376190Y-82374952D01*
X108376190Y-82336857D01*
X108338095Y-82260666D01*
X108261904Y-82222571D01*
X108147619Y-82222571D01*
X108071428Y-82260666D01*
%LPC*%
D12*
X117500000Y-103000000D02*
X123250000Y-103000000D01*
X123250000Y-103000000D02*
X123250000Y-109000000D01*
X123250000Y-109000000D02*
X117500000Y-109000000D01*
X117500000Y-109000000D02*
X117500000Y-103000000D01*
G36*
X117500000Y-103000000D02*
G01*
X123250000Y-103000000D01*
X123250000Y-109000000D01*
X117500000Y-109000000D01*
X117500000Y-103000000D01*
G37*
X117500000Y-91000000D02*
X123000000Y-91000000D01*
X123000000Y-91000000D02*
X123000000Y-97000000D01*
X123000000Y-97000000D02*
X117500000Y-97000000D01*
X117500000Y-97000000D02*
X117500000Y-91000000D01*
G36*
X117500000Y-91000000D02*
G01*
X123000000Y-91000000D01*
X123000000Y-97000000D01*
X117500000Y-97000000D01*
X117500000Y-91000000D01*
G37*
D13*
%TO.C,J1*%
X115100000Y-88360000D03*
D14*
X107900000Y-88360000D03*
D15*
X107370000Y-87110000D03*
X107010000Y-81160000D03*
X115630000Y-87110000D03*
X115990000Y-81160000D03*
%TD*%
D16*
%TO.C,J2*%
X105250000Y-89020000D03*
D17*
X105250000Y-87750000D03*
X105250000Y-86480000D03*
X105250000Y-85210000D03*
X105250000Y-83940000D03*
X105250000Y-82670000D03*
%TD*%
M02*
