%TF.GenerationSoftware,KiCad,Pcbnew,(6.0.8)*%
%TF.CreationDate,2022-10-30T15:43:18+01:00*%
%TF.ProjectId,k1-aioc,6b312d61-696f-4632-9e6b-696361645f70,rev?*%
%TF.SameCoordinates,Original*%
%TF.FileFunction,Copper,L1,Top*%
%TF.FilePolarity,Positive*%
%FSLAX46Y46*%
G04 Gerber Fmt 4.6, Leading zero omitted, Abs format (unit mm)*
G04 Created by KiCad (PCBNEW (6.0.8)) date 2022-10-30 15:43:18*
%MOMM*%
%LPD*%
G01*
G04 APERTURE LIST*
G04 Aperture macros list*
%AMRoundRect*
0 Rectangle with rounded corners*
0 $1 Rounding radius*
0 $2 $3 $4 $5 $6 $7 $8 $9 X,Y pos of 4 corners*
0 Add a 4 corners polygon primitive as box body*
4,1,4,$2,$3,$4,$5,$6,$7,$8,$9,$2,$3,0*
0 Add four circle primitives for the rounded corners*
1,1,$1+$1,$2,$3*
1,1,$1+$1,$4,$5*
1,1,$1+$1,$6,$7*
1,1,$1+$1,$8,$9*
0 Add four rect primitives between the rounded corners*
20,1,$1+$1,$2,$3,$4,$5,0*
20,1,$1+$1,$4,$5,$6,$7,0*
20,1,$1+$1,$6,$7,$8,$9,0*
20,1,$1+$1,$8,$9,$2,$3,0*%
G04 Aperture macros list end*
%TA.AperFunction,SMDPad,CuDef*%
%ADD10RoundRect,0.200000X-0.275000X0.200000X-0.275000X-0.200000X0.275000X-0.200000X0.275000X0.200000X0*%
%TD*%
%TA.AperFunction,SMDPad,CuDef*%
%ADD11RoundRect,0.218750X0.218750X0.256250X-0.218750X0.256250X-0.218750X-0.256250X0.218750X-0.256250X0*%
%TD*%
%TA.AperFunction,SMDPad,CuDef*%
%ADD12RoundRect,0.225000X0.225000X0.250000X-0.225000X0.250000X-0.225000X-0.250000X0.225000X-0.250000X0*%
%TD*%
%TA.AperFunction,SMDPad,CuDef*%
%ADD13RoundRect,0.200000X-0.200000X-0.275000X0.200000X-0.275000X0.200000X0.275000X-0.200000X0.275000X0*%
%TD*%
%TA.AperFunction,SMDPad,CuDef*%
%ADD14R,0.300000X0.700000*%
%TD*%
%TA.AperFunction,ComponentPad*%
%ADD15O,0.800000X1.400000*%
%TD*%
%TA.AperFunction,SMDPad,CuDef*%
%ADD16RoundRect,0.218750X-0.218750X-0.256250X0.218750X-0.256250X0.218750X0.256250X-0.218750X0.256250X0*%
%TD*%
%TA.AperFunction,SMDPad,CuDef*%
%ADD17RoundRect,0.225000X-0.250000X0.225000X-0.250000X-0.225000X0.250000X-0.225000X0.250000X0.225000X0*%
%TD*%
%TA.AperFunction,SMDPad,CuDef*%
%ADD18RoundRect,0.225000X-0.225000X-0.250000X0.225000X-0.250000X0.225000X0.250000X-0.225000X0.250000X0*%
%TD*%
%TA.AperFunction,SMDPad,CuDef*%
%ADD19RoundRect,0.218750X0.256250X-0.218750X0.256250X0.218750X-0.256250X0.218750X-0.256250X-0.218750X0*%
%TD*%
%TA.AperFunction,SMDPad,CuDef*%
%ADD20RoundRect,0.075000X0.075000X-0.662500X0.075000X0.662500X-0.075000X0.662500X-0.075000X-0.662500X0*%
%TD*%
%TA.AperFunction,SMDPad,CuDef*%
%ADD21RoundRect,0.075000X0.662500X-0.075000X0.662500X0.075000X-0.662500X0.075000X-0.662500X-0.075000X0*%
%TD*%
%TA.AperFunction,SMDPad,CuDef*%
%ADD22RoundRect,0.225000X0.250000X-0.225000X0.250000X0.225000X-0.250000X0.225000X-0.250000X-0.225000X0*%
%TD*%
%TA.AperFunction,SMDPad,CuDef*%
%ADD23RoundRect,0.200000X0.200000X0.275000X-0.200000X0.275000X-0.200000X-0.275000X0.200000X-0.275000X0*%
%TD*%
%TA.AperFunction,SMDPad,CuDef*%
%ADD24R,0.650000X0.400000*%
%TD*%
%TA.AperFunction,ComponentPad*%
%ADD25R,1.000000X1.000000*%
%TD*%
%TA.AperFunction,ComponentPad*%
%ADD26O,1.000000X1.000000*%
%TD*%
%TA.AperFunction,SMDPad,CuDef*%
%ADD27RoundRect,0.062500X-0.062500X0.312500X-0.062500X-0.312500X0.062500X-0.312500X0.062500X0.312500X0*%
%TD*%
%TA.AperFunction,SMDPad,CuDef*%
%ADD28R,1.200000X0.600000*%
%TD*%
%TA.AperFunction,ComponentPad*%
%ADD29C,2.000000*%
%TD*%
%TA.AperFunction,SMDPad,CuDef*%
%ADD30R,2.000000X2.400000*%
%TD*%
%TA.AperFunction,SMDPad,CuDef*%
%ADD31RoundRect,0.200000X0.275000X-0.200000X0.275000X0.200000X-0.275000X0.200000X-0.275000X-0.200000X0*%
%TD*%
%TA.AperFunction,ViaPad*%
%ADD32C,0.600000*%
%TD*%
%TA.AperFunction,ViaPad*%
%ADD33C,0.800000*%
%TD*%
%TA.AperFunction,Conductor*%
%ADD34C,0.250000*%
%TD*%
%TA.AperFunction,Conductor*%
%ADD35C,0.300000*%
%TD*%
%TA.AperFunction,Conductor*%
%ADD36C,0.500000*%
%TD*%
G04 APERTURE END LIST*
D10*
%TO.P,R2,1*%
%TO.N,/AFOUT*%
X119000000Y-101425000D03*
%TO.P,R2,2*%
%TO.N,Net-(C12-Pad1)*%
X119000000Y-103075000D03*
%TD*%
D11*
%TO.P,D2,1,K*%
%TO.N,Net-(D1-Pad2)*%
X106287500Y-105000000D03*
%TO.P,D2,2,A*%
%TO.N,Net-(D1-Pad1)*%
X104712500Y-105000000D03*
%TD*%
D12*
%TO.P,C11,1*%
%TO.N,/AFIN*%
X119525000Y-93500000D03*
%TO.P,C11,2*%
%TO.N,GND*%
X117975000Y-93500000D03*
%TD*%
D13*
%TO.P,R15,1*%
%TO.N,Net-(D1-Pad1)*%
X104675000Y-102000000D03*
%TO.P,R15,2*%
%TO.N,Net-(R15-Pad2)*%
X106325000Y-102000000D03*
%TD*%
D14*
%TO.P,J1,A1,GND*%
%TO.N,GND*%
X114250000Y-89020000D03*
%TO.P,J1,A2*%
%TO.N,N/C*%
X113750000Y-89020000D03*
%TO.P,J1,A3*%
X113250000Y-89020000D03*
%TO.P,J1,A4,VBUS*%
%TO.N,/VBUS*%
X112750000Y-89020000D03*
%TO.P,J1,A5,CC1*%
%TO.N,Net-(J1-PadA5)*%
X112250000Y-89020000D03*
%TO.P,J1,A6,D+*%
%TO.N,/USB-DP*%
X111750000Y-89020000D03*
%TO.P,J1,A7,D-*%
%TO.N,/USB-DN*%
X111250000Y-89020000D03*
%TO.P,J1,A8,SBU1*%
%TO.N,unconnected-(J1-PadA8)*%
X110750000Y-89020000D03*
%TO.P,J1,A9,VBUS*%
%TO.N,/VBUS*%
X110250000Y-89020000D03*
%TO.P,J1,A10*%
%TO.N,N/C*%
X109750000Y-89020000D03*
%TO.P,J1,A11*%
X109250000Y-89020000D03*
%TO.P,J1,A12,GND*%
%TO.N,GND*%
X108750000Y-89020000D03*
%TO.P,J1,B1,GND*%
X109000000Y-87320000D03*
%TO.P,J1,B2*%
%TO.N,N/C*%
X109500000Y-87320000D03*
%TO.P,J1,B3*%
X110000000Y-87320000D03*
%TO.P,J1,B4,VBUS*%
%TO.N,/VBUS*%
X110500000Y-87320000D03*
%TO.P,J1,B5,CC2*%
%TO.N,Net-(J1-PadB5)*%
X111000000Y-87320000D03*
%TO.P,J1,B6,D+*%
%TO.N,/USB-DP*%
X111500000Y-87320000D03*
%TO.P,J1,B7,D-*%
%TO.N,/USB-DN*%
X112000000Y-87320000D03*
%TO.P,J1,B8,SBU2*%
%TO.N,unconnected-(J1-PadB8)*%
X112500000Y-87320000D03*
%TO.P,J1,B9,VBUS*%
%TO.N,/VBUS*%
X113000000Y-87320000D03*
%TO.P,J1,B10*%
%TO.N,N/C*%
X113500000Y-87320000D03*
%TO.P,J1,B11*%
X114000000Y-87320000D03*
%TO.P,J1,B12,GND*%
%TO.N,GND*%
X114500000Y-87320000D03*
D15*
%TO.P,J1,S1,SHIELD*%
X107370000Y-87110000D03*
X107010000Y-81160000D03*
X115630000Y-87110000D03*
X115990000Y-81160000D03*
%TD*%
D12*
%TO.P,C1,1*%
%TO.N,/OSCIN*%
X106275000Y-106500000D03*
%TO.P,C1,2*%
%TO.N,GND*%
X104725000Y-106500000D03*
%TD*%
D16*
%TO.P,D1,1,K*%
%TO.N,Net-(D1-Pad1)*%
X104712500Y-103500000D03*
%TO.P,D1,2,A*%
%TO.N,Net-(D1-Pad2)*%
X106287500Y-103500000D03*
%TD*%
D17*
%TO.P,C9,1*%
%TO.N,+3.3VA*%
X113500000Y-105475000D03*
%TO.P,C9,2*%
%TO.N,GND*%
X113500000Y-107025000D03*
%TD*%
D18*
%TO.P,C12,1*%
%TO.N,Net-(C12-Pad1)*%
X120475000Y-103000000D03*
%TO.P,C12,2*%
%TO.N,GND*%
X122025000Y-103000000D03*
%TD*%
D10*
%TO.P,R13,1*%
%TO.N,/RADIO-RX-PTT1*%
X118000000Y-108675000D03*
%TO.P,R13,2*%
%TO.N,Net-(Q1-Pad3)*%
X118000000Y-110325000D03*
%TD*%
D19*
%TO.P,FB2,1*%
%TO.N,/VIN*%
X107750000Y-92287500D03*
%TO.P,FB2,2*%
%TO.N,/VBUS*%
X107750000Y-90712500D03*
%TD*%
D10*
%TO.P,R8,1*%
%TO.N,/RADIO-RX-PTT1*%
X114750000Y-91175000D03*
%TO.P,R8,2*%
%TO.N,/USART-TX*%
X114750000Y-92825000D03*
%TD*%
%TO.P,R11,1*%
%TO.N,/PTT1*%
X116500000Y-105425000D03*
%TO.P,R11,2*%
%TO.N,Net-(Q1-Pad5)*%
X116500000Y-107075000D03*
%TD*%
%TO.P,R9,1*%
%TO.N,/RADIO-TX*%
X113250000Y-91175000D03*
%TO.P,R9,2*%
%TO.N,/USART-RX*%
X113250000Y-92825000D03*
%TD*%
D20*
%TO.P,U2,1,VBAT*%
%TO.N,+3V3*%
X110000000Y-103412500D03*
%TO.P,U2,2,PC13*%
%TO.N,unconnected-(U2-Pad2)*%
X110500000Y-103412500D03*
%TO.P,U2,3,PC14*%
%TO.N,unconnected-(U2-Pad3)*%
X111000000Y-103412500D03*
%TO.P,U2,4,PC15*%
%TO.N,unconnected-(U2-Pad4)*%
X111500000Y-103412500D03*
%TO.P,U2,5,PF0*%
%TO.N,/OSCIN*%
X112000000Y-103412500D03*
%TO.P,U2,6,PF1*%
%TO.N,/OSCOUT*%
X112500000Y-103412500D03*
%TO.P,U2,7,NRST*%
%TO.N,/NRST*%
X113000000Y-103412500D03*
%TO.P,U2,8,VSSA*%
%TO.N,GND*%
X113500000Y-103412500D03*
%TO.P,U2,9,VDDA*%
%TO.N,+3.3VA*%
X114000000Y-103412500D03*
%TO.P,U2,10,PA0*%
%TO.N,/PTT2*%
X114500000Y-103412500D03*
%TO.P,U2,11,PA1*%
%TO.N,/PTT1*%
X115000000Y-103412500D03*
%TO.P,U2,12,PA2*%
%TO.N,unconnected-(U2-Pad12)*%
X115500000Y-103412500D03*
D21*
%TO.P,U2,13,PA3*%
%TO.N,unconnected-(U2-Pad13)*%
X116912500Y-102000000D03*
%TO.P,U2,14,PA4*%
%TO.N,/AFOUT*%
X116912500Y-101500000D03*
%TO.P,U2,15,PA5*%
%TO.N,unconnected-(U2-Pad15)*%
X116912500Y-101000000D03*
%TO.P,U2,16,PA6*%
%TO.N,unconnected-(U2-Pad16)*%
X116912500Y-100500000D03*
%TO.P,U2,17,VDD*%
%TO.N,+3V3*%
X116912500Y-100000000D03*
%TO.P,U2,18,PB0*%
%TO.N,unconnected-(U2-Pad18)*%
X116912500Y-99500000D03*
%TO.P,U2,19,PB1*%
%TO.N,unconnected-(U2-Pad19)*%
X116912500Y-99000000D03*
%TO.P,U2,20,PB2*%
%TO.N,/AFIN*%
X116912500Y-98500000D03*
%TO.P,U2,21,PE8*%
%TO.N,unconnected-(U2-Pad21)*%
X116912500Y-98000000D03*
%TO.P,U2,22,PE9*%
%TO.N,unconnected-(U2-Pad22)*%
X116912500Y-97500000D03*
%TO.P,U2,23,VSSSD*%
%TO.N,GND*%
X116912500Y-97000000D03*
%TO.P,U2,24,VDDSD*%
%TO.N,+3.3VA*%
X116912500Y-96500000D03*
D20*
%TO.P,U2,25,VREFSD+*%
X115500000Y-95087500D03*
%TO.P,U2,26,PB14*%
%TO.N,unconnected-(U2-Pad26)*%
X115000000Y-95087500D03*
%TO.P,U2,27,PB15*%
%TO.N,unconnected-(U2-Pad27)*%
X114500000Y-95087500D03*
%TO.P,U2,28,PD8*%
%TO.N,unconnected-(U2-Pad28)*%
X114000000Y-95087500D03*
%TO.P,U2,29,PA8*%
%TO.N,unconnected-(U2-Pad29)*%
X113500000Y-95087500D03*
%TO.P,U2,30,PA9*%
%TO.N,/USART-TX*%
X113000000Y-95087500D03*
%TO.P,U2,31,PA10*%
%TO.N,/USART-RX*%
X112500000Y-95087500D03*
%TO.P,U2,32,PA11*%
%TO.N,/USB-DN*%
X112000000Y-95087500D03*
%TO.P,U2,33,PA12*%
%TO.N,/USB-DP*%
X111500000Y-95087500D03*
%TO.P,U2,34,PA13*%
%TO.N,/SWDIO*%
X111000000Y-95087500D03*
%TO.P,U2,35,PF6*%
%TO.N,GND*%
X110500000Y-95087500D03*
%TO.P,U2,36,PF7*%
%TO.N,+3V3*%
X110000000Y-95087500D03*
D21*
%TO.P,U2,37,PA14*%
%TO.N,/SWCLK*%
X108587500Y-96500000D03*
%TO.P,U2,38,PA15*%
%TO.N,unconnected-(U2-Pad38)*%
X108587500Y-97000000D03*
%TO.P,U2,39,PB3*%
%TO.N,/SWO*%
X108587500Y-97500000D03*
%TO.P,U2,40,PB4*%
%TO.N,unconnected-(U2-Pad40)*%
X108587500Y-98000000D03*
%TO.P,U2,41,PB5*%
%TO.N,unconnected-(U2-Pad41)*%
X108587500Y-98500000D03*
%TO.P,U2,42,PB6*%
%TO.N,unconnected-(U2-Pad42)*%
X108587500Y-99000000D03*
%TO.P,U2,43,PB7*%
%TO.N,unconnected-(U2-Pad43)*%
X108587500Y-99500000D03*
%TO.P,U2,44,BOOT0*%
%TO.N,/BOOT0*%
X108587500Y-100000000D03*
%TO.P,U2,45,PB8*%
%TO.N,Net-(R15-Pad2)*%
X108587500Y-100500000D03*
%TO.P,U2,46,PB9*%
%TO.N,Net-(D1-Pad2)*%
X108587500Y-101000000D03*
%TO.P,U2,47,VSS*%
%TO.N,GND*%
X108587500Y-101500000D03*
%TO.P,U2,48,VDD*%
%TO.N,+3V3*%
X108587500Y-102000000D03*
%TD*%
D22*
%TO.P,C6,1*%
%TO.N,/VIN*%
X106250000Y-92275000D03*
%TO.P,C6,2*%
%TO.N,GND*%
X106250000Y-90725000D03*
%TD*%
D23*
%TO.P,R4,1*%
%TO.N,GND*%
X122075000Y-101500000D03*
%TO.P,R4,2*%
%TO.N,Net-(C12-Pad1)*%
X120425000Y-101500000D03*
%TD*%
D19*
%TO.P,FB1,1*%
%TO.N,+3.3VA*%
X106250000Y-98787500D03*
%TO.P,FB1,2*%
%TO.N,Net-(U1-Pad7)*%
X106250000Y-97212500D03*
%TD*%
D22*
%TO.P,C3,1*%
%TO.N,Net-(C3-Pad1)*%
X104750000Y-92275000D03*
%TO.P,C3,2*%
%TO.N,GND*%
X104750000Y-90725000D03*
%TD*%
D18*
%TO.P,C2,1*%
%TO.N,/OSCOUT*%
X109725000Y-106500000D03*
%TO.P,C2,2*%
%TO.N,GND*%
X111275000Y-106500000D03*
%TD*%
D10*
%TO.P,R10,1*%
%TO.N,/PTT2*%
X115000000Y-105425000D03*
%TO.P,R10,2*%
%TO.N,Net-(Q1-Pad2)*%
X115000000Y-107075000D03*
%TD*%
D22*
%TO.P,C4,1*%
%TO.N,+3V3*%
X107750000Y-95275000D03*
%TO.P,C4,2*%
%TO.N,GND*%
X107750000Y-93725000D03*
%TD*%
D13*
%TO.P,R1,1*%
%TO.N,+3V3*%
X109925000Y-92000000D03*
%TO.P,R1,2*%
%TO.N,/USB-DP*%
X111575000Y-92000000D03*
%TD*%
D17*
%TO.P,C5,1*%
%TO.N,Net-(U1-Pad7)*%
X104750000Y-97225000D03*
%TO.P,C5,2*%
%TO.N,GND*%
X104750000Y-98775000D03*
%TD*%
D24*
%TO.P,Q1,1,E1*%
%TO.N,GND*%
X114800000Y-108850000D03*
%TO.P,Q1,2,B1*%
%TO.N,Net-(Q1-Pad2)*%
X114800000Y-109500000D03*
%TO.P,Q1,3,C2*%
%TO.N,Net-(Q1-Pad3)*%
X114800000Y-110150000D03*
%TO.P,Q1,4,E2*%
%TO.N,GND*%
X116700000Y-110150000D03*
%TO.P,Q1,5,B2*%
%TO.N,Net-(Q1-Pad5)*%
X116700000Y-109500000D03*
%TO.P,Q1,6,C1*%
%TO.N,Net-(Q1-Pad6)*%
X116700000Y-108850000D03*
%TD*%
D18*
%TO.P,C14,1*%
%TO.N,Net-(C14-Pad1)*%
X120975000Y-90500000D03*
%TO.P,C14,2*%
%TO.N,/RADIO-SPK*%
X122525000Y-90500000D03*
%TD*%
D13*
%TO.P,R5,1*%
%TO.N,/AFIN*%
X117925000Y-90500000D03*
%TO.P,R5,2*%
%TO.N,Net-(C14-Pad1)*%
X119575000Y-90500000D03*
%TD*%
D17*
%TO.P,C15,1*%
%TO.N,/NRST*%
X112600000Y-108725000D03*
%TO.P,C15,2*%
%TO.N,GND*%
X112600000Y-110275000D03*
%TD*%
D18*
%TO.P,C7,1*%
%TO.N,+3V3*%
X118975000Y-100000000D03*
%TO.P,C7,2*%
%TO.N,GND*%
X120525000Y-100000000D03*
%TD*%
D25*
%TO.P,J2,1,Pin_1*%
%TO.N,/BOOT0*%
X105250000Y-88770000D03*
D26*
%TO.P,J2,2,Pin_2*%
%TO.N,+3V3*%
X105250000Y-87500000D03*
%TO.P,J2,3,Pin_3*%
%TO.N,/SWCLK*%
X105250000Y-86230000D03*
%TO.P,J2,4,Pin_4*%
%TO.N,GND*%
X105250000Y-84960000D03*
%TO.P,J2,5,Pin_5*%
%TO.N,/SWDIO*%
X105250000Y-83690000D03*
%TO.P,J2,6,Pin_6*%
%TO.N,/NRST*%
X105250000Y-82420000D03*
%TO.P,J2,7,Pin_7*%
%TO.N,/SWO*%
X105250000Y-81150000D03*
%TD*%
D17*
%TO.P,C8,1*%
%TO.N,+3V3*%
X108250000Y-103225000D03*
%TO.P,C8,2*%
%TO.N,GND*%
X108250000Y-104775000D03*
%TD*%
D27*
%TO.P,U1,1,VIN*%
%TO.N,/VIN*%
X106250000Y-93775000D03*
%TO.P,U1,2,GND*%
%TO.N,GND*%
X105750000Y-93775000D03*
%TO.P,U1,3,BYP*%
%TO.N,Net-(C3-Pad1)*%
X105250000Y-93775000D03*
%TO.P,U1,4,EN2*%
%TO.N,/VIN*%
X104750000Y-93775000D03*
%TO.P,U1,5,EN1*%
X104750000Y-95725000D03*
%TO.P,U1,6*%
%TO.N,N/C*%
X105250000Y-95725000D03*
%TO.P,U1,7,VOUT2*%
%TO.N,Net-(U1-Pad7)*%
X105750000Y-95725000D03*
%TO.P,U1,8,VOUT1*%
%TO.N,+3V3*%
X106250000Y-95725000D03*
D28*
%TO.P,U1,9,GND*%
%TO.N,GND*%
X105500000Y-94750000D03*
%TD*%
D13*
%TO.P,R16,1*%
%TO.N,+3.3VA*%
X117925000Y-92000000D03*
%TO.P,R16,2*%
%TO.N,/AFIN*%
X119575000Y-92000000D03*
%TD*%
%TO.P,R3,1*%
%TO.N,GND*%
X117925000Y-95000000D03*
%TO.P,R3,2*%
%TO.N,/AFIN*%
X119575000Y-95000000D03*
%TD*%
D22*
%TO.P,C10,1*%
%TO.N,+3.3VA*%
X116250000Y-92775000D03*
%TO.P,C10,2*%
%TO.N,GND*%
X116250000Y-91225000D03*
%TD*%
D13*
%TO.P,R14,1*%
%TO.N,GND*%
X104675000Y-100500000D03*
%TO.P,R14,2*%
%TO.N,/BOOT0*%
X106325000Y-100500000D03*
%TD*%
D10*
%TO.P,R6,1*%
%TO.N,GND*%
X117750000Y-83175000D03*
%TO.P,R6,2*%
%TO.N,Net-(J1-PadB5)*%
X117750000Y-84825000D03*
%TD*%
D29*
%TO.P,H1,1*%
%TO.N,N/C*%
X118250000Y-81250000D03*
%TD*%
D17*
%TO.P,C13,1*%
%TO.N,Net-(C12-Pad1)*%
X119500000Y-105475000D03*
%TO.P,C13,2*%
%TO.N,/RADIO-MIC*%
X119500000Y-107025000D03*
%TD*%
D30*
%TO.P,Y1,1,1*%
%TO.N,/OSCIN*%
X106150000Y-109250000D03*
%TO.P,Y1,2,2*%
%TO.N,/OSCOUT*%
X109850000Y-109250000D03*
%TD*%
D10*
%TO.P,R12,1*%
%TO.N,/RADIO-VP-PTT2*%
X118000000Y-105425000D03*
%TO.P,R12,2*%
%TO.N,Net-(Q1-Pad6)*%
X118000000Y-107075000D03*
%TD*%
D31*
%TO.P,R7,1*%
%TO.N,GND*%
X117750000Y-87825000D03*
%TO.P,R7,2*%
%TO.N,Net-(J1-PadA5)*%
X117750000Y-86175000D03*
%TD*%
D32*
%TO.N,GND*%
X116500000Y-103750000D03*
X115500000Y-97500000D03*
X113000000Y-83500000D03*
X105800000Y-94750000D03*
X116500000Y-94500000D03*
X118950000Y-83250000D03*
X104500000Y-108500000D03*
X115000000Y-102000000D03*
X116500000Y-102750000D03*
X113000000Y-96500000D03*
X110000000Y-100250000D03*
X118950000Y-84750000D03*
X109250000Y-103750000D03*
X112250000Y-102000000D03*
X107250000Y-89750000D03*
X111500000Y-108500000D03*
X112000000Y-97500000D03*
X105250000Y-89769502D03*
X105500000Y-98000000D03*
D33*
X123250000Y-100000000D03*
D32*
X110000000Y-98250000D03*
X114000000Y-99000000D03*
X116000000Y-83500000D03*
X113750000Y-110500000D03*
X109250000Y-102750000D03*
X114500000Y-101000000D03*
X113750000Y-109500000D03*
X106999730Y-83498631D03*
X105500000Y-99750000D03*
X110000000Y-101000000D03*
X104500000Y-110000000D03*
X117000000Y-90150000D03*
X114000000Y-92000000D03*
X113000000Y-97500000D03*
X113000000Y-102000000D03*
X106250000Y-89750000D03*
X107250000Y-104750000D03*
D33*
X121750000Y-100000000D03*
D32*
X116500000Y-95500000D03*
X111500000Y-110000000D03*
X114750000Y-98250000D03*
X115750000Y-110000000D03*
X114000000Y-96500000D03*
X116250000Y-90150000D03*
X113750000Y-108500000D03*
X114499130Y-83499207D03*
X112000000Y-96500000D03*
X108500000Y-83500000D03*
X105200000Y-94750000D03*
X111500000Y-83500000D03*
D33*
X123250000Y-101500000D03*
D32*
X115500000Y-99000000D03*
X111000000Y-96500000D03*
X115500000Y-101000000D03*
X111500000Y-102000000D03*
X118950000Y-86250000D03*
X109250000Y-104750000D03*
X115500000Y-92000000D03*
X118950000Y-87750000D03*
X110000000Y-83500000D03*
%TO.N,/SWCLK*%
X109299068Y-93000472D03*
%TO.N,/SWDIO*%
X110098525Y-92991979D03*
%TO.N,/USB-DP*%
X111350000Y-86250000D03*
X111350000Y-90500000D03*
X111350000Y-93250000D03*
%TO.N,/USB-DN*%
X112150000Y-86250000D03*
X112150000Y-90500000D03*
X112150000Y-93250000D03*
%TO.N,+3V3*%
X110274500Y-97000000D03*
X110750000Y-97500000D03*
X109000000Y-92250000D03*
X107250000Y-96650000D03*
X107250000Y-97350000D03*
%TO.N,+3.3VA*%
X111750000Y-99250000D03*
X112500000Y-99250000D03*
X107250000Y-99250000D03*
X111750000Y-100750000D03*
X107250000Y-98550000D03*
X112500000Y-100750000D03*
%TO.N,Net-(J1-PadA5)*%
X113750000Y-85750000D03*
X112899500Y-89942499D03*
%TO.N,/RADIO-RX-PTT1*%
X118750000Y-109500000D03*
X119550000Y-89350000D03*
%TO.N,/RADIO-TX*%
X118950000Y-88750000D03*
D33*
X118776040Y-98783914D03*
D32*
%TO.N,/NRST*%
X112600000Y-107750000D03*
%TO.N,/SWO*%
X110000000Y-93799503D03*
%TO.N,/BOOT0*%
X105500000Y-101250000D03*
%TO.N,Net-(D1-Pad1)*%
X105500000Y-104250000D03*
%TO.N,Net-(D1-Pad2)*%
X105500000Y-102750000D03*
%TD*%
D34*
%TO.N,/SWCLK*%
X109299068Y-93000472D02*
X109050000Y-93249540D01*
X109050000Y-93249540D02*
X109050000Y-95750000D01*
X109050000Y-95750000D02*
X108587500Y-96212500D01*
X108587500Y-96212500D02*
X108587500Y-96500000D01*
%TO.N,+3V3*%
X108600000Y-94900000D02*
X108600000Y-92650000D01*
X108225000Y-95275000D02*
X108600000Y-94900000D01*
X107750000Y-95275000D02*
X108225000Y-95275000D01*
%TO.N,GND*%
X108750000Y-89020000D02*
X108750000Y-88416813D01*
D35*
X113500000Y-102500000D02*
X113500000Y-103412500D01*
D34*
X105750000Y-93775000D02*
X105750000Y-94700000D01*
D35*
X113000000Y-102000000D02*
X113500000Y-102500000D01*
D34*
X105750000Y-94700000D02*
X105800000Y-94750000D01*
D35*
X109500000Y-101500000D02*
X110000000Y-101000000D01*
D34*
X114500000Y-87320000D02*
X114500000Y-87916813D01*
X109000000Y-87320000D02*
X109000000Y-88166813D01*
X114500000Y-87916813D02*
X114250000Y-88166813D01*
X114250000Y-89020000D02*
X114250000Y-88166813D01*
X108750000Y-88416813D02*
X109000000Y-88166813D01*
D35*
X108587500Y-101500000D02*
X109500000Y-101500000D01*
D34*
%TO.N,/OSCIN*%
X106275000Y-109125000D02*
X106150000Y-109250000D01*
X111363604Y-105000000D02*
X109972183Y-105000000D01*
X108472183Y-106500000D02*
X106275000Y-106500000D01*
X112000000Y-104363604D02*
X111363604Y-105000000D01*
X106275000Y-106500000D02*
X106275000Y-109125000D01*
X112000000Y-103412500D02*
X112000000Y-104363604D01*
X109972183Y-105000000D02*
X108472183Y-106500000D01*
%TO.N,/OSCOUT*%
X112500000Y-104500000D02*
X111550000Y-105450000D01*
X111550000Y-105450000D02*
X110158579Y-105450000D01*
X109750000Y-106500000D02*
X109750000Y-109150000D01*
X110158579Y-105450000D02*
X109725000Y-105883579D01*
X109725000Y-105883579D02*
X109725000Y-106500000D01*
X112500000Y-103412500D02*
X112500000Y-104500000D01*
X109750000Y-109150000D02*
X109850000Y-109250000D01*
%TO.N,/SWDIO*%
X110098525Y-92991979D02*
X111000000Y-93893454D01*
X111000000Y-93893454D02*
X111000000Y-95087500D01*
%TO.N,/USB-DP*%
X111575000Y-92625000D02*
X111575000Y-92000000D01*
D35*
X111350000Y-90380761D02*
X111350000Y-90500000D01*
X111500000Y-87320000D02*
X111500000Y-86400000D01*
D34*
X111350000Y-93250000D02*
X111350000Y-92850000D01*
D35*
X111500000Y-86400000D02*
X111350000Y-86250000D01*
D34*
X111350000Y-92850000D02*
X111575000Y-92625000D01*
D35*
X111500000Y-95087500D02*
X111500000Y-93400000D01*
X111750000Y-89020000D02*
X111750000Y-89980761D01*
X111500000Y-93400000D02*
X111350000Y-93250000D01*
X111750000Y-89980761D02*
X111350000Y-90380761D01*
%TO.N,/USB-DN*%
X112000000Y-95087500D02*
X112000000Y-93400000D01*
X110700000Y-90769239D02*
X111080761Y-91150000D01*
X112000000Y-86400000D02*
X112150000Y-86250000D01*
X111619239Y-91150000D02*
X112150000Y-90619239D01*
X111080761Y-91150000D02*
X111619239Y-91150000D01*
X112000000Y-87320000D02*
X112000000Y-86400000D01*
X111250000Y-89020000D02*
X111250000Y-89680761D01*
X112000000Y-93400000D02*
X112150000Y-93250000D01*
X110700000Y-90230761D02*
X110700000Y-90769239D01*
X111250000Y-89680761D02*
X110700000Y-90230761D01*
X112150000Y-90619239D02*
X112150000Y-90500000D01*
D34*
%TO.N,Net-(C3-Pad1)*%
X105250000Y-93775000D02*
X105250000Y-93250000D01*
X105250000Y-93250000D02*
X104750000Y-92750000D01*
X104750000Y-92750000D02*
X104750000Y-92275000D01*
%TO.N,+3V3*%
X110100000Y-96850000D02*
X110750000Y-97500000D01*
D35*
X110000000Y-102250000D02*
X110500000Y-101750000D01*
X110800000Y-99300000D02*
X110800000Y-101450000D01*
D34*
X108250000Y-102750000D02*
X108587500Y-102412500D01*
X106525000Y-95725000D02*
X107000000Y-95250000D01*
D35*
X110250000Y-102000000D02*
X108587500Y-102000000D01*
X110800000Y-99550000D02*
X110800000Y-99300000D01*
D34*
X109250000Y-92000000D02*
X109925000Y-92000000D01*
D36*
X107250000Y-96250000D02*
X107750000Y-95750000D01*
D34*
X107725000Y-95250000D02*
X107750000Y-95275000D01*
X109000000Y-92250000D02*
X108600000Y-92650000D01*
X110000000Y-95087500D02*
X110000000Y-95972919D01*
D35*
X110274500Y-97000000D02*
X110800000Y-97525500D01*
X116912500Y-100000000D02*
X111250000Y-100000000D01*
X111250000Y-100000000D02*
X110800000Y-99550000D01*
D36*
X107250000Y-97350000D02*
X107250000Y-96250000D01*
D35*
X110800000Y-97525500D02*
X110800000Y-99300000D01*
D34*
X108600000Y-92650000D02*
X109250000Y-92000000D01*
X106250000Y-95725000D02*
X106525000Y-95725000D01*
D36*
X107750000Y-95750000D02*
X107750000Y-95275000D01*
D35*
X116912500Y-100000000D02*
X118975000Y-100000000D01*
X110500000Y-101750000D02*
X110250000Y-102000000D01*
D34*
X110000000Y-95972919D02*
X110100000Y-96072919D01*
X108250000Y-103225000D02*
X108250000Y-102750000D01*
X107000000Y-95250000D02*
X107725000Y-95250000D01*
D35*
X110000000Y-103412500D02*
X110000000Y-102250000D01*
X110800000Y-101450000D02*
X110500000Y-101750000D01*
D34*
X110100000Y-96072919D02*
X110100000Y-96850000D01*
X108587500Y-102412500D02*
X108587500Y-102000000D01*
D36*
%TO.N,+3.3VA*%
X107250000Y-98550000D02*
X107250000Y-99000000D01*
D35*
X116000000Y-96500000D02*
X115250000Y-96500000D01*
X112500000Y-100750000D02*
X113000000Y-100750000D01*
D36*
X112500000Y-100750000D02*
X111750000Y-100750000D01*
D35*
X114000000Y-103412500D02*
X114000000Y-104500000D01*
X115500000Y-95087500D02*
X115500000Y-96250000D01*
X116912500Y-96500000D02*
X116000000Y-96500000D01*
X113000000Y-100750000D02*
X114000000Y-101750000D01*
D36*
X107037500Y-98787500D02*
X107250000Y-99000000D01*
D34*
X116250000Y-92250000D02*
X116250000Y-92775000D01*
D35*
X115250000Y-96500000D02*
X113250000Y-98500000D01*
X116250000Y-93500000D02*
X116250000Y-92862500D01*
D34*
X117925000Y-92000000D02*
X116500000Y-92000000D01*
D36*
X112500000Y-99250000D02*
X111750000Y-99250000D01*
D35*
X113250000Y-98500000D02*
X112500000Y-99250000D01*
X113500000Y-105000000D02*
X113500000Y-105387500D01*
X115500000Y-95087500D02*
X115500000Y-94250000D01*
X114000000Y-101750000D02*
X114000000Y-103412500D01*
D36*
X106250000Y-98787500D02*
X107037500Y-98787500D01*
D34*
X116500000Y-92000000D02*
X116250000Y-92250000D01*
D36*
X107250000Y-99000000D02*
X107250000Y-99250000D01*
D35*
X115500000Y-94250000D02*
X116250000Y-93500000D01*
X114000000Y-104500000D02*
X113500000Y-105000000D01*
X115500000Y-96250000D02*
X115250000Y-96500000D01*
D34*
%TO.N,/VIN*%
X103950000Y-91800000D02*
X104250000Y-91500000D01*
X103950000Y-93700000D02*
X103950000Y-91800000D01*
D36*
X106262500Y-92287500D02*
X106250000Y-92275000D01*
D34*
X104025000Y-93775000D02*
X103950000Y-93700000D01*
D36*
X107750000Y-92287500D02*
X106262500Y-92287500D01*
D34*
X104250000Y-91500000D02*
X106000000Y-91500000D01*
X103950000Y-95450000D02*
X103950000Y-93700000D01*
X104750000Y-93775000D02*
X104025000Y-93775000D01*
X106000000Y-91500000D02*
X106250000Y-91750000D01*
X106250000Y-91750000D02*
X106250000Y-92275000D01*
X104000000Y-95500000D02*
X103950000Y-95450000D01*
X106250000Y-93775000D02*
X106250000Y-92275000D01*
X104750000Y-95725000D02*
X104225000Y-95725000D01*
X104225000Y-95725000D02*
X104000000Y-95500000D01*
D35*
%TO.N,/VBUS*%
X110500000Y-88040000D02*
X113000000Y-88040000D01*
X109257500Y-90712500D02*
X108250000Y-90712500D01*
X110250000Y-89020000D02*
X110250000Y-89720000D01*
X110500000Y-87320000D02*
X110500000Y-88040000D01*
X110500000Y-88040000D02*
X110250000Y-88290000D01*
X112750000Y-89020000D02*
X112750000Y-88290000D01*
X113000000Y-87320000D02*
X113000000Y-88040000D01*
X112750000Y-88290000D02*
X113000000Y-88040000D01*
X110250000Y-89020000D02*
X110250000Y-88290000D01*
X110250000Y-89720000D02*
X109257500Y-90712500D01*
X112750000Y-88290000D02*
X110250000Y-88290000D01*
D34*
%TO.N,Net-(C12-Pad1)*%
X120400000Y-103075000D02*
X120475000Y-103000000D01*
X119500000Y-105475000D02*
X119500000Y-104500000D01*
D35*
X120425000Y-102962500D02*
X120387500Y-103000000D01*
D34*
X119000000Y-104000000D02*
X119000000Y-103075000D01*
X119000000Y-103075000D02*
X120400000Y-103075000D01*
X119500000Y-104500000D02*
X119000000Y-104000000D01*
D35*
X120425000Y-101500000D02*
X120425000Y-102962500D01*
D34*
%TO.N,Net-(C14-Pad1)*%
X120975000Y-90500000D02*
X119575000Y-90500000D01*
%TO.N,Net-(J1-PadB5)*%
X111000000Y-86783884D02*
X111000000Y-87320000D01*
X111425000Y-84825000D02*
X110725000Y-85525000D01*
X110725000Y-85525000D02*
X110725000Y-86508884D01*
X117750000Y-84825000D02*
X111425000Y-84825000D01*
X110725000Y-86508884D02*
X111000000Y-86783884D01*
%TO.N,Net-(J1-PadA5)*%
X112649500Y-89942499D02*
X112250000Y-89542999D01*
X112250000Y-89542999D02*
X112250000Y-89020000D01*
X114075000Y-85425000D02*
X116175000Y-85425000D01*
X116925000Y-86175000D02*
X117750000Y-86175000D01*
X113750000Y-85750000D02*
X114075000Y-85425000D01*
X116175000Y-85425000D02*
X116925000Y-86175000D01*
%TO.N,/USART-RX*%
X112500000Y-94113604D02*
X113250000Y-93363604D01*
X113250000Y-93363604D02*
X113250000Y-92912500D01*
X112500000Y-95087500D02*
X112500000Y-94113604D01*
%TO.N,Net-(Q1-Pad3)*%
X117162500Y-110750000D02*
X117500000Y-110412500D01*
X114800000Y-110150000D02*
X114800000Y-110550000D01*
X114800000Y-110550000D02*
X115000000Y-110750000D01*
X115000000Y-110750000D02*
X117162500Y-110750000D01*
X117500000Y-110412500D02*
X118000000Y-110412500D01*
%TO.N,Net-(Q1-Pad6)*%
X117925000Y-107075000D02*
X118000000Y-107075000D01*
X116700000Y-108850000D02*
X116700000Y-108300000D01*
X116700000Y-108300000D02*
X117925000Y-107075000D01*
%TO.N,/USART-TX*%
X113500000Y-93750000D02*
X114500000Y-93750000D01*
X114750000Y-93500000D02*
X114750000Y-92912500D01*
X113000000Y-94250000D02*
X113500000Y-93750000D01*
X114500000Y-93750000D02*
X114750000Y-93500000D01*
X113000000Y-95087500D02*
X113000000Y-94250000D01*
%TO.N,/PTT1*%
X116500000Y-104750000D02*
X116500000Y-105337500D01*
X115250000Y-104500000D02*
X116250000Y-104500000D01*
X116250000Y-104500000D02*
X116500000Y-104750000D01*
X115000000Y-104250000D02*
X115250000Y-104500000D01*
X115000000Y-103412500D02*
X115000000Y-104250000D01*
%TO.N,/PTT2*%
X115000000Y-104886396D02*
X115000000Y-105425000D01*
X114500000Y-103412500D02*
X114500000Y-104386396D01*
X114500000Y-104386396D02*
X115000000Y-104886396D01*
D35*
%TO.N,/AFIN*%
X118750000Y-96600000D02*
X119575000Y-95775000D01*
D34*
X118750000Y-91750000D02*
X119000000Y-92000000D01*
X118500000Y-90500000D02*
X118750000Y-90750000D01*
X119000000Y-92000000D02*
X119575000Y-92000000D01*
D35*
X119575000Y-95775000D02*
X119575000Y-92000000D01*
D34*
X117925000Y-90500000D02*
X118500000Y-90500000D01*
D35*
X118750000Y-97750000D02*
X118750000Y-96600000D01*
X118000000Y-98500000D02*
X118750000Y-97750000D01*
X116912500Y-98500000D02*
X118000000Y-98500000D01*
D34*
X118750000Y-90750000D02*
X118750000Y-91750000D01*
%TO.N,/RADIO-MIC*%
X119500000Y-107025000D02*
X119500000Y-107750000D01*
X119500000Y-107750000D02*
X120000000Y-108250000D01*
X120000000Y-108250000D02*
X120000000Y-109750000D01*
%TO.N,/RADIO-SPK*%
X122525000Y-93225000D02*
X122500000Y-93250000D01*
X122525000Y-90500000D02*
X122525000Y-93225000D01*
%TO.N,/AFOUT*%
X118925000Y-101500000D02*
X119000000Y-101425000D01*
X116912500Y-101500000D02*
X118925000Y-101500000D01*
%TO.N,/RADIO-RX-PTT1*%
X119525000Y-89375000D02*
X118691116Y-89375000D01*
X118691116Y-89375000D02*
X118516116Y-89200000D01*
X116166116Y-89200000D02*
X114750000Y-90616116D01*
X118250000Y-109500000D02*
X118000000Y-109250000D01*
X119550000Y-89350000D02*
X119525000Y-89375000D01*
X114750000Y-90616116D02*
X114750000Y-91087500D01*
X118750000Y-109500000D02*
X118250000Y-109500000D01*
X118516116Y-89200000D02*
X116166116Y-89200000D01*
X118000000Y-109250000D02*
X118000000Y-108587500D01*
%TO.N,/RADIO-TX*%
X118950000Y-88750000D02*
X115979720Y-88750000D01*
X113500000Y-90250000D02*
X113250000Y-90500000D01*
X119309954Y-98250000D02*
X120450000Y-98250000D01*
X114479720Y-90250000D02*
X113500000Y-90250000D01*
X118776040Y-98783914D02*
X119309954Y-98250000D01*
X113250000Y-90500000D02*
X113250000Y-91087500D01*
X115979720Y-88750000D02*
X114479720Y-90250000D01*
%TO.N,/RADIO-VP-PTT2*%
X118250000Y-106250000D02*
X122000000Y-106250000D01*
X118000000Y-105337500D02*
X118000000Y-106000000D01*
X118000000Y-106000000D02*
X118250000Y-106250000D01*
%TO.N,/NRST*%
X112600000Y-108725000D02*
X112600000Y-107750000D01*
X113000000Y-104722183D02*
X112600000Y-105122183D01*
X112600000Y-107250000D02*
X112600000Y-107750000D01*
X113000000Y-103412500D02*
X113000000Y-104722183D01*
X112600000Y-105122183D02*
X112600000Y-107400000D01*
%TO.N,/SWO*%
X109650000Y-97240685D02*
X109390685Y-97500000D01*
X109500000Y-96109315D02*
X109650000Y-96259315D01*
X109500000Y-94000000D02*
X109500000Y-96109315D01*
X109700497Y-93799503D02*
X109500000Y-94000000D01*
X109390685Y-97500000D02*
X108587500Y-97500000D01*
X109650000Y-96259315D02*
X109650000Y-97240685D01*
X110000000Y-93799503D02*
X109700497Y-93799503D01*
%TO.N,/BOOT0*%
X107363604Y-100000000D02*
X106863604Y-100500000D01*
X108587500Y-100000000D02*
X107363604Y-100000000D01*
X106863604Y-100500000D02*
X106325000Y-100500000D01*
X105500000Y-101250000D02*
X106250000Y-100500000D01*
X106250000Y-100500000D02*
X106325000Y-100500000D01*
%TO.N,Net-(D1-Pad1)*%
X105250000Y-105000000D02*
X104712500Y-105000000D01*
X105500000Y-104750000D02*
X105250000Y-105000000D01*
X104712500Y-105050000D02*
X104712500Y-102087500D01*
X105500000Y-104250000D02*
X105500000Y-104750000D01*
X104712500Y-102087500D02*
X104675000Y-102050000D01*
%TO.N,Net-(D1-Pad2)*%
X106287500Y-105050000D02*
X106287500Y-103550000D01*
X107000000Y-103500000D02*
X106287500Y-103500000D01*
X107250000Y-103250000D02*
X107000000Y-103500000D01*
X107250000Y-102286396D02*
X107250000Y-103250000D01*
X105750000Y-103500000D02*
X106287500Y-103500000D01*
X105500000Y-103250000D02*
X105750000Y-103500000D01*
X107525000Y-102011396D02*
X107250000Y-102286396D01*
X105500000Y-102750000D02*
X105500000Y-103250000D01*
X107525000Y-101111396D02*
X107525000Y-102011396D01*
X108587500Y-101000000D02*
X107636396Y-101000000D01*
X107636396Y-101000000D02*
X107525000Y-101111396D01*
%TO.N,Net-(R15-Pad2)*%
X106900000Y-102000000D02*
X106325000Y-102000000D01*
X108587500Y-100500000D02*
X107500000Y-100500000D01*
X107500000Y-100500000D02*
X107075000Y-100925000D01*
X107075000Y-100925000D02*
X107075000Y-101825000D01*
X107075000Y-101825000D02*
X106900000Y-102000000D01*
%TO.N,Net-(Q1-Pad2)*%
X115000000Y-107075000D02*
X115000000Y-107750000D01*
X115224695Y-109500000D02*
X115500000Y-109224695D01*
X114800000Y-109500000D02*
X115224695Y-109500000D01*
X115000000Y-107750000D02*
X115500000Y-108250000D01*
X115500000Y-109224695D02*
X115500000Y-108250000D01*
%TO.N,Net-(Q1-Pad5)*%
X116700000Y-109500000D02*
X116310661Y-109500000D01*
X116000000Y-109189339D02*
X116000000Y-108250000D01*
X116500000Y-107075000D02*
X116500000Y-107750000D01*
X116310661Y-109500000D02*
X116000000Y-109189339D01*
X116500000Y-107750000D02*
X116000000Y-108250000D01*
%TO.N,Net-(U1-Pad7)*%
X105500000Y-96500000D02*
X105500000Y-97175000D01*
X105750000Y-95725000D02*
X105750000Y-96250000D01*
X105500000Y-97175000D02*
X105537500Y-97212500D01*
D36*
X106250000Y-97212500D02*
X105537500Y-97212500D01*
X105537500Y-97212500D02*
X104762500Y-97212500D01*
X104762500Y-97212500D02*
X104750000Y-97225000D01*
D34*
X105750000Y-96250000D02*
X105500000Y-96500000D01*
%TD*%
%TA.AperFunction,Conductor*%
%TO.N,/RADIO-MIC*%
G36*
X124187621Y-108520002D02*
G01*
X124234114Y-108573658D01*
X124245500Y-108626000D01*
X124245500Y-110874000D01*
X124225498Y-110942121D01*
X124171842Y-110988614D01*
X124119500Y-111000000D01*
X119762410Y-111000000D01*
X119737830Y-110997579D01*
X119713927Y-110992825D01*
X119678909Y-110985859D01*
X119633490Y-110967046D01*
X119613671Y-110953804D01*
X119594061Y-110940700D01*
X119559300Y-110905939D01*
X119546196Y-110886329D01*
X119532954Y-110866510D01*
X119514140Y-110821089D01*
X119502421Y-110762170D01*
X119500000Y-110737590D01*
X119500000Y-108762410D01*
X119502421Y-108737830D01*
X119514140Y-108678911D01*
X119532955Y-108633488D01*
X119537959Y-108626000D01*
X119559300Y-108594061D01*
X119594061Y-108559300D01*
X119613671Y-108546196D01*
X119633490Y-108532954D01*
X119678909Y-108514141D01*
X119713927Y-108507175D01*
X119737830Y-108502421D01*
X119762410Y-108500000D01*
X124119500Y-108500000D01*
X124187621Y-108520002D01*
G37*
%TD.AperFunction*%
%TD*%
%TA.AperFunction,Conductor*%
%TO.N,/RADIO-VP-PTT2*%
G36*
X124187621Y-104020002D02*
G01*
X124234114Y-104073658D01*
X124245500Y-104126000D01*
X124245500Y-107874000D01*
X124225498Y-107942121D01*
X124171842Y-107988614D01*
X124119500Y-108000000D01*
X120762410Y-108000000D01*
X120737830Y-107997579D01*
X120713927Y-107992825D01*
X120678909Y-107985859D01*
X120633490Y-107967046D01*
X120613671Y-107953804D01*
X120594061Y-107940700D01*
X120559300Y-107905939D01*
X120546196Y-107886329D01*
X120532954Y-107866510D01*
X120514140Y-107821089D01*
X120502421Y-107762170D01*
X120500000Y-107737590D01*
X120500000Y-104262410D01*
X120502421Y-104237830D01*
X120514140Y-104178911D01*
X120532955Y-104133488D01*
X120537959Y-104126000D01*
X120559300Y-104094061D01*
X120594061Y-104059300D01*
X120613671Y-104046196D01*
X120633490Y-104032954D01*
X120678909Y-104014141D01*
X120713927Y-104007175D01*
X120737830Y-104002421D01*
X120762410Y-104000000D01*
X124119500Y-104000000D01*
X124187621Y-104020002D01*
G37*
%TD.AperFunction*%
%TD*%
%TA.AperFunction,Conductor*%
%TO.N,/RADIO-TX*%
G36*
X124187621Y-96520002D02*
G01*
X124234114Y-96573658D01*
X124245500Y-96626000D01*
X124245500Y-98874000D01*
X124225498Y-98942121D01*
X124171842Y-98988614D01*
X124119500Y-99000000D01*
X119762410Y-99000000D01*
X119737830Y-98997579D01*
X119713927Y-98992825D01*
X119678909Y-98985859D01*
X119633490Y-98967046D01*
X119613671Y-98953804D01*
X119594061Y-98940700D01*
X119559300Y-98905939D01*
X119546196Y-98886329D01*
X119532954Y-98866510D01*
X119514140Y-98821089D01*
X119502421Y-98762170D01*
X119500000Y-98737590D01*
X119500000Y-96762410D01*
X119502421Y-96737830D01*
X119514140Y-96678911D01*
X119532955Y-96633488D01*
X119537959Y-96626000D01*
X119559300Y-96594061D01*
X119594061Y-96559300D01*
X119613671Y-96546196D01*
X119633490Y-96532954D01*
X119678909Y-96514141D01*
X119713927Y-96507175D01*
X119737830Y-96502421D01*
X119762410Y-96500000D01*
X124119500Y-96500000D01*
X124187621Y-96520002D01*
G37*
%TD.AperFunction*%
%TD*%
%TA.AperFunction,Conductor*%
%TO.N,/RADIO-SPK*%
G36*
X124187621Y-92020002D02*
G01*
X124234114Y-92073658D01*
X124245500Y-92126000D01*
X124245500Y-95874000D01*
X124225498Y-95942121D01*
X124171842Y-95988614D01*
X124119500Y-96000000D01*
X120762410Y-96000000D01*
X120737830Y-95997579D01*
X120713927Y-95992825D01*
X120678909Y-95985859D01*
X120633490Y-95967046D01*
X120613671Y-95953804D01*
X120594061Y-95940700D01*
X120559300Y-95905939D01*
X120546196Y-95886329D01*
X120532954Y-95866510D01*
X120514140Y-95821089D01*
X120502421Y-95762170D01*
X120500000Y-95737590D01*
X120500000Y-92262410D01*
X120502421Y-92237830D01*
X120514140Y-92178911D01*
X120532955Y-92133488D01*
X120537959Y-92126000D01*
X120559300Y-92094061D01*
X120594061Y-92059300D01*
X120613671Y-92046196D01*
X120633490Y-92032954D01*
X120678909Y-92014141D01*
X120713927Y-92007175D01*
X120737830Y-92002421D01*
X120762410Y-92000000D01*
X124119500Y-92000000D01*
X124187621Y-92020002D01*
G37*
%TD.AperFunction*%
%TD*%
%TA.AperFunction,Conductor*%
%TO.N,GND*%
G36*
X103869504Y-95829830D02*
G01*
X103981731Y-95942057D01*
X103987565Y-95948424D01*
X104012545Y-95978194D01*
X104046205Y-95997627D01*
X104053489Y-96002268D01*
X104085316Y-96024554D01*
X104093684Y-96026796D01*
X104098971Y-96029262D01*
X104104456Y-96031258D01*
X104111955Y-96035588D01*
X104120481Y-96037091D01*
X104120483Y-96037092D01*
X104150216Y-96042334D01*
X104158650Y-96044204D01*
X104196193Y-96054264D01*
X104204822Y-96053509D01*
X104234905Y-96050877D01*
X104243534Y-96050500D01*
X104340687Y-96050500D01*
X104398878Y-96069407D01*
X104434842Y-96118907D01*
X104437785Y-96130188D01*
X104439760Y-96140117D01*
X104497888Y-96227112D01*
X104584883Y-96285240D01*
X104661599Y-96300500D01*
X104750000Y-96300500D01*
X104838400Y-96300499D01*
X104850521Y-96298088D01*
X104905551Y-96287143D01*
X104905553Y-96287142D01*
X104915117Y-96285240D01*
X104945001Y-96265272D01*
X105003886Y-96248664D01*
X105054999Y-96265272D01*
X105084883Y-96285240D01*
X105108195Y-96289877D01*
X105161579Y-96319773D01*
X105187196Y-96375338D01*
X105186378Y-96404162D01*
X105183165Y-96422386D01*
X105182666Y-96425218D01*
X105180796Y-96433650D01*
X105170736Y-96471193D01*
X105171491Y-96479822D01*
X105170736Y-96488451D01*
X105167005Y-96488125D01*
X105157034Y-96531361D01*
X105110866Y-96571513D01*
X105056677Y-96578173D01*
X105033488Y-96574500D01*
X104466512Y-96574500D01*
X104462668Y-96575109D01*
X104462666Y-96575109D01*
X104374569Y-96589062D01*
X104374568Y-96589062D01*
X104366874Y-96590281D01*
X104359935Y-96593817D01*
X104359934Y-96593817D01*
X104253719Y-96647936D01*
X104253717Y-96647937D01*
X104246780Y-96651472D01*
X104151472Y-96746780D01*
X104090281Y-96866874D01*
X104089062Y-96874568D01*
X104089062Y-96874569D01*
X104075109Y-96962666D01*
X104074500Y-96966512D01*
X104074500Y-97483488D01*
X104075109Y-97487332D01*
X104075109Y-97487334D01*
X104087222Y-97563810D01*
X104090281Y-97583126D01*
X104093817Y-97590065D01*
X104093817Y-97590066D01*
X104147284Y-97695000D01*
X104151472Y-97703220D01*
X104246780Y-97798528D01*
X104253717Y-97802063D01*
X104253719Y-97802064D01*
X104351020Y-97851641D01*
X104366874Y-97859719D01*
X104374568Y-97860938D01*
X104374569Y-97860938D01*
X104462666Y-97874891D01*
X104462668Y-97874891D01*
X104466512Y-97875500D01*
X105033488Y-97875500D01*
X105037332Y-97874891D01*
X105037334Y-97874891D01*
X105125431Y-97860938D01*
X105125432Y-97860938D01*
X105133126Y-97859719D01*
X105148980Y-97851641D01*
X105246281Y-97802064D01*
X105246283Y-97802063D01*
X105253220Y-97798528D01*
X105348528Y-97703220D01*
X105349188Y-97701924D01*
X105396096Y-97667845D01*
X105426687Y-97663000D01*
X105591583Y-97663000D01*
X105649774Y-97681907D01*
X105661587Y-97691996D01*
X105744249Y-97774658D01*
X105751186Y-97778193D01*
X105751188Y-97778194D01*
X105855640Y-97831415D01*
X105862580Y-97834951D01*
X105870273Y-97836170D01*
X105870275Y-97836170D01*
X105956908Y-97849891D01*
X105956910Y-97849891D01*
X105960754Y-97850500D01*
X106539246Y-97850500D01*
X106543090Y-97849891D01*
X106543092Y-97849891D01*
X106629725Y-97836170D01*
X106629727Y-97836170D01*
X106637420Y-97834951D01*
X106644360Y-97831415D01*
X106748812Y-97778194D01*
X106748814Y-97778193D01*
X106755751Y-97774658D01*
X106789877Y-97740532D01*
X106844394Y-97712755D01*
X106904826Y-97722326D01*
X106914732Y-97728121D01*
X107032313Y-97806390D01*
X107112415Y-97831415D01*
X107162425Y-97847039D01*
X107162426Y-97847039D01*
X107169157Y-97849142D01*
X107240828Y-97850456D01*
X107305445Y-97851641D01*
X107305447Y-97851641D01*
X107312499Y-97851770D01*
X107319302Y-97849915D01*
X107319304Y-97849915D01*
X107403101Y-97827069D01*
X107450817Y-97814060D01*
X107503024Y-97782005D01*
X107562507Y-97767669D01*
X107619055Y-97791035D01*
X107651069Y-97843176D01*
X107651923Y-97885684D01*
X107649500Y-97897867D01*
X107649501Y-97996806D01*
X107649501Y-98030309D01*
X107630594Y-98088500D01*
X107581094Y-98124464D01*
X107519909Y-98124465D01*
X107496654Y-98113385D01*
X107471799Y-98097275D01*
X107462095Y-98090985D01*
X107324739Y-98049907D01*
X107241497Y-98049398D01*
X107188427Y-98049074D01*
X107188426Y-98049074D01*
X107181376Y-98049031D01*
X107174599Y-98050968D01*
X107174598Y-98050968D01*
X107050309Y-98086490D01*
X107050307Y-98086491D01*
X107043529Y-98088428D01*
X106922280Y-98164930D01*
X106895598Y-98195142D01*
X106883460Y-98208886D01*
X106830768Y-98239986D01*
X106769859Y-98234174D01*
X106757563Y-98227154D01*
X106755751Y-98225342D01*
X106637420Y-98165049D01*
X106629727Y-98163830D01*
X106629725Y-98163830D01*
X106543092Y-98150109D01*
X106543090Y-98150109D01*
X106539246Y-98149500D01*
X105960754Y-98149500D01*
X105956910Y-98150109D01*
X105956908Y-98150109D01*
X105870275Y-98163830D01*
X105870273Y-98163830D01*
X105862580Y-98165049D01*
X105855641Y-98168585D01*
X105855640Y-98168585D01*
X105751188Y-98221806D01*
X105751186Y-98221807D01*
X105744249Y-98225342D01*
X105650342Y-98319249D01*
X105646806Y-98326189D01*
X105646803Y-98326193D01*
X105601588Y-98414931D01*
X105558324Y-98458196D01*
X105497892Y-98467767D01*
X105443375Y-98439989D01*
X105419971Y-98402788D01*
X105400169Y-98346398D01*
X105393324Y-98333470D01*
X105322613Y-98237737D01*
X105312263Y-98227387D01*
X105216530Y-98156676D01*
X105203602Y-98149831D01*
X105090021Y-98109945D01*
X105078318Y-98107377D01*
X105055482Y-98105218D01*
X105050846Y-98105000D01*
X104940680Y-98105000D01*
X104927995Y-98109122D01*
X104925000Y-98113243D01*
X104925000Y-99429319D01*
X104929122Y-99442004D01*
X104933243Y-99444999D01*
X105050842Y-99444999D01*
X105055488Y-99444780D01*
X105078322Y-99442622D01*
X105090016Y-99440057D01*
X105203602Y-99400169D01*
X105216530Y-99393324D01*
X105312263Y-99322613D01*
X105322613Y-99312263D01*
X105393324Y-99216530D01*
X105400169Y-99203602D01*
X105414774Y-99162012D01*
X105451894Y-99113373D01*
X105510514Y-99095841D01*
X105568243Y-99116114D01*
X105596392Y-99149869D01*
X105645431Y-99246112D01*
X105650342Y-99255751D01*
X105744249Y-99349658D01*
X105751186Y-99353193D01*
X105751188Y-99353194D01*
X105852506Y-99404818D01*
X105862580Y-99409951D01*
X105870273Y-99411170D01*
X105870275Y-99411170D01*
X105956908Y-99424891D01*
X105956910Y-99424891D01*
X105960754Y-99425500D01*
X106539246Y-99425500D01*
X106543090Y-99424891D01*
X106543092Y-99424891D01*
X106629725Y-99411170D01*
X106629727Y-99411170D01*
X106637420Y-99409951D01*
X106644358Y-99406416D01*
X106644364Y-99406414D01*
X106655242Y-99400871D01*
X106715674Y-99391300D01*
X106770190Y-99419078D01*
X106790802Y-99449209D01*
X106811734Y-99496780D01*
X106820720Y-99517203D01*
X106860957Y-99565071D01*
X106908431Y-99621549D01*
X106908434Y-99621551D01*
X106912970Y-99626948D01*
X106918841Y-99630856D01*
X106918842Y-99630857D01*
X107030520Y-99705197D01*
X107068483Y-99753181D01*
X107070992Y-99814315D01*
X107045666Y-99857612D01*
X106954839Y-99948439D01*
X106900322Y-99976216D01*
X106839890Y-99966645D01*
X106814831Y-99948439D01*
X106763342Y-99896950D01*
X106756405Y-99893415D01*
X106756403Y-99893414D01*
X106657244Y-99842890D01*
X106657243Y-99842890D01*
X106650304Y-99839354D01*
X106642610Y-99838135D01*
X106642609Y-99838135D01*
X106560365Y-99825109D01*
X106560363Y-99825109D01*
X106556519Y-99824500D01*
X106325030Y-99824500D01*
X106093482Y-99824501D01*
X106089639Y-99825110D01*
X106089634Y-99825110D01*
X106052783Y-99830947D01*
X105999696Y-99839354D01*
X105963863Y-99857612D01*
X105893597Y-99893414D01*
X105893595Y-99893415D01*
X105886658Y-99896950D01*
X105796950Y-99986658D01*
X105739354Y-100099696D01*
X105738135Y-100107390D01*
X105738135Y-100107391D01*
X105725352Y-100188099D01*
X105724500Y-100193481D01*
X105724501Y-100375431D01*
X105724501Y-100524165D01*
X105705594Y-100582355D01*
X105695505Y-100594169D01*
X105569226Y-100720448D01*
X105514709Y-100748225D01*
X105498617Y-100749442D01*
X105438427Y-100749074D01*
X105438426Y-100749074D01*
X105431376Y-100749031D01*
X105424601Y-100750967D01*
X105424596Y-100750968D01*
X105415781Y-100753488D01*
X105354635Y-100751301D01*
X105306452Y-100713590D01*
X105294419Y-100688892D01*
X105290878Y-100677995D01*
X105286757Y-100675000D01*
X104070681Y-100675000D01*
X104057996Y-100679122D01*
X104055001Y-100683243D01*
X104055001Y-100804157D01*
X104055611Y-100811901D01*
X104069358Y-100898707D01*
X104074115Y-100913349D01*
X104127441Y-101018005D01*
X104136486Y-101030455D01*
X104219545Y-101113514D01*
X104231995Y-101122559D01*
X104330466Y-101172734D01*
X104373730Y-101215999D01*
X104383301Y-101276431D01*
X104355523Y-101330947D01*
X104330466Y-101349152D01*
X104327866Y-101350477D01*
X104243597Y-101393414D01*
X104243595Y-101393415D01*
X104236658Y-101396950D01*
X104146950Y-101486658D01*
X104143415Y-101493595D01*
X104143414Y-101493597D01*
X104093871Y-101590831D01*
X104089354Y-101599696D01*
X104088135Y-101607390D01*
X104088135Y-101607391D01*
X104075109Y-101689635D01*
X104074500Y-101693481D01*
X104074501Y-102306518D01*
X104075110Y-102310361D01*
X104075110Y-102310366D01*
X104079848Y-102340281D01*
X104089354Y-102400304D01*
X104103154Y-102427387D01*
X104142047Y-102503719D01*
X104146950Y-102513342D01*
X104236658Y-102603050D01*
X104243595Y-102606585D01*
X104243597Y-102606586D01*
X104332945Y-102652111D01*
X104376210Y-102695376D01*
X104387000Y-102740321D01*
X104387000Y-102766939D01*
X104368093Y-102825130D01*
X104332945Y-102855149D01*
X104251188Y-102896806D01*
X104251186Y-102896807D01*
X104244249Y-102900342D01*
X104150342Y-102994249D01*
X104090049Y-103112580D01*
X104074500Y-103210754D01*
X104074500Y-103789246D01*
X104075109Y-103793090D01*
X104075109Y-103793092D01*
X104088481Y-103877517D01*
X104090049Y-103887420D01*
X104093585Y-103894359D01*
X104093585Y-103894360D01*
X104143059Y-103991457D01*
X104150342Y-104005751D01*
X104244249Y-104099658D01*
X104251186Y-104103193D01*
X104251188Y-104103194D01*
X104332945Y-104144851D01*
X104376210Y-104188116D01*
X104387000Y-104233061D01*
X104387000Y-104266939D01*
X104368093Y-104325130D01*
X104332945Y-104355149D01*
X104251188Y-104396806D01*
X104251186Y-104396807D01*
X104244249Y-104400342D01*
X104150342Y-104494249D01*
X104146807Y-104501186D01*
X104146806Y-104501188D01*
X104111130Y-104571206D01*
X104090049Y-104612580D01*
X104088830Y-104620273D01*
X104088830Y-104620275D01*
X104075346Y-104705413D01*
X104074500Y-104710754D01*
X104074500Y-105289246D01*
X104075109Y-105293090D01*
X104075109Y-105293092D01*
X104076133Y-105299554D01*
X104090049Y-105387420D01*
X104093585Y-105394359D01*
X104093585Y-105394360D01*
X104119388Y-105445000D01*
X104150342Y-105505751D01*
X104244249Y-105599658D01*
X104251186Y-105603193D01*
X104251188Y-105603194D01*
X104350131Y-105653608D01*
X104393396Y-105696873D01*
X104402967Y-105757305D01*
X104375189Y-105811822D01*
X104337988Y-105835226D01*
X104296398Y-105849831D01*
X104283470Y-105856676D01*
X104187737Y-105927387D01*
X104177387Y-105937737D01*
X104106676Y-106033470D01*
X104099831Y-106046398D01*
X104059945Y-106159979D01*
X104057377Y-106171682D01*
X104055218Y-106194518D01*
X104055000Y-106199154D01*
X104055000Y-106309320D01*
X104059122Y-106322005D01*
X104063243Y-106325000D01*
X105379319Y-106325000D01*
X105392004Y-106320878D01*
X105394999Y-106316757D01*
X105394999Y-106199158D01*
X105394780Y-106194512D01*
X105392622Y-106171678D01*
X105390057Y-106159984D01*
X105350169Y-106046398D01*
X105343324Y-106033470D01*
X105272613Y-105937737D01*
X105262263Y-105927387D01*
X105166530Y-105856676D01*
X105153602Y-105849831D01*
X105097212Y-105830029D01*
X105048573Y-105792909D01*
X105031041Y-105734289D01*
X105051314Y-105676560D01*
X105085069Y-105648412D01*
X105173807Y-105603197D01*
X105173811Y-105603194D01*
X105180751Y-105599658D01*
X105274658Y-105505751D01*
X105334951Y-105387420D01*
X105337662Y-105370303D01*
X105365440Y-105315786D01*
X105387964Y-105300015D01*
X105389684Y-105299554D01*
X105421511Y-105277268D01*
X105428795Y-105272627D01*
X105462455Y-105253194D01*
X105475600Y-105237528D01*
X105527487Y-105205105D01*
X105588523Y-105209372D01*
X105635394Y-105248701D01*
X105648802Y-105289357D01*
X105649500Y-105289246D01*
X105665049Y-105387420D01*
X105668585Y-105394359D01*
X105668585Y-105394360D01*
X105694388Y-105445000D01*
X105725342Y-105505751D01*
X105819249Y-105599658D01*
X105826189Y-105603194D01*
X105826193Y-105603197D01*
X105934204Y-105658232D01*
X105977469Y-105701496D01*
X105987040Y-105761928D01*
X105959262Y-105816445D01*
X105921579Y-105839536D01*
X105916874Y-105840281D01*
X105909933Y-105843818D01*
X105909932Y-105843818D01*
X105803719Y-105897936D01*
X105803717Y-105897937D01*
X105796780Y-105901472D01*
X105701472Y-105996780D01*
X105697937Y-106003717D01*
X105697936Y-106003719D01*
X105676190Y-106046398D01*
X105640281Y-106116874D01*
X105639062Y-106124568D01*
X105639062Y-106124569D01*
X105625109Y-106212666D01*
X105624500Y-106216512D01*
X105624500Y-106783488D01*
X105625109Y-106787332D01*
X105625109Y-106787334D01*
X105631631Y-106828509D01*
X105640281Y-106883126D01*
X105701472Y-107003220D01*
X105796780Y-107098528D01*
X105803717Y-107102063D01*
X105803719Y-107102064D01*
X105851361Y-107126339D01*
X105895446Y-107148801D01*
X105938710Y-107192065D01*
X105949500Y-107237010D01*
X105949500Y-107750500D01*
X105930593Y-107808691D01*
X105881093Y-107844655D01*
X105850500Y-107849500D01*
X105130252Y-107849500D01*
X105105030Y-107854517D01*
X105081334Y-107859230D01*
X105081332Y-107859231D01*
X105071769Y-107861133D01*
X105005448Y-107905448D01*
X104961133Y-107971769D01*
X104959231Y-107981332D01*
X104959230Y-107981334D01*
X104956857Y-107993265D01*
X104949500Y-108030252D01*
X104949500Y-110469748D01*
X104961133Y-110528231D01*
X105005448Y-110594552D01*
X105071769Y-110638867D01*
X105081332Y-110640769D01*
X105081334Y-110640770D01*
X105104005Y-110645279D01*
X105130252Y-110650500D01*
X107169748Y-110650500D01*
X107195995Y-110645279D01*
X107218666Y-110640770D01*
X107218668Y-110640769D01*
X107228231Y-110638867D01*
X107294552Y-110594552D01*
X107338867Y-110528231D01*
X107350500Y-110469748D01*
X107350500Y-108030252D01*
X107343143Y-107993265D01*
X107340770Y-107981334D01*
X107340769Y-107981332D01*
X107338867Y-107971769D01*
X107294552Y-107905448D01*
X107228231Y-107861133D01*
X107218668Y-107859231D01*
X107218666Y-107859230D01*
X107194970Y-107854517D01*
X107169748Y-107849500D01*
X106699500Y-107849500D01*
X106641309Y-107830593D01*
X106605345Y-107781093D01*
X106600500Y-107750500D01*
X106600500Y-107237010D01*
X106619407Y-107178819D01*
X106654554Y-107148801D01*
X106698639Y-107126339D01*
X106746281Y-107102064D01*
X106746283Y-107102063D01*
X106753220Y-107098528D01*
X106848528Y-107003220D01*
X106909719Y-106883126D01*
X106911945Y-106884260D01*
X106940892Y-106844412D01*
X106999089Y-106825500D01*
X108453649Y-106825500D01*
X108462278Y-106825877D01*
X108500990Y-106829264D01*
X108538533Y-106819204D01*
X108546967Y-106817334D01*
X108576700Y-106812092D01*
X108576702Y-106812091D01*
X108585228Y-106810588D01*
X108592727Y-106806258D01*
X108598212Y-106804262D01*
X108603499Y-106801796D01*
X108611867Y-106799554D01*
X108643694Y-106777268D01*
X108650978Y-106772627D01*
X108661570Y-106766512D01*
X108684638Y-106753194D01*
X108709614Y-106723429D01*
X108715448Y-106717061D01*
X108905496Y-106527013D01*
X108960013Y-106499236D01*
X109020445Y-106508807D01*
X109063710Y-106552072D01*
X109074500Y-106597017D01*
X109074500Y-106783488D01*
X109075109Y-106787332D01*
X109075109Y-106787334D01*
X109081631Y-106828509D01*
X109090281Y-106883126D01*
X109151472Y-107003220D01*
X109246780Y-107098528D01*
X109253717Y-107102063D01*
X109253719Y-107102064D01*
X109366874Y-107159719D01*
X109365740Y-107161945D01*
X109405588Y-107190892D01*
X109424500Y-107249089D01*
X109424500Y-107750500D01*
X109405593Y-107808691D01*
X109356093Y-107844655D01*
X109325500Y-107849500D01*
X108830252Y-107849500D01*
X108805030Y-107854517D01*
X108781334Y-107859230D01*
X108781332Y-107859231D01*
X108771769Y-107861133D01*
X108705448Y-107905448D01*
X108661133Y-107971769D01*
X108659231Y-107981332D01*
X108659230Y-107981334D01*
X108656857Y-107993265D01*
X108649500Y-108030252D01*
X108649500Y-110469748D01*
X108661133Y-110528231D01*
X108705448Y-110594552D01*
X108771769Y-110638867D01*
X108781332Y-110640769D01*
X108781334Y-110640770D01*
X108804005Y-110645279D01*
X108830252Y-110650500D01*
X110869748Y-110650500D01*
X110895995Y-110645279D01*
X110918666Y-110640770D01*
X110918668Y-110640769D01*
X110928231Y-110638867D01*
X110994552Y-110594552D01*
X111023759Y-110550842D01*
X111905001Y-110550842D01*
X111905220Y-110555488D01*
X111907378Y-110578322D01*
X111909943Y-110590016D01*
X111949831Y-110703602D01*
X111956676Y-110716530D01*
X112027387Y-110812263D01*
X112037737Y-110822613D01*
X112133470Y-110893324D01*
X112146398Y-110900169D01*
X112259979Y-110940055D01*
X112271682Y-110942623D01*
X112294518Y-110944782D01*
X112299154Y-110945000D01*
X112409320Y-110945000D01*
X112422005Y-110940878D01*
X112425000Y-110936757D01*
X112425000Y-110929319D01*
X112775000Y-110929319D01*
X112779122Y-110942004D01*
X112783243Y-110944999D01*
X112900842Y-110944999D01*
X112905488Y-110944780D01*
X112928322Y-110942622D01*
X112940016Y-110940057D01*
X113053602Y-110900169D01*
X113066530Y-110893324D01*
X113162263Y-110822613D01*
X113172613Y-110812263D01*
X113243324Y-110716530D01*
X113250169Y-110703602D01*
X113290055Y-110590021D01*
X113292623Y-110578318D01*
X113294782Y-110555482D01*
X113295000Y-110550846D01*
X113295000Y-110465680D01*
X113290878Y-110452995D01*
X113286757Y-110450000D01*
X112790680Y-110450000D01*
X112777995Y-110454122D01*
X112775000Y-110458243D01*
X112775000Y-110929319D01*
X112425000Y-110929319D01*
X112425000Y-110465680D01*
X112420878Y-110452995D01*
X112416757Y-110450000D01*
X111920681Y-110450000D01*
X111907996Y-110454122D01*
X111905001Y-110458243D01*
X111905001Y-110550842D01*
X111023759Y-110550842D01*
X111038867Y-110528231D01*
X111050500Y-110469748D01*
X111050500Y-110084320D01*
X111905000Y-110084320D01*
X111909122Y-110097005D01*
X111913243Y-110100000D01*
X112409320Y-110100000D01*
X112422005Y-110095878D01*
X112425000Y-110091757D01*
X112425000Y-110084320D01*
X112775000Y-110084320D01*
X112779122Y-110097005D01*
X112783243Y-110100000D01*
X113279319Y-110100000D01*
X113292004Y-110095878D01*
X113294999Y-110091757D01*
X113294999Y-109999158D01*
X113294780Y-109994512D01*
X113292622Y-109971678D01*
X113290057Y-109959984D01*
X113250169Y-109846398D01*
X113243324Y-109833470D01*
X113172613Y-109737737D01*
X113162263Y-109727387D01*
X113066530Y-109656676D01*
X113053602Y-109649831D01*
X112940021Y-109609945D01*
X112928318Y-109607377D01*
X112905482Y-109605218D01*
X112900846Y-109605000D01*
X112790680Y-109605000D01*
X112777995Y-109609122D01*
X112775000Y-109613243D01*
X112775000Y-110084320D01*
X112425000Y-110084320D01*
X112425000Y-109620681D01*
X112420878Y-109607996D01*
X112416757Y-109605001D01*
X112299158Y-109605001D01*
X112294512Y-109605220D01*
X112271678Y-109607378D01*
X112259984Y-109609943D01*
X112146398Y-109649831D01*
X112133470Y-109656676D01*
X112037737Y-109727387D01*
X112027387Y-109737737D01*
X111956676Y-109833470D01*
X111949831Y-109846398D01*
X111909945Y-109959979D01*
X111907377Y-109971682D01*
X111905218Y-109994518D01*
X111905000Y-109999154D01*
X111905000Y-110084320D01*
X111050500Y-110084320D01*
X111050500Y-108030252D01*
X111043143Y-107993265D01*
X111040770Y-107981334D01*
X111040769Y-107981332D01*
X111038867Y-107971769D01*
X110994552Y-107905448D01*
X110928231Y-107861133D01*
X110918668Y-107859231D01*
X110918666Y-107859230D01*
X110894970Y-107854517D01*
X110869748Y-107849500D01*
X110174500Y-107849500D01*
X110116309Y-107830593D01*
X110080345Y-107781093D01*
X110075500Y-107750500D01*
X110075500Y-107224272D01*
X110094407Y-107166081D01*
X110129555Y-107136062D01*
X110196281Y-107102064D01*
X110196283Y-107102063D01*
X110203220Y-107098528D01*
X110298528Y-107003220D01*
X110359719Y-106883126D01*
X110368370Y-106828509D01*
X110372752Y-106800842D01*
X110605001Y-106800842D01*
X110605220Y-106805488D01*
X110607378Y-106828322D01*
X110609943Y-106840016D01*
X110649831Y-106953602D01*
X110656676Y-106966530D01*
X110727387Y-107062263D01*
X110737737Y-107072613D01*
X110833470Y-107143324D01*
X110846398Y-107150169D01*
X110959979Y-107190055D01*
X110971682Y-107192623D01*
X110994518Y-107194782D01*
X110999154Y-107195000D01*
X111084320Y-107195000D01*
X111097005Y-107190878D01*
X111100000Y-107186757D01*
X111100000Y-107179319D01*
X111450000Y-107179319D01*
X111454122Y-107192004D01*
X111458243Y-107194999D01*
X111550842Y-107194999D01*
X111555488Y-107194780D01*
X111578322Y-107192622D01*
X111590016Y-107190057D01*
X111703602Y-107150169D01*
X111716530Y-107143324D01*
X111812263Y-107072613D01*
X111822613Y-107062263D01*
X111893324Y-106966530D01*
X111900169Y-106953602D01*
X111940055Y-106840021D01*
X111942623Y-106828318D01*
X111944782Y-106805482D01*
X111945000Y-106800846D01*
X111945000Y-106690680D01*
X111940878Y-106677995D01*
X111936757Y-106675000D01*
X111465680Y-106675000D01*
X111452995Y-106679122D01*
X111450000Y-106683243D01*
X111450000Y-107179319D01*
X111100000Y-107179319D01*
X111100000Y-106690680D01*
X111095878Y-106677995D01*
X111091757Y-106675000D01*
X110620681Y-106675000D01*
X110607996Y-106679122D01*
X110605001Y-106683243D01*
X110605001Y-106800842D01*
X110372752Y-106800842D01*
X110374891Y-106787334D01*
X110374891Y-106787332D01*
X110375500Y-106783488D01*
X110375500Y-106216512D01*
X110374891Y-106212666D01*
X110360938Y-106124569D01*
X110360938Y-106124568D01*
X110359719Y-106116874D01*
X110323810Y-106046398D01*
X110302064Y-106003719D01*
X110302063Y-106003717D01*
X110298528Y-105996780D01*
X110255331Y-105953583D01*
X110227554Y-105899066D01*
X110237125Y-105838634D01*
X110255331Y-105813575D01*
X110264410Y-105804496D01*
X110318927Y-105776719D01*
X110334414Y-105775500D01*
X110651017Y-105775500D01*
X110709208Y-105794407D01*
X110745172Y-105843907D01*
X110745172Y-105905093D01*
X110730650Y-105933319D01*
X110656676Y-106033470D01*
X110649831Y-106046398D01*
X110609945Y-106159979D01*
X110607377Y-106171682D01*
X110605218Y-106194518D01*
X110605000Y-106199154D01*
X110605000Y-106309320D01*
X110609122Y-106322005D01*
X110613243Y-106325000D01*
X111929319Y-106325000D01*
X111942004Y-106320878D01*
X111944999Y-106316757D01*
X111944999Y-106199158D01*
X111944780Y-106194512D01*
X111942622Y-106171678D01*
X111940057Y-106159984D01*
X111900169Y-106046398D01*
X111893324Y-106033470D01*
X111822613Y-105937737D01*
X111812259Y-105927383D01*
X111741623Y-105875209D01*
X111706050Y-105825428D01*
X111706531Y-105764245D01*
X111742883Y-105715029D01*
X111750945Y-105709839D01*
X111754955Y-105707524D01*
X111762455Y-105703194D01*
X111787431Y-105673429D01*
X111793265Y-105667061D01*
X112105496Y-105354830D01*
X112160013Y-105327053D01*
X112220445Y-105336624D01*
X112263710Y-105379889D01*
X112274500Y-105424834D01*
X112274500Y-107324959D01*
X112255593Y-107383150D01*
X112249716Y-107390479D01*
X112177377Y-107472388D01*
X112116447Y-107602163D01*
X112115362Y-107609132D01*
X112115361Y-107609135D01*
X112105029Y-107675499D01*
X112094391Y-107743823D01*
X112095306Y-107750820D01*
X112095306Y-107750821D01*
X112098966Y-107778807D01*
X112112980Y-107885979D01*
X112115821Y-107892435D01*
X112115821Y-107892436D01*
X112123586Y-107910082D01*
X112167457Y-108009786D01*
X112167767Y-108010491D01*
X112173897Y-108071368D01*
X112143073Y-108124222D01*
X112122096Y-108138573D01*
X112103719Y-108147936D01*
X112103717Y-108147937D01*
X112096780Y-108151472D01*
X112001472Y-108246780D01*
X111997937Y-108253717D01*
X111997936Y-108253719D01*
X111945113Y-108357390D01*
X111940281Y-108366874D01*
X111939062Y-108374568D01*
X111939062Y-108374569D01*
X111927799Y-108445681D01*
X111924500Y-108466512D01*
X111924500Y-108983488D01*
X111925109Y-108987332D01*
X111925109Y-108987334D01*
X111938435Y-109071468D01*
X111940281Y-109083126D01*
X111943817Y-109090065D01*
X111943817Y-109090066D01*
X111975862Y-109152957D01*
X112001472Y-109203220D01*
X112096780Y-109298528D01*
X112103717Y-109302063D01*
X112103719Y-109302064D01*
X112209934Y-109356183D01*
X112216874Y-109359719D01*
X112224568Y-109360938D01*
X112224569Y-109360938D01*
X112312666Y-109374891D01*
X112312668Y-109374891D01*
X112316512Y-109375500D01*
X112883488Y-109375500D01*
X112887332Y-109374891D01*
X112887334Y-109374891D01*
X112975431Y-109360938D01*
X112975432Y-109360938D01*
X112983126Y-109359719D01*
X112990066Y-109356183D01*
X113096281Y-109302064D01*
X113096283Y-109302063D01*
X113103220Y-109298528D01*
X113198528Y-109203220D01*
X113224139Y-109152957D01*
X113256183Y-109090066D01*
X113256183Y-109090065D01*
X113259719Y-109083126D01*
X113261566Y-109071468D01*
X113274891Y-108987334D01*
X113274891Y-108987332D01*
X113275500Y-108983488D01*
X113275500Y-108659320D01*
X114255000Y-108659320D01*
X114259122Y-108672005D01*
X114263243Y-108675000D01*
X114609320Y-108675000D01*
X114622005Y-108670878D01*
X114625000Y-108666757D01*
X114625000Y-108445681D01*
X114620878Y-108432996D01*
X114616757Y-108430001D01*
X114458194Y-108430001D01*
X114448567Y-108430949D01*
X114398725Y-108440863D01*
X114381052Y-108448183D01*
X114324499Y-108485970D01*
X114310970Y-108499499D01*
X114273182Y-108556054D01*
X114265863Y-108573722D01*
X114255948Y-108623570D01*
X114255000Y-108633191D01*
X114255000Y-108659320D01*
X113275500Y-108659320D01*
X113275500Y-108466512D01*
X113272201Y-108445681D01*
X113260938Y-108374569D01*
X113260938Y-108374568D01*
X113259719Y-108366874D01*
X113254887Y-108357390D01*
X113202064Y-108253719D01*
X113202063Y-108253717D01*
X113198528Y-108246780D01*
X113103220Y-108151472D01*
X113096281Y-108147936D01*
X113096279Y-108147935D01*
X113076162Y-108137685D01*
X113032897Y-108094421D01*
X113023325Y-108033989D01*
X113032012Y-108006309D01*
X113041159Y-107987431D01*
X113081710Y-107903733D01*
X113083719Y-107891796D01*
X113097700Y-107808691D01*
X113102935Y-107777575D01*
X113131235Y-107723328D01*
X113186015Y-107696075D01*
X113200563Y-107695000D01*
X113309320Y-107695000D01*
X113322005Y-107690878D01*
X113325000Y-107686757D01*
X113325000Y-106370681D01*
X113320878Y-106357996D01*
X113316757Y-106355001D01*
X113199158Y-106355001D01*
X113194512Y-106355220D01*
X113171678Y-106357378D01*
X113159984Y-106359943D01*
X113057302Y-106396002D01*
X112996134Y-106397443D01*
X112945800Y-106362655D01*
X112925500Y-106302594D01*
X112925500Y-106173763D01*
X112944407Y-106115572D01*
X112993907Y-106079608D01*
X113055093Y-106079608D01*
X113069445Y-106085553D01*
X113109933Y-106106183D01*
X113109936Y-106106184D01*
X113116874Y-106109719D01*
X113124568Y-106110938D01*
X113124569Y-106110938D01*
X113212666Y-106124891D01*
X113212668Y-106124891D01*
X113216512Y-106125500D01*
X113783488Y-106125500D01*
X113787332Y-106124891D01*
X113787334Y-106124891D01*
X113875431Y-106110938D01*
X113875432Y-106110938D01*
X113883126Y-106109719D01*
X113890066Y-106106183D01*
X113996281Y-106052064D01*
X113996283Y-106052063D01*
X114003220Y-106048528D01*
X114098528Y-105953220D01*
X114122090Y-105906978D01*
X114156183Y-105840066D01*
X114156183Y-105840065D01*
X114159719Y-105833126D01*
X114164660Y-105801931D01*
X114192439Y-105747415D01*
X114246956Y-105719639D01*
X114307387Y-105729211D01*
X114350650Y-105772474D01*
X114361826Y-105794407D01*
X114390066Y-105849831D01*
X114396950Y-105863342D01*
X114486658Y-105953050D01*
X114493595Y-105956585D01*
X114493597Y-105956586D01*
X114586101Y-106003719D01*
X114599696Y-106010646D01*
X114607390Y-106011865D01*
X114607391Y-106011865D01*
X114689635Y-106024891D01*
X114689637Y-106024891D01*
X114693481Y-106025500D01*
X114999960Y-106025500D01*
X115306518Y-106025499D01*
X115310361Y-106024890D01*
X115310366Y-106024890D01*
X115347217Y-106019053D01*
X115400304Y-106010646D01*
X115465851Y-105977248D01*
X115506403Y-105956586D01*
X115506405Y-105956585D01*
X115513342Y-105953050D01*
X115603050Y-105863342D01*
X115609935Y-105849831D01*
X115660646Y-105750304D01*
X115662886Y-105751445D01*
X115691808Y-105711636D01*
X115749999Y-105692728D01*
X115808190Y-105711635D01*
X115837114Y-105751445D01*
X115839354Y-105750304D01*
X115890066Y-105849831D01*
X115896950Y-105863342D01*
X115986658Y-105953050D01*
X115993595Y-105956585D01*
X115993597Y-105956586D01*
X116086101Y-106003719D01*
X116099696Y-106010646D01*
X116107390Y-106011865D01*
X116107391Y-106011865D01*
X116189635Y-106024891D01*
X116189637Y-106024891D01*
X116193481Y-106025500D01*
X116499960Y-106025500D01*
X116806518Y-106025499D01*
X116810361Y-106024890D01*
X116810366Y-106024890D01*
X116847217Y-106019053D01*
X116900304Y-106010646D01*
X116965851Y-105977248D01*
X117006403Y-105956586D01*
X117006405Y-105956585D01*
X117013342Y-105953050D01*
X117103050Y-105863342D01*
X117109935Y-105849831D01*
X117160646Y-105750304D01*
X117162886Y-105751445D01*
X117191808Y-105711636D01*
X117249999Y-105692728D01*
X117308190Y-105711635D01*
X117337114Y-105751445D01*
X117339354Y-105750304D01*
X117390066Y-105849831D01*
X117396950Y-105863342D01*
X117486658Y-105953050D01*
X117493595Y-105956585D01*
X117493597Y-105956586D01*
X117586101Y-106003719D01*
X117599696Y-106010646D01*
X117607391Y-106011865D01*
X117614800Y-106014272D01*
X117614054Y-106016568D01*
X117658181Y-106039048D01*
X117685678Y-106091867D01*
X117689412Y-106113045D01*
X117693742Y-106120544D01*
X117695738Y-106126029D01*
X117698204Y-106131316D01*
X117700446Y-106139684D01*
X117711586Y-106155593D01*
X117722732Y-106171511D01*
X117727371Y-106178792D01*
X117746806Y-106212455D01*
X117776576Y-106237435D01*
X117782944Y-106243270D01*
X117845171Y-106305498D01*
X117872948Y-106360015D01*
X117863376Y-106420447D01*
X117820111Y-106463711D01*
X117775168Y-106474501D01*
X117693482Y-106474501D01*
X117689639Y-106475110D01*
X117689634Y-106475110D01*
X117652783Y-106480947D01*
X117599696Y-106489354D01*
X117580302Y-106499236D01*
X117493597Y-106543414D01*
X117493595Y-106543415D01*
X117486658Y-106546950D01*
X117396950Y-106636658D01*
X117393415Y-106643595D01*
X117393414Y-106643597D01*
X117370406Y-106688753D01*
X117339354Y-106749696D01*
X117337114Y-106748555D01*
X117308192Y-106788364D01*
X117250001Y-106807272D01*
X117191810Y-106788365D01*
X117162886Y-106748555D01*
X117160646Y-106749696D01*
X117106586Y-106643597D01*
X117106585Y-106643595D01*
X117103050Y-106636658D01*
X117013342Y-106546950D01*
X117006405Y-106543415D01*
X117006403Y-106543414D01*
X116907244Y-106492890D01*
X116907243Y-106492890D01*
X116900304Y-106489354D01*
X116892610Y-106488135D01*
X116892609Y-106488135D01*
X116810365Y-106475109D01*
X116810363Y-106475109D01*
X116806519Y-106474500D01*
X116500040Y-106474500D01*
X116193482Y-106474501D01*
X116189639Y-106475110D01*
X116189634Y-106475110D01*
X116152783Y-106480947D01*
X116099696Y-106489354D01*
X116080302Y-106499236D01*
X115993597Y-106543414D01*
X115993595Y-106543415D01*
X115986658Y-106546950D01*
X115896950Y-106636658D01*
X115893415Y-106643595D01*
X115893414Y-106643597D01*
X115870406Y-106688753D01*
X115839354Y-106749696D01*
X115837114Y-106748555D01*
X115808192Y-106788364D01*
X115750001Y-106807272D01*
X115691810Y-106788365D01*
X115662886Y-106748555D01*
X115660646Y-106749696D01*
X115606586Y-106643597D01*
X115606585Y-106643595D01*
X115603050Y-106636658D01*
X115513342Y-106546950D01*
X115506405Y-106543415D01*
X115506403Y-106543414D01*
X115407244Y-106492890D01*
X115407243Y-106492890D01*
X115400304Y-106489354D01*
X115392610Y-106488135D01*
X115392609Y-106488135D01*
X115310365Y-106475109D01*
X115310363Y-106475109D01*
X115306519Y-106474500D01*
X115000040Y-106474500D01*
X114693482Y-106474501D01*
X114689639Y-106475110D01*
X114689634Y-106475110D01*
X114652783Y-106480947D01*
X114599696Y-106489354D01*
X114580302Y-106499236D01*
X114493597Y-106543414D01*
X114493595Y-106543415D01*
X114486658Y-106546950D01*
X114396950Y-106636658D01*
X114393415Y-106643595D01*
X114393414Y-106643597D01*
X114364219Y-106700896D01*
X114320954Y-106744161D01*
X114260522Y-106753732D01*
X114206005Y-106725954D01*
X114182601Y-106688753D01*
X114150169Y-106596398D01*
X114143324Y-106583470D01*
X114072613Y-106487737D01*
X114062263Y-106477387D01*
X113966530Y-106406676D01*
X113953602Y-106399831D01*
X113840021Y-106359945D01*
X113828318Y-106357377D01*
X113805482Y-106355218D01*
X113800846Y-106355000D01*
X113690680Y-106355000D01*
X113677995Y-106359122D01*
X113675000Y-106363243D01*
X113675000Y-107679319D01*
X113679122Y-107692004D01*
X113683243Y-107694999D01*
X113800842Y-107694999D01*
X113805488Y-107694780D01*
X113828322Y-107692622D01*
X113840016Y-107690057D01*
X113953602Y-107650169D01*
X113966530Y-107643324D01*
X114062263Y-107572613D01*
X114072613Y-107562263D01*
X114143324Y-107466530D01*
X114150169Y-107453601D01*
X114161812Y-107420447D01*
X114198932Y-107371808D01*
X114257552Y-107354276D01*
X114315281Y-107374549D01*
X114343429Y-107408304D01*
X114393411Y-107506398D01*
X114393414Y-107506402D01*
X114396950Y-107513342D01*
X114486658Y-107603050D01*
X114493595Y-107606585D01*
X114493597Y-107606586D01*
X114498600Y-107609135D01*
X114599696Y-107660646D01*
X114605021Y-107661489D01*
X114653538Y-107696737D01*
X114672447Y-107754927D01*
X114672070Y-107763558D01*
X114670736Y-107778807D01*
X114672978Y-107787174D01*
X114680796Y-107816349D01*
X114682666Y-107824784D01*
X114687024Y-107849500D01*
X114689412Y-107863045D01*
X114693742Y-107870544D01*
X114695738Y-107876029D01*
X114698204Y-107881316D01*
X114700446Y-107889684D01*
X114717163Y-107913558D01*
X114722732Y-107921511D01*
X114727371Y-107928792D01*
X114746806Y-107962455D01*
X114757906Y-107971769D01*
X114776571Y-107987431D01*
X114782939Y-107993265D01*
X115050670Y-108260996D01*
X115078447Y-108315513D01*
X115068876Y-108375945D01*
X115025611Y-108419210D01*
X115005249Y-108424098D01*
X115005592Y-108425155D01*
X114977995Y-108434122D01*
X114975000Y-108438243D01*
X114975000Y-108926000D01*
X114956093Y-108984191D01*
X114906593Y-109020155D01*
X114876000Y-109025000D01*
X114270681Y-109025000D01*
X114257996Y-109029122D01*
X114255001Y-109033243D01*
X114255001Y-109066806D01*
X114255949Y-109076433D01*
X114265863Y-109126275D01*
X114276914Y-109152957D01*
X114275727Y-109153449D01*
X114289555Y-109202492D01*
X114285359Y-109221615D01*
X114286133Y-109221769D01*
X114274500Y-109280252D01*
X114274500Y-109719748D01*
X114286133Y-109778231D01*
X114291548Y-109786334D01*
X114291871Y-109787115D01*
X114296671Y-109848112D01*
X114291871Y-109862885D01*
X114291548Y-109863666D01*
X114286133Y-109871769D01*
X114284232Y-109881327D01*
X114284231Y-109881329D01*
X114280418Y-109900500D01*
X114274500Y-109930252D01*
X114274500Y-110369748D01*
X114286133Y-110428231D01*
X114330448Y-110494552D01*
X114396769Y-110538867D01*
X114406335Y-110540770D01*
X114415342Y-110544501D01*
X114414522Y-110546480D01*
X114456605Y-110570051D01*
X114479526Y-110611612D01*
X114480793Y-110616338D01*
X114482666Y-110624784D01*
X114487166Y-110650304D01*
X114489412Y-110663045D01*
X114493742Y-110670544D01*
X114495738Y-110676029D01*
X114498204Y-110681316D01*
X114500446Y-110689684D01*
X114510192Y-110703602D01*
X114522732Y-110721511D01*
X114527371Y-110728792D01*
X114546806Y-110762455D01*
X114569916Y-110781847D01*
X114576571Y-110787431D01*
X114582939Y-110793265D01*
X114756731Y-110967057D01*
X114762565Y-110973424D01*
X114787545Y-111003194D01*
X114821205Y-111022627D01*
X114828489Y-111027268D01*
X114860316Y-111049554D01*
X114868684Y-111051796D01*
X114873971Y-111054262D01*
X114879456Y-111056258D01*
X114886955Y-111060588D01*
X114895481Y-111062091D01*
X114895483Y-111062092D01*
X114925216Y-111067334D01*
X114933650Y-111069204D01*
X114971193Y-111079264D01*
X115009908Y-111075877D01*
X115018537Y-111075500D01*
X117143966Y-111075500D01*
X117152595Y-111075877D01*
X117191307Y-111079264D01*
X117228850Y-111069204D01*
X117237284Y-111067334D01*
X117267017Y-111062092D01*
X117267019Y-111062091D01*
X117275545Y-111060588D01*
X117283044Y-111056258D01*
X117288529Y-111054262D01*
X117293816Y-111051796D01*
X117302184Y-111049554D01*
X117334011Y-111027268D01*
X117341295Y-111022627D01*
X117374955Y-111003194D01*
X117399931Y-110973429D01*
X117405765Y-110967061D01*
X117457736Y-110915090D01*
X117512253Y-110887313D01*
X117572683Y-110896883D01*
X117592754Y-110907109D01*
X117599696Y-110910646D01*
X117607390Y-110911865D01*
X117607391Y-110911865D01*
X117689635Y-110924891D01*
X117689637Y-110924891D01*
X117693481Y-110925500D01*
X117999960Y-110925500D01*
X118306518Y-110925499D01*
X118310361Y-110924890D01*
X118310366Y-110924890D01*
X118356975Y-110917508D01*
X118400304Y-110910646D01*
X118481401Y-110869325D01*
X118506403Y-110856586D01*
X118506405Y-110856585D01*
X118513342Y-110853050D01*
X118603050Y-110763342D01*
X118616172Y-110737590D01*
X118657110Y-110657244D01*
X118657110Y-110657243D01*
X118660646Y-110650304D01*
X118662458Y-110638867D01*
X118674891Y-110560365D01*
X118674891Y-110560363D01*
X118675500Y-110556519D01*
X118675499Y-110100090D01*
X118694406Y-110041899D01*
X118743906Y-110005935D01*
X118776313Y-110001107D01*
X118805445Y-110001641D01*
X118805447Y-110001641D01*
X118812499Y-110001770D01*
X118819302Y-109999915D01*
X118819304Y-109999915D01*
X118922860Y-109971682D01*
X118950817Y-109964060D01*
X119024283Y-109918952D01*
X119066982Y-109892735D01*
X119066984Y-109892733D01*
X119072991Y-109889045D01*
X119077722Y-109883818D01*
X119078263Y-109883369D01*
X119135112Y-109860746D01*
X119194402Y-109875860D01*
X119233484Y-109922936D01*
X119240500Y-109959540D01*
X119240500Y-110737590D01*
X119240559Y-110738781D01*
X119241425Y-110756403D01*
X119241750Y-110763026D01*
X119244171Y-110787606D01*
X119247907Y-110812793D01*
X119254819Y-110847544D01*
X119258138Y-110864229D01*
X119259626Y-110871712D01*
X119260330Y-110874032D01*
X119260331Y-110874037D01*
X119271806Y-110911865D01*
X119274393Y-110920395D01*
X119275316Y-110922623D01*
X119275318Y-110922629D01*
X119284494Y-110944782D01*
X119293207Y-110965816D01*
X119317189Y-111010682D01*
X119318532Y-111012691D01*
X119318535Y-111012697D01*
X119342019Y-111047842D01*
X119343535Y-111050111D01*
X119375806Y-111089433D01*
X119410567Y-111124194D01*
X119412442Y-111125733D01*
X119413997Y-111127142D01*
X119444419Y-111180228D01*
X119437828Y-111241057D01*
X119396741Y-111286395D01*
X119347517Y-111299500D01*
X104784017Y-111299500D01*
X104761831Y-111296982D01*
X104761813Y-111296978D01*
X104750359Y-111294344D01*
X104739485Y-111296805D01*
X104728336Y-111296785D01*
X104728337Y-111296065D01*
X104718428Y-111296738D01*
X104597539Y-111286162D01*
X104576387Y-111284311D01*
X104559393Y-111281315D01*
X104399417Y-111238449D01*
X104383201Y-111232547D01*
X104233098Y-111162553D01*
X104218153Y-111153924D01*
X104082492Y-111058934D01*
X104069272Y-111047842D01*
X103952158Y-110930728D01*
X103941066Y-110917508D01*
X103846076Y-110781847D01*
X103837447Y-110766902D01*
X103767453Y-110616799D01*
X103761551Y-110600583D01*
X103718685Y-110440606D01*
X103715689Y-110423611D01*
X103703329Y-110282333D01*
X103704764Y-110261872D01*
X103703747Y-110261755D01*
X103704389Y-110256181D01*
X103705655Y-110250718D01*
X103705656Y-110250000D01*
X103704412Y-110244545D01*
X103702980Y-110238266D01*
X103700500Y-110216248D01*
X103700500Y-106800842D01*
X104055001Y-106800842D01*
X104055220Y-106805488D01*
X104057378Y-106828322D01*
X104059943Y-106840016D01*
X104099831Y-106953602D01*
X104106676Y-106966530D01*
X104177387Y-107062263D01*
X104187737Y-107072613D01*
X104283470Y-107143324D01*
X104296398Y-107150169D01*
X104409979Y-107190055D01*
X104421682Y-107192623D01*
X104444518Y-107194782D01*
X104449154Y-107195000D01*
X104534320Y-107195000D01*
X104547005Y-107190878D01*
X104550000Y-107186757D01*
X104550000Y-107179319D01*
X104900000Y-107179319D01*
X104904122Y-107192004D01*
X104908243Y-107194999D01*
X105000842Y-107194999D01*
X105005488Y-107194780D01*
X105028322Y-107192622D01*
X105040016Y-107190057D01*
X105153602Y-107150169D01*
X105166530Y-107143324D01*
X105262263Y-107072613D01*
X105272613Y-107062263D01*
X105343324Y-106966530D01*
X105350169Y-106953602D01*
X105390055Y-106840021D01*
X105392623Y-106828318D01*
X105394782Y-106805482D01*
X105395000Y-106800846D01*
X105395000Y-106690680D01*
X105390878Y-106677995D01*
X105386757Y-106675000D01*
X104915680Y-106675000D01*
X104902995Y-106679122D01*
X104900000Y-106683243D01*
X104900000Y-107179319D01*
X104550000Y-107179319D01*
X104550000Y-106690680D01*
X104545878Y-106677995D01*
X104541757Y-106675000D01*
X104070681Y-106675000D01*
X104057996Y-106679122D01*
X104055001Y-106683243D01*
X104055001Y-106800842D01*
X103700500Y-106800842D01*
X103700500Y-100309320D01*
X104055000Y-100309320D01*
X104059122Y-100322005D01*
X104063243Y-100325000D01*
X104484320Y-100325000D01*
X104497005Y-100320878D01*
X104500000Y-100316757D01*
X104500000Y-100309320D01*
X104850000Y-100309320D01*
X104854122Y-100322005D01*
X104858243Y-100325000D01*
X105279319Y-100325000D01*
X105292004Y-100320878D01*
X105294999Y-100316757D01*
X105294999Y-100195843D01*
X105294389Y-100188099D01*
X105280642Y-100101293D01*
X105275885Y-100086651D01*
X105222559Y-99981995D01*
X105213514Y-99969545D01*
X105130455Y-99886486D01*
X105118005Y-99877441D01*
X105013346Y-99824114D01*
X104998711Y-99819358D01*
X104911899Y-99805609D01*
X104904160Y-99805000D01*
X104865680Y-99805000D01*
X104852995Y-99809122D01*
X104850000Y-99813243D01*
X104850000Y-100309320D01*
X104500000Y-100309320D01*
X104500000Y-99820681D01*
X104495878Y-99807996D01*
X104491757Y-99805001D01*
X104445843Y-99805001D01*
X104438099Y-99805611D01*
X104351293Y-99819358D01*
X104336651Y-99824115D01*
X104231995Y-99877441D01*
X104219545Y-99886486D01*
X104136486Y-99969545D01*
X104127441Y-99981995D01*
X104074114Y-100086654D01*
X104069358Y-100101289D01*
X104055609Y-100188101D01*
X104055000Y-100195840D01*
X104055000Y-100309320D01*
X103700500Y-100309320D01*
X103700500Y-99050842D01*
X104055001Y-99050842D01*
X104055220Y-99055488D01*
X104057378Y-99078322D01*
X104059943Y-99090016D01*
X104099831Y-99203602D01*
X104106676Y-99216530D01*
X104177387Y-99312263D01*
X104187737Y-99322613D01*
X104283470Y-99393324D01*
X104296398Y-99400169D01*
X104409979Y-99440055D01*
X104421682Y-99442623D01*
X104444518Y-99444782D01*
X104449154Y-99445000D01*
X104559320Y-99445000D01*
X104572005Y-99440878D01*
X104575000Y-99436757D01*
X104575000Y-98965680D01*
X104570878Y-98952995D01*
X104566757Y-98950000D01*
X104070681Y-98950000D01*
X104057996Y-98954122D01*
X104055001Y-98958243D01*
X104055001Y-99050842D01*
X103700500Y-99050842D01*
X103700500Y-98584320D01*
X104055000Y-98584320D01*
X104059122Y-98597005D01*
X104063243Y-98600000D01*
X104559320Y-98600000D01*
X104572005Y-98595878D01*
X104575000Y-98591757D01*
X104575000Y-98120681D01*
X104570878Y-98107996D01*
X104566757Y-98105001D01*
X104449158Y-98105001D01*
X104444512Y-98105220D01*
X104421678Y-98107378D01*
X104409984Y-98109943D01*
X104296398Y-98149831D01*
X104283470Y-98156676D01*
X104187737Y-98227387D01*
X104177387Y-98237737D01*
X104106676Y-98333470D01*
X104099831Y-98346398D01*
X104059945Y-98459979D01*
X104057377Y-98471682D01*
X104055218Y-98494518D01*
X104055000Y-98499154D01*
X104055000Y-98584320D01*
X103700500Y-98584320D01*
X103700500Y-95899834D01*
X103719407Y-95841643D01*
X103768907Y-95805679D01*
X103830093Y-95805679D01*
X103869504Y-95829830D01*
G37*
%TD.AperFunction*%
%TA.AperFunction,Conductor*%
G36*
X115812623Y-109469141D02*
G01*
X115837682Y-109487347D01*
X116067392Y-109717057D01*
X116073226Y-109723424D01*
X116098206Y-109753194D01*
X116105706Y-109757524D01*
X116105707Y-109757525D01*
X116118961Y-109765177D01*
X116159901Y-109810647D01*
X116166558Y-109870227D01*
X116155948Y-109923569D01*
X116155000Y-109933191D01*
X116155000Y-109959320D01*
X116159122Y-109972005D01*
X116163243Y-109975000D01*
X116776000Y-109975000D01*
X116834191Y-109993907D01*
X116870155Y-110043407D01*
X116875000Y-110074000D01*
X116875000Y-110226000D01*
X116856093Y-110284191D01*
X116806593Y-110320155D01*
X116776000Y-110325000D01*
X116170681Y-110325000D01*
X116157996Y-110329122D01*
X116154909Y-110333370D01*
X116153782Y-110340486D01*
X116150310Y-110339936D01*
X116136094Y-110383691D01*
X116086594Y-110419655D01*
X116056001Y-110424500D01*
X115424500Y-110424500D01*
X115366309Y-110405593D01*
X115330345Y-110356093D01*
X115325500Y-110325500D01*
X115325500Y-109930252D01*
X115319865Y-109901921D01*
X115327057Y-109841160D01*
X115364871Y-109800254D01*
X115364380Y-109799553D01*
X115367610Y-109797292D01*
X115367611Y-109797291D01*
X115396206Y-109777268D01*
X115403490Y-109772627D01*
X115429648Y-109757525D01*
X115437150Y-109753194D01*
X115462126Y-109723429D01*
X115467960Y-109717061D01*
X115697674Y-109487347D01*
X115752191Y-109459570D01*
X115812623Y-109469141D01*
G37*
%TD.AperFunction*%
%TA.AperFunction,Conductor*%
G36*
X109608691Y-102369407D02*
G01*
X109644655Y-102418907D01*
X109649500Y-102449500D01*
X109649500Y-103441615D01*
X109649501Y-103441618D01*
X109649501Y-104102132D01*
X109665485Y-104182495D01*
X109726376Y-104273624D01*
X109817505Y-104334515D01*
X109827068Y-104336417D01*
X109827070Y-104336418D01*
X109860991Y-104343165D01*
X109897867Y-104350500D01*
X109999978Y-104350500D01*
X110102132Y-104350499D01*
X110182495Y-104334515D01*
X110190606Y-104329095D01*
X110195000Y-104326160D01*
X110253888Y-104309552D01*
X110305000Y-104326160D01*
X110309393Y-104329095D01*
X110309394Y-104329096D01*
X110317505Y-104334515D01*
X110327068Y-104336417D01*
X110327070Y-104336418D01*
X110360991Y-104343165D01*
X110397867Y-104350500D01*
X110499978Y-104350500D01*
X110602132Y-104350499D01*
X110682495Y-104334515D01*
X110690606Y-104329095D01*
X110695000Y-104326160D01*
X110753888Y-104309552D01*
X110805000Y-104326160D01*
X110809393Y-104329095D01*
X110809394Y-104329096D01*
X110817505Y-104334515D01*
X110827068Y-104336417D01*
X110827070Y-104336418D01*
X110860991Y-104343165D01*
X110897867Y-104350500D01*
X110999978Y-104350500D01*
X111102132Y-104350499D01*
X111182495Y-104334515D01*
X111190606Y-104329095D01*
X111195000Y-104326160D01*
X111253888Y-104309552D01*
X111305000Y-104326160D01*
X111309393Y-104329095D01*
X111309394Y-104329096D01*
X111317505Y-104334515D01*
X111327070Y-104336418D01*
X111327071Y-104336418D01*
X111342189Y-104339425D01*
X111345327Y-104340049D01*
X111345417Y-104340067D01*
X111398802Y-104369963D01*
X111424419Y-104425527D01*
X111412483Y-104485537D01*
X111396109Y-104507169D01*
X111257774Y-104645504D01*
X111203257Y-104673281D01*
X111187770Y-104674500D01*
X109990706Y-104674500D01*
X109982077Y-104674123D01*
X109982067Y-104674122D01*
X109943376Y-104670737D01*
X109935013Y-104672978D01*
X109935010Y-104672978D01*
X109905839Y-104680794D01*
X109897412Y-104682663D01*
X109859138Y-104689412D01*
X109851637Y-104693743D01*
X109846143Y-104695742D01*
X109840861Y-104698205D01*
X109832499Y-104700446D01*
X109825406Y-104705413D01*
X109825405Y-104705413D01*
X109800661Y-104722739D01*
X109793402Y-104727364D01*
X109759728Y-104746806D01*
X109754158Y-104753444D01*
X109734757Y-104776565D01*
X109728923Y-104782933D01*
X108366353Y-106145504D01*
X108311836Y-106173281D01*
X108296349Y-106174500D01*
X106999089Y-106174500D01*
X106940898Y-106155593D01*
X106911945Y-106115740D01*
X106909719Y-106116874D01*
X106852064Y-106003719D01*
X106852063Y-106003717D01*
X106848528Y-105996780D01*
X106753220Y-105901472D01*
X106746283Y-105897937D01*
X106746281Y-105897936D01*
X106633126Y-105840281D01*
X106634216Y-105838142D01*
X106594114Y-105809013D01*
X106575201Y-105750824D01*
X106594102Y-105692631D01*
X106637868Y-105660830D01*
X106637420Y-105659951D01*
X106642967Y-105657125D01*
X106642969Y-105657124D01*
X106649869Y-105653608D01*
X106748812Y-105603194D01*
X106748814Y-105603193D01*
X106755751Y-105599658D01*
X106849658Y-105505751D01*
X106880613Y-105445000D01*
X106906415Y-105394360D01*
X106906415Y-105394359D01*
X106909951Y-105387420D01*
X106923868Y-105299554D01*
X106924891Y-105293092D01*
X106924891Y-105293090D01*
X106925500Y-105289246D01*
X106925500Y-105050842D01*
X107555001Y-105050842D01*
X107555220Y-105055488D01*
X107557378Y-105078322D01*
X107559943Y-105090016D01*
X107599831Y-105203602D01*
X107606676Y-105216530D01*
X107677387Y-105312263D01*
X107687737Y-105322613D01*
X107783470Y-105393324D01*
X107796398Y-105400169D01*
X107909979Y-105440055D01*
X107921682Y-105442623D01*
X107944518Y-105444782D01*
X107949154Y-105445000D01*
X108059320Y-105445000D01*
X108072005Y-105440878D01*
X108075000Y-105436757D01*
X108075000Y-105429319D01*
X108425000Y-105429319D01*
X108429122Y-105442004D01*
X108433243Y-105444999D01*
X108550842Y-105444999D01*
X108555488Y-105444780D01*
X108578322Y-105442622D01*
X108590016Y-105440057D01*
X108703602Y-105400169D01*
X108716530Y-105393324D01*
X108812263Y-105322613D01*
X108822613Y-105312263D01*
X108893324Y-105216530D01*
X108900169Y-105203602D01*
X108940055Y-105090021D01*
X108942623Y-105078318D01*
X108944782Y-105055482D01*
X108945000Y-105050846D01*
X108945000Y-104965680D01*
X108940878Y-104952995D01*
X108936757Y-104950000D01*
X108440680Y-104950000D01*
X108427995Y-104954122D01*
X108425000Y-104958243D01*
X108425000Y-105429319D01*
X108075000Y-105429319D01*
X108075000Y-104965680D01*
X108070878Y-104952995D01*
X108066757Y-104950000D01*
X107570681Y-104950000D01*
X107557996Y-104954122D01*
X107555001Y-104958243D01*
X107555001Y-105050842D01*
X106925500Y-105050842D01*
X106925500Y-104710754D01*
X106924654Y-104705413D01*
X106911170Y-104620275D01*
X106911170Y-104620273D01*
X106909951Y-104612580D01*
X106895552Y-104584320D01*
X107555000Y-104584320D01*
X107559122Y-104597005D01*
X107563243Y-104600000D01*
X108059320Y-104600000D01*
X108072005Y-104595878D01*
X108075000Y-104591757D01*
X108075000Y-104584320D01*
X108425000Y-104584320D01*
X108429122Y-104597005D01*
X108433243Y-104600000D01*
X108929319Y-104600000D01*
X108942004Y-104595878D01*
X108944999Y-104591757D01*
X108944999Y-104499158D01*
X108944780Y-104494512D01*
X108942622Y-104471678D01*
X108940057Y-104459984D01*
X108900169Y-104346398D01*
X108893324Y-104333470D01*
X108822613Y-104237737D01*
X108812263Y-104227387D01*
X108716530Y-104156676D01*
X108703602Y-104149831D01*
X108590021Y-104109945D01*
X108578318Y-104107377D01*
X108555482Y-104105218D01*
X108550846Y-104105000D01*
X108440680Y-104105000D01*
X108427995Y-104109122D01*
X108425000Y-104113243D01*
X108425000Y-104584320D01*
X108075000Y-104584320D01*
X108075000Y-104120681D01*
X108070878Y-104107996D01*
X108066757Y-104105001D01*
X107949158Y-104105001D01*
X107944512Y-104105220D01*
X107921678Y-104107378D01*
X107909984Y-104109943D01*
X107796398Y-104149831D01*
X107783470Y-104156676D01*
X107687737Y-104227387D01*
X107677387Y-104237737D01*
X107606676Y-104333470D01*
X107599831Y-104346398D01*
X107559945Y-104459979D01*
X107557377Y-104471682D01*
X107555218Y-104494518D01*
X107555000Y-104499154D01*
X107555000Y-104584320D01*
X106895552Y-104584320D01*
X106888870Y-104571206D01*
X106853194Y-104501188D01*
X106853193Y-104501186D01*
X106849658Y-104494249D01*
X106755751Y-104400342D01*
X106748814Y-104396807D01*
X106748812Y-104396806D01*
X106667055Y-104355149D01*
X106623790Y-104311884D01*
X106613000Y-104266939D01*
X106613000Y-104233061D01*
X106631907Y-104174870D01*
X106667055Y-104144851D01*
X106748812Y-104103194D01*
X106748814Y-104103193D01*
X106755751Y-104099658D01*
X106849658Y-104005751D01*
X106856942Y-103991457D01*
X106909951Y-103887420D01*
X106911398Y-103888157D01*
X106941990Y-103846048D01*
X107000180Y-103827138D01*
X107008811Y-103827515D01*
X107020176Y-103828509D01*
X107020177Y-103828509D01*
X107028807Y-103829264D01*
X107066350Y-103819204D01*
X107074784Y-103817334D01*
X107075607Y-103817189D01*
X107079289Y-103816540D01*
X107104517Y-103812092D01*
X107104519Y-103812091D01*
X107113045Y-103810588D01*
X107120544Y-103806258D01*
X107126029Y-103804262D01*
X107131316Y-103801796D01*
X107139684Y-103799554D01*
X107171511Y-103777268D01*
X107178795Y-103772627D01*
X107201312Y-103759627D01*
X107212455Y-103753194D01*
X107237436Y-103723423D01*
X107243270Y-103717056D01*
X107424758Y-103535569D01*
X107479274Y-103507792D01*
X107539706Y-103517363D01*
X107582971Y-103560628D01*
X107588916Y-103574980D01*
X107589062Y-103575429D01*
X107590281Y-103583126D01*
X107604436Y-103610907D01*
X107646982Y-103694407D01*
X107651472Y-103703220D01*
X107746780Y-103798528D01*
X107753717Y-103802063D01*
X107753719Y-103802064D01*
X107827492Y-103839653D01*
X107866874Y-103859719D01*
X107874568Y-103860938D01*
X107874569Y-103860938D01*
X107962666Y-103874891D01*
X107962668Y-103874891D01*
X107966512Y-103875500D01*
X108533488Y-103875500D01*
X108537332Y-103874891D01*
X108537334Y-103874891D01*
X108625431Y-103860938D01*
X108625432Y-103860938D01*
X108633126Y-103859719D01*
X108672508Y-103839653D01*
X108746281Y-103802064D01*
X108746283Y-103802063D01*
X108753220Y-103798528D01*
X108848528Y-103703220D01*
X108853019Y-103694407D01*
X108906183Y-103590066D01*
X108906183Y-103590065D01*
X108909719Y-103583126D01*
X108913024Y-103562263D01*
X108924891Y-103487334D01*
X108924891Y-103487332D01*
X108925500Y-103483488D01*
X108925500Y-102966512D01*
X108918816Y-102924308D01*
X108910938Y-102874569D01*
X108910938Y-102874568D01*
X108909719Y-102866874D01*
X108848528Y-102746780D01*
X108843021Y-102741273D01*
X108841201Y-102738768D01*
X108822293Y-102680577D01*
X108840243Y-102625334D01*
X108840694Y-102624955D01*
X108860129Y-102591292D01*
X108864768Y-102584011D01*
X108868739Y-102578340D01*
X108887054Y-102552184D01*
X108889296Y-102543816D01*
X108891762Y-102538529D01*
X108893758Y-102533044D01*
X108898088Y-102525545D01*
X108899869Y-102515448D01*
X108904834Y-102487284D01*
X108906704Y-102478849D01*
X108914522Y-102449674D01*
X108916764Y-102441307D01*
X108916481Y-102438071D01*
X108939198Y-102384551D01*
X108991644Y-102353037D01*
X109013915Y-102350500D01*
X109550500Y-102350500D01*
X109608691Y-102369407D01*
G37*
%TD.AperFunction*%
%TA.AperFunction,Conductor*%
G36*
X115933691Y-100369407D02*
G01*
X115969655Y-100418907D01*
X115974500Y-100449499D01*
X115974501Y-100524165D01*
X115974501Y-100602132D01*
X115990485Y-100682495D01*
X115995904Y-100690605D01*
X115998840Y-100695000D01*
X116015448Y-100753888D01*
X115998840Y-100805000D01*
X115996483Y-100808528D01*
X115990485Y-100817505D01*
X115988583Y-100827068D01*
X115988582Y-100827070D01*
X115985435Y-100842892D01*
X115974500Y-100897867D01*
X115974501Y-101102132D01*
X115990485Y-101182495D01*
X115995904Y-101190605D01*
X115998840Y-101195000D01*
X116015448Y-101253888D01*
X115998840Y-101305000D01*
X115995954Y-101309320D01*
X115990485Y-101317505D01*
X115974500Y-101397867D01*
X115974501Y-101602132D01*
X115990485Y-101682495D01*
X115995904Y-101690605D01*
X115998840Y-101695000D01*
X116015448Y-101753888D01*
X115998840Y-101805000D01*
X115995905Y-101809393D01*
X115990485Y-101817505D01*
X115988583Y-101827068D01*
X115988582Y-101827070D01*
X115986566Y-101837207D01*
X115974500Y-101897867D01*
X115974501Y-102102132D01*
X115990485Y-102182495D01*
X116051376Y-102273624D01*
X116142505Y-102334515D01*
X116152068Y-102336417D01*
X116152070Y-102336418D01*
X116185991Y-102343165D01*
X116222867Y-102350500D01*
X116912358Y-102350500D01*
X117602132Y-102350499D01*
X117682495Y-102334515D01*
X117773624Y-102273624D01*
X117834515Y-102182495D01*
X117836417Y-102172932D01*
X117836418Y-102172930D01*
X117843165Y-102139009D01*
X117850500Y-102102133D01*
X117850499Y-101924501D01*
X117869406Y-101866310D01*
X117918906Y-101830346D01*
X117949499Y-101825500D01*
X118320519Y-101825500D01*
X118378710Y-101844407D01*
X118396228Y-101861925D01*
X118396950Y-101863342D01*
X118486658Y-101953050D01*
X118493595Y-101956585D01*
X118493597Y-101956586D01*
X118592756Y-102007110D01*
X118599696Y-102010646D01*
X118607390Y-102011865D01*
X118607391Y-102011865D01*
X118689635Y-102024891D01*
X118689637Y-102024891D01*
X118693481Y-102025500D01*
X118999960Y-102025500D01*
X119306518Y-102025499D01*
X119310361Y-102024890D01*
X119310366Y-102024890D01*
X119353837Y-102018005D01*
X119400304Y-102010646D01*
X119456823Y-101981848D01*
X119506403Y-101956586D01*
X119506405Y-101956585D01*
X119513342Y-101953050D01*
X119603050Y-101863342D01*
X119615500Y-101838909D01*
X119630043Y-101810365D01*
X119640527Y-101789790D01*
X119683791Y-101746526D01*
X119744223Y-101736955D01*
X119798739Y-101764732D01*
X119826517Y-101819250D01*
X119834373Y-101868851D01*
X119839354Y-101900304D01*
X119896950Y-102013342D01*
X119986658Y-102103050D01*
X119993597Y-102106586D01*
X119993599Y-102106587D01*
X120020444Y-102120265D01*
X120063709Y-102163529D01*
X120074500Y-102208475D01*
X120074500Y-102301204D01*
X120055593Y-102359395D01*
X120020445Y-102389414D01*
X120003719Y-102397936D01*
X120003717Y-102397937D01*
X119996780Y-102401472D01*
X119901472Y-102496780D01*
X119897937Y-102503717D01*
X119897936Y-102503719D01*
X119855220Y-102587554D01*
X119840281Y-102616874D01*
X119839063Y-102624566D01*
X119839062Y-102624568D01*
X119832502Y-102665988D01*
X119804724Y-102720504D01*
X119750207Y-102748281D01*
X119734721Y-102749500D01*
X119721214Y-102749500D01*
X119663023Y-102730593D01*
X119633005Y-102695446D01*
X119606588Y-102643600D01*
X119606585Y-102643596D01*
X119603050Y-102636658D01*
X119513342Y-102546950D01*
X119506405Y-102543415D01*
X119506403Y-102543414D01*
X119407244Y-102492890D01*
X119407243Y-102492890D01*
X119400304Y-102489354D01*
X119392610Y-102488135D01*
X119392609Y-102488135D01*
X119310365Y-102475109D01*
X119310363Y-102475109D01*
X119306519Y-102474500D01*
X119000040Y-102474500D01*
X118693482Y-102474501D01*
X118689639Y-102475110D01*
X118689634Y-102475110D01*
X118652783Y-102480947D01*
X118599696Y-102489354D01*
X118566236Y-102506403D01*
X118493597Y-102543414D01*
X118493595Y-102543415D01*
X118486658Y-102546950D01*
X118396950Y-102636658D01*
X118393415Y-102643595D01*
X118393414Y-102643597D01*
X118344922Y-102738768D01*
X118339354Y-102749696D01*
X118338135Y-102757390D01*
X118338135Y-102757391D01*
X118328080Y-102820878D01*
X118324500Y-102843481D01*
X118324501Y-103306518D01*
X118325110Y-103310361D01*
X118325110Y-103310366D01*
X118327953Y-103328318D01*
X118339354Y-103400304D01*
X118360400Y-103441609D01*
X118393413Y-103506400D01*
X118396950Y-103513342D01*
X118486658Y-103603050D01*
X118493595Y-103606585D01*
X118493597Y-103606586D01*
X118502078Y-103610907D01*
X118599696Y-103660646D01*
X118606473Y-103661719D01*
X118655591Y-103697404D01*
X118674500Y-103755597D01*
X118674500Y-103981466D01*
X118674123Y-103990095D01*
X118670736Y-104028807D01*
X118672978Y-104037174D01*
X118680796Y-104066349D01*
X118682666Y-104074784D01*
X118687052Y-104099658D01*
X118689412Y-104113045D01*
X118693742Y-104120544D01*
X118695738Y-104126029D01*
X118698204Y-104131316D01*
X118700446Y-104139684D01*
X118717346Y-104163819D01*
X118722732Y-104171511D01*
X118727371Y-104178792D01*
X118746806Y-104212455D01*
X118764601Y-104227387D01*
X118776571Y-104237431D01*
X118782939Y-104243265D01*
X119145504Y-104605830D01*
X119173281Y-104660347D01*
X119174500Y-104675834D01*
X119174500Y-104750911D01*
X119155593Y-104809102D01*
X119115740Y-104838055D01*
X119116874Y-104840281D01*
X119003719Y-104897936D01*
X119003717Y-104897937D01*
X118996780Y-104901472D01*
X118901472Y-104996780D01*
X118897937Y-105003717D01*
X118897936Y-105003719D01*
X118841726Y-105114038D01*
X118798461Y-105157303D01*
X118738029Y-105166874D01*
X118683512Y-105139097D01*
X118661092Y-105102510D01*
X118660646Y-105099696D01*
X118611743Y-105003719D01*
X118606586Y-104993597D01*
X118606585Y-104993595D01*
X118603050Y-104986658D01*
X118513342Y-104896950D01*
X118506405Y-104893415D01*
X118506403Y-104893414D01*
X118407244Y-104842890D01*
X118407243Y-104842890D01*
X118400304Y-104839354D01*
X118392610Y-104838135D01*
X118392609Y-104838135D01*
X118310365Y-104825109D01*
X118310363Y-104825109D01*
X118306519Y-104824500D01*
X118000040Y-104824500D01*
X117693482Y-104824501D01*
X117689639Y-104825110D01*
X117689634Y-104825110D01*
X117656581Y-104830345D01*
X117599696Y-104839354D01*
X117546794Y-104866309D01*
X117493597Y-104893414D01*
X117493595Y-104893415D01*
X117486658Y-104896950D01*
X117396950Y-104986658D01*
X117393415Y-104993595D01*
X117393414Y-104993597D01*
X117388257Y-105003719D01*
X117339354Y-105099696D01*
X117337114Y-105098555D01*
X117308192Y-105138364D01*
X117250001Y-105157272D01*
X117191810Y-105138365D01*
X117162886Y-105098555D01*
X117160646Y-105099696D01*
X117106586Y-104993597D01*
X117106585Y-104993595D01*
X117103050Y-104986658D01*
X117013342Y-104896950D01*
X117006405Y-104893415D01*
X117006403Y-104893414D01*
X116953206Y-104866309D01*
X116900304Y-104839354D01*
X116894977Y-104838510D01*
X116846459Y-104803260D01*
X116827552Y-104745069D01*
X116827929Y-104736440D01*
X116828508Y-104729822D01*
X116829263Y-104721193D01*
X116819205Y-104683657D01*
X116817337Y-104675231D01*
X116815218Y-104663213D01*
X116810588Y-104636955D01*
X116806255Y-104629450D01*
X116804262Y-104623973D01*
X116801795Y-104618682D01*
X116799553Y-104610316D01*
X116777264Y-104578484D01*
X116772628Y-104571206D01*
X116757524Y-104545044D01*
X116757523Y-104545042D01*
X116753194Y-104537545D01*
X116723429Y-104512569D01*
X116717062Y-104506735D01*
X116493275Y-104282949D01*
X116487439Y-104276581D01*
X116479348Y-104266939D01*
X116462455Y-104246806D01*
X116428792Y-104227371D01*
X116421511Y-104222732D01*
X116408462Y-104213595D01*
X116389684Y-104200446D01*
X116381316Y-104198204D01*
X116376029Y-104195738D01*
X116370544Y-104193742D01*
X116363045Y-104189412D01*
X116354519Y-104187909D01*
X116354517Y-104187908D01*
X116324784Y-104182666D01*
X116316349Y-104180796D01*
X116287174Y-104172978D01*
X116278807Y-104170736D01*
X116270178Y-104171491D01*
X116240095Y-104174123D01*
X116231466Y-104174500D01*
X115949500Y-104174500D01*
X115891309Y-104155593D01*
X115855345Y-104106093D01*
X115850500Y-104075500D01*
X115850499Y-102727728D01*
X115850499Y-102722868D01*
X115834515Y-102642505D01*
X115773624Y-102551376D01*
X115682495Y-102490485D01*
X115672932Y-102488583D01*
X115672930Y-102488582D01*
X115639009Y-102481835D01*
X115602133Y-102474500D01*
X115500022Y-102474500D01*
X115397868Y-102474501D01*
X115317505Y-102490485D01*
X115309395Y-102495904D01*
X115305000Y-102498840D01*
X115246112Y-102515448D01*
X115195000Y-102498840D01*
X115190607Y-102495905D01*
X115190606Y-102495904D01*
X115182495Y-102490485D01*
X115172932Y-102488583D01*
X115172930Y-102488582D01*
X115139009Y-102481835D01*
X115102133Y-102474500D01*
X115000022Y-102474500D01*
X114897868Y-102474501D01*
X114817505Y-102490485D01*
X114809395Y-102495904D01*
X114805000Y-102498840D01*
X114746112Y-102515448D01*
X114695000Y-102498840D01*
X114690607Y-102495905D01*
X114690606Y-102495904D01*
X114682495Y-102490485D01*
X114672932Y-102488583D01*
X114672930Y-102488582D01*
X114639009Y-102481835D01*
X114602133Y-102474500D01*
X114584567Y-102474500D01*
X114449500Y-102474501D01*
X114391310Y-102455594D01*
X114355346Y-102406094D01*
X114350500Y-102375501D01*
X114350500Y-101797953D01*
X114352718Y-101777115D01*
X114353230Y-101774739D01*
X114353230Y-101774738D01*
X114354952Y-101766740D01*
X114351186Y-101734921D01*
X114350839Y-101729043D01*
X114350837Y-101729043D01*
X114350500Y-101724965D01*
X114350500Y-101720885D01*
X114349159Y-101712825D01*
X114347509Y-101702918D01*
X114346851Y-101698297D01*
X114345069Y-101683243D01*
X114341237Y-101650862D01*
X114337882Y-101643877D01*
X114337460Y-101642543D01*
X114336188Y-101634897D01*
X114313505Y-101592859D01*
X114311400Y-101588726D01*
X114293424Y-101551291D01*
X114290727Y-101545674D01*
X114287408Y-101541726D01*
X114285903Y-101540221D01*
X114284719Y-101538930D01*
X114283852Y-101537902D01*
X114280778Y-101532206D01*
X114274773Y-101526655D01*
X114274769Y-101526650D01*
X114243982Y-101498191D01*
X114241179Y-101495497D01*
X113281745Y-100536063D01*
X113268580Y-100519760D01*
X113267267Y-100517726D01*
X113267264Y-100517722D01*
X113264725Y-100513790D01*
X113262825Y-100510847D01*
X113263293Y-100510545D01*
X113240634Y-100460368D01*
X113253039Y-100400454D01*
X113298292Y-100359273D01*
X113339036Y-100350500D01*
X115875500Y-100350500D01*
X115933691Y-100369407D01*
G37*
%TD.AperFunction*%
%TA.AperFunction,Conductor*%
G36*
X119374997Y-99102135D02*
G01*
X119408430Y-99122097D01*
X119408857Y-99122484D01*
X119410567Y-99124194D01*
X119449889Y-99156465D01*
X119451912Y-99157816D01*
X119451915Y-99157819D01*
X119487303Y-99181465D01*
X119487309Y-99181468D01*
X119489318Y-99182811D01*
X119534184Y-99206793D01*
X119539044Y-99208806D01*
X119577362Y-99224678D01*
X119577366Y-99224680D01*
X119579603Y-99225606D01*
X119581912Y-99226306D01*
X119581922Y-99226310D01*
X119625959Y-99239668D01*
X119625964Y-99239669D01*
X119628284Y-99240373D01*
X119630662Y-99240846D01*
X119686038Y-99251861D01*
X119686043Y-99251862D01*
X119687205Y-99252093D01*
X119712394Y-99255829D01*
X119732485Y-99257808D01*
X119735755Y-99258130D01*
X119735758Y-99258130D01*
X119736974Y-99258250D01*
X119738168Y-99258309D01*
X119738186Y-99258310D01*
X119749297Y-99258856D01*
X119762410Y-99259500D01*
X119916616Y-99259500D01*
X119974807Y-99278407D01*
X120010771Y-99327907D01*
X120010771Y-99389093D01*
X119986620Y-99428504D01*
X119977387Y-99437737D01*
X119906676Y-99533470D01*
X119899831Y-99546398D01*
X119859945Y-99659979D01*
X119857377Y-99671682D01*
X119855218Y-99694518D01*
X119855000Y-99699154D01*
X119855000Y-99809320D01*
X119859122Y-99822005D01*
X119863243Y-99825000D01*
X121179319Y-99825000D01*
X121192004Y-99820878D01*
X121194999Y-99816757D01*
X121194999Y-99699158D01*
X121194780Y-99694512D01*
X121192622Y-99671678D01*
X121190057Y-99659984D01*
X121150169Y-99546398D01*
X121143324Y-99533470D01*
X121072613Y-99437737D01*
X121063380Y-99428504D01*
X121035603Y-99373987D01*
X121045174Y-99313555D01*
X121088439Y-99270290D01*
X121133384Y-99259500D01*
X124119500Y-99259500D01*
X124156491Y-99255523D01*
X124172037Y-99253852D01*
X124172039Y-99253852D01*
X124174659Y-99253570D01*
X124177235Y-99253010D01*
X124177245Y-99253008D01*
X124179451Y-99252528D01*
X124240331Y-99258630D01*
X124285997Y-99299352D01*
X124299500Y-99349264D01*
X124299500Y-103652128D01*
X124280593Y-103710319D01*
X124231093Y-103746283D01*
X124186411Y-103750120D01*
X124119500Y-103740500D01*
X122633384Y-103740500D01*
X122575193Y-103721593D01*
X122539229Y-103672093D01*
X122539229Y-103610907D01*
X122563380Y-103571496D01*
X122572613Y-103562263D01*
X122643324Y-103466530D01*
X122650169Y-103453602D01*
X122690055Y-103340021D01*
X122692623Y-103328318D01*
X122694782Y-103305482D01*
X122695000Y-103300846D01*
X122695000Y-103190680D01*
X122690878Y-103177995D01*
X122686757Y-103175000D01*
X121370681Y-103175000D01*
X121357996Y-103179122D01*
X121355001Y-103183243D01*
X121355001Y-103300842D01*
X121355220Y-103305488D01*
X121357378Y-103328322D01*
X121359943Y-103340016D01*
X121399831Y-103453602D01*
X121406676Y-103466530D01*
X121477387Y-103562263D01*
X121486620Y-103571496D01*
X121514397Y-103626013D01*
X121504826Y-103686445D01*
X121461561Y-103729710D01*
X121416616Y-103740500D01*
X121050256Y-103740500D01*
X120992065Y-103721593D01*
X120956101Y-103672093D01*
X120956101Y-103610907D01*
X120980252Y-103571496D01*
X121048528Y-103503220D01*
X121053179Y-103494093D01*
X121106183Y-103390066D01*
X121106183Y-103390065D01*
X121109719Y-103383126D01*
X121112900Y-103363045D01*
X121124891Y-103287334D01*
X121124891Y-103287332D01*
X121125500Y-103283488D01*
X121125500Y-102809320D01*
X121355000Y-102809320D01*
X121359122Y-102822005D01*
X121363243Y-102825000D01*
X122679319Y-102825000D01*
X122692004Y-102820878D01*
X122694999Y-102816757D01*
X122694999Y-102699158D01*
X122694780Y-102694512D01*
X122692622Y-102671678D01*
X122690057Y-102659984D01*
X122650169Y-102546398D01*
X122643324Y-102533470D01*
X122572613Y-102437737D01*
X122562263Y-102427387D01*
X122466530Y-102356676D01*
X122453599Y-102349830D01*
X122445872Y-102347116D01*
X122397234Y-102309995D01*
X122379704Y-102251375D01*
X122399977Y-102193646D01*
X122433730Y-102165500D01*
X122518005Y-102122559D01*
X122530455Y-102113514D01*
X122613514Y-102030455D01*
X122622559Y-102018005D01*
X122675886Y-101913346D01*
X122680642Y-101898711D01*
X122694391Y-101811899D01*
X122695000Y-101804160D01*
X122695000Y-101690680D01*
X122690878Y-101677995D01*
X122686757Y-101675000D01*
X121470681Y-101675000D01*
X121457996Y-101679122D01*
X121455001Y-101683243D01*
X121455001Y-101804157D01*
X121455611Y-101811901D01*
X121469358Y-101898707D01*
X121474115Y-101913349D01*
X121527441Y-102018005D01*
X121536486Y-102030455D01*
X121619545Y-102113514D01*
X121631997Y-102122561D01*
X121675469Y-102144711D01*
X121718734Y-102187975D01*
X121728305Y-102248407D01*
X121700527Y-102302924D01*
X121663326Y-102326328D01*
X121596399Y-102349831D01*
X121583470Y-102356676D01*
X121487737Y-102427387D01*
X121477387Y-102437737D01*
X121406676Y-102533470D01*
X121399831Y-102546398D01*
X121359945Y-102659979D01*
X121357377Y-102671682D01*
X121355218Y-102694518D01*
X121355000Y-102699154D01*
X121355000Y-102809320D01*
X121125500Y-102809320D01*
X121125500Y-102716512D01*
X121124891Y-102712666D01*
X121110938Y-102624569D01*
X121110938Y-102624568D01*
X121109719Y-102616874D01*
X121094780Y-102587554D01*
X121052064Y-102503719D01*
X121052063Y-102503717D01*
X121048528Y-102496780D01*
X120953220Y-102401472D01*
X120946283Y-102397937D01*
X120946281Y-102397936D01*
X120833126Y-102340281D01*
X120834260Y-102338055D01*
X120794412Y-102309108D01*
X120775500Y-102250911D01*
X120775500Y-102208475D01*
X120794407Y-102150284D01*
X120829556Y-102120265D01*
X120856401Y-102106587D01*
X120856403Y-102106586D01*
X120863342Y-102103050D01*
X120953050Y-102013342D01*
X120983771Y-101953050D01*
X121007110Y-101907244D01*
X121007110Y-101907243D01*
X121010646Y-101900304D01*
X121025500Y-101806519D01*
X121025499Y-101309320D01*
X121455000Y-101309320D01*
X121459122Y-101322005D01*
X121463243Y-101325000D01*
X121884320Y-101325000D01*
X121897005Y-101320878D01*
X121900000Y-101316757D01*
X121900000Y-101309320D01*
X122250000Y-101309320D01*
X122254122Y-101322005D01*
X122258243Y-101325000D01*
X122679319Y-101325000D01*
X122692004Y-101320878D01*
X122694999Y-101316757D01*
X122694999Y-101195843D01*
X122694389Y-101188099D01*
X122680642Y-101101293D01*
X122675885Y-101086651D01*
X122622559Y-100981995D01*
X122613514Y-100969545D01*
X122530455Y-100886486D01*
X122518005Y-100877441D01*
X122413346Y-100824114D01*
X122398711Y-100819358D01*
X122311899Y-100805609D01*
X122304160Y-100805000D01*
X122265680Y-100805000D01*
X122252995Y-100809122D01*
X122250000Y-100813243D01*
X122250000Y-101309320D01*
X121900000Y-101309320D01*
X121900000Y-100820681D01*
X121895878Y-100807996D01*
X121891757Y-100805001D01*
X121845843Y-100805001D01*
X121838099Y-100805611D01*
X121751293Y-100819358D01*
X121736651Y-100824115D01*
X121631995Y-100877441D01*
X121619545Y-100886486D01*
X121536486Y-100969545D01*
X121527441Y-100981995D01*
X121474114Y-101086654D01*
X121469358Y-101101289D01*
X121455609Y-101188101D01*
X121455000Y-101195840D01*
X121455000Y-101309320D01*
X121025499Y-101309320D01*
X121025499Y-101193482D01*
X121024647Y-101188099D01*
X121012294Y-101110103D01*
X121010646Y-101099696D01*
X120953050Y-100986658D01*
X120863342Y-100896950D01*
X120856405Y-100893415D01*
X120856403Y-100893414D01*
X120835032Y-100882525D01*
X120819019Y-100874366D01*
X120775756Y-100831102D01*
X120766184Y-100770670D01*
X120793961Y-100716154D01*
X120834918Y-100693742D01*
X120834326Y-100692055D01*
X120953602Y-100650169D01*
X120966530Y-100643324D01*
X121062263Y-100572613D01*
X121072613Y-100562263D01*
X121143324Y-100466530D01*
X121150169Y-100453602D01*
X121190055Y-100340021D01*
X121192623Y-100328318D01*
X121194782Y-100305482D01*
X121195000Y-100300846D01*
X121195000Y-100190680D01*
X121190878Y-100177995D01*
X121186757Y-100175000D01*
X119870681Y-100175000D01*
X119857996Y-100179122D01*
X119855001Y-100183243D01*
X119855001Y-100300842D01*
X119855220Y-100305488D01*
X119857378Y-100328322D01*
X119859943Y-100340016D01*
X119899831Y-100453602D01*
X119906676Y-100466530D01*
X119977387Y-100562263D01*
X119987737Y-100572613D01*
X120083470Y-100643324D01*
X120096401Y-100650170D01*
X120103342Y-100652608D01*
X120151980Y-100689729D01*
X120169510Y-100748349D01*
X120149236Y-100806078D01*
X120103023Y-100838827D01*
X120099696Y-100839354D01*
X120049501Y-100864930D01*
X119993597Y-100893414D01*
X119993595Y-100893415D01*
X119986658Y-100896950D01*
X119896950Y-100986658D01*
X119893415Y-100993595D01*
X119893414Y-100993597D01*
X119874634Y-101030455D01*
X119839354Y-101099696D01*
X119837114Y-101098555D01*
X119808192Y-101138364D01*
X119750001Y-101157272D01*
X119691810Y-101138365D01*
X119662886Y-101098555D01*
X119660646Y-101099696D01*
X119606586Y-100993597D01*
X119606585Y-100993595D01*
X119603050Y-100986658D01*
X119513342Y-100896950D01*
X119506405Y-100893415D01*
X119506403Y-100893414D01*
X119407244Y-100842890D01*
X119407243Y-100842890D01*
X119400304Y-100839354D01*
X119392608Y-100838135D01*
X119381047Y-100836304D01*
X119326530Y-100808528D01*
X119298751Y-100754012D01*
X119308322Y-100693579D01*
X119351587Y-100650313D01*
X119446281Y-100602064D01*
X119446283Y-100602063D01*
X119453220Y-100598528D01*
X119548528Y-100503220D01*
X119559559Y-100481572D01*
X119606183Y-100390066D01*
X119606183Y-100390065D01*
X119609719Y-100383126D01*
X119614887Y-100350500D01*
X119624891Y-100287334D01*
X119624891Y-100287332D01*
X119625500Y-100283488D01*
X119625500Y-99716512D01*
X119623708Y-99705197D01*
X119610938Y-99624569D01*
X119610938Y-99624568D01*
X119609719Y-99616874D01*
X119605549Y-99608690D01*
X119552064Y-99503719D01*
X119552063Y-99503717D01*
X119548528Y-99496780D01*
X119453220Y-99401472D01*
X119446283Y-99397937D01*
X119446281Y-99397936D01*
X119340066Y-99343817D01*
X119340065Y-99343817D01*
X119333126Y-99340281D01*
X119325430Y-99339062D01*
X119295003Y-99334243D01*
X119240486Y-99306466D01*
X119212708Y-99251950D01*
X119222279Y-99191518D01*
X119231946Y-99176196D01*
X119261699Y-99137420D01*
X119263411Y-99135190D01*
X119313833Y-99100534D01*
X119374997Y-99102135D01*
G37*
%TD.AperFunction*%
%TA.AperFunction,Conductor*%
G36*
X111325282Y-101022631D02*
G01*
X111350967Y-101053186D01*
X111408431Y-101121549D01*
X111408434Y-101121551D01*
X111412970Y-101126948D01*
X111532313Y-101206390D01*
X111632920Y-101237821D01*
X111662425Y-101247039D01*
X111662426Y-101247039D01*
X111669157Y-101249142D01*
X111740828Y-101250456D01*
X111805445Y-101251641D01*
X111805447Y-101251641D01*
X111812499Y-101251770D01*
X111819302Y-101249915D01*
X111819304Y-101249915D01*
X111944013Y-101215915D01*
X111950817Y-101214060D01*
X111956827Y-101210370D01*
X111960820Y-101208642D01*
X112000137Y-101200500D01*
X112249885Y-101200500D01*
X112281891Y-101207742D01*
X112282313Y-101206390D01*
X112412425Y-101247039D01*
X112412426Y-101247039D01*
X112419157Y-101249142D01*
X112490828Y-101250456D01*
X112555445Y-101251641D01*
X112555447Y-101251641D01*
X112562499Y-101251770D01*
X112569302Y-101249915D01*
X112569304Y-101249915D01*
X112644503Y-101229413D01*
X112700817Y-101214060D01*
X112735817Y-101192570D01*
X112800023Y-101153148D01*
X112859506Y-101138812D01*
X112916054Y-101162178D01*
X112921828Y-101167510D01*
X113620504Y-101866186D01*
X113648281Y-101920703D01*
X113649500Y-101936190D01*
X113649500Y-103463500D01*
X113630593Y-103521691D01*
X113581093Y-103557655D01*
X113550500Y-103562500D01*
X113449500Y-103562500D01*
X113391309Y-103543593D01*
X113355345Y-103494093D01*
X113350500Y-103463500D01*
X113350499Y-102727730D01*
X113350499Y-102722868D01*
X113350167Y-102721198D01*
X113350000Y-102717802D01*
X113350000Y-102476161D01*
X113346479Y-102465326D01*
X113339091Y-102465326D01*
X113270643Y-102495729D01*
X113209788Y-102502071D01*
X113192570Y-102496717D01*
X113190601Y-102495902D01*
X113182495Y-102490485D01*
X113102133Y-102474500D01*
X113000022Y-102474500D01*
X112897868Y-102474501D01*
X112817505Y-102490485D01*
X112809395Y-102495904D01*
X112805000Y-102498840D01*
X112746112Y-102515448D01*
X112695000Y-102498840D01*
X112690607Y-102495905D01*
X112690606Y-102495904D01*
X112682495Y-102490485D01*
X112672932Y-102488583D01*
X112672930Y-102488582D01*
X112639009Y-102481835D01*
X112602133Y-102474500D01*
X112500022Y-102474500D01*
X112397868Y-102474501D01*
X112317505Y-102490485D01*
X112309395Y-102495904D01*
X112305000Y-102498840D01*
X112246112Y-102515448D01*
X112195000Y-102498840D01*
X112190607Y-102495905D01*
X112190606Y-102495904D01*
X112182495Y-102490485D01*
X112172932Y-102488583D01*
X112172930Y-102488582D01*
X112139009Y-102481835D01*
X112102133Y-102474500D01*
X112000022Y-102474500D01*
X111897868Y-102474501D01*
X111817505Y-102490485D01*
X111809395Y-102495904D01*
X111805000Y-102498840D01*
X111746112Y-102515448D01*
X111695000Y-102498840D01*
X111690607Y-102495905D01*
X111690606Y-102495904D01*
X111682495Y-102490485D01*
X111672932Y-102488583D01*
X111672930Y-102488582D01*
X111639009Y-102481835D01*
X111602133Y-102474500D01*
X111500022Y-102474500D01*
X111397868Y-102474501D01*
X111317505Y-102490485D01*
X111309395Y-102495904D01*
X111305000Y-102498840D01*
X111246112Y-102515448D01*
X111195000Y-102498840D01*
X111190607Y-102495905D01*
X111190606Y-102495904D01*
X111182495Y-102490485D01*
X111172932Y-102488583D01*
X111172930Y-102488582D01*
X111139009Y-102481835D01*
X111102133Y-102474500D01*
X111000022Y-102474500D01*
X110897868Y-102474501D01*
X110817505Y-102490485D01*
X110809395Y-102495904D01*
X110805000Y-102498840D01*
X110746112Y-102515448D01*
X110695000Y-102498840D01*
X110690607Y-102495905D01*
X110690606Y-102495904D01*
X110682495Y-102490485D01*
X110672932Y-102488583D01*
X110672930Y-102488582D01*
X110639009Y-102481835D01*
X110602133Y-102474500D01*
X110510188Y-102474500D01*
X110451997Y-102455593D01*
X110416033Y-102406093D01*
X110416033Y-102344907D01*
X110440182Y-102305499D01*
X110458090Y-102287591D01*
X110462704Y-102283524D01*
X110467794Y-102280778D01*
X110473345Y-102274773D01*
X110473350Y-102274769D01*
X110501809Y-102243982D01*
X110504503Y-102241179D01*
X111013937Y-101731745D01*
X111030240Y-101718580D01*
X111032274Y-101717267D01*
X111032278Y-101717264D01*
X111039152Y-101712825D01*
X111058985Y-101687668D01*
X111062899Y-101683263D01*
X111062898Y-101683262D01*
X111065551Y-101680131D01*
X111068428Y-101677254D01*
X111079044Y-101662399D01*
X111081835Y-101658681D01*
X111083540Y-101656519D01*
X111111392Y-101621189D01*
X111113958Y-101613882D01*
X111114605Y-101612637D01*
X111119111Y-101606331D01*
X111132792Y-101560585D01*
X111134233Y-101556149D01*
X111147993Y-101516967D01*
X111147994Y-101516964D01*
X111150055Y-101511094D01*
X111150500Y-101505956D01*
X111150500Y-101503818D01*
X111150574Y-101502099D01*
X111150689Y-101500738D01*
X111152544Y-101494536D01*
X111150576Y-101444446D01*
X111150500Y-101440559D01*
X111150500Y-101086333D01*
X111169407Y-101028142D01*
X111218907Y-100992178D01*
X111280093Y-100992178D01*
X111325282Y-101022631D01*
G37*
%TD.AperFunction*%
%TA.AperFunction,Conductor*%
G36*
X110011215Y-97428487D02*
G01*
X110028988Y-97437868D01*
X110056813Y-97456390D01*
X110063540Y-97458492D01*
X110063543Y-97458493D01*
X110186844Y-97497014D01*
X110236749Y-97532414D01*
X110255486Y-97578673D01*
X110256976Y-97590066D01*
X110262980Y-97635979D01*
X110265818Y-97642430D01*
X110265819Y-97642432D01*
X110317879Y-97760747D01*
X110320720Y-97767203D01*
X110371043Y-97827070D01*
X110398488Y-97859719D01*
X110412970Y-97876948D01*
X110416999Y-97879630D01*
X110447265Y-97931636D01*
X110449500Y-97952554D01*
X110449500Y-99502052D01*
X110447282Y-99522888D01*
X110445049Y-99533261D01*
X110446011Y-99541386D01*
X110448814Y-99565071D01*
X110449500Y-99576707D01*
X110449500Y-101263810D01*
X110430593Y-101322001D01*
X110420504Y-101333814D01*
X110133814Y-101620504D01*
X110079297Y-101648281D01*
X110063810Y-101649500D01*
X108558385Y-101649500D01*
X108558383Y-101649501D01*
X108536500Y-101649501D01*
X108478309Y-101630594D01*
X108442345Y-101581094D01*
X108437500Y-101550501D01*
X108437500Y-101449500D01*
X108456407Y-101391309D01*
X108505907Y-101355345D01*
X108536500Y-101350500D01*
X109266711Y-101350499D01*
X109277132Y-101350499D01*
X109278802Y-101350167D01*
X109282198Y-101350000D01*
X109523839Y-101350000D01*
X109534674Y-101346479D01*
X109534674Y-101339091D01*
X109504271Y-101270643D01*
X109497929Y-101209788D01*
X109503283Y-101192570D01*
X109504098Y-101190601D01*
X109509515Y-101182495D01*
X109525500Y-101102133D01*
X109525499Y-100897868D01*
X109509515Y-100817505D01*
X109501568Y-100805611D01*
X109501160Y-100805000D01*
X109484552Y-100746112D01*
X109501160Y-100695000D01*
X109504095Y-100690607D01*
X109504096Y-100690605D01*
X109509515Y-100682495D01*
X109511417Y-100672932D01*
X109511418Y-100672930D01*
X109524552Y-100606897D01*
X109525500Y-100602133D01*
X109525499Y-100397868D01*
X109509515Y-100317505D01*
X109504046Y-100309320D01*
X109501160Y-100305000D01*
X109484552Y-100246112D01*
X109501160Y-100195000D01*
X109504095Y-100190607D01*
X109504096Y-100190606D01*
X109509515Y-100182495D01*
X109525500Y-100102133D01*
X109525499Y-99897868D01*
X109509515Y-99817505D01*
X109501568Y-99805611D01*
X109501160Y-99805000D01*
X109484552Y-99746112D01*
X109501160Y-99695000D01*
X109504095Y-99690607D01*
X109504096Y-99690606D01*
X109509515Y-99682495D01*
X109525500Y-99602133D01*
X109525499Y-99397868D01*
X109509515Y-99317505D01*
X109502139Y-99306466D01*
X109501160Y-99305000D01*
X109484552Y-99246112D01*
X109501160Y-99195000D01*
X109504095Y-99190607D01*
X109504096Y-99190605D01*
X109509515Y-99182495D01*
X109511417Y-99172932D01*
X109511418Y-99172930D01*
X109524552Y-99106897D01*
X109525500Y-99102133D01*
X109525499Y-98897868D01*
X109509515Y-98817505D01*
X109501602Y-98805662D01*
X109501160Y-98805000D01*
X109484552Y-98746112D01*
X109501160Y-98695000D01*
X109504095Y-98690607D01*
X109504096Y-98690605D01*
X109509515Y-98682495D01*
X109511417Y-98672932D01*
X109511418Y-98672930D01*
X109524552Y-98606897D01*
X109525500Y-98602133D01*
X109525499Y-98397868D01*
X109509515Y-98317505D01*
X109504095Y-98309393D01*
X109501160Y-98305000D01*
X109484552Y-98246112D01*
X109501160Y-98195000D01*
X109504095Y-98190607D01*
X109504096Y-98190605D01*
X109509515Y-98182495D01*
X109511417Y-98172932D01*
X109511418Y-98172930D01*
X109521058Y-98124464D01*
X109525500Y-98102133D01*
X109525499Y-97897868D01*
X109524551Y-97893101D01*
X109524551Y-97893099D01*
X109521532Y-97877921D01*
X109528725Y-97817159D01*
X109561857Y-97777505D01*
X109562207Y-97777260D01*
X109569480Y-97772627D01*
X109603140Y-97753194D01*
X109628116Y-97723429D01*
X109633950Y-97717061D01*
X109867057Y-97483954D01*
X109873425Y-97478119D01*
X109896561Y-97458706D01*
X109896562Y-97458705D01*
X109903194Y-97453140D01*
X109903436Y-97453429D01*
X109950179Y-97424220D01*
X110011215Y-97428487D01*
G37*
%TD.AperFunction*%
%TA.AperFunction,Conductor*%
G36*
X118694500Y-92154826D02*
G01*
X118756759Y-92217086D01*
X118762548Y-92223404D01*
X118787545Y-92253194D01*
X118795042Y-92257523D01*
X118795044Y-92257524D01*
X118821206Y-92272628D01*
X118828484Y-92277264D01*
X118860316Y-92299553D01*
X118868682Y-92301795D01*
X118873973Y-92304262D01*
X118879451Y-92306256D01*
X118886955Y-92310588D01*
X118895487Y-92312092D01*
X118895489Y-92312093D01*
X118908133Y-92314322D01*
X118962157Y-92343045D01*
X118983532Y-92385914D01*
X118985729Y-92385200D01*
X118988135Y-92392604D01*
X118989354Y-92400304D01*
X118992892Y-92407247D01*
X119043414Y-92506402D01*
X119046950Y-92513342D01*
X119136658Y-92603050D01*
X119143597Y-92606586D01*
X119143599Y-92606587D01*
X119170444Y-92620265D01*
X119213709Y-92663529D01*
X119224500Y-92708475D01*
X119224500Y-92750911D01*
X119205593Y-92809102D01*
X119165740Y-92838055D01*
X119166874Y-92840281D01*
X119053719Y-92897936D01*
X119053717Y-92897937D01*
X119046780Y-92901472D01*
X118951472Y-92996780D01*
X118947937Y-93003717D01*
X118947936Y-93003719D01*
X118895477Y-93106676D01*
X118890281Y-93116874D01*
X118889062Y-93124568D01*
X118889062Y-93124569D01*
X118877194Y-93199501D01*
X118874500Y-93216512D01*
X118874500Y-93783488D01*
X118875109Y-93787332D01*
X118875109Y-93787334D01*
X118877666Y-93803475D01*
X118890281Y-93883126D01*
X118893817Y-93890065D01*
X118893817Y-93890066D01*
X118946571Y-93993601D01*
X118951472Y-94003220D01*
X119046780Y-94098528D01*
X119053717Y-94102063D01*
X119053719Y-94102064D01*
X119166874Y-94159719D01*
X119165740Y-94161945D01*
X119205588Y-94190892D01*
X119224500Y-94249089D01*
X119224500Y-94291525D01*
X119205593Y-94349716D01*
X119170444Y-94379735D01*
X119143599Y-94393413D01*
X119143597Y-94393414D01*
X119136658Y-94396950D01*
X119046950Y-94486658D01*
X119043415Y-94493595D01*
X119043414Y-94493597D01*
X119003463Y-94572005D01*
X118989354Y-94599696D01*
X118988135Y-94607390D01*
X118988135Y-94607391D01*
X118975352Y-94688099D01*
X118974500Y-94693481D01*
X118974501Y-95306518D01*
X118975110Y-95310361D01*
X118975110Y-95310366D01*
X118975872Y-95315174D01*
X118989354Y-95400304D01*
X119018152Y-95456823D01*
X119036107Y-95492061D01*
X119046950Y-95513342D01*
X119123959Y-95590351D01*
X119151736Y-95644868D01*
X119142165Y-95705300D01*
X119123959Y-95730359D01*
X118536063Y-96318255D01*
X118519760Y-96331420D01*
X118517726Y-96332733D01*
X118517722Y-96332736D01*
X118510848Y-96337175D01*
X118491015Y-96362332D01*
X118487101Y-96366737D01*
X118487102Y-96366738D01*
X118484449Y-96369869D01*
X118481572Y-96372746D01*
X118470956Y-96387601D01*
X118468170Y-96391312D01*
X118438608Y-96428811D01*
X118436042Y-96436118D01*
X118435395Y-96437363D01*
X118430889Y-96443669D01*
X118428545Y-96451508D01*
X118417208Y-96489415D01*
X118415767Y-96493851D01*
X118402595Y-96531361D01*
X118399945Y-96538906D01*
X118399500Y-96544044D01*
X118399500Y-96546182D01*
X118399426Y-96547901D01*
X118399311Y-96549262D01*
X118397456Y-96555464D01*
X118397777Y-96563635D01*
X118399424Y-96605554D01*
X118399500Y-96609441D01*
X118399500Y-97563810D01*
X118380593Y-97622001D01*
X118370504Y-97633814D01*
X118019503Y-97984815D01*
X117964986Y-98012592D01*
X117904554Y-98003021D01*
X117861289Y-97959756D01*
X117850499Y-97914811D01*
X117850499Y-97897868D01*
X117834515Y-97817505D01*
X117828493Y-97808492D01*
X117826160Y-97805000D01*
X117809552Y-97746112D01*
X117826160Y-97695000D01*
X117829095Y-97690607D01*
X117829096Y-97690605D01*
X117834515Y-97682495D01*
X117836417Y-97672932D01*
X117836418Y-97672930D01*
X117849552Y-97606897D01*
X117850500Y-97602133D01*
X117850499Y-97397868D01*
X117842586Y-97358082D01*
X117836417Y-97327066D01*
X117836416Y-97327064D01*
X117834515Y-97317505D01*
X117829099Y-97309399D01*
X117828318Y-97307514D01*
X117823518Y-97246517D01*
X117829236Y-97229599D01*
X117858086Y-97164340D01*
X117859247Y-97153009D01*
X117852442Y-97150000D01*
X117607210Y-97150000D01*
X117603805Y-97149833D01*
X117602133Y-97149500D01*
X116912642Y-97149500D01*
X116222868Y-97149501D01*
X116221198Y-97149833D01*
X116217802Y-97150000D01*
X115976161Y-97150000D01*
X115965326Y-97153521D01*
X115965326Y-97160909D01*
X115995729Y-97229357D01*
X116002071Y-97290212D01*
X115996717Y-97307430D01*
X115995902Y-97309399D01*
X115990485Y-97317505D01*
X115974500Y-97397867D01*
X115974501Y-97602132D01*
X115990485Y-97682495D01*
X115995904Y-97690605D01*
X115998840Y-97695000D01*
X116015448Y-97753888D01*
X115998840Y-97805000D01*
X115996507Y-97808492D01*
X115990485Y-97817505D01*
X115988583Y-97827068D01*
X115988582Y-97827070D01*
X115985379Y-97843176D01*
X115974500Y-97897867D01*
X115974501Y-98102132D01*
X115990485Y-98182495D01*
X115995904Y-98190605D01*
X115998840Y-98195000D01*
X116015448Y-98253888D01*
X115998840Y-98305000D01*
X115995905Y-98309393D01*
X115990485Y-98317505D01*
X115988583Y-98327068D01*
X115988583Y-98327069D01*
X115974500Y-98397867D01*
X115974501Y-98602132D01*
X115990485Y-98682495D01*
X115995904Y-98690605D01*
X115998840Y-98695000D01*
X116015448Y-98753888D01*
X115998840Y-98805000D01*
X115998398Y-98805662D01*
X115990485Y-98817505D01*
X115988583Y-98827068D01*
X115988582Y-98827070D01*
X115982958Y-98855346D01*
X115974500Y-98897867D01*
X115974501Y-99102132D01*
X115990485Y-99182495D01*
X115995904Y-99190605D01*
X115998840Y-99195000D01*
X116015448Y-99253888D01*
X115998840Y-99305000D01*
X115997861Y-99306466D01*
X115990485Y-99317505D01*
X115988583Y-99327068D01*
X115988582Y-99327070D01*
X115984168Y-99349264D01*
X115974500Y-99397867D01*
X115974501Y-99496780D01*
X115974501Y-99550499D01*
X115955594Y-99608690D01*
X115906094Y-99644654D01*
X115875501Y-99649500D01*
X113020610Y-99649500D01*
X112962419Y-99630593D01*
X112926455Y-99581093D01*
X112926455Y-99519907D01*
X112931516Y-99507335D01*
X112978633Y-99410085D01*
X112978634Y-99410082D01*
X112981710Y-99403733D01*
X112983462Y-99393324D01*
X113004730Y-99266907D01*
X113032354Y-99213328D01*
X115366186Y-96879496D01*
X115420703Y-96851719D01*
X115436190Y-96850500D01*
X116941615Y-96850500D01*
X116941617Y-96850499D01*
X117602132Y-96850499D01*
X117603802Y-96850167D01*
X117607198Y-96850000D01*
X117848839Y-96850000D01*
X117859674Y-96846479D01*
X117859674Y-96839091D01*
X117829271Y-96770643D01*
X117822929Y-96709788D01*
X117828283Y-96692570D01*
X117829098Y-96690601D01*
X117834515Y-96682495D01*
X117850500Y-96602133D01*
X117850499Y-96397868D01*
X117834515Y-96317505D01*
X117773624Y-96226376D01*
X117682495Y-96165485D01*
X117672932Y-96163583D01*
X117672930Y-96163582D01*
X117637148Y-96156465D01*
X117602133Y-96149500D01*
X115949500Y-96149500D01*
X115891309Y-96130593D01*
X115855345Y-96081093D01*
X115850500Y-96050500D01*
X115850500Y-95304157D01*
X117305001Y-95304157D01*
X117305611Y-95311901D01*
X117319358Y-95398707D01*
X117324115Y-95413349D01*
X117377441Y-95518005D01*
X117386486Y-95530455D01*
X117469545Y-95613514D01*
X117481995Y-95622559D01*
X117586654Y-95675886D01*
X117601289Y-95680642D01*
X117688101Y-95694391D01*
X117695840Y-95695000D01*
X117734320Y-95695000D01*
X117747005Y-95690878D01*
X117750000Y-95686757D01*
X117750000Y-95679319D01*
X118100000Y-95679319D01*
X118104122Y-95692004D01*
X118108243Y-95694999D01*
X118154157Y-95694999D01*
X118161901Y-95694389D01*
X118248707Y-95680642D01*
X118263349Y-95675885D01*
X118368005Y-95622559D01*
X118380455Y-95613514D01*
X118463514Y-95530455D01*
X118472559Y-95518005D01*
X118525886Y-95413346D01*
X118530642Y-95398711D01*
X118544391Y-95311899D01*
X118545000Y-95304160D01*
X118545000Y-95190680D01*
X118540878Y-95177995D01*
X118536757Y-95175000D01*
X118115680Y-95175000D01*
X118102995Y-95179122D01*
X118100000Y-95183243D01*
X118100000Y-95679319D01*
X117750000Y-95679319D01*
X117750000Y-95190680D01*
X117745878Y-95177995D01*
X117741757Y-95175000D01*
X117320681Y-95175000D01*
X117307996Y-95179122D01*
X117305001Y-95183243D01*
X117305001Y-95304157D01*
X115850500Y-95304157D01*
X115850500Y-94809320D01*
X117305000Y-94809320D01*
X117309122Y-94822005D01*
X117313243Y-94825000D01*
X118529319Y-94825000D01*
X118542004Y-94820878D01*
X118544999Y-94816757D01*
X118544999Y-94695843D01*
X118544389Y-94688099D01*
X118530642Y-94601293D01*
X118525885Y-94586651D01*
X118472559Y-94481995D01*
X118463514Y-94469545D01*
X118380455Y-94386486D01*
X118368003Y-94377439D01*
X118324531Y-94355289D01*
X118281266Y-94312025D01*
X118271695Y-94251593D01*
X118299473Y-94197076D01*
X118336674Y-94173672D01*
X118403601Y-94150169D01*
X118416530Y-94143324D01*
X118512263Y-94072613D01*
X118522613Y-94062263D01*
X118593324Y-93966530D01*
X118600169Y-93953602D01*
X118640055Y-93840021D01*
X118642623Y-93828318D01*
X118644782Y-93805482D01*
X118645000Y-93800846D01*
X118645000Y-93690680D01*
X118640878Y-93677995D01*
X118636757Y-93675000D01*
X117320681Y-93675000D01*
X117307996Y-93679122D01*
X117305001Y-93683243D01*
X117305001Y-93800842D01*
X117305220Y-93805488D01*
X117307378Y-93828322D01*
X117309943Y-93840016D01*
X117349831Y-93953602D01*
X117356676Y-93966530D01*
X117427387Y-94062263D01*
X117437737Y-94072613D01*
X117533470Y-94143324D01*
X117546401Y-94150170D01*
X117554128Y-94152884D01*
X117602766Y-94190005D01*
X117620296Y-94248625D01*
X117600023Y-94306354D01*
X117566270Y-94334500D01*
X117481995Y-94377441D01*
X117469545Y-94386486D01*
X117386486Y-94469545D01*
X117377441Y-94481995D01*
X117324114Y-94586654D01*
X117319358Y-94601289D01*
X117305609Y-94688101D01*
X117305000Y-94695840D01*
X117305000Y-94809320D01*
X115850500Y-94809320D01*
X115850500Y-94436190D01*
X115869407Y-94377999D01*
X115879496Y-94366186D01*
X116463937Y-93781745D01*
X116480240Y-93768580D01*
X116482274Y-93767267D01*
X116482278Y-93767264D01*
X116489152Y-93762825D01*
X116508985Y-93737668D01*
X116512899Y-93733263D01*
X116512898Y-93733262D01*
X116515551Y-93730131D01*
X116518428Y-93727254D01*
X116529044Y-93712399D01*
X116531835Y-93708681D01*
X116556327Y-93677614D01*
X116556327Y-93677613D01*
X116561392Y-93671189D01*
X116563958Y-93663882D01*
X116564605Y-93662637D01*
X116569111Y-93656331D01*
X116578174Y-93626027D01*
X116582793Y-93610583D01*
X116584234Y-93606149D01*
X116597992Y-93566970D01*
X116597993Y-93566967D01*
X116600055Y-93561094D01*
X116600500Y-93555956D01*
X116600500Y-93553818D01*
X116600574Y-93552100D01*
X116600689Y-93550739D01*
X116602544Y-93544537D01*
X116600576Y-93494446D01*
X116600500Y-93490559D01*
X116600500Y-93487010D01*
X116619407Y-93428819D01*
X116654554Y-93398801D01*
X116706689Y-93372237D01*
X116746281Y-93352064D01*
X116746283Y-93352063D01*
X116753220Y-93348528D01*
X116848528Y-93253220D01*
X116868125Y-93214760D01*
X116906183Y-93140066D01*
X116906183Y-93140065D01*
X116909719Y-93133126D01*
X116911075Y-93124569D01*
X116924891Y-93037334D01*
X116924891Y-93037332D01*
X116925500Y-93033488D01*
X116925500Y-92516512D01*
X116924891Y-92512666D01*
X116913380Y-92439987D01*
X116922952Y-92379555D01*
X116966216Y-92336290D01*
X117011161Y-92325500D01*
X117244403Y-92325500D01*
X117302594Y-92344407D01*
X117338281Y-92393527D01*
X117339354Y-92400304D01*
X117342892Y-92407247D01*
X117342893Y-92407249D01*
X117393414Y-92506402D01*
X117396950Y-92513342D01*
X117486658Y-92603050D01*
X117493598Y-92606586D01*
X117493602Y-92606589D01*
X117591696Y-92656571D01*
X117634961Y-92699835D01*
X117644532Y-92760267D01*
X117616754Y-92814784D01*
X117579553Y-92838188D01*
X117546399Y-92849831D01*
X117533470Y-92856676D01*
X117437737Y-92927387D01*
X117427387Y-92937737D01*
X117356676Y-93033470D01*
X117349831Y-93046398D01*
X117309945Y-93159979D01*
X117307377Y-93171682D01*
X117305218Y-93194518D01*
X117305000Y-93199154D01*
X117305000Y-93309320D01*
X117309122Y-93322005D01*
X117313243Y-93325000D01*
X118629319Y-93325000D01*
X118642004Y-93320878D01*
X118644999Y-93316757D01*
X118644999Y-93199158D01*
X118644780Y-93194512D01*
X118642622Y-93171678D01*
X118640057Y-93159984D01*
X118600169Y-93046398D01*
X118593324Y-93033470D01*
X118522613Y-92937737D01*
X118512263Y-92927387D01*
X118416530Y-92856676D01*
X118403602Y-92849831D01*
X118311247Y-92817399D01*
X118262608Y-92780279D01*
X118245076Y-92721659D01*
X118265349Y-92663930D01*
X118299104Y-92635781D01*
X118356403Y-92606586D01*
X118356405Y-92606585D01*
X118363342Y-92603050D01*
X118453050Y-92513342D01*
X118456587Y-92506402D01*
X118507110Y-92407244D01*
X118507110Y-92407243D01*
X118510646Y-92400304D01*
X118512808Y-92386658D01*
X118524891Y-92310365D01*
X118524891Y-92310363D01*
X118525500Y-92306519D01*
X118525500Y-92224833D01*
X118544407Y-92166642D01*
X118593907Y-92130678D01*
X118655093Y-92130678D01*
X118694500Y-92154826D01*
G37*
%TD.AperFunction*%
%TA.AperFunction,Conductor*%
G36*
X110608691Y-94956407D02*
G01*
X110644655Y-95005907D01*
X110649500Y-95036500D01*
X110649501Y-95404830D01*
X110649501Y-95777132D01*
X110649833Y-95778802D01*
X110650000Y-95782198D01*
X110650000Y-96023839D01*
X110653521Y-96034674D01*
X110660909Y-96034674D01*
X110729357Y-96004271D01*
X110790212Y-95997929D01*
X110807430Y-96003283D01*
X110809399Y-96004098D01*
X110817505Y-96009515D01*
X110897867Y-96025500D01*
X110999978Y-96025500D01*
X111102132Y-96025499D01*
X111182495Y-96009515D01*
X111191822Y-96003283D01*
X111195000Y-96001160D01*
X111253888Y-95984552D01*
X111305000Y-96001160D01*
X111309393Y-96004095D01*
X111309394Y-96004096D01*
X111317505Y-96009515D01*
X111327068Y-96011417D01*
X111327070Y-96011418D01*
X111350499Y-96016078D01*
X111397867Y-96025500D01*
X111499978Y-96025500D01*
X111602132Y-96025499D01*
X111682495Y-96009515D01*
X111691822Y-96003283D01*
X111695000Y-96001160D01*
X111753888Y-95984552D01*
X111805000Y-96001160D01*
X111809393Y-96004095D01*
X111809394Y-96004096D01*
X111817505Y-96009515D01*
X111827068Y-96011417D01*
X111827070Y-96011418D01*
X111850499Y-96016078D01*
X111897867Y-96025500D01*
X111999978Y-96025500D01*
X112102132Y-96025499D01*
X112182495Y-96009515D01*
X112191822Y-96003283D01*
X112195000Y-96001160D01*
X112253888Y-95984552D01*
X112305000Y-96001160D01*
X112309393Y-96004095D01*
X112309394Y-96004096D01*
X112317505Y-96009515D01*
X112327068Y-96011417D01*
X112327070Y-96011418D01*
X112350499Y-96016078D01*
X112397867Y-96025500D01*
X112499978Y-96025500D01*
X112602132Y-96025499D01*
X112682495Y-96009515D01*
X112691822Y-96003283D01*
X112695000Y-96001160D01*
X112753888Y-95984552D01*
X112805000Y-96001160D01*
X112809393Y-96004095D01*
X112809394Y-96004096D01*
X112817505Y-96009515D01*
X112827068Y-96011417D01*
X112827070Y-96011418D01*
X112850499Y-96016078D01*
X112897867Y-96025500D01*
X112999978Y-96025500D01*
X113102132Y-96025499D01*
X113182495Y-96009515D01*
X113191822Y-96003283D01*
X113195000Y-96001160D01*
X113253888Y-95984552D01*
X113305000Y-96001160D01*
X113309393Y-96004095D01*
X113309394Y-96004096D01*
X113317505Y-96009515D01*
X113327068Y-96011417D01*
X113327070Y-96011418D01*
X113350499Y-96016078D01*
X113397867Y-96025500D01*
X113499978Y-96025500D01*
X113602132Y-96025499D01*
X113682495Y-96009515D01*
X113691822Y-96003283D01*
X113695000Y-96001160D01*
X113753888Y-95984552D01*
X113805000Y-96001160D01*
X113809393Y-96004095D01*
X113809394Y-96004096D01*
X113817505Y-96009515D01*
X113827068Y-96011417D01*
X113827070Y-96011418D01*
X113850499Y-96016078D01*
X113897867Y-96025500D01*
X113999978Y-96025500D01*
X114102132Y-96025499D01*
X114182495Y-96009515D01*
X114191822Y-96003283D01*
X114195000Y-96001160D01*
X114253888Y-95984552D01*
X114305000Y-96001160D01*
X114309393Y-96004095D01*
X114309394Y-96004096D01*
X114317505Y-96009515D01*
X114327068Y-96011417D01*
X114327070Y-96011418D01*
X114350499Y-96016078D01*
X114397867Y-96025500D01*
X114499978Y-96025500D01*
X114602132Y-96025499D01*
X114682495Y-96009515D01*
X114691822Y-96003283D01*
X114695000Y-96001160D01*
X114753888Y-95984552D01*
X114805000Y-96001160D01*
X114809393Y-96004095D01*
X114809394Y-96004096D01*
X114817505Y-96009515D01*
X114827068Y-96011417D01*
X114827070Y-96011418D01*
X114850499Y-96016078D01*
X114897867Y-96025500D01*
X114989810Y-96025500D01*
X115048001Y-96044407D01*
X115083965Y-96093907D01*
X115083965Y-96155093D01*
X115059814Y-96194504D01*
X115041914Y-96212404D01*
X115037294Y-96216477D01*
X115032206Y-96219222D01*
X115026655Y-96225227D01*
X115026651Y-96225230D01*
X114998191Y-96256018D01*
X114995497Y-96258821D01*
X112534085Y-98720233D01*
X112479568Y-98748010D01*
X112463477Y-98749227D01*
X112438427Y-98749074D01*
X112438426Y-98749074D01*
X112431376Y-98749031D01*
X112424599Y-98750968D01*
X112424598Y-98750968D01*
X112300306Y-98786491D01*
X112293529Y-98788428D01*
X112289220Y-98791147D01*
X112250092Y-98799500D01*
X111999905Y-98799500D01*
X111962565Y-98791290D01*
X111962095Y-98790985D01*
X111955337Y-98788964D01*
X111955335Y-98788963D01*
X111831500Y-98751929D01*
X111824739Y-98749907D01*
X111741497Y-98749398D01*
X111688427Y-98749074D01*
X111688426Y-98749074D01*
X111681376Y-98749031D01*
X111674599Y-98750968D01*
X111674598Y-98750968D01*
X111550309Y-98786490D01*
X111550307Y-98786491D01*
X111543529Y-98788428D01*
X111422280Y-98864930D01*
X111417613Y-98870214D01*
X111417611Y-98870216D01*
X111327377Y-98972388D01*
X111326374Y-98971502D01*
X111284497Y-99005054D01*
X111223380Y-99007938D01*
X111172239Y-98974348D01*
X111150500Y-98912446D01*
X111150500Y-97838958D01*
X111166910Y-97785284D01*
X111169200Y-97782754D01*
X111231710Y-97653733D01*
X111233612Y-97642432D01*
X111254862Y-97516124D01*
X111254862Y-97516120D01*
X111255496Y-97512354D01*
X111255647Y-97500000D01*
X111235323Y-97358082D01*
X111175984Y-97227572D01*
X111082400Y-97118963D01*
X110962095Y-97040985D01*
X110955337Y-97038964D01*
X110955335Y-97038963D01*
X110838797Y-97004111D01*
X110788463Y-96969324D01*
X110769163Y-96923297D01*
X110760823Y-96865066D01*
X110759823Y-96858082D01*
X110738043Y-96810180D01*
X110703405Y-96733996D01*
X110703404Y-96733995D01*
X110700484Y-96727572D01*
X110606900Y-96618963D01*
X110539242Y-96575109D01*
X110492514Y-96544821D01*
X110492511Y-96544820D01*
X110486595Y-96540985D01*
X110482159Y-96539658D01*
X110438081Y-96498843D01*
X110425500Y-96450544D01*
X110425500Y-96091442D01*
X110425877Y-96082813D01*
X110428508Y-96052739D01*
X110429263Y-96044112D01*
X110427022Y-96035749D01*
X110427022Y-96035746D01*
X110419206Y-96006575D01*
X110417337Y-95998147D01*
X110414582Y-95982523D01*
X110410588Y-95959874D01*
X110406257Y-95952373D01*
X110404258Y-95946879D01*
X110401795Y-95941597D01*
X110399554Y-95933235D01*
X110390564Y-95920395D01*
X110377261Y-95901397D01*
X110372636Y-95894138D01*
X110363262Y-95877902D01*
X110350000Y-95828406D01*
X110350000Y-95782210D01*
X110350167Y-95778805D01*
X110350500Y-95777133D01*
X110350499Y-95036499D01*
X110369406Y-94978309D01*
X110418906Y-94942345D01*
X110449499Y-94937500D01*
X110550500Y-94937500D01*
X110608691Y-94956407D01*
G37*
%TD.AperFunction*%
%TA.AperFunction,Conductor*%
G36*
X107149774Y-92756907D02*
G01*
X107161587Y-92766996D01*
X107244249Y-92849658D01*
X107251186Y-92853193D01*
X107251188Y-92853194D01*
X107350131Y-92903608D01*
X107393396Y-92946873D01*
X107402967Y-93007305D01*
X107375189Y-93061822D01*
X107337988Y-93085226D01*
X107296398Y-93099831D01*
X107283470Y-93106676D01*
X107187737Y-93177387D01*
X107177387Y-93187737D01*
X107106676Y-93283470D01*
X107099831Y-93296398D01*
X107059945Y-93409979D01*
X107057377Y-93421682D01*
X107055218Y-93444518D01*
X107055000Y-93449154D01*
X107055000Y-93534320D01*
X107059122Y-93547005D01*
X107063243Y-93550000D01*
X107826000Y-93550000D01*
X107884191Y-93568907D01*
X107920155Y-93618407D01*
X107925000Y-93649000D01*
X107925000Y-94379319D01*
X107929122Y-94392004D01*
X107933243Y-94394999D01*
X108050842Y-94394999D01*
X108055488Y-94394780D01*
X108078322Y-94392622D01*
X108090013Y-94390058D01*
X108142697Y-94371556D01*
X108203866Y-94370115D01*
X108254199Y-94404902D01*
X108274500Y-94464964D01*
X108274500Y-94551236D01*
X108255593Y-94609427D01*
X108206093Y-94645391D01*
X108144908Y-94645391D01*
X108140070Y-94643819D01*
X108133126Y-94640281D01*
X108094602Y-94634180D01*
X108037334Y-94625109D01*
X108037332Y-94625109D01*
X108033488Y-94624500D01*
X107466512Y-94624500D01*
X107462668Y-94625109D01*
X107462666Y-94625109D01*
X107374569Y-94639062D01*
X107374568Y-94639062D01*
X107366874Y-94640281D01*
X107359935Y-94643817D01*
X107359934Y-94643817D01*
X107253719Y-94697936D01*
X107253717Y-94697937D01*
X107246780Y-94701472D01*
X107151472Y-94796780D01*
X107147937Y-94803717D01*
X107147936Y-94803719D01*
X107113938Y-94870445D01*
X107070673Y-94913710D01*
X107025728Y-94924500D01*
X107018522Y-94924500D01*
X107009893Y-94924123D01*
X106979822Y-94921492D01*
X106971193Y-94920737D01*
X106933657Y-94930795D01*
X106925231Y-94932663D01*
X106916038Y-94934284D01*
X106886955Y-94939412D01*
X106879450Y-94943745D01*
X106873973Y-94945738D01*
X106868682Y-94948205D01*
X106860316Y-94950447D01*
X106828484Y-94972736D01*
X106821206Y-94977372D01*
X106795044Y-94992476D01*
X106795042Y-94992477D01*
X106787545Y-94996806D01*
X106762569Y-95026571D01*
X106756735Y-95032938D01*
X106657878Y-95131796D01*
X106598332Y-95191342D01*
X106543815Y-95219120D01*
X106483383Y-95209549D01*
X106473326Y-95203654D01*
X106423225Y-95170177D01*
X106423223Y-95170176D01*
X106415117Y-95164760D01*
X106405556Y-95162858D01*
X106405553Y-95162857D01*
X106399689Y-95161691D01*
X106346304Y-95131796D01*
X106320687Y-95076232D01*
X106320000Y-95064593D01*
X106320000Y-94940680D01*
X106315878Y-94927995D01*
X106311757Y-94925000D01*
X104695681Y-94925000D01*
X104682996Y-94929122D01*
X104680001Y-94933243D01*
X104680001Y-95064593D01*
X104661094Y-95122784D01*
X104611594Y-95158748D01*
X104600312Y-95161691D01*
X104594445Y-95162858D01*
X104594444Y-95162858D01*
X104584883Y-95164760D01*
X104497888Y-95222888D01*
X104471984Y-95261657D01*
X104456816Y-95284357D01*
X104408766Y-95322237D01*
X104347628Y-95324639D01*
X104296754Y-95290647D01*
X104275500Y-95229356D01*
X104275500Y-94270644D01*
X104294407Y-94212453D01*
X104343907Y-94176489D01*
X104405093Y-94176489D01*
X104456816Y-94215643D01*
X104497888Y-94277112D01*
X104584883Y-94335240D01*
X104594444Y-94337142D01*
X104594447Y-94337143D01*
X104600311Y-94338309D01*
X104653696Y-94368204D01*
X104679313Y-94423768D01*
X104680000Y-94435407D01*
X104680000Y-94559320D01*
X104684122Y-94572005D01*
X104688243Y-94575000D01*
X106304319Y-94575000D01*
X106317004Y-94570878D01*
X106319999Y-94566757D01*
X106319999Y-94435407D01*
X106338906Y-94377216D01*
X106388406Y-94341252D01*
X106399688Y-94338309D01*
X106405555Y-94337142D01*
X106405556Y-94337142D01*
X106415117Y-94335240D01*
X106502112Y-94277112D01*
X106560240Y-94190117D01*
X106575500Y-94113401D01*
X106575500Y-94000842D01*
X107055001Y-94000842D01*
X107055220Y-94005488D01*
X107057378Y-94028322D01*
X107059943Y-94040016D01*
X107099831Y-94153602D01*
X107106676Y-94166530D01*
X107177387Y-94262263D01*
X107187737Y-94272613D01*
X107283470Y-94343324D01*
X107296398Y-94350169D01*
X107409979Y-94390055D01*
X107421682Y-94392623D01*
X107444518Y-94394782D01*
X107449154Y-94395000D01*
X107559320Y-94395000D01*
X107572005Y-94390878D01*
X107575000Y-94386757D01*
X107575000Y-93915680D01*
X107570878Y-93902995D01*
X107566757Y-93900000D01*
X107070681Y-93900000D01*
X107057996Y-93904122D01*
X107055001Y-93908243D01*
X107055001Y-94000842D01*
X106575500Y-94000842D01*
X106575500Y-92999089D01*
X106594407Y-92940898D01*
X106634260Y-92911945D01*
X106633126Y-92909719D01*
X106746281Y-92852064D01*
X106746283Y-92852063D01*
X106753220Y-92848528D01*
X106834752Y-92766996D01*
X106889269Y-92739219D01*
X106904756Y-92738000D01*
X107091583Y-92738000D01*
X107149774Y-92756907D01*
G37*
%TD.AperFunction*%
%TA.AperFunction,Conductor*%
G36*
X105558190Y-92591604D02*
G01*
X105588877Y-92633841D01*
X105590281Y-92633126D01*
X105647530Y-92745483D01*
X105651472Y-92753220D01*
X105746780Y-92848528D01*
X105753717Y-92852063D01*
X105753719Y-92852064D01*
X105866874Y-92909719D01*
X105865740Y-92911945D01*
X105905588Y-92940892D01*
X105924500Y-92999089D01*
X105924500Y-93097156D01*
X105905593Y-93155347D01*
X105898323Y-93164222D01*
X105876012Y-93188448D01*
X105875000Y-93193080D01*
X105875000Y-93801000D01*
X105856093Y-93859191D01*
X105806593Y-93895155D01*
X105776000Y-93900000D01*
X105724000Y-93900000D01*
X105665809Y-93881093D01*
X105629845Y-93831593D01*
X105625000Y-93801000D01*
X105625000Y-93198123D01*
X105620878Y-93185438D01*
X105598732Y-93169347D01*
X105580536Y-93161394D01*
X105560540Y-93136871D01*
X105559829Y-93135641D01*
X105555959Y-93126298D01*
X105555456Y-93126532D01*
X105551796Y-93118685D01*
X105549554Y-93110316D01*
X105527268Y-93078489D01*
X105522627Y-93071205D01*
X105514148Y-93056519D01*
X105503194Y-93037545D01*
X105473429Y-93012569D01*
X105467061Y-93006735D01*
X105350643Y-92890317D01*
X105322866Y-92835800D01*
X105332437Y-92775368D01*
X105340554Y-92762123D01*
X105343022Y-92758726D01*
X105348528Y-92753220D01*
X105352471Y-92745483D01*
X105409719Y-92633126D01*
X105411123Y-92633841D01*
X105441809Y-92591605D01*
X105499999Y-92572697D01*
X105558190Y-92591604D01*
G37*
%TD.AperFunction*%
%TA.AperFunction,Conductor*%
G36*
X112539729Y-90928340D02*
G01*
X112571744Y-90980481D01*
X112574500Y-91003676D01*
X112574501Y-91225213D01*
X112574501Y-91406518D01*
X112575110Y-91410361D01*
X112575110Y-91410366D01*
X112578282Y-91430391D01*
X112589354Y-91500304D01*
X112592890Y-91507243D01*
X112625481Y-91571206D01*
X112646950Y-91613342D01*
X112736658Y-91703050D01*
X112743595Y-91706585D01*
X112743597Y-91706586D01*
X112830702Y-91750968D01*
X112849696Y-91760646D01*
X112857390Y-91761865D01*
X112857391Y-91761865D01*
X112939635Y-91774891D01*
X112939637Y-91774891D01*
X112943481Y-91775500D01*
X113249960Y-91775500D01*
X113556518Y-91775499D01*
X113560361Y-91774890D01*
X113560366Y-91774890D01*
X113597217Y-91769053D01*
X113650304Y-91760646D01*
X113724714Y-91722732D01*
X113756403Y-91706586D01*
X113756405Y-91706585D01*
X113763342Y-91703050D01*
X113853050Y-91613342D01*
X113872614Y-91574947D01*
X113910646Y-91500304D01*
X113912886Y-91501445D01*
X113941808Y-91461636D01*
X113999999Y-91442728D01*
X114058190Y-91461635D01*
X114087114Y-91501445D01*
X114089354Y-91500304D01*
X114127387Y-91574947D01*
X114146950Y-91613342D01*
X114236658Y-91703050D01*
X114243595Y-91706585D01*
X114243597Y-91706586D01*
X114330702Y-91750968D01*
X114349696Y-91760646D01*
X114357390Y-91761865D01*
X114357391Y-91761865D01*
X114439635Y-91774891D01*
X114439637Y-91774891D01*
X114443481Y-91775500D01*
X114749960Y-91775500D01*
X115056518Y-91775499D01*
X115060361Y-91774890D01*
X115060366Y-91774890D01*
X115097217Y-91769053D01*
X115150304Y-91760646D01*
X115224714Y-91722732D01*
X115256403Y-91706586D01*
X115256405Y-91706585D01*
X115263342Y-91703050D01*
X115353050Y-91613342D01*
X115374520Y-91571206D01*
X115385781Y-91549104D01*
X115429046Y-91505839D01*
X115489478Y-91496268D01*
X115543995Y-91524046D01*
X115567399Y-91561247D01*
X115599831Y-91653602D01*
X115606676Y-91666530D01*
X115677387Y-91762263D01*
X115687737Y-91772613D01*
X115783470Y-91843324D01*
X115796398Y-91850169D01*
X115909979Y-91890055D01*
X115927575Y-91893916D01*
X115927123Y-91895977D01*
X115974879Y-91916637D01*
X116006031Y-91969298D01*
X116000280Y-92030212D01*
X115995155Y-92040404D01*
X115977373Y-92071204D01*
X115972731Y-92078490D01*
X115961374Y-92094709D01*
X115912509Y-92131531D01*
X115895766Y-92135705D01*
X115892146Y-92136278D01*
X115866874Y-92140281D01*
X115838322Y-92154829D01*
X115753719Y-92197936D01*
X115753717Y-92197937D01*
X115746780Y-92201472D01*
X115651472Y-92296780D01*
X115647937Y-92303717D01*
X115647936Y-92303719D01*
X115602644Y-92392610D01*
X115590281Y-92416874D01*
X115586620Y-92439987D01*
X115585340Y-92448069D01*
X115557561Y-92502585D01*
X115503044Y-92530361D01*
X115442613Y-92520789D01*
X115399349Y-92477525D01*
X115356586Y-92393597D01*
X115356585Y-92393595D01*
X115353050Y-92386658D01*
X115263342Y-92296950D01*
X115256405Y-92293415D01*
X115256403Y-92293414D01*
X115157244Y-92242890D01*
X115157243Y-92242890D01*
X115150304Y-92239354D01*
X115142610Y-92238135D01*
X115142609Y-92238135D01*
X115060365Y-92225109D01*
X115060363Y-92225109D01*
X115056519Y-92224500D01*
X114750040Y-92224500D01*
X114443482Y-92224501D01*
X114439639Y-92225110D01*
X114439634Y-92225110D01*
X114402783Y-92230947D01*
X114349696Y-92239354D01*
X114335546Y-92246564D01*
X114243597Y-92293414D01*
X114243595Y-92293415D01*
X114236658Y-92296950D01*
X114146950Y-92386658D01*
X114089354Y-92499696D01*
X114087114Y-92498555D01*
X114058192Y-92538364D01*
X114000001Y-92557272D01*
X113941810Y-92538365D01*
X113912886Y-92498555D01*
X113910646Y-92499696D01*
X113856586Y-92393597D01*
X113856585Y-92393595D01*
X113853050Y-92386658D01*
X113763342Y-92296950D01*
X113756405Y-92293415D01*
X113756403Y-92293414D01*
X113657244Y-92242890D01*
X113657243Y-92242890D01*
X113650304Y-92239354D01*
X113642610Y-92238135D01*
X113642609Y-92238135D01*
X113560365Y-92225109D01*
X113560363Y-92225109D01*
X113556519Y-92224500D01*
X113250040Y-92224500D01*
X112943482Y-92224501D01*
X112939639Y-92225110D01*
X112939634Y-92225110D01*
X112902783Y-92230947D01*
X112849696Y-92239354D01*
X112835546Y-92246564D01*
X112743597Y-92293414D01*
X112743595Y-92293415D01*
X112736658Y-92296950D01*
X112646950Y-92386658D01*
X112643415Y-92393595D01*
X112643414Y-92393597D01*
X112619777Y-92439987D01*
X112589354Y-92499696D01*
X112588135Y-92507390D01*
X112588135Y-92507391D01*
X112576280Y-92582241D01*
X112574500Y-92593481D01*
X112574500Y-92746514D01*
X112555593Y-92804705D01*
X112506093Y-92840669D01*
X112444907Y-92840669D01*
X112421655Y-92829590D01*
X112362095Y-92790985D01*
X112224739Y-92749907D01*
X112157179Y-92749494D01*
X112105614Y-92749179D01*
X112047540Y-92729917D01*
X112011879Y-92680198D01*
X112012253Y-92619013D01*
X112036215Y-92580177D01*
X112103050Y-92513342D01*
X112106587Y-92506402D01*
X112157110Y-92407244D01*
X112157110Y-92407243D01*
X112160646Y-92400304D01*
X112162808Y-92386658D01*
X112174891Y-92310365D01*
X112174891Y-92310363D01*
X112175500Y-92306519D01*
X112175499Y-91693482D01*
X112174855Y-91689412D01*
X112168630Y-91650109D01*
X112160646Y-91599696D01*
X112113539Y-91507243D01*
X112106586Y-91493597D01*
X112106585Y-91493595D01*
X112103050Y-91486658D01*
X112013342Y-91396950D01*
X112015088Y-91395204D01*
X111986083Y-91355275D01*
X111986088Y-91294089D01*
X112010236Y-91254685D01*
X112263543Y-91001378D01*
X112307507Y-90975868D01*
X112344010Y-90965916D01*
X112344011Y-90965916D01*
X112350817Y-90964060D01*
X112423700Y-90919310D01*
X112483181Y-90904974D01*
X112539729Y-90928340D01*
G37*
%TD.AperFunction*%
%TA.AperFunction,Conductor*%
G36*
X118398472Y-89544407D02*
G01*
X118410285Y-89554496D01*
X118447858Y-89592069D01*
X118453681Y-89598424D01*
X118478661Y-89628194D01*
X118512335Y-89647636D01*
X118519591Y-89652259D01*
X118551432Y-89674554D01*
X118559794Y-89676795D01*
X118565076Y-89679258D01*
X118570570Y-89681257D01*
X118578071Y-89685588D01*
X118616344Y-89692337D01*
X118624772Y-89694206D01*
X118653943Y-89702022D01*
X118653946Y-89702022D01*
X118662309Y-89704263D01*
X118701012Y-89700877D01*
X118709641Y-89700500D01*
X119109847Y-89700500D01*
X119168038Y-89719407D01*
X119204002Y-89768907D01*
X119204002Y-89830093D01*
X119168038Y-89879593D01*
X119154793Y-89887709D01*
X119143600Y-89893412D01*
X119143596Y-89893415D01*
X119136658Y-89896950D01*
X119046950Y-89986658D01*
X119043415Y-89993595D01*
X119043414Y-89993597D01*
X118994695Y-90089213D01*
X118989354Y-90099696D01*
X118988135Y-90107390D01*
X118988135Y-90107391D01*
X118980460Y-90155848D01*
X118974500Y-90193481D01*
X118974500Y-90275167D01*
X118955593Y-90333358D01*
X118906093Y-90369322D01*
X118844907Y-90369322D01*
X118805499Y-90345173D01*
X118743263Y-90282937D01*
X118737439Y-90276581D01*
X118721351Y-90257408D01*
X118712455Y-90246806D01*
X118678792Y-90227371D01*
X118671511Y-90222732D01*
X118662628Y-90216512D01*
X118639684Y-90200446D01*
X118631316Y-90198204D01*
X118626029Y-90195738D01*
X118620544Y-90193742D01*
X118613045Y-90189412D01*
X118604517Y-90187908D01*
X118604516Y-90187908D01*
X118591867Y-90185678D01*
X118537843Y-90156955D01*
X118516469Y-90114086D01*
X118514272Y-90114800D01*
X118511865Y-90107391D01*
X118510646Y-90099696D01*
X118476911Y-90033488D01*
X118456586Y-89993597D01*
X118456585Y-89993595D01*
X118453050Y-89986658D01*
X118363342Y-89896950D01*
X118356405Y-89893415D01*
X118356403Y-89893414D01*
X118257244Y-89842890D01*
X118257243Y-89842890D01*
X118250304Y-89839354D01*
X118242610Y-89838135D01*
X118242609Y-89838135D01*
X118160365Y-89825109D01*
X118160363Y-89825109D01*
X118156519Y-89824500D01*
X117925030Y-89824500D01*
X117693482Y-89824501D01*
X117689639Y-89825110D01*
X117689634Y-89825110D01*
X117652783Y-89830947D01*
X117599696Y-89839354D01*
X117556140Y-89861547D01*
X117493597Y-89893414D01*
X117493595Y-89893415D01*
X117486658Y-89896950D01*
X117396950Y-89986658D01*
X117393415Y-89993595D01*
X117393414Y-89993597D01*
X117344695Y-90089213D01*
X117339354Y-90099696D01*
X117338135Y-90107390D01*
X117338135Y-90107391D01*
X117330460Y-90155848D01*
X117324500Y-90193481D01*
X117324501Y-90806518D01*
X117339354Y-90900304D01*
X117366550Y-90953678D01*
X117391796Y-91003226D01*
X117396950Y-91013342D01*
X117486658Y-91103050D01*
X117493595Y-91106585D01*
X117493597Y-91106586D01*
X117599696Y-91160646D01*
X117598555Y-91162886D01*
X117638364Y-91191808D01*
X117657272Y-91249999D01*
X117638365Y-91308190D01*
X117598555Y-91337114D01*
X117599696Y-91339354D01*
X117493597Y-91393414D01*
X117493595Y-91393415D01*
X117486658Y-91396950D01*
X117396950Y-91486658D01*
X117393415Y-91493595D01*
X117393414Y-91493597D01*
X117386461Y-91507243D01*
X117339354Y-91599696D01*
X117338281Y-91606473D01*
X117302596Y-91655591D01*
X117244403Y-91674500D01*
X117032523Y-91674500D01*
X116974332Y-91655593D01*
X116938368Y-91606093D01*
X116939076Y-91545979D01*
X116938763Y-91545910D01*
X116939095Y-91544397D01*
X116939115Y-91542698D01*
X116940055Y-91540021D01*
X116942623Y-91528318D01*
X116944782Y-91505482D01*
X116945000Y-91500846D01*
X116945000Y-91415680D01*
X116940878Y-91402995D01*
X116936757Y-91400000D01*
X116174000Y-91400000D01*
X116115809Y-91381093D01*
X116079845Y-91331593D01*
X116075000Y-91301000D01*
X116075000Y-91034320D01*
X116425000Y-91034320D01*
X116429122Y-91047005D01*
X116433243Y-91050000D01*
X116929319Y-91050000D01*
X116942004Y-91045878D01*
X116944999Y-91041757D01*
X116944999Y-90949158D01*
X116944780Y-90944512D01*
X116942622Y-90921678D01*
X116940057Y-90909984D01*
X116900169Y-90796398D01*
X116893324Y-90783470D01*
X116822613Y-90687737D01*
X116812263Y-90677387D01*
X116716530Y-90606676D01*
X116703602Y-90599831D01*
X116590021Y-90559945D01*
X116578318Y-90557377D01*
X116555482Y-90555218D01*
X116550846Y-90555000D01*
X116440680Y-90555000D01*
X116427995Y-90559122D01*
X116425000Y-90563243D01*
X116425000Y-91034320D01*
X116075000Y-91034320D01*
X116075000Y-90570681D01*
X116070878Y-90557996D01*
X116066757Y-90555001D01*
X115949158Y-90555001D01*
X115944512Y-90555220D01*
X115921678Y-90557378D01*
X115909984Y-90559943D01*
X115796398Y-90599831D01*
X115783470Y-90606676D01*
X115687737Y-90677387D01*
X115677387Y-90687737D01*
X115606676Y-90783470D01*
X115599831Y-90796399D01*
X115588188Y-90829553D01*
X115551068Y-90878192D01*
X115492448Y-90895724D01*
X115434719Y-90875451D01*
X115406571Y-90841696D01*
X115356589Y-90743602D01*
X115356586Y-90743598D01*
X115353050Y-90736658D01*
X115291421Y-90675029D01*
X115263644Y-90620512D01*
X115273215Y-90560080D01*
X115291421Y-90535021D01*
X115755762Y-90070681D01*
X116271947Y-89554496D01*
X116326464Y-89526719D01*
X116341951Y-89525500D01*
X118340281Y-89525500D01*
X118398472Y-89544407D01*
G37*
%TD.AperFunction*%
%TA.AperFunction,Conductor*%
G36*
X106611236Y-80219407D02*
G01*
X106647200Y-80268907D01*
X106647200Y-80330093D01*
X106616149Y-80375782D01*
X106607390Y-80383028D01*
X106508689Y-80488134D01*
X106501421Y-80498138D01*
X106431957Y-80624491D01*
X106427409Y-80635980D01*
X106391548Y-80775648D01*
X106390000Y-80787900D01*
X106390000Y-80969320D01*
X106394122Y-80982005D01*
X106398243Y-80985000D01*
X107614320Y-80985000D01*
X107627005Y-80980878D01*
X107630000Y-80976757D01*
X107630000Y-80824095D01*
X107629610Y-80817907D01*
X107616076Y-80710768D01*
X107613002Y-80698796D01*
X107559921Y-80564728D01*
X107553970Y-80553903D01*
X107469212Y-80437243D01*
X107460756Y-80428238D01*
X107397345Y-80375781D01*
X107364560Y-80324121D01*
X107368402Y-80263056D01*
X107407403Y-80215912D01*
X107460450Y-80200500D01*
X115533045Y-80200500D01*
X115591236Y-80219407D01*
X115627200Y-80268907D01*
X115627200Y-80330093D01*
X115596149Y-80375782D01*
X115587390Y-80383028D01*
X115488689Y-80488134D01*
X115481421Y-80498138D01*
X115411957Y-80624491D01*
X115407409Y-80635980D01*
X115371548Y-80775648D01*
X115370000Y-80787900D01*
X115370000Y-80969320D01*
X115374122Y-80982005D01*
X115378243Y-80985000D01*
X116594320Y-80985000D01*
X116607005Y-80980878D01*
X116610000Y-80976757D01*
X116610000Y-80824095D01*
X116609610Y-80817907D01*
X116596076Y-80710768D01*
X116593002Y-80698796D01*
X116539921Y-80564728D01*
X116533970Y-80553903D01*
X116449212Y-80437243D01*
X116440756Y-80428238D01*
X116377345Y-80375781D01*
X116344560Y-80324121D01*
X116348402Y-80263056D01*
X116387403Y-80215912D01*
X116440450Y-80200500D01*
X117362815Y-80200500D01*
X117421006Y-80219407D01*
X117456970Y-80268907D01*
X117456970Y-80330093D01*
X117428090Y-80373932D01*
X117417718Y-80383028D01*
X117375457Y-80420090D01*
X117372649Y-80423652D01*
X117241945Y-80589451D01*
X117238863Y-80593360D01*
X117236749Y-80597378D01*
X117188930Y-80688267D01*
X117136131Y-80788620D01*
X117127037Y-80817907D01*
X117074346Y-80987602D01*
X117070703Y-80999333D01*
X117044770Y-81218440D01*
X117048343Y-81272957D01*
X117052410Y-81335000D01*
X117059200Y-81438604D01*
X117060316Y-81442997D01*
X117060316Y-81442999D01*
X117104024Y-81615096D01*
X117113511Y-81652452D01*
X117205883Y-81852821D01*
X117333222Y-82033002D01*
X117491264Y-82186961D01*
X117674717Y-82309540D01*
X117772172Y-82351410D01*
X117873262Y-82394842D01*
X117873265Y-82394843D01*
X117877436Y-82396635D01*
X117881867Y-82397638D01*
X117884509Y-82398496D01*
X117934009Y-82434460D01*
X117952917Y-82492651D01*
X117934010Y-82550842D01*
X117925000Y-82563243D01*
X117925000Y-82984320D01*
X117929122Y-82997005D01*
X117933243Y-83000000D01*
X118429319Y-83000000D01*
X118442004Y-82995878D01*
X118444999Y-82991757D01*
X118444999Y-82945843D01*
X118444389Y-82938099D01*
X118430642Y-82851293D01*
X118425885Y-82836651D01*
X118372559Y-82731995D01*
X118363514Y-82719545D01*
X118280456Y-82636487D01*
X118273491Y-82631427D01*
X118237525Y-82581928D01*
X118237523Y-82520742D01*
X118273486Y-82471241D01*
X118317473Y-82453357D01*
X118526955Y-82422983D01*
X118531452Y-82422331D01*
X118535751Y-82420872D01*
X118535754Y-82420871D01*
X118736078Y-82352870D01*
X118740379Y-82351410D01*
X118811944Y-82311332D01*
X118907885Y-82257602D01*
X118932884Y-82243602D01*
X119102518Y-82102518D01*
X119124385Y-82076226D01*
X119176131Y-82043577D01*
X119237186Y-82047579D01*
X119284227Y-82086703D01*
X119299500Y-82139531D01*
X119299500Y-88200775D01*
X119280593Y-88258966D01*
X119231093Y-88294930D01*
X119169907Y-88294930D01*
X119165542Y-88293219D01*
X119162095Y-88290985D01*
X119155337Y-88288964D01*
X119155335Y-88288963D01*
X119031500Y-88251929D01*
X119024739Y-88249907D01*
X118941497Y-88249398D01*
X118888427Y-88249074D01*
X118888426Y-88249074D01*
X118881376Y-88249031D01*
X118874599Y-88250968D01*
X118874598Y-88250968D01*
X118750309Y-88286490D01*
X118750307Y-88286491D01*
X118743529Y-88288428D01*
X118737565Y-88292191D01*
X118653722Y-88345092D01*
X118622280Y-88364930D01*
X118617613Y-88370214D01*
X118617611Y-88370216D01*
X118599226Y-88391034D01*
X118546534Y-88422134D01*
X118525022Y-88424500D01*
X118453157Y-88424500D01*
X118394966Y-88405593D01*
X118359002Y-88356093D01*
X118359002Y-88294907D01*
X118369142Y-88275008D01*
X118369022Y-88274947D01*
X118425886Y-88163346D01*
X118430642Y-88148711D01*
X118444391Y-88061899D01*
X118445000Y-88054160D01*
X118445000Y-88015680D01*
X118440878Y-88002995D01*
X118436757Y-88000000D01*
X117070681Y-88000000D01*
X117057996Y-88004122D01*
X117055001Y-88008243D01*
X117055001Y-88054157D01*
X117055611Y-88061901D01*
X117069358Y-88148707D01*
X117074115Y-88163349D01*
X117130978Y-88274947D01*
X117129638Y-88275630D01*
X117145843Y-88325497D01*
X117126938Y-88383688D01*
X117077439Y-88419654D01*
X117046843Y-88424500D01*
X115998243Y-88424500D01*
X115989614Y-88424123D01*
X115989604Y-88424122D01*
X115950913Y-88420737D01*
X115942550Y-88422978D01*
X115942547Y-88422978D01*
X115913376Y-88430794D01*
X115904949Y-88432663D01*
X115866675Y-88439412D01*
X115859174Y-88443743D01*
X115853680Y-88445742D01*
X115848398Y-88448205D01*
X115840036Y-88450446D01*
X115832944Y-88455412D01*
X115825093Y-88459073D01*
X115824182Y-88457120D01*
X115776895Y-88471579D01*
X115719042Y-88451661D01*
X115683946Y-88401542D01*
X115679619Y-88372594D01*
X115679619Y-88366434D01*
X115680466Y-88360000D01*
X115677043Y-88333996D01*
X115669341Y-88275501D01*
X115660687Y-88209764D01*
X115657974Y-88203213D01*
X115640849Y-88161871D01*
X115636048Y-88100874D01*
X115668018Y-88048705D01*
X115726099Y-88025180D01*
X115740883Y-88024250D01*
X115753024Y-88021934D01*
X115890163Y-87977375D01*
X115901338Y-87972116D01*
X116023087Y-87894851D01*
X116032606Y-87886977D01*
X116131311Y-87781866D01*
X116138579Y-87771862D01*
X116208043Y-87645509D01*
X116212472Y-87634320D01*
X117055000Y-87634320D01*
X117059122Y-87647005D01*
X117063243Y-87650000D01*
X117559320Y-87650000D01*
X117572005Y-87645878D01*
X117575000Y-87641757D01*
X117575000Y-87634320D01*
X117925000Y-87634320D01*
X117929122Y-87647005D01*
X117933243Y-87650000D01*
X118429319Y-87650000D01*
X118442004Y-87645878D01*
X118444999Y-87641757D01*
X118444999Y-87595843D01*
X118444389Y-87588099D01*
X118430642Y-87501293D01*
X118425885Y-87486651D01*
X118372559Y-87381995D01*
X118363514Y-87369545D01*
X118280455Y-87286486D01*
X118268005Y-87277441D01*
X118163346Y-87224114D01*
X118148711Y-87219358D01*
X118061899Y-87205609D01*
X118054160Y-87205000D01*
X117940680Y-87205000D01*
X117927995Y-87209122D01*
X117925000Y-87213243D01*
X117925000Y-87634320D01*
X117575000Y-87634320D01*
X117575000Y-87220681D01*
X117570878Y-87207996D01*
X117566757Y-87205001D01*
X117445843Y-87205001D01*
X117438099Y-87205611D01*
X117351293Y-87219358D01*
X117336651Y-87224115D01*
X117231995Y-87277441D01*
X117219545Y-87286486D01*
X117136486Y-87369545D01*
X117127441Y-87381995D01*
X117074114Y-87486654D01*
X117069358Y-87501289D01*
X117055609Y-87588101D01*
X117055000Y-87595840D01*
X117055000Y-87634320D01*
X116212472Y-87634320D01*
X116212591Y-87634020D01*
X116248452Y-87494352D01*
X116250000Y-87482100D01*
X116250000Y-87300680D01*
X116245878Y-87287995D01*
X116241757Y-87285000D01*
X115554000Y-87285000D01*
X115495809Y-87266093D01*
X115459845Y-87216593D01*
X115455000Y-87186000D01*
X115455000Y-86919320D01*
X115805000Y-86919320D01*
X115809122Y-86932005D01*
X115813243Y-86935000D01*
X116234320Y-86935000D01*
X116247005Y-86930878D01*
X116250000Y-86926757D01*
X116250000Y-86774095D01*
X116249610Y-86767907D01*
X116236076Y-86660768D01*
X116233002Y-86648796D01*
X116179921Y-86514728D01*
X116173970Y-86503903D01*
X116089212Y-86387243D01*
X116080756Y-86378238D01*
X115969651Y-86286326D01*
X115959218Y-86279704D01*
X115828747Y-86218309D01*
X115819390Y-86215269D01*
X115807169Y-86216813D01*
X115806982Y-86216989D01*
X115805000Y-86224709D01*
X115805000Y-86919320D01*
X115455000Y-86919320D01*
X115455000Y-86230634D01*
X115451479Y-86219799D01*
X115440089Y-86219799D01*
X115369837Y-86242625D01*
X115358662Y-86247884D01*
X115236913Y-86325149D01*
X115227394Y-86333023D01*
X115128689Y-86438134D01*
X115121421Y-86448138D01*
X115051957Y-86574491D01*
X115047409Y-86585980D01*
X115011548Y-86725648D01*
X115010000Y-86737900D01*
X115010000Y-86786429D01*
X114991093Y-86844620D01*
X114941593Y-86880584D01*
X114880407Y-86880584D01*
X114828685Y-86841431D01*
X114814031Y-86819500D01*
X114800501Y-86805970D01*
X114743946Y-86768182D01*
X114726278Y-86760863D01*
X114676430Y-86750948D01*
X114666809Y-86750000D01*
X114665680Y-86750000D01*
X114652995Y-86754122D01*
X114650000Y-86758243D01*
X114650000Y-87874317D01*
X114662842Y-87913841D01*
X114662842Y-87975027D01*
X114647228Y-88004702D01*
X114601253Y-88064616D01*
X114601248Y-88064624D01*
X114597302Y-88069767D01*
X114594821Y-88075756D01*
X114594819Y-88075760D01*
X114541797Y-88203767D01*
X114539313Y-88209764D01*
X114519534Y-88360000D01*
X114517542Y-88359738D01*
X114501474Y-88409191D01*
X114451974Y-88445155D01*
X114421381Y-88450000D01*
X114415680Y-88450000D01*
X114402995Y-88454122D01*
X114400000Y-88458243D01*
X114400000Y-88854320D01*
X114404122Y-88867005D01*
X114408243Y-88870000D01*
X114604319Y-88870000D01*
X114617006Y-88865878D01*
X114627753Y-88851086D01*
X114677253Y-88815122D01*
X114738438Y-88815123D01*
X114768113Y-88830736D01*
X114804616Y-88858747D01*
X114804624Y-88858752D01*
X114809767Y-88862698D01*
X114815756Y-88865179D01*
X114815760Y-88865181D01*
X114878057Y-88890985D01*
X114949764Y-88920687D01*
X115062280Y-88935500D01*
X115094885Y-88935500D01*
X115153076Y-88954407D01*
X115189040Y-89003907D01*
X115189040Y-89065093D01*
X115164889Y-89104503D01*
X114786778Y-89482615D01*
X114732261Y-89510393D01*
X114671829Y-89500822D01*
X114628564Y-89457557D01*
X114620803Y-89401498D01*
X114618575Y-89401279D01*
X114620000Y-89386809D01*
X114620000Y-89185680D01*
X114615878Y-89172995D01*
X114611757Y-89170000D01*
X114415680Y-89170000D01*
X114402995Y-89174122D01*
X114400000Y-89178243D01*
X114400000Y-89574319D01*
X114404122Y-89587004D01*
X114408243Y-89589999D01*
X114416806Y-89589999D01*
X114431275Y-89588574D01*
X114431478Y-89590636D01*
X114484084Y-89596876D01*
X114529003Y-89638420D01*
X114540925Y-89698433D01*
X114512618Y-89756776D01*
X114373890Y-89895504D01*
X114319373Y-89923281D01*
X114303886Y-89924500D01*
X113518523Y-89924500D01*
X113509894Y-89924123D01*
X113479390Y-89921454D01*
X113423069Y-89897547D01*
X113391556Y-89845100D01*
X113390019Y-89836865D01*
X113389265Y-89831595D01*
X113384823Y-89800581D01*
X113343245Y-89709134D01*
X113336372Y-89648337D01*
X113366547Y-89595110D01*
X113419909Y-89571310D01*
X113419748Y-89570500D01*
X113478231Y-89558867D01*
X113478887Y-89562164D01*
X113521664Y-89558797D01*
X113521769Y-89558867D01*
X113580252Y-89570500D01*
X113919748Y-89570500D01*
X113924514Y-89569552D01*
X113946451Y-89565189D01*
X114003649Y-89570823D01*
X114023720Y-89579137D01*
X114073570Y-89589052D01*
X114083191Y-89590000D01*
X114084320Y-89590000D01*
X114097005Y-89585878D01*
X114100000Y-89581757D01*
X114100000Y-89394825D01*
X114100167Y-89391420D01*
X114100500Y-89389748D01*
X114100500Y-88650252D01*
X114100167Y-88648580D01*
X114100000Y-88645175D01*
X114100000Y-88465681D01*
X114095878Y-88452996D01*
X114091757Y-88450001D01*
X114083194Y-88450001D01*
X114073567Y-88450949D01*
X114023723Y-88460863D01*
X114003647Y-88469178D01*
X113946451Y-88474811D01*
X113924514Y-88470448D01*
X113919748Y-88469500D01*
X113580252Y-88469500D01*
X113521769Y-88481133D01*
X113521113Y-88477836D01*
X113478336Y-88481203D01*
X113478231Y-88481133D01*
X113419748Y-88469500D01*
X113309881Y-88469500D01*
X113251690Y-88450593D01*
X113215726Y-88401093D01*
X113215726Y-88339907D01*
X113239496Y-88303095D01*
X113239152Y-88302824D01*
X113258985Y-88277668D01*
X113262900Y-88273261D01*
X113262899Y-88273260D01*
X113265545Y-88270137D01*
X113268428Y-88267254D01*
X113270801Y-88263934D01*
X113273440Y-88260819D01*
X113273548Y-88260911D01*
X113276595Y-88257168D01*
X113297001Y-88235093D01*
X113300308Y-88227612D01*
X113303510Y-88222738D01*
X113306327Y-88217614D01*
X113311392Y-88211189D01*
X113313957Y-88203884D01*
X113314607Y-88202634D01*
X113319111Y-88196331D01*
X113321454Y-88188496D01*
X113321457Y-88188490D01*
X113327727Y-88167523D01*
X113332030Y-88155860D01*
X113340872Y-88135860D01*
X113340873Y-88135856D01*
X113344182Y-88128371D01*
X113344888Y-88120219D01*
X113346724Y-88113068D01*
X113346680Y-88113059D01*
X113347991Y-88106972D01*
X113350055Y-88101094D01*
X113350500Y-88095956D01*
X113350500Y-88093819D01*
X113350575Y-88092082D01*
X113350689Y-88090738D01*
X113352543Y-88084537D01*
X113351363Y-88054499D01*
X113351656Y-88042084D01*
X113354251Y-88012120D01*
X113352278Y-88004178D01*
X113351636Y-87996022D01*
X113351858Y-87996005D01*
X113350500Y-87984908D01*
X113350500Y-87969500D01*
X113369407Y-87911309D01*
X113418907Y-87875345D01*
X113449500Y-87870500D01*
X113669748Y-87870500D01*
X113728231Y-87858867D01*
X113728887Y-87862164D01*
X113771664Y-87858797D01*
X113771769Y-87858867D01*
X113830252Y-87870500D01*
X114169748Y-87870500D01*
X114174514Y-87869552D01*
X114196451Y-87865189D01*
X114253649Y-87870823D01*
X114273720Y-87879137D01*
X114323570Y-87889052D01*
X114333191Y-87890000D01*
X114334320Y-87890000D01*
X114347005Y-87885878D01*
X114350000Y-87881757D01*
X114350000Y-87694825D01*
X114350167Y-87691420D01*
X114350500Y-87689748D01*
X114350500Y-86950252D01*
X114350167Y-86948580D01*
X114350000Y-86945175D01*
X114350000Y-86765681D01*
X114345878Y-86752996D01*
X114341757Y-86750001D01*
X114333194Y-86750001D01*
X114323567Y-86750949D01*
X114273723Y-86760863D01*
X114253647Y-86769178D01*
X114196451Y-86774811D01*
X114174514Y-86770448D01*
X114169748Y-86769500D01*
X113830252Y-86769500D01*
X113771769Y-86781133D01*
X113771113Y-86777836D01*
X113728336Y-86781203D01*
X113728231Y-86781133D01*
X113669748Y-86769500D01*
X113330252Y-86769500D01*
X113271769Y-86781133D01*
X113271113Y-86777836D01*
X113228336Y-86781203D01*
X113228231Y-86781133D01*
X113169748Y-86769500D01*
X112830252Y-86769500D01*
X112771769Y-86781133D01*
X112771113Y-86777836D01*
X112728336Y-86781203D01*
X112728231Y-86781133D01*
X112669748Y-86769500D01*
X112578052Y-86769500D01*
X112519861Y-86750593D01*
X112483897Y-86701093D01*
X112483897Y-86639907D01*
X112504654Y-86604064D01*
X112564468Y-86537982D01*
X112569200Y-86532754D01*
X112631710Y-86403733D01*
X112633160Y-86395118D01*
X112654862Y-86266124D01*
X112654862Y-86266120D01*
X112655496Y-86262354D01*
X112655647Y-86250000D01*
X112635323Y-86108082D01*
X112575984Y-85977572D01*
X112502626Y-85892436D01*
X112487005Y-85874307D01*
X112487004Y-85874306D01*
X112482400Y-85868963D01*
X112362095Y-85790985D01*
X112224739Y-85749907D01*
X112141497Y-85749398D01*
X112088427Y-85749074D01*
X112088426Y-85749074D01*
X112081376Y-85749031D01*
X112074599Y-85750968D01*
X112074598Y-85750968D01*
X111950309Y-85786490D01*
X111950307Y-85786491D01*
X111943529Y-85788428D01*
X111822280Y-85864930D01*
X111817612Y-85870216D01*
X111814090Y-85873213D01*
X111757521Y-85896529D01*
X111698052Y-85882142D01*
X111686311Y-85873502D01*
X111682400Y-85868963D01*
X111562095Y-85790985D01*
X111424739Y-85749907D01*
X111341497Y-85749398D01*
X111288427Y-85749074D01*
X111288426Y-85749074D01*
X111281376Y-85749031D01*
X111274597Y-85750968D01*
X111274593Y-85750969D01*
X111200617Y-85772112D01*
X111139471Y-85769924D01*
X111091288Y-85732213D01*
X111074474Y-85673383D01*
X111095451Y-85615906D01*
X111103407Y-85606920D01*
X111530831Y-85179496D01*
X111585348Y-85151719D01*
X111600835Y-85150500D01*
X113419698Y-85150500D01*
X113477889Y-85169407D01*
X113513853Y-85218907D01*
X113513853Y-85280093D01*
X113477889Y-85329593D01*
X113472526Y-85333227D01*
X113428244Y-85361167D01*
X113422280Y-85364930D01*
X113417613Y-85370214D01*
X113417611Y-85370216D01*
X113332044Y-85467103D01*
X113332042Y-85467105D01*
X113327377Y-85472388D01*
X113324381Y-85478770D01*
X113324380Y-85478771D01*
X113312149Y-85504822D01*
X113266447Y-85602163D01*
X113265362Y-85609132D01*
X113265361Y-85609135D01*
X113250680Y-85703430D01*
X113244391Y-85743823D01*
X113245306Y-85750820D01*
X113245306Y-85750821D01*
X113260253Y-85865126D01*
X113262980Y-85885979D01*
X113265821Y-85892435D01*
X113265821Y-85892436D01*
X113306109Y-85983996D01*
X113320720Y-86017203D01*
X113357055Y-86060429D01*
X113408431Y-86121549D01*
X113408434Y-86121551D01*
X113412970Y-86126948D01*
X113418841Y-86130856D01*
X113418842Y-86130857D01*
X113431143Y-86139045D01*
X113532313Y-86206390D01*
X113618228Y-86233231D01*
X113662425Y-86247039D01*
X113662426Y-86247039D01*
X113669157Y-86249142D01*
X113740828Y-86250456D01*
X113805445Y-86251641D01*
X113805447Y-86251641D01*
X113812499Y-86251770D01*
X113819302Y-86249915D01*
X113819304Y-86249915D01*
X113919452Y-86222611D01*
X113950817Y-86214060D01*
X114072991Y-86139045D01*
X114080403Y-86130857D01*
X114164468Y-86037982D01*
X114169200Y-86032754D01*
X114231710Y-85903733D01*
X114243598Y-85833074D01*
X114271898Y-85778827D01*
X114326679Y-85751575D01*
X114341226Y-85750500D01*
X115999166Y-85750500D01*
X116057357Y-85769407D01*
X116069170Y-85779496D01*
X116681742Y-86392069D01*
X116687565Y-86398424D01*
X116712545Y-86428194D01*
X116746219Y-86447636D01*
X116753475Y-86452259D01*
X116785316Y-86474554D01*
X116793678Y-86476795D01*
X116798960Y-86479258D01*
X116804454Y-86481257D01*
X116811955Y-86485588D01*
X116838960Y-86490350D01*
X116850228Y-86492337D01*
X116858656Y-86494206D01*
X116887827Y-86502022D01*
X116887830Y-86502022D01*
X116896193Y-86504263D01*
X116934896Y-86500877D01*
X116943525Y-86500500D01*
X117028786Y-86500500D01*
X117086977Y-86519407D01*
X117116995Y-86554554D01*
X117143412Y-86606400D01*
X117143414Y-86606403D01*
X117146950Y-86613342D01*
X117236658Y-86703050D01*
X117243595Y-86706585D01*
X117243597Y-86706586D01*
X117334682Y-86752996D01*
X117349696Y-86760646D01*
X117357390Y-86761865D01*
X117357391Y-86761865D01*
X117439635Y-86774891D01*
X117439637Y-86774891D01*
X117443481Y-86775500D01*
X117749960Y-86775500D01*
X118056518Y-86775499D01*
X118060361Y-86774890D01*
X118060366Y-86774890D01*
X118102713Y-86768183D01*
X118150304Y-86760646D01*
X118227448Y-86721339D01*
X118256403Y-86706586D01*
X118256405Y-86706585D01*
X118263342Y-86703050D01*
X118353050Y-86613342D01*
X118356588Y-86606400D01*
X118407110Y-86507244D01*
X118407110Y-86507243D01*
X118410646Y-86500304D01*
X118413980Y-86479258D01*
X118424891Y-86410365D01*
X118424891Y-86410363D01*
X118425500Y-86406519D01*
X118425499Y-85943482D01*
X118410646Y-85849696D01*
X118364628Y-85759381D01*
X118356586Y-85743597D01*
X118356585Y-85743595D01*
X118353050Y-85736658D01*
X118263342Y-85646950D01*
X118256405Y-85643415D01*
X118256403Y-85643414D01*
X118150304Y-85589354D01*
X118151445Y-85587114D01*
X118111636Y-85558192D01*
X118092728Y-85500001D01*
X118111635Y-85441810D01*
X118151445Y-85412886D01*
X118150304Y-85410646D01*
X118256403Y-85356586D01*
X118256405Y-85356585D01*
X118263342Y-85353050D01*
X118353050Y-85263342D01*
X118356588Y-85256400D01*
X118407110Y-85157244D01*
X118407110Y-85157243D01*
X118410646Y-85150304D01*
X118412519Y-85138482D01*
X118424891Y-85060365D01*
X118424891Y-85060363D01*
X118425500Y-85056519D01*
X118425499Y-84593482D01*
X118421381Y-84567476D01*
X118413012Y-84514636D01*
X118410646Y-84499696D01*
X118359468Y-84399253D01*
X118356586Y-84393597D01*
X118356585Y-84393595D01*
X118353050Y-84386658D01*
X118263342Y-84296950D01*
X118256405Y-84293415D01*
X118256403Y-84293414D01*
X118157244Y-84242890D01*
X118157243Y-84242890D01*
X118150304Y-84239354D01*
X118142610Y-84238135D01*
X118142609Y-84238135D01*
X118060365Y-84225109D01*
X118060363Y-84225109D01*
X118056519Y-84224500D01*
X117750040Y-84224500D01*
X117443482Y-84224501D01*
X117439639Y-84225110D01*
X117439634Y-84225110D01*
X117402783Y-84230947D01*
X117349696Y-84239354D01*
X117298988Y-84265191D01*
X117243597Y-84293414D01*
X117243595Y-84293415D01*
X117236658Y-84296950D01*
X117146950Y-84386658D01*
X117143415Y-84393596D01*
X117143412Y-84393600D01*
X117116995Y-84445446D01*
X117073730Y-84488710D01*
X117028786Y-84499500D01*
X111443522Y-84499500D01*
X111434893Y-84499123D01*
X111404822Y-84496492D01*
X111396193Y-84495737D01*
X111358657Y-84505795D01*
X111350231Y-84507663D01*
X111341038Y-84509284D01*
X111311955Y-84514412D01*
X111304450Y-84518745D01*
X111298973Y-84520738D01*
X111293682Y-84523205D01*
X111285316Y-84525447D01*
X111253484Y-84547736D01*
X111246206Y-84552372D01*
X111220044Y-84567476D01*
X111220042Y-84567477D01*
X111212545Y-84571806D01*
X111194357Y-84593482D01*
X111187574Y-84601565D01*
X111181740Y-84607933D01*
X110507943Y-85281731D01*
X110501575Y-85287566D01*
X110471806Y-85312545D01*
X110467477Y-85320044D01*
X110452373Y-85346205D01*
X110447732Y-85353489D01*
X110425446Y-85385316D01*
X110423204Y-85393684D01*
X110420738Y-85398971D01*
X110418742Y-85404456D01*
X110414412Y-85411955D01*
X110412909Y-85420481D01*
X110412908Y-85420483D01*
X110407666Y-85450216D01*
X110405796Y-85458651D01*
X110400405Y-85478771D01*
X110395736Y-85496193D01*
X110396491Y-85504822D01*
X110399123Y-85534905D01*
X110399500Y-85543534D01*
X110399500Y-86490350D01*
X110399123Y-86498979D01*
X110395736Y-86537691D01*
X110397978Y-86546058D01*
X110405796Y-86575233D01*
X110407666Y-86583668D01*
X110411675Y-86606403D01*
X110414412Y-86621929D01*
X110418745Y-86629433D01*
X110421434Y-86636822D01*
X110423569Y-86697970D01*
X110389355Y-86748695D01*
X110338106Y-86769205D01*
X110335111Y-86769500D01*
X110330252Y-86769500D01*
X110271769Y-86781133D01*
X110271113Y-86777836D01*
X110228336Y-86781203D01*
X110228231Y-86781133D01*
X110169748Y-86769500D01*
X109830252Y-86769500D01*
X109771769Y-86781133D01*
X109771113Y-86777836D01*
X109728336Y-86781203D01*
X109728231Y-86781133D01*
X109669748Y-86769500D01*
X109330252Y-86769500D01*
X109325486Y-86770448D01*
X109303549Y-86774811D01*
X109246351Y-86769177D01*
X109226280Y-86760863D01*
X109176430Y-86750948D01*
X109166809Y-86750000D01*
X109165680Y-86750000D01*
X109152995Y-86754122D01*
X109150000Y-86758243D01*
X109150000Y-86945175D01*
X109149833Y-86948580D01*
X109149500Y-86950252D01*
X109149500Y-87689748D01*
X109149833Y-87691420D01*
X109150000Y-87694825D01*
X109150000Y-87874319D01*
X109154122Y-87887004D01*
X109158243Y-87889999D01*
X109166806Y-87889999D01*
X109176433Y-87889051D01*
X109226277Y-87879137D01*
X109246353Y-87870822D01*
X109303549Y-87865189D01*
X109325486Y-87869552D01*
X109330252Y-87870500D01*
X109669748Y-87870500D01*
X109728231Y-87858867D01*
X109728887Y-87862164D01*
X109771664Y-87858797D01*
X109771769Y-87858867D01*
X109830252Y-87870500D01*
X109930252Y-87870500D01*
X109988443Y-87889407D01*
X110024407Y-87938907D01*
X110024407Y-88000093D01*
X110007998Y-88030790D01*
X109991022Y-88052324D01*
X109987100Y-88056739D01*
X109987101Y-88056740D01*
X109984455Y-88059863D01*
X109981572Y-88062746D01*
X109979199Y-88066066D01*
X109976560Y-88069181D01*
X109976452Y-88069089D01*
X109973407Y-88072830D01*
X109952999Y-88094907D01*
X109949692Y-88102388D01*
X109946490Y-88107262D01*
X109943673Y-88112386D01*
X109938608Y-88118811D01*
X109936042Y-88126118D01*
X109935395Y-88127363D01*
X109930889Y-88133669D01*
X109922269Y-88162492D01*
X109917978Y-88174124D01*
X109905818Y-88201629D01*
X109905112Y-88209786D01*
X109903277Y-88216932D01*
X109903320Y-88216941D01*
X109902009Y-88223028D01*
X109899945Y-88228906D01*
X109899500Y-88234044D01*
X109899500Y-88236184D01*
X109899426Y-88237901D01*
X109899311Y-88239262D01*
X109897456Y-88245464D01*
X109897777Y-88253636D01*
X109897777Y-88253637D01*
X109898636Y-88275501D01*
X109898343Y-88287930D01*
X109896455Y-88309726D01*
X109895749Y-88317880D01*
X109897722Y-88325822D01*
X109898364Y-88333979D01*
X109898142Y-88333996D01*
X109899500Y-88345092D01*
X109899500Y-88370500D01*
X109880593Y-88428691D01*
X109831093Y-88464655D01*
X109800500Y-88469500D01*
X109580252Y-88469500D01*
X109521769Y-88481133D01*
X109521113Y-88477836D01*
X109478336Y-88481203D01*
X109478231Y-88481133D01*
X109419748Y-88469500D01*
X109080252Y-88469500D01*
X109075486Y-88470448D01*
X109053549Y-88474811D01*
X108996351Y-88469177D01*
X108976280Y-88460863D01*
X108926430Y-88450948D01*
X108916809Y-88450000D01*
X108915680Y-88450000D01*
X108902995Y-88454122D01*
X108900000Y-88458243D01*
X108900000Y-88645175D01*
X108899833Y-88648580D01*
X108899500Y-88650252D01*
X108899500Y-89389748D01*
X108899833Y-89391420D01*
X108900000Y-89394825D01*
X108900000Y-89574319D01*
X108904122Y-89587004D01*
X108908243Y-89589999D01*
X108916806Y-89589999D01*
X108926433Y-89589051D01*
X108976277Y-89579137D01*
X108996353Y-89570822D01*
X109053549Y-89565189D01*
X109075486Y-89569552D01*
X109080252Y-89570500D01*
X109419748Y-89570500D01*
X109478231Y-89558867D01*
X109478887Y-89562164D01*
X109521664Y-89558797D01*
X109521769Y-89558867D01*
X109580252Y-89570500D01*
X109664810Y-89570500D01*
X109723001Y-89589407D01*
X109758965Y-89638907D01*
X109758965Y-89700093D01*
X109734814Y-89739504D01*
X109141314Y-90333004D01*
X109086797Y-90360781D01*
X109071310Y-90362000D01*
X108470323Y-90362000D01*
X108412132Y-90343093D01*
X108382114Y-90307945D01*
X108353197Y-90251193D01*
X108353194Y-90251189D01*
X108349658Y-90244249D01*
X108255751Y-90150342D01*
X108248814Y-90146807D01*
X108248812Y-90146806D01*
X108144360Y-90093585D01*
X108144359Y-90093585D01*
X108137420Y-90090049D01*
X108129727Y-90088830D01*
X108129725Y-90088830D01*
X108043092Y-90075109D01*
X108043090Y-90075109D01*
X108039246Y-90074500D01*
X107460754Y-90074500D01*
X107456910Y-90075109D01*
X107456908Y-90075109D01*
X107370275Y-90088830D01*
X107370273Y-90088830D01*
X107362580Y-90090049D01*
X107355641Y-90093585D01*
X107355640Y-90093585D01*
X107251188Y-90146806D01*
X107251186Y-90146807D01*
X107244249Y-90150342D01*
X107150342Y-90244249D01*
X107146807Y-90251186D01*
X107146806Y-90251188D01*
X107096392Y-90350131D01*
X107053127Y-90393396D01*
X106992695Y-90402967D01*
X106938178Y-90375189D01*
X106914774Y-90337988D01*
X106900169Y-90296398D01*
X106893324Y-90283470D01*
X106822613Y-90187737D01*
X106812263Y-90177387D01*
X106716530Y-90106676D01*
X106703602Y-90099831D01*
X106590021Y-90059945D01*
X106578318Y-90057377D01*
X106555482Y-90055218D01*
X106550846Y-90055000D01*
X106440680Y-90055000D01*
X106427995Y-90059122D01*
X106425000Y-90063243D01*
X106425000Y-90801000D01*
X106406093Y-90859191D01*
X106356593Y-90895155D01*
X106326000Y-90900000D01*
X106174000Y-90900000D01*
X106115809Y-90881093D01*
X106079845Y-90831593D01*
X106075000Y-90801000D01*
X106075000Y-90070681D01*
X106070878Y-90057996D01*
X106066757Y-90055001D01*
X105949158Y-90055001D01*
X105944512Y-90055220D01*
X105921678Y-90057378D01*
X105909984Y-90059943D01*
X105796398Y-90099831D01*
X105783470Y-90106676D01*
X105687737Y-90177387D01*
X105677387Y-90187737D01*
X105606676Y-90283470D01*
X105599831Y-90296398D01*
X105593408Y-90314689D01*
X105556288Y-90363328D01*
X105497668Y-90380860D01*
X105439939Y-90360587D01*
X105406592Y-90314689D01*
X105400169Y-90296398D01*
X105393324Y-90283470D01*
X105322613Y-90187737D01*
X105312263Y-90177387D01*
X105216530Y-90106676D01*
X105203602Y-90099831D01*
X105090021Y-90059945D01*
X105078318Y-90057377D01*
X105055482Y-90055218D01*
X105050846Y-90055000D01*
X104940680Y-90055000D01*
X104927995Y-90059122D01*
X104925000Y-90063243D01*
X104925000Y-90801000D01*
X104906093Y-90859191D01*
X104856593Y-90895155D01*
X104826000Y-90900000D01*
X104070681Y-90900000D01*
X104057996Y-90904122D01*
X104055001Y-90908243D01*
X104055001Y-91000842D01*
X104055220Y-91005488D01*
X104057378Y-91028322D01*
X104059943Y-91040016D01*
X104089336Y-91123716D01*
X104090777Y-91184884D01*
X104055989Y-91235218D01*
X104045431Y-91242253D01*
X104045046Y-91242475D01*
X104045045Y-91242476D01*
X104037545Y-91246806D01*
X104031978Y-91253441D01*
X104012569Y-91276571D01*
X104006735Y-91282939D01*
X103869504Y-91420170D01*
X103814987Y-91447947D01*
X103754555Y-91438376D01*
X103711290Y-91395111D01*
X103700500Y-91350166D01*
X103700500Y-90534320D01*
X104055000Y-90534320D01*
X104059122Y-90547005D01*
X104063243Y-90550000D01*
X104559320Y-90550000D01*
X104572005Y-90545878D01*
X104575000Y-90541757D01*
X104575000Y-90070681D01*
X104570878Y-90057996D01*
X104566757Y-90055001D01*
X104449158Y-90055001D01*
X104444512Y-90055220D01*
X104421678Y-90057378D01*
X104409984Y-90059943D01*
X104296398Y-90099831D01*
X104283470Y-90106676D01*
X104187737Y-90177387D01*
X104177387Y-90187737D01*
X104106676Y-90283470D01*
X104099831Y-90296398D01*
X104059945Y-90409979D01*
X104057377Y-90421682D01*
X104055218Y-90444518D01*
X104055000Y-90449154D01*
X104055000Y-90534320D01*
X103700500Y-90534320D01*
X103700500Y-87492611D01*
X104544394Y-87492611D01*
X104545049Y-87498544D01*
X104545049Y-87498548D01*
X104562311Y-87654907D01*
X104562999Y-87661135D01*
X104621266Y-87820356D01*
X104634431Y-87839947D01*
X104702963Y-87941935D01*
X104719724Y-88000779D01*
X104698697Y-88058238D01*
X104670681Y-88079504D01*
X104671769Y-88081133D01*
X104605448Y-88125448D01*
X104561133Y-88191769D01*
X104559231Y-88201332D01*
X104559230Y-88201334D01*
X104557270Y-88211189D01*
X104549500Y-88250252D01*
X104549500Y-89289748D01*
X104561133Y-89348231D01*
X104605448Y-89414552D01*
X104671769Y-89458867D01*
X104681332Y-89460769D01*
X104681334Y-89460770D01*
X104704005Y-89465279D01*
X104730252Y-89470500D01*
X105769748Y-89470500D01*
X105795995Y-89465279D01*
X105818666Y-89460770D01*
X105818668Y-89460769D01*
X105828231Y-89458867D01*
X105894552Y-89414552D01*
X105913092Y-89386806D01*
X108380001Y-89386806D01*
X108380949Y-89396433D01*
X108390863Y-89446275D01*
X108398183Y-89463948D01*
X108435970Y-89520501D01*
X108449499Y-89534030D01*
X108506054Y-89571818D01*
X108523722Y-89579137D01*
X108573570Y-89589052D01*
X108583191Y-89590000D01*
X108584320Y-89590000D01*
X108597005Y-89585878D01*
X108600000Y-89581757D01*
X108600000Y-89185680D01*
X108595878Y-89172995D01*
X108591757Y-89170000D01*
X108395681Y-89170000D01*
X108382996Y-89174122D01*
X108380001Y-89178243D01*
X108380001Y-89386806D01*
X105913092Y-89386806D01*
X105938867Y-89348231D01*
X105950500Y-89289748D01*
X105950500Y-88250252D01*
X105942730Y-88211189D01*
X105940770Y-88201334D01*
X105940769Y-88201332D01*
X105938867Y-88191769D01*
X105894552Y-88125448D01*
X105828231Y-88081133D01*
X105829531Y-88079188D01*
X105793332Y-88048272D01*
X105779048Y-87988777D01*
X105797347Y-87938773D01*
X105828909Y-87894851D01*
X105843664Y-87874317D01*
X105864877Y-87844796D01*
X105864878Y-87844794D01*
X105868361Y-87839947D01*
X105871252Y-87832757D01*
X105929377Y-87688167D01*
X105929378Y-87688165D01*
X105931601Y-87682634D01*
X105935547Y-87654907D01*
X105955034Y-87517985D01*
X105955034Y-87517979D01*
X105955490Y-87514778D01*
X105955645Y-87500000D01*
X105949099Y-87445905D01*
X106750000Y-87445905D01*
X106750390Y-87452093D01*
X106763924Y-87559232D01*
X106766998Y-87571204D01*
X106820079Y-87705272D01*
X106826030Y-87716097D01*
X106910788Y-87832757D01*
X106919244Y-87841762D01*
X107030349Y-87933674D01*
X107040782Y-87940296D01*
X107173042Y-88002533D01*
X107217645Y-88044418D01*
X107229109Y-88104519D01*
X107222354Y-88129995D01*
X107208540Y-88163346D01*
X107192027Y-88203213D01*
X107189313Y-88209764D01*
X107180659Y-88275501D01*
X107172958Y-88333996D01*
X107169534Y-88360000D01*
X107189313Y-88510236D01*
X107191797Y-88516233D01*
X107244819Y-88644240D01*
X107244821Y-88644244D01*
X107247302Y-88650233D01*
X107251248Y-88655375D01*
X107251250Y-88655379D01*
X107301593Y-88720986D01*
X107339549Y-88770451D01*
X107344698Y-88774402D01*
X107454621Y-88858750D01*
X107454625Y-88858752D01*
X107459767Y-88862698D01*
X107465756Y-88865179D01*
X107465760Y-88865181D01*
X107528057Y-88890985D01*
X107599764Y-88920687D01*
X107712280Y-88935500D01*
X108087720Y-88935500D01*
X108200236Y-88920687D01*
X108271943Y-88890985D01*
X108314839Y-88873217D01*
X108368209Y-88866899D01*
X108387792Y-88870000D01*
X108584320Y-88870000D01*
X108597005Y-88865878D01*
X108600000Y-88861757D01*
X108600000Y-88555728D01*
X108606606Y-88522519D01*
X108606525Y-88522497D01*
X108606855Y-88521265D01*
X108607536Y-88517842D01*
X108610687Y-88510236D01*
X108611535Y-88503800D01*
X108629619Y-88366434D01*
X108630466Y-88360000D01*
X108627043Y-88333996D01*
X108619341Y-88275501D01*
X108610687Y-88209764D01*
X108608203Y-88203767D01*
X108555181Y-88075760D01*
X108555179Y-88075756D01*
X108552698Y-88069767D01*
X108548752Y-88064625D01*
X108548750Y-88064621D01*
X108464402Y-87954698D01*
X108460451Y-87949549D01*
X108446408Y-87938773D01*
X108345379Y-87861250D01*
X108345375Y-87861248D01*
X108340233Y-87857302D01*
X108334244Y-87854821D01*
X108334240Y-87854819D01*
X108206233Y-87801797D01*
X108200236Y-87799313D01*
X108087720Y-87784500D01*
X108038686Y-87784500D01*
X107980495Y-87765593D01*
X107944531Y-87716093D01*
X107944531Y-87686806D01*
X108630001Y-87686806D01*
X108630949Y-87696433D01*
X108640863Y-87746275D01*
X108648183Y-87763948D01*
X108685970Y-87820501D01*
X108699499Y-87834030D01*
X108756054Y-87871818D01*
X108773722Y-87879137D01*
X108823570Y-87889052D01*
X108833191Y-87890000D01*
X108834320Y-87890000D01*
X108847005Y-87885878D01*
X108850000Y-87881757D01*
X108850000Y-87485680D01*
X108845878Y-87472995D01*
X108841757Y-87470000D01*
X108645681Y-87470000D01*
X108632996Y-87474122D01*
X108630001Y-87478243D01*
X108630001Y-87686806D01*
X107944531Y-87686806D01*
X107944531Y-87654907D01*
X107946638Y-87649055D01*
X107952593Y-87634016D01*
X107988452Y-87494352D01*
X107990000Y-87482100D01*
X107990000Y-87300680D01*
X107985878Y-87287995D01*
X107981757Y-87285000D01*
X106765680Y-87285000D01*
X106752995Y-87289122D01*
X106750000Y-87293243D01*
X106750000Y-87445905D01*
X105949099Y-87445905D01*
X105935276Y-87331680D01*
X105875345Y-87173077D01*
X105870398Y-87165878D01*
X105862454Y-87154320D01*
X108630000Y-87154320D01*
X108634122Y-87167005D01*
X108638243Y-87170000D01*
X108834320Y-87170000D01*
X108847005Y-87165878D01*
X108850000Y-87161757D01*
X108850000Y-86765681D01*
X108845878Y-86752996D01*
X108841757Y-86750001D01*
X108833194Y-86750001D01*
X108823567Y-86750949D01*
X108773725Y-86760863D01*
X108756052Y-86768183D01*
X108699499Y-86805970D01*
X108685970Y-86819499D01*
X108648182Y-86876054D01*
X108640863Y-86893722D01*
X108630948Y-86943570D01*
X108630000Y-86953191D01*
X108630000Y-87154320D01*
X105862454Y-87154320D01*
X105782692Y-87038267D01*
X105779312Y-87033349D01*
X105672554Y-86938230D01*
X105661504Y-86919320D01*
X106750000Y-86919320D01*
X106754122Y-86932005D01*
X106758243Y-86935000D01*
X107179320Y-86935000D01*
X107192005Y-86930878D01*
X107195000Y-86926757D01*
X107195000Y-86919320D01*
X107545000Y-86919320D01*
X107549122Y-86932005D01*
X107553243Y-86935000D01*
X107974320Y-86935000D01*
X107987005Y-86930878D01*
X107990000Y-86926757D01*
X107990000Y-86774095D01*
X107989610Y-86767907D01*
X107976076Y-86660768D01*
X107973002Y-86648796D01*
X107919921Y-86514728D01*
X107913970Y-86503903D01*
X107829212Y-86387243D01*
X107820756Y-86378238D01*
X107709651Y-86286326D01*
X107699218Y-86279704D01*
X107568747Y-86218309D01*
X107559390Y-86215269D01*
X107547169Y-86216813D01*
X107546982Y-86216989D01*
X107545000Y-86224709D01*
X107545000Y-86919320D01*
X107195000Y-86919320D01*
X107195000Y-86230634D01*
X107191479Y-86219799D01*
X107180089Y-86219799D01*
X107109837Y-86242625D01*
X107098662Y-86247884D01*
X106976913Y-86325149D01*
X106967394Y-86333023D01*
X106868689Y-86438134D01*
X106861421Y-86448138D01*
X106791957Y-86574491D01*
X106787409Y-86585980D01*
X106751548Y-86725648D01*
X106750000Y-86737900D01*
X106750000Y-86919320D01*
X105661504Y-86919320D01*
X105641684Y-86885404D01*
X105647761Y-86824521D01*
X105674117Y-86789034D01*
X105764884Y-86711512D01*
X105764890Y-86711506D01*
X105769423Y-86707634D01*
X105774123Y-86701093D01*
X105864877Y-86574796D01*
X105864878Y-86574794D01*
X105868361Y-86569947D01*
X105877965Y-86546058D01*
X105929377Y-86418167D01*
X105929378Y-86418165D01*
X105931601Y-86412634D01*
X105932442Y-86406727D01*
X105955034Y-86247985D01*
X105955034Y-86247979D01*
X105955490Y-86244778D01*
X105955645Y-86230000D01*
X105942521Y-86121549D01*
X105935993Y-86067602D01*
X105935992Y-86067599D01*
X105935276Y-86061680D01*
X105875345Y-85903077D01*
X105871015Y-85896776D01*
X105782692Y-85768267D01*
X105779312Y-85763349D01*
X105689594Y-85683413D01*
X105658724Y-85630586D01*
X105664801Y-85569703D01*
X105689392Y-85538523D01*
X105688066Y-85537131D01*
X105801030Y-85429556D01*
X105808107Y-85421123D01*
X105891369Y-85295803D01*
X105896397Y-85286021D01*
X105949556Y-85146078D01*
X105948024Y-85137392D01*
X105946899Y-85136306D01*
X105941243Y-85135000D01*
X104565059Y-85135000D01*
X104554343Y-85138482D01*
X104554384Y-85150044D01*
X104590517Y-85258665D01*
X104595131Y-85268651D01*
X104673075Y-85397350D01*
X104679786Y-85406065D01*
X104784307Y-85514299D01*
X104792782Y-85521311D01*
X104799984Y-85526024D01*
X104838321Y-85573710D01*
X104841308Y-85634822D01*
X104810852Y-85683464D01*
X104725604Y-85757831D01*
X104722173Y-85762713D01*
X104722172Y-85762714D01*
X104672722Y-85833074D01*
X104628113Y-85896547D01*
X104625945Y-85902108D01*
X104575008Y-86032754D01*
X104566524Y-86054513D01*
X104544394Y-86222611D01*
X104545049Y-86228544D01*
X104545049Y-86228548D01*
X104550697Y-86279704D01*
X104562999Y-86391135D01*
X104621266Y-86550356D01*
X104624591Y-86555305D01*
X104624592Y-86555306D01*
X104645204Y-86585980D01*
X104715830Y-86691083D01*
X104827374Y-86792580D01*
X104857687Y-86845725D01*
X104850973Y-86906541D01*
X104825824Y-86940404D01*
X104725604Y-87027831D01*
X104628113Y-87166547D01*
X104611953Y-87207996D01*
X104580323Y-87289122D01*
X104566524Y-87324513D01*
X104544394Y-87492611D01*
X103700500Y-87492611D01*
X103700500Y-83682611D01*
X104544394Y-83682611D01*
X104545049Y-83688544D01*
X104545049Y-83688548D01*
X104562344Y-83845204D01*
X104562999Y-83851135D01*
X104621266Y-84010356D01*
X104624591Y-84015305D01*
X104624592Y-84015306D01*
X104637689Y-84034796D01*
X104715830Y-84151083D01*
X104797185Y-84225110D01*
X104810889Y-84237580D01*
X104841203Y-84290728D01*
X104834489Y-84351543D01*
X104805211Y-84388815D01*
X104799966Y-84392913D01*
X104692468Y-84498183D01*
X104685508Y-84506715D01*
X104604004Y-84633187D01*
X104599116Y-84643033D01*
X104552807Y-84770266D01*
X104552432Y-84781013D01*
X104564010Y-84785000D01*
X105935829Y-84785000D01*
X105946302Y-84781597D01*
X105946177Y-84769688D01*
X105905248Y-84652157D01*
X105900496Y-84642238D01*
X105820762Y-84514636D01*
X105813932Y-84506019D01*
X105707910Y-84399253D01*
X105695026Y-84388895D01*
X105696306Y-84387303D01*
X105662763Y-84346763D01*
X105658916Y-84285699D01*
X105690512Y-84235031D01*
X105764887Y-84171508D01*
X105769423Y-84167634D01*
X105772904Y-84162790D01*
X105864877Y-84034796D01*
X105864878Y-84034794D01*
X105868361Y-84029947D01*
X105931601Y-83872634D01*
X105942650Y-83794999D01*
X105955034Y-83707985D01*
X105955034Y-83707979D01*
X105955490Y-83704778D01*
X105955645Y-83690000D01*
X105935276Y-83521680D01*
X105890868Y-83404157D01*
X117055001Y-83404157D01*
X117055611Y-83411901D01*
X117069358Y-83498707D01*
X117074115Y-83513349D01*
X117127441Y-83618005D01*
X117136486Y-83630455D01*
X117219545Y-83713514D01*
X117231995Y-83722559D01*
X117336654Y-83775886D01*
X117351289Y-83780642D01*
X117438101Y-83794391D01*
X117445840Y-83795000D01*
X117559320Y-83795000D01*
X117572005Y-83790878D01*
X117575000Y-83786757D01*
X117575000Y-83779319D01*
X117925000Y-83779319D01*
X117929122Y-83792004D01*
X117933243Y-83794999D01*
X118054157Y-83794999D01*
X118061901Y-83794389D01*
X118148707Y-83780642D01*
X118163349Y-83775885D01*
X118268005Y-83722559D01*
X118280455Y-83713514D01*
X118363514Y-83630455D01*
X118372559Y-83618005D01*
X118425886Y-83513346D01*
X118430642Y-83498711D01*
X118444391Y-83411899D01*
X118445000Y-83404160D01*
X118445000Y-83365680D01*
X118440878Y-83352995D01*
X118436757Y-83350000D01*
X117940680Y-83350000D01*
X117927995Y-83354122D01*
X117925000Y-83358243D01*
X117925000Y-83779319D01*
X117575000Y-83779319D01*
X117575000Y-83365680D01*
X117570878Y-83352995D01*
X117566757Y-83350000D01*
X117070681Y-83350000D01*
X117057996Y-83354122D01*
X117055001Y-83358243D01*
X117055001Y-83404157D01*
X105890868Y-83404157D01*
X105875345Y-83363077D01*
X105869191Y-83354122D01*
X105782692Y-83228267D01*
X105779312Y-83223349D01*
X105672554Y-83128230D01*
X105641684Y-83075404D01*
X105647761Y-83014521D01*
X105670191Y-82984320D01*
X117055000Y-82984320D01*
X117059122Y-82997005D01*
X117063243Y-83000000D01*
X117559320Y-83000000D01*
X117572005Y-82995878D01*
X117575000Y-82991757D01*
X117575000Y-82570681D01*
X117570878Y-82557996D01*
X117566757Y-82555001D01*
X117445843Y-82555001D01*
X117438099Y-82555611D01*
X117351293Y-82569358D01*
X117336651Y-82574115D01*
X117231995Y-82627441D01*
X117219545Y-82636486D01*
X117136486Y-82719545D01*
X117127441Y-82731995D01*
X117074114Y-82836654D01*
X117069358Y-82851289D01*
X117055609Y-82938101D01*
X117055000Y-82945840D01*
X117055000Y-82984320D01*
X105670191Y-82984320D01*
X105674117Y-82979034D01*
X105764884Y-82901512D01*
X105764890Y-82901506D01*
X105769423Y-82897634D01*
X105772904Y-82892790D01*
X105864877Y-82764796D01*
X105864878Y-82764794D01*
X105868361Y-82759947D01*
X105917993Y-82636486D01*
X105929377Y-82608167D01*
X105929378Y-82608165D01*
X105931601Y-82602634D01*
X105937954Y-82557996D01*
X105955034Y-82437985D01*
X105955034Y-82437979D01*
X105955490Y-82434778D01*
X105955645Y-82420000D01*
X105935276Y-82251680D01*
X105875345Y-82093077D01*
X105870965Y-82086703D01*
X105782692Y-81958267D01*
X105779312Y-81953349D01*
X105672554Y-81858230D01*
X105641684Y-81805404D01*
X105647761Y-81744521D01*
X105674117Y-81709034D01*
X105764884Y-81631512D01*
X105764890Y-81631506D01*
X105769423Y-81627634D01*
X105772904Y-81622790D01*
X105864080Y-81495905D01*
X106390000Y-81495905D01*
X106390390Y-81502093D01*
X106403924Y-81609232D01*
X106406998Y-81621204D01*
X106460079Y-81755272D01*
X106466030Y-81766097D01*
X106550788Y-81882757D01*
X106559244Y-81891762D01*
X106670349Y-81983674D01*
X106680782Y-81990296D01*
X106811253Y-82051691D01*
X106820610Y-82054731D01*
X106832831Y-82053187D01*
X106833018Y-82053011D01*
X106835000Y-82045291D01*
X106835000Y-82039366D01*
X107185000Y-82039366D01*
X107188521Y-82050201D01*
X107199911Y-82050201D01*
X107270163Y-82027375D01*
X107281338Y-82022116D01*
X107403087Y-81944851D01*
X107412606Y-81936977D01*
X107511311Y-81831866D01*
X107518579Y-81821862D01*
X107588043Y-81695509D01*
X107592591Y-81684020D01*
X107628452Y-81544352D01*
X107630000Y-81532100D01*
X107630000Y-81495905D01*
X115370000Y-81495905D01*
X115370390Y-81502093D01*
X115383924Y-81609232D01*
X115386998Y-81621204D01*
X115440079Y-81755272D01*
X115446030Y-81766097D01*
X115530788Y-81882757D01*
X115539244Y-81891762D01*
X115650349Y-81983674D01*
X115660782Y-81990296D01*
X115791253Y-82051691D01*
X115800610Y-82054731D01*
X115812831Y-82053187D01*
X115813018Y-82053011D01*
X115815000Y-82045291D01*
X115815000Y-82039366D01*
X116165000Y-82039366D01*
X116168521Y-82050201D01*
X116179911Y-82050201D01*
X116250163Y-82027375D01*
X116261338Y-82022116D01*
X116383087Y-81944851D01*
X116392606Y-81936977D01*
X116491311Y-81831866D01*
X116498579Y-81821862D01*
X116568043Y-81695509D01*
X116572591Y-81684020D01*
X116608452Y-81544352D01*
X116610000Y-81532100D01*
X116610000Y-81350680D01*
X116605878Y-81337995D01*
X116601757Y-81335000D01*
X116180680Y-81335000D01*
X116167995Y-81339122D01*
X116165000Y-81343243D01*
X116165000Y-82039366D01*
X115815000Y-82039366D01*
X115815000Y-81350680D01*
X115810878Y-81337995D01*
X115806757Y-81335000D01*
X115385680Y-81335000D01*
X115372995Y-81339122D01*
X115370000Y-81343243D01*
X115370000Y-81495905D01*
X107630000Y-81495905D01*
X107630000Y-81350680D01*
X107625878Y-81337995D01*
X107621757Y-81335000D01*
X107200680Y-81335000D01*
X107187995Y-81339122D01*
X107185000Y-81343243D01*
X107185000Y-82039366D01*
X106835000Y-82039366D01*
X106835000Y-81350680D01*
X106830878Y-81337995D01*
X106826757Y-81335000D01*
X106405680Y-81335000D01*
X106392995Y-81339122D01*
X106390000Y-81343243D01*
X106390000Y-81495905D01*
X105864080Y-81495905D01*
X105864877Y-81494796D01*
X105864878Y-81494794D01*
X105868361Y-81489947D01*
X105890821Y-81434078D01*
X105929377Y-81338167D01*
X105929378Y-81338165D01*
X105931601Y-81332634D01*
X105941664Y-81261926D01*
X105955034Y-81167985D01*
X105955034Y-81167979D01*
X105955490Y-81164778D01*
X105955645Y-81150000D01*
X105944680Y-81059394D01*
X105935993Y-80987602D01*
X105935992Y-80987599D01*
X105935276Y-80981680D01*
X105875345Y-80823077D01*
X105854639Y-80792949D01*
X105782692Y-80688267D01*
X105779312Y-80683349D01*
X105652721Y-80570560D01*
X105502881Y-80491224D01*
X105420661Y-80470571D01*
X105344231Y-80451373D01*
X105344228Y-80451373D01*
X105338441Y-80449919D01*
X105252841Y-80449471D01*
X105174861Y-80449062D01*
X105174859Y-80449062D01*
X105168895Y-80449031D01*
X105163099Y-80450423D01*
X105163095Y-80450423D01*
X105055703Y-80476207D01*
X105004032Y-80488612D01*
X104985576Y-80498138D01*
X104858675Y-80563636D01*
X104858673Y-80563638D01*
X104853369Y-80566375D01*
X104725604Y-80677831D01*
X104722173Y-80682713D01*
X104722172Y-80682714D01*
X104697265Y-80718153D01*
X104628113Y-80816547D01*
X104566524Y-80974513D01*
X104544394Y-81142611D01*
X104545049Y-81148544D01*
X104545049Y-81148548D01*
X104558784Y-81272957D01*
X104562999Y-81311135D01*
X104621266Y-81470356D01*
X104624591Y-81475305D01*
X104624592Y-81475306D01*
X104637689Y-81494796D01*
X104715830Y-81611083D01*
X104827374Y-81712580D01*
X104857687Y-81765725D01*
X104850973Y-81826541D01*
X104825824Y-81860404D01*
X104725604Y-81947831D01*
X104722173Y-81952713D01*
X104722172Y-81952714D01*
X104635367Y-82076226D01*
X104628113Y-82086547D01*
X104566524Y-82244513D01*
X104544394Y-82412611D01*
X104545049Y-82418544D01*
X104545049Y-82418548D01*
X104561699Y-82569358D01*
X104562999Y-82581135D01*
X104621266Y-82740356D01*
X104624591Y-82745305D01*
X104624592Y-82745306D01*
X104637689Y-82764796D01*
X104715830Y-82881083D01*
X104827374Y-82982580D01*
X104857687Y-83035725D01*
X104850973Y-83096541D01*
X104825824Y-83130404D01*
X104725604Y-83217831D01*
X104628113Y-83356547D01*
X104609549Y-83404160D01*
X104572687Y-83498707D01*
X104566524Y-83514513D01*
X104544394Y-83682611D01*
X103700500Y-83682611D01*
X103700500Y-81284281D01*
X103703057Y-81261926D01*
X103704388Y-81256183D01*
X103705655Y-81250718D01*
X103705656Y-81250000D01*
X103704411Y-81244542D01*
X103703790Y-81238993D01*
X103704705Y-81238891D01*
X103703284Y-81218173D01*
X103708239Y-81161545D01*
X103709456Y-81147629D01*
X103715689Y-81076388D01*
X103718685Y-81059394D01*
X103761551Y-80899417D01*
X103767453Y-80883201D01*
X103837447Y-80733098D01*
X103846076Y-80718153D01*
X103941066Y-80582492D01*
X103952158Y-80569272D01*
X104069272Y-80452158D01*
X104082492Y-80441066D01*
X104218153Y-80346076D01*
X104233098Y-80337447D01*
X104383201Y-80267453D01*
X104399417Y-80261551D01*
X104559393Y-80218685D01*
X104576388Y-80215689D01*
X104717922Y-80203307D01*
X104727629Y-80203979D01*
X104727630Y-80203138D01*
X104738775Y-80203158D01*
X104749641Y-80205656D01*
X104761641Y-80202941D01*
X104783488Y-80200500D01*
X106553045Y-80200500D01*
X106611236Y-80219407D01*
G37*
%TD.AperFunction*%
%TD*%
M02*
