%TF.GenerationSoftware,KiCad,Pcbnew,(6.0.8)*%
%TF.CreationDate,2022-10-30T16:36:14+01:00*%
%TF.ProjectId,k1-aioc,6b312d61-696f-4632-9e6b-696361645f70,rev?*%
%TF.SameCoordinates,Original*%
%TF.FileFunction,Legend,Top*%
%TF.FilePolarity,Positive*%
%FSLAX46Y46*%
G04 Gerber Fmt 4.6, Leading zero omitted, Abs format (unit mm)*
G04 Created by KiCad (PCBNEW (6.0.8)) date 2022-10-30 16:36:14*
%MOMM*%
%LPD*%
G01*
G04 APERTURE LIST*
G04 Aperture macros list*
%AMRoundRect*
0 Rectangle with rounded corners*
0 $1 Rounding radius*
0 $2 $3 $4 $5 $6 $7 $8 $9 X,Y pos of 4 corners*
0 Add a 4 corners polygon primitive as box body*
4,1,4,$2,$3,$4,$5,$6,$7,$8,$9,$2,$3,0*
0 Add four circle primitives for the rounded corners*
1,1,$1+$1,$2,$3*
1,1,$1+$1,$4,$5*
1,1,$1+$1,$6,$7*
1,1,$1+$1,$8,$9*
0 Add four rect primitives between the rounded corners*
20,1,$1+$1,$2,$3,$4,$5,0*
20,1,$1+$1,$4,$5,$6,$7,0*
20,1,$1+$1,$6,$7,$8,$9,0*
20,1,$1+$1,$8,$9,$2,$3,0*%
G04 Aperture macros list end*
%ADD10C,0.150000*%
%ADD11C,0.120000*%
%ADD12RoundRect,0.250000X-0.275000X0.200000X-0.275000X-0.200000X0.275000X-0.200000X0.275000X0.200000X0*%
%ADD13RoundRect,0.268750X0.218750X0.256250X-0.218750X0.256250X-0.218750X-0.256250X0.218750X-0.256250X0*%
%ADD14RoundRect,0.275000X0.225000X0.250000X-0.225000X0.250000X-0.225000X-0.250000X0.225000X-0.250000X0*%
%ADD15RoundRect,0.250000X-0.200000X-0.275000X0.200000X-0.275000X0.200000X0.275000X-0.200000X0.275000X0*%
%ADD16C,0.750000*%
%ADD17O,1.050000X0.750000*%
%ADD18RoundRect,0.050000X0.150000X0.350000X-0.150000X0.350000X-0.150000X-0.350000X0.150000X-0.350000X0*%
%ADD19O,0.900000X1.500000*%
%ADD20RoundRect,0.268750X-0.218750X-0.256250X0.218750X-0.256250X0.218750X0.256250X-0.218750X0.256250X0*%
%ADD21RoundRect,0.275000X-0.250000X0.225000X-0.250000X-0.225000X0.250000X-0.225000X0.250000X0.225000X0*%
%ADD22RoundRect,0.275000X-0.225000X-0.250000X0.225000X-0.250000X0.225000X0.250000X-0.225000X0.250000X0*%
%ADD23RoundRect,0.268750X0.256250X-0.218750X0.256250X0.218750X-0.256250X0.218750X-0.256250X-0.218750X0*%
%ADD24RoundRect,0.125000X0.075000X-0.662500X0.075000X0.662500X-0.075000X0.662500X-0.075000X-0.662500X0*%
%ADD25RoundRect,0.125000X0.662500X-0.075000X0.662500X0.075000X-0.662500X0.075000X-0.662500X-0.075000X0*%
%ADD26RoundRect,0.275000X0.250000X-0.225000X0.250000X0.225000X-0.250000X0.225000X-0.250000X-0.225000X0*%
%ADD27RoundRect,0.250000X0.200000X0.275000X-0.200000X0.275000X-0.200000X-0.275000X0.200000X-0.275000X0*%
%ADD28RoundRect,0.050000X-0.325000X-0.200000X0.325000X-0.200000X0.325000X0.200000X-0.325000X0.200000X0*%
%ADD29RoundRect,0.050000X0.500000X0.500000X-0.500000X0.500000X-0.500000X-0.500000X0.500000X-0.500000X0*%
%ADD30O,1.100000X1.100000*%
%ADD31RoundRect,0.112500X-0.062500X0.312500X-0.062500X-0.312500X0.062500X-0.312500X0.062500X0.312500X0*%
%ADD32RoundRect,0.050000X-0.600000X0.300000X-0.600000X-0.300000X0.600000X-0.300000X0.600000X0.300000X0*%
%ADD33C,2.100000*%
%ADD34RoundRect,0.050000X-1.000000X-1.200000X1.000000X-1.200000X1.000000X1.200000X-1.000000X1.200000X0*%
%ADD35RoundRect,0.250000X0.275000X-0.200000X0.275000X0.200000X-0.275000X0.200000X-0.275000X-0.200000X0*%
G04 APERTURE END LIST*
D10*
%TO.C,H1*%
X117488095Y-79704380D02*
X117488095Y-78704380D01*
X117488095Y-79180571D02*
X118059523Y-79180571D01*
X118059523Y-79704380D02*
X118059523Y-78704380D01*
X119059523Y-79704380D02*
X118488095Y-79704380D01*
X118773809Y-79704380D02*
X118773809Y-78704380D01*
X118678571Y-78847238D01*
X118583333Y-78942476D01*
X118488095Y-78990095D01*
D11*
%TO.C,R2*%
X119522500Y-102512742D02*
X119522500Y-102987258D01*
X118477500Y-102512742D02*
X118477500Y-102987258D01*
%TO.C,D2*%
X106985000Y-105735000D02*
X106985000Y-104265000D01*
X104700000Y-105735000D02*
X106985000Y-105735000D01*
X106985000Y-104265000D02*
X104700000Y-104265000D01*
%TO.C,C11*%
X118890580Y-92510000D02*
X118609420Y-92510000D01*
X118890580Y-91490000D02*
X118609420Y-91490000D01*
%TO.C,R15*%
X105262742Y-102522500D02*
X105737258Y-102522500D01*
X105262742Y-101477500D02*
X105737258Y-101477500D01*
%TO.C,J1*%
X116250000Y-89370000D02*
X114750000Y-89370000D01*
X116250000Y-89370000D02*
X116250000Y-82110000D01*
X108250000Y-89370000D02*
X106750000Y-89370000D01*
X106750000Y-89370000D02*
X106750000Y-82110000D01*
%TO.C,C1*%
X105640580Y-105990000D02*
X105359420Y-105990000D01*
X105640580Y-107010000D02*
X105359420Y-107010000D01*
%TO.C,D1*%
X106300000Y-102765000D02*
X104015000Y-102765000D01*
X104015000Y-102765000D02*
X104015000Y-104235000D01*
X104015000Y-104235000D02*
X106300000Y-104235000D01*
%TO.C,C9*%
X112990000Y-106109420D02*
X112990000Y-106390580D01*
X114010000Y-106109420D02*
X114010000Y-106390580D01*
%TO.C,C12*%
X121109420Y-104010000D02*
X121390580Y-104010000D01*
X121109420Y-102990000D02*
X121390580Y-102990000D01*
%TO.C,R13*%
X117477500Y-109262742D02*
X117477500Y-109737258D01*
X118522500Y-109262742D02*
X118522500Y-109737258D01*
%TO.C,FB2*%
X108260000Y-91662779D02*
X108260000Y-91337221D01*
X107240000Y-91662779D02*
X107240000Y-91337221D01*
%TO.C,R8*%
X115272500Y-91762742D02*
X115272500Y-92237258D01*
X114227500Y-91762742D02*
X114227500Y-92237258D01*
%TO.C,R11*%
X117022500Y-106012742D02*
X117022500Y-106487258D01*
X115977500Y-106012742D02*
X115977500Y-106487258D01*
%TO.C,R9*%
X112727500Y-91762742D02*
X112727500Y-92237258D01*
X113772500Y-91762742D02*
X113772500Y-92237258D01*
%TO.C,U2*%
X116360000Y-102410000D02*
X116360000Y-102860000D01*
X109140000Y-102860000D02*
X109590000Y-102860000D01*
X116360000Y-102860000D02*
X115910000Y-102860000D01*
X109140000Y-102410000D02*
X109140000Y-102860000D01*
X116360000Y-96090000D02*
X116360000Y-95640000D01*
X109590000Y-102860000D02*
X109590000Y-104150000D01*
X109140000Y-95640000D02*
X109590000Y-95640000D01*
X116360000Y-95640000D02*
X115910000Y-95640000D01*
X109140000Y-96090000D02*
X109140000Y-95640000D01*
%TO.C,C6*%
X105740000Y-91640580D02*
X105740000Y-91359420D01*
X106760000Y-91640580D02*
X106760000Y-91359420D01*
%TO.C,R4*%
X121487258Y-101477500D02*
X121012742Y-101477500D01*
X121487258Y-102522500D02*
X121012742Y-102522500D01*
%TO.C,FB1*%
X105740000Y-98162779D02*
X105740000Y-97837221D01*
X106760000Y-98162779D02*
X106760000Y-97837221D01*
%TO.C,C3*%
X104240000Y-91640580D02*
X104240000Y-91359420D01*
X105260000Y-91640580D02*
X105260000Y-91359420D01*
%TO.C,C2*%
X110359420Y-105990000D02*
X110640580Y-105990000D01*
X110359420Y-107010000D02*
X110640580Y-107010000D01*
%TO.C,R10*%
X115522500Y-106012742D02*
X115522500Y-106487258D01*
X114477500Y-106012742D02*
X114477500Y-106487258D01*
%TO.C,C4*%
X108260000Y-94640580D02*
X108260000Y-94359420D01*
X107240000Y-94640580D02*
X107240000Y-94359420D01*
%TO.C,R1*%
X110512742Y-92522500D02*
X110987258Y-92522500D01*
X110512742Y-91477500D02*
X110987258Y-91477500D01*
%TO.C,C5*%
X104240000Y-97859420D02*
X104240000Y-98140580D01*
X105260000Y-97859420D02*
X105260000Y-98140580D01*
%TO.C,Q1*%
X116450000Y-108340000D02*
X114550000Y-108340000D01*
X115050000Y-110660000D02*
X116450000Y-110660000D01*
%TO.C,C14*%
X121609420Y-91490000D02*
X121890580Y-91490000D01*
X121609420Y-92510000D02*
X121890580Y-92510000D01*
%TO.C,R5*%
X118512742Y-89977500D02*
X118987258Y-89977500D01*
X118512742Y-91022500D02*
X118987258Y-91022500D01*
%TO.C,C15*%
X113110000Y-109359420D02*
X113110000Y-109640580D01*
X112090000Y-109359420D02*
X112090000Y-109640580D01*
%TO.C,C7*%
X119609420Y-99990000D02*
X119890580Y-99990000D01*
X119609420Y-101010000D02*
X119890580Y-101010000D01*
%TO.C,J2*%
X103365000Y-89465000D02*
X103365000Y-80455000D01*
X99365000Y-82680000D02*
X99365000Y-82160000D01*
X105685000Y-88770000D02*
X105685000Y-89530000D01*
X103365000Y-86490000D02*
X99365000Y-86490000D01*
X103365000Y-89030000D02*
X99365000Y-89030000D01*
X103365000Y-85220000D02*
X99365000Y-85220000D01*
X104485000Y-83055000D02*
X103365000Y-83055000D01*
X99365000Y-85220000D02*
X99365000Y-84700000D01*
X103365000Y-81410000D02*
X99365000Y-81410000D01*
X104485000Y-85610323D02*
X104485000Y-85579677D01*
X104485000Y-84340323D02*
X104485000Y-84309677D01*
X99365000Y-84700000D02*
X103365000Y-84700000D01*
X99365000Y-85970000D02*
X103365000Y-85970000D01*
X104165000Y-89465000D02*
X103365000Y-89465000D01*
X104485000Y-84325000D02*
X103365000Y-84325000D01*
X104485000Y-81785000D02*
X103365000Y-81785000D01*
X99365000Y-86490000D02*
X99365000Y-85970000D01*
X103365000Y-82680000D02*
X99365000Y-82680000D01*
X99365000Y-87760000D02*
X99365000Y-87240000D01*
X103365000Y-80455000D02*
X104485000Y-80455000D01*
X104485000Y-80455000D02*
X104485000Y-80530323D01*
X99365000Y-83950000D02*
X99365000Y-83430000D01*
X104485000Y-86880323D02*
X104485000Y-86849677D01*
X104485000Y-86865000D02*
X103365000Y-86865000D01*
X104485000Y-85595000D02*
X103365000Y-85595000D01*
X103365000Y-83950000D02*
X99365000Y-83950000D01*
X99365000Y-81410000D02*
X99365000Y-80890000D01*
X99365000Y-82160000D02*
X103365000Y-82160000D01*
X103365000Y-88850000D02*
X99365000Y-88850000D01*
X104485000Y-83070323D02*
X104485000Y-83039677D01*
X104165000Y-88135000D02*
X103365000Y-88135000D01*
X99365000Y-80890000D02*
X103365000Y-80890000D01*
X105685000Y-89530000D02*
X104925000Y-89530000D01*
X99365000Y-83430000D02*
X103365000Y-83430000D01*
X99365000Y-87240000D02*
X103365000Y-87240000D01*
X103365000Y-87760000D02*
X99365000Y-87760000D01*
X99365000Y-89030000D02*
X99365000Y-88510000D01*
X99365000Y-88510000D02*
X103365000Y-88510000D01*
X104485000Y-81800323D02*
X104485000Y-81769677D01*
X103365000Y-88970000D02*
X99365000Y-88970000D01*
X103365000Y-88610000D02*
X99365000Y-88610000D01*
X103365000Y-88730000D02*
X99365000Y-88730000D01*
%TO.C,C8*%
X108760000Y-103859420D02*
X108760000Y-104140580D01*
X107740000Y-103859420D02*
X107740000Y-104140580D01*
%TO.C,U1*%
X104390000Y-93750000D02*
X104390000Y-95750000D01*
X106610000Y-94750000D02*
X106610000Y-95750000D01*
%TO.C,R16*%
X118512742Y-94022500D02*
X118987258Y-94022500D01*
X118512742Y-92977500D02*
X118987258Y-92977500D01*
%TO.C,R3*%
X118512742Y-95522500D02*
X118987258Y-95522500D01*
X118512742Y-94477500D02*
X118987258Y-94477500D01*
%TO.C,C10*%
X115740000Y-92140580D02*
X115740000Y-91859420D01*
X116760000Y-92140580D02*
X116760000Y-91859420D01*
%TO.C,R14*%
X105262742Y-99977500D02*
X105737258Y-99977500D01*
X105262742Y-101022500D02*
X105737258Y-101022500D01*
%TO.C,R6*%
X117227500Y-84012742D02*
X117227500Y-84487258D01*
X118272500Y-84012742D02*
X118272500Y-84487258D01*
%TO.C,H1*%
X119450000Y-81250000D02*
G75*
G03*
X119450000Y-81250000I-1200000J0D01*
G01*
%TO.C,C13*%
X118990000Y-106109420D02*
X118990000Y-106390580D01*
X120010000Y-106109420D02*
X120010000Y-106390580D01*
%TO.C,Y1*%
X104950000Y-111050000D02*
X110700000Y-111050000D01*
X110700000Y-107450000D02*
X104950000Y-107450000D01*
X104950000Y-107450000D02*
X104950000Y-111050000D01*
%TO.C,R12*%
X117477500Y-106012742D02*
X117477500Y-106487258D01*
X118522500Y-106012742D02*
X118522500Y-106487258D01*
%TO.C,R7*%
X118272500Y-87487258D02*
X118272500Y-87012742D01*
X117227500Y-87487258D02*
X117227500Y-87012742D01*
%TD*%
%LPC*%
D10*
X119500000Y-109250000D02*
X124500000Y-109250000D01*
X124500000Y-109250000D02*
X124500000Y-111250000D01*
X124500000Y-111250000D02*
X119500000Y-111250000D01*
X119500000Y-111250000D02*
X119500000Y-109250000D01*
G36*
X119500000Y-109250000D02*
G01*
X124500000Y-109250000D01*
X124500000Y-111250000D01*
X119500000Y-111250000D01*
X119500000Y-109250000D01*
G37*
X120500000Y-93000000D02*
X124500000Y-93000000D01*
X124500000Y-93000000D02*
X124500000Y-97000000D01*
X124500000Y-97000000D02*
X120500000Y-97000000D01*
X120500000Y-97000000D02*
X120500000Y-93000000D01*
G36*
X120500000Y-93000000D02*
G01*
X124500000Y-93000000D01*
X124500000Y-97000000D01*
X120500000Y-97000000D01*
X120500000Y-93000000D01*
G37*
X119500000Y-97500000D02*
X124500000Y-97500000D01*
X124500000Y-97500000D02*
X124500000Y-99500000D01*
X124500000Y-99500000D02*
X119500000Y-99500000D01*
X119500000Y-99500000D02*
X119500000Y-97500000D01*
G36*
X119500000Y-97500000D02*
G01*
X124500000Y-97500000D01*
X124500000Y-99500000D01*
X119500000Y-99500000D01*
X119500000Y-97500000D01*
G37*
X120500000Y-104750000D02*
X124500000Y-104750000D01*
X124500000Y-104750000D02*
X124500000Y-108750000D01*
X124500000Y-108750000D02*
X120500000Y-108750000D01*
X120500000Y-108750000D02*
X120500000Y-104750000D01*
G36*
X120500000Y-104750000D02*
G01*
X124500000Y-104750000D01*
X124500000Y-108750000D01*
X120500000Y-108750000D01*
X120500000Y-104750000D01*
G37*
D12*
%TO.C,R2*%
X119000000Y-101925000D03*
X119000000Y-103575000D03*
%TD*%
D13*
%TO.C,D2*%
X106287500Y-105000000D03*
X104712500Y-105000000D03*
%TD*%
D14*
%TO.C,C11*%
X119525000Y-92000000D03*
X117975000Y-92000000D03*
%TD*%
D15*
%TO.C,R15*%
X104675000Y-102000000D03*
X106325000Y-102000000D03*
%TD*%
D16*
%TO.C,J1*%
X115100000Y-88360000D03*
D17*
X107900000Y-88360000D03*
D18*
X114250000Y-89020000D03*
X113750000Y-89020000D03*
X113250000Y-89020000D03*
X112750000Y-89020000D03*
X112250000Y-89020000D03*
X111750000Y-89020000D03*
X111250000Y-89020000D03*
X110750000Y-89020000D03*
X110250000Y-89020000D03*
X109750000Y-89020000D03*
X109250000Y-89020000D03*
X108750000Y-89020000D03*
X109000000Y-87320000D03*
X109500000Y-87320000D03*
X110000000Y-87320000D03*
X110500000Y-87320000D03*
X111000000Y-87320000D03*
X111500000Y-87320000D03*
X112000000Y-87320000D03*
X112500000Y-87320000D03*
X113000000Y-87320000D03*
X113500000Y-87320000D03*
X114000000Y-87320000D03*
X114500000Y-87320000D03*
D19*
X107370000Y-87110000D03*
X107010000Y-81160000D03*
X115630000Y-87110000D03*
X115990000Y-81160000D03*
%TD*%
D14*
%TO.C,C1*%
X106275000Y-106500000D03*
X104725000Y-106500000D03*
%TD*%
D20*
%TO.C,D1*%
X104712500Y-103500000D03*
X106287500Y-103500000D03*
%TD*%
D21*
%TO.C,C9*%
X113500000Y-105475000D03*
X113500000Y-107025000D03*
%TD*%
D22*
%TO.C,C12*%
X120475000Y-103500000D03*
X122025000Y-103500000D03*
%TD*%
D12*
%TO.C,R13*%
X118000000Y-108675000D03*
X118000000Y-110325000D03*
%TD*%
D23*
%TO.C,FB2*%
X107750000Y-92287500D03*
X107750000Y-90712500D03*
%TD*%
D12*
%TO.C,R8*%
X114750000Y-91175000D03*
X114750000Y-92825000D03*
%TD*%
%TO.C,R11*%
X116500000Y-105425000D03*
X116500000Y-107075000D03*
%TD*%
%TO.C,R9*%
X113250000Y-91175000D03*
X113250000Y-92825000D03*
%TD*%
D24*
%TO.C,U2*%
X110000000Y-103412500D03*
X110500000Y-103412500D03*
X111000000Y-103412500D03*
X111500000Y-103412500D03*
X112000000Y-103412500D03*
X112500000Y-103412500D03*
X113000000Y-103412500D03*
X113500000Y-103412500D03*
X114000000Y-103412500D03*
X114500000Y-103412500D03*
X115000000Y-103412500D03*
X115500000Y-103412500D03*
D25*
X116912500Y-102000000D03*
X116912500Y-101500000D03*
X116912500Y-101000000D03*
X116912500Y-100500000D03*
X116912500Y-100000000D03*
X116912500Y-99500000D03*
X116912500Y-99000000D03*
X116912500Y-98500000D03*
X116912500Y-98000000D03*
X116912500Y-97500000D03*
X116912500Y-97000000D03*
X116912500Y-96500000D03*
D24*
X115500000Y-95087500D03*
X115000000Y-95087500D03*
X114500000Y-95087500D03*
X114000000Y-95087500D03*
X113500000Y-95087500D03*
X113000000Y-95087500D03*
X112500000Y-95087500D03*
X112000000Y-95087500D03*
X111500000Y-95087500D03*
X111000000Y-95087500D03*
X110500000Y-95087500D03*
X110000000Y-95087500D03*
D25*
X108587500Y-96500000D03*
X108587500Y-97000000D03*
X108587500Y-97500000D03*
X108587500Y-98000000D03*
X108587500Y-98500000D03*
X108587500Y-99000000D03*
X108587500Y-99500000D03*
X108587500Y-100000000D03*
X108587500Y-100500000D03*
X108587500Y-101000000D03*
X108587500Y-101500000D03*
X108587500Y-102000000D03*
%TD*%
D26*
%TO.C,C6*%
X106250000Y-92275000D03*
X106250000Y-90725000D03*
%TD*%
D27*
%TO.C,R4*%
X122075000Y-102000000D03*
X120425000Y-102000000D03*
%TD*%
D23*
%TO.C,FB1*%
X106250000Y-98787500D03*
X106250000Y-97212500D03*
%TD*%
D26*
%TO.C,C3*%
X104750000Y-92275000D03*
X104750000Y-90725000D03*
%TD*%
D22*
%TO.C,C2*%
X109725000Y-106500000D03*
X111275000Y-106500000D03*
%TD*%
D12*
%TO.C,R10*%
X115000000Y-105425000D03*
X115000000Y-107075000D03*
%TD*%
D26*
%TO.C,C4*%
X107750000Y-95275000D03*
X107750000Y-93725000D03*
%TD*%
D15*
%TO.C,R1*%
X109925000Y-92000000D03*
X111575000Y-92000000D03*
%TD*%
D21*
%TO.C,C5*%
X104750000Y-97225000D03*
X104750000Y-98775000D03*
%TD*%
D28*
%TO.C,Q1*%
X114800000Y-108850000D03*
X114800000Y-109500000D03*
X114800000Y-110150000D03*
X116700000Y-110150000D03*
X116700000Y-109500000D03*
X116700000Y-108850000D03*
%TD*%
D22*
%TO.C,C14*%
X120975000Y-92000000D03*
X122525000Y-92000000D03*
%TD*%
D15*
%TO.C,R5*%
X119575000Y-90500000D03*
X117925000Y-90500000D03*
%TD*%
D21*
%TO.C,C15*%
X112600000Y-108725000D03*
X112600000Y-110275000D03*
%TD*%
D22*
%TO.C,C7*%
X118975000Y-100500000D03*
X120525000Y-100500000D03*
%TD*%
D29*
%TO.C,J2*%
X104925000Y-88770000D03*
D30*
X104925000Y-87500000D03*
X104925000Y-86230000D03*
X104925000Y-84960000D03*
X104925000Y-83690000D03*
X104925000Y-82420000D03*
X104925000Y-81150000D03*
%TD*%
D21*
%TO.C,C8*%
X108250000Y-103225000D03*
X108250000Y-104775000D03*
%TD*%
D31*
%TO.C,U1*%
X106250000Y-93775000D03*
X105750000Y-93775000D03*
X105250000Y-93775000D03*
X104750000Y-93775000D03*
X104750000Y-95725000D03*
X105250000Y-95725000D03*
X105750000Y-95725000D03*
X106250000Y-95725000D03*
D32*
X105500000Y-94750000D03*
%TD*%
D15*
%TO.C,R16*%
X117925000Y-93500000D03*
X119575000Y-93500000D03*
%TD*%
%TO.C,R3*%
X119575000Y-95000000D03*
X117925000Y-95000000D03*
%TD*%
D26*
%TO.C,C10*%
X116250000Y-92775000D03*
X116250000Y-91225000D03*
%TD*%
D15*
%TO.C,R14*%
X104675000Y-100500000D03*
X106325000Y-100500000D03*
%TD*%
D12*
%TO.C,R6*%
X117750000Y-85075000D03*
X117750000Y-83425000D03*
%TD*%
D33*
%TO.C,H1*%
X118250000Y-81250000D03*
%TD*%
D21*
%TO.C,C13*%
X119500000Y-105475000D03*
X119500000Y-107025000D03*
%TD*%
D34*
%TO.C,Y1*%
X106150000Y-109250000D03*
X109850000Y-109250000D03*
%TD*%
D12*
%TO.C,R12*%
X118000000Y-105425000D03*
X118000000Y-107075000D03*
%TD*%
D35*
%TO.C,R7*%
X117750000Y-86425000D03*
X117750000Y-88075000D03*
%TD*%
M02*
