%TF.GenerationSoftware,KiCad,Pcbnew,(6.0.9)*%
%TF.CreationDate,2022-11-19T20:44:54+01:00*%
%TF.ProjectId,k1-aioc,6b312d61-696f-4632-9e6b-696361645f70,rev?*%
%TF.SameCoordinates,Original*%
%TF.FileFunction,Legend,Top*%
%TF.FilePolarity,Positive*%
%FSLAX46Y46*%
G04 Gerber Fmt 4.6, Leading zero omitted, Abs format (unit mm)*
G04 Created by KiCad (PCBNEW (6.0.9)) date 2022-11-19 20:44:54*
%MOMM*%
%LPD*%
G01*
G04 APERTURE LIST*
G04 Aperture macros list*
%AMRoundRect*
0 Rectangle with rounded corners*
0 $1 Rounding radius*
0 $2 $3 $4 $5 $6 $7 $8 $9 X,Y pos of 4 corners*
0 Add a 4 corners polygon primitive as box body*
4,1,4,$2,$3,$4,$5,$6,$7,$8,$9,$2,$3,0*
0 Add four circle primitives for the rounded corners*
1,1,$1+$1,$2,$3*
1,1,$1+$1,$4,$5*
1,1,$1+$1,$6,$7*
1,1,$1+$1,$8,$9*
0 Add four rect primitives between the rounded corners*
20,1,$1+$1,$2,$3,$4,$5,0*
20,1,$1+$1,$4,$5,$6,$7,0*
20,1,$1+$1,$6,$7,$8,$9,0*
20,1,$1+$1,$8,$9,$2,$3,0*%
G04 Aperture macros list end*
%ADD10C,0.200000*%
%ADD11C,0.120000*%
%ADD12C,0.150000*%
%ADD13RoundRect,0.112500X-0.062500X0.312500X-0.062500X-0.312500X0.062500X-0.312500X0.062500X0.312500X0*%
%ADD14RoundRect,0.050000X-0.600000X0.300000X-0.600000X-0.300000X0.600000X-0.300000X0.600000X0.300000X0*%
%ADD15RoundRect,0.050000X-1.000000X-1.200000X1.000000X-1.200000X1.000000X1.200000X-1.000000X1.200000X0*%
%ADD16RoundRect,0.250000X0.200000X0.275000X-0.200000X0.275000X-0.200000X-0.275000X0.200000X-0.275000X0*%
%ADD17RoundRect,0.268750X0.218750X0.256250X-0.218750X0.256250X-0.218750X-0.256250X0.218750X-0.256250X0*%
%ADD18RoundRect,0.275000X0.225000X0.250000X-0.225000X0.250000X-0.225000X-0.250000X0.225000X-0.250000X0*%
%ADD19RoundRect,0.250000X-0.200000X-0.275000X0.200000X-0.275000X0.200000X0.275000X-0.200000X0.275000X0*%
%ADD20C,0.750000*%
%ADD21O,1.050000X0.750000*%
%ADD22RoundRect,0.050000X0.150000X0.350000X-0.150000X0.350000X-0.150000X-0.350000X0.150000X-0.350000X0*%
%ADD23O,0.900000X1.500000*%
%ADD24RoundRect,0.268750X-0.218750X-0.256250X0.218750X-0.256250X0.218750X0.256250X-0.218750X0.256250X0*%
%ADD25RoundRect,0.275000X-0.250000X0.225000X-0.250000X-0.225000X0.250000X-0.225000X0.250000X0.225000X0*%
%ADD26RoundRect,0.275000X-0.225000X-0.250000X0.225000X-0.250000X0.225000X0.250000X-0.225000X0.250000X0*%
%ADD27RoundRect,0.250000X-0.275000X0.200000X-0.275000X-0.200000X0.275000X-0.200000X0.275000X0.200000X0*%
%ADD28RoundRect,0.268750X0.256250X-0.218750X0.256250X0.218750X-0.256250X0.218750X-0.256250X-0.218750X0*%
%ADD29RoundRect,0.125000X0.075000X-0.662500X0.075000X0.662500X-0.075000X0.662500X-0.075000X-0.662500X0*%
%ADD30RoundRect,0.125000X0.662500X-0.075000X0.662500X0.075000X-0.662500X0.075000X-0.662500X-0.075000X0*%
%ADD31RoundRect,0.275000X0.250000X-0.225000X0.250000X0.225000X-0.250000X0.225000X-0.250000X-0.225000X0*%
%ADD32RoundRect,0.050000X-0.325000X-0.200000X0.325000X-0.200000X0.325000X0.200000X-0.325000X0.200000X0*%
%ADD33RoundRect,0.050000X0.500000X0.500000X-0.500000X0.500000X-0.500000X-0.500000X0.500000X-0.500000X0*%
%ADD34O,1.100000X1.100000*%
%ADD35C,1.452000*%
%ADD36RoundRect,0.250000X0.275000X-0.200000X0.275000X0.200000X-0.275000X0.200000X-0.275000X-0.200000X0*%
G04 APERTURE END LIST*
D10*
X105850000Y-80750000D02*
G75*
G03*
X105850000Y-80750000I-100000J0D01*
G01*
D11*
%TO.C,U1*%
X106610000Y-94750000D02*
X106610000Y-95750000D01*
X104390000Y-93750000D02*
X104390000Y-95750000D01*
%TO.C,Y1*%
X106200000Y-111050000D02*
X111950000Y-111050000D01*
X111950000Y-107450000D02*
X106200000Y-107450000D01*
X106200000Y-107450000D02*
X106200000Y-111050000D01*
%TO.C,R2*%
X119987258Y-102522500D02*
X119512742Y-102522500D01*
X119987258Y-101477500D02*
X119512742Y-101477500D01*
%TO.C,D2*%
X104700000Y-105735000D02*
X106985000Y-105735000D01*
X106985000Y-105735000D02*
X106985000Y-104265000D01*
X106985000Y-104265000D02*
X104700000Y-104265000D01*
%TO.C,C11*%
X118890580Y-92510000D02*
X118609420Y-92510000D01*
X118890580Y-91490000D02*
X118609420Y-91490000D01*
%TO.C,R15*%
X105262742Y-101477500D02*
X105737258Y-101477500D01*
X105262742Y-102522500D02*
X105737258Y-102522500D01*
%TO.C,J1*%
X116250000Y-89370000D02*
X114750000Y-89370000D01*
X106750000Y-89370000D02*
X106750000Y-82110000D01*
X116250000Y-89370000D02*
X116250000Y-82110000D01*
X108250000Y-89370000D02*
X106750000Y-89370000D01*
%TO.C,C1*%
X107640580Y-105990000D02*
X107359420Y-105990000D01*
X107640580Y-107010000D02*
X107359420Y-107010000D01*
%TO.C,D1*%
X104015000Y-104235000D02*
X106300000Y-104235000D01*
X104015000Y-102765000D02*
X104015000Y-104235000D01*
X106300000Y-102765000D02*
X104015000Y-102765000D01*
%TO.C,C9*%
X114010000Y-106109420D02*
X114010000Y-106390580D01*
X112990000Y-106109420D02*
X112990000Y-106390580D01*
%TO.C,C12*%
X122609420Y-104010000D02*
X122890580Y-104010000D01*
X122609420Y-102990000D02*
X122890580Y-102990000D01*
%TO.C,R13*%
X117477500Y-109262742D02*
X117477500Y-109737258D01*
X118522500Y-109262742D02*
X118522500Y-109737258D01*
%TO.C,FB2*%
X108260000Y-91662779D02*
X108260000Y-91337221D01*
X107240000Y-91662779D02*
X107240000Y-91337221D01*
%TO.C,R8*%
X114227500Y-91762742D02*
X114227500Y-92237258D01*
X115272500Y-91762742D02*
X115272500Y-92237258D01*
%TO.C,R11*%
X117022500Y-106012742D02*
X117022500Y-106487258D01*
X115977500Y-106012742D02*
X115977500Y-106487258D01*
%TO.C,R9*%
X112727500Y-91762742D02*
X112727500Y-92237258D01*
X113772500Y-91762742D02*
X113772500Y-92237258D01*
%TO.C,U2*%
X109140000Y-102410000D02*
X109140000Y-102860000D01*
X116360000Y-102860000D02*
X115910000Y-102860000D01*
X116360000Y-95640000D02*
X115910000Y-95640000D01*
X109140000Y-95640000D02*
X109590000Y-95640000D01*
X109140000Y-96090000D02*
X109140000Y-95640000D01*
X116360000Y-102410000D02*
X116360000Y-102860000D01*
X109590000Y-102860000D02*
X109590000Y-104150000D01*
X116360000Y-96090000D02*
X116360000Y-95640000D01*
X109140000Y-102860000D02*
X109590000Y-102860000D01*
%TO.C,C6*%
X106760000Y-91640580D02*
X106760000Y-91359420D01*
X105740000Y-91640580D02*
X105740000Y-91359420D01*
%TO.C,R4*%
X122987258Y-101477500D02*
X122512742Y-101477500D01*
X122987258Y-102522500D02*
X122512742Y-102522500D01*
%TO.C,FB1*%
X106760000Y-98162779D02*
X106760000Y-97837221D01*
X105740000Y-98162779D02*
X105740000Y-97837221D01*
%TO.C,C3*%
X104240000Y-91640580D02*
X104240000Y-91359420D01*
X105260000Y-91640580D02*
X105260000Y-91359420D01*
%TO.C,C2*%
X110859420Y-105990000D02*
X111140580Y-105990000D01*
X110859420Y-107010000D02*
X111140580Y-107010000D01*
%TO.C,R10*%
X114477500Y-106012742D02*
X114477500Y-106487258D01*
X115522500Y-106012742D02*
X115522500Y-106487258D01*
%TO.C,C4*%
X107240000Y-94640580D02*
X107240000Y-94359420D01*
X108260000Y-94640580D02*
X108260000Y-94359420D01*
%TO.C,R1*%
X110512742Y-92522500D02*
X110987258Y-92522500D01*
X110512742Y-91477500D02*
X110987258Y-91477500D01*
%TO.C,C5*%
X104240000Y-97859420D02*
X104240000Y-98140580D01*
X105260000Y-97859420D02*
X105260000Y-98140580D01*
%TO.C,Q1*%
X115050000Y-110660000D02*
X116450000Y-110660000D01*
X116450000Y-108340000D02*
X114550000Y-108340000D01*
%TO.C,C14*%
X121609420Y-91490000D02*
X121890580Y-91490000D01*
X121609420Y-92510000D02*
X121890580Y-92510000D01*
%TO.C,R17*%
X119987258Y-104022500D02*
X119512742Y-104022500D01*
X119987258Y-102977500D02*
X119512742Y-102977500D01*
%TO.C,R5*%
X118512742Y-89977500D02*
X118987258Y-89977500D01*
X118512742Y-91022500D02*
X118987258Y-91022500D01*
%TO.C,C15*%
X105260000Y-107390580D02*
X105260000Y-107109420D01*
X104240000Y-107390580D02*
X104240000Y-107109420D01*
%TO.C,C7*%
X119609420Y-101010000D02*
X119890580Y-101010000D01*
X119609420Y-99990000D02*
X119890580Y-99990000D01*
%TO.C,J2*%
X106035000Y-87990000D02*
X105488471Y-87990000D01*
X106035000Y-89510000D02*
X104925000Y-89510000D01*
X103815000Y-87990000D02*
X103815000Y-80435000D01*
X104361529Y-87990000D02*
X103815000Y-87990000D01*
X106035000Y-80435000D02*
X105232530Y-80435000D01*
X104617470Y-80435000D02*
X103815000Y-80435000D01*
X106035000Y-88750000D02*
X106035000Y-89510000D01*
X106035000Y-87990000D02*
X106035000Y-80435000D01*
%TO.C,C8*%
X108760000Y-103859420D02*
X108760000Y-104140580D01*
X107740000Y-103859420D02*
X107740000Y-104140580D01*
%TO.C,R16*%
X118512742Y-92977500D02*
X118987258Y-92977500D01*
X118512742Y-94022500D02*
X118987258Y-94022500D01*
%TO.C,R3*%
X118512742Y-95522500D02*
X118987258Y-95522500D01*
X118512742Y-94477500D02*
X118987258Y-94477500D01*
%TO.C,C10*%
X115740000Y-92140580D02*
X115740000Y-91859420D01*
X116760000Y-92140580D02*
X116760000Y-91859420D01*
%TO.C,R14*%
X105262742Y-99977500D02*
X105737258Y-99977500D01*
X105262742Y-101022500D02*
X105737258Y-101022500D01*
%TO.C,R6*%
X118272500Y-84262742D02*
X118272500Y-84737258D01*
X117227500Y-84262742D02*
X117227500Y-84737258D01*
%TO.C,C13*%
X118990000Y-106109420D02*
X118990000Y-106390580D01*
X120010000Y-106109420D02*
X120010000Y-106390580D01*
%TO.C,R12*%
X117477500Y-106012742D02*
X117477500Y-106487258D01*
X118522500Y-106012742D02*
X118522500Y-106487258D01*
%TO.C,R7*%
X118272500Y-87737258D02*
X118272500Y-87262742D01*
X117227500Y-87737258D02*
X117227500Y-87262742D01*
%TD*%
%LPC*%
D12*
X119500000Y-109250000D02*
X124500000Y-109250000D01*
X124500000Y-109250000D02*
X124500000Y-111250000D01*
X124500000Y-111250000D02*
X119500000Y-111250000D01*
X119500000Y-111250000D02*
X119500000Y-109250000D01*
G36*
X119500000Y-109250000D02*
G01*
X124500000Y-109250000D01*
X124500000Y-111250000D01*
X119500000Y-111250000D01*
X119500000Y-109250000D01*
G37*
X120500000Y-93000000D02*
X124500000Y-93000000D01*
X124500000Y-93000000D02*
X124500000Y-97000000D01*
X124500000Y-97000000D02*
X120500000Y-97000000D01*
X120500000Y-97000000D02*
X120500000Y-93000000D01*
G36*
X120500000Y-93000000D02*
G01*
X124500000Y-93000000D01*
X124500000Y-97000000D01*
X120500000Y-97000000D01*
X120500000Y-93000000D01*
G37*
X119500000Y-97500000D02*
X124500000Y-97500000D01*
X124500000Y-97500000D02*
X124500000Y-99500000D01*
X124500000Y-99500000D02*
X119500000Y-99500000D01*
X119500000Y-99500000D02*
X119500000Y-97500000D01*
G36*
X119500000Y-97500000D02*
G01*
X124500000Y-97500000D01*
X124500000Y-99500000D01*
X119500000Y-99500000D01*
X119500000Y-97500000D01*
G37*
X120500000Y-104750000D02*
X124500000Y-104750000D01*
X124500000Y-104750000D02*
X124500000Y-108750000D01*
X124500000Y-108750000D02*
X120500000Y-108750000D01*
X120500000Y-108750000D02*
X120500000Y-104750000D01*
G36*
X120500000Y-104750000D02*
G01*
X124500000Y-104750000D01*
X124500000Y-108750000D01*
X120500000Y-108750000D01*
X120500000Y-104750000D01*
G37*
D13*
%TO.C,U1*%
X106250000Y-93775000D03*
X105750000Y-93775000D03*
X105250000Y-93775000D03*
X104750000Y-93775000D03*
X104750000Y-95725000D03*
X105250000Y-95725000D03*
X105750000Y-95725000D03*
X106250000Y-95725000D03*
D14*
X105500000Y-94750000D03*
%TD*%
D15*
%TO.C,Y1*%
X107400000Y-109250000D03*
X111100000Y-109250000D03*
%TD*%
D16*
%TO.C,R2*%
X120575000Y-102000000D03*
X118925000Y-102000000D03*
%TD*%
D17*
%TO.C,D2*%
X106287500Y-105000000D03*
X104712500Y-105000000D03*
%TD*%
D18*
%TO.C,C11*%
X119525000Y-92000000D03*
X117975000Y-92000000D03*
%TD*%
D19*
%TO.C,R15*%
X104675000Y-102000000D03*
X106325000Y-102000000D03*
%TD*%
D20*
%TO.C,J1*%
X115100000Y-88360000D03*
D21*
X107900000Y-88360000D03*
D22*
X114250000Y-89020000D03*
X113750000Y-89020000D03*
X113250000Y-89020000D03*
X112750000Y-89020000D03*
X112250000Y-89020000D03*
X111750000Y-89020000D03*
X111250000Y-89020000D03*
X110750000Y-89020000D03*
X110250000Y-89020000D03*
X109750000Y-89020000D03*
X109250000Y-89020000D03*
X108750000Y-89020000D03*
X109000000Y-87320000D03*
X109500000Y-87320000D03*
X110000000Y-87320000D03*
X110500000Y-87320000D03*
X111000000Y-87320000D03*
X111500000Y-87320000D03*
X112000000Y-87320000D03*
X112500000Y-87320000D03*
X113000000Y-87320000D03*
X113500000Y-87320000D03*
X114000000Y-87320000D03*
X114500000Y-87320000D03*
D23*
X107010000Y-81160000D03*
X115990000Y-81160000D03*
X115630000Y-87110000D03*
X107370000Y-87110000D03*
%TD*%
D18*
%TO.C,C1*%
X108275000Y-106500000D03*
X106725000Y-106500000D03*
%TD*%
D24*
%TO.C,D1*%
X104712500Y-103500000D03*
X106287500Y-103500000D03*
%TD*%
D25*
%TO.C,C9*%
X113500000Y-105475000D03*
X113500000Y-107025000D03*
%TD*%
D26*
%TO.C,C12*%
X121975000Y-103500000D03*
X123525000Y-103500000D03*
%TD*%
D27*
%TO.C,R13*%
X118000000Y-108675000D03*
X118000000Y-110325000D03*
%TD*%
D28*
%TO.C,FB2*%
X107750000Y-92287500D03*
X107750000Y-90712500D03*
%TD*%
D27*
%TO.C,R8*%
X114750000Y-91175000D03*
X114750000Y-92825000D03*
%TD*%
%TO.C,R11*%
X116500000Y-105425000D03*
X116500000Y-107075000D03*
%TD*%
%TO.C,R9*%
X113250000Y-91175000D03*
X113250000Y-92825000D03*
%TD*%
D29*
%TO.C,U2*%
X110000000Y-103412500D03*
X110500000Y-103412500D03*
X111000000Y-103412500D03*
X111500000Y-103412500D03*
X112000000Y-103412500D03*
X112500000Y-103412500D03*
X113000000Y-103412500D03*
X113500000Y-103412500D03*
X114000000Y-103412500D03*
X114500000Y-103412500D03*
X115000000Y-103412500D03*
X115500000Y-103412500D03*
D30*
X116912500Y-102000000D03*
X116912500Y-101500000D03*
X116912500Y-101000000D03*
X116912500Y-100500000D03*
X116912500Y-100000000D03*
X116912500Y-99500000D03*
X116912500Y-99000000D03*
X116912500Y-98500000D03*
X116912500Y-98000000D03*
X116912500Y-97500000D03*
X116912500Y-97000000D03*
X116912500Y-96500000D03*
D29*
X115500000Y-95087500D03*
X115000000Y-95087500D03*
X114500000Y-95087500D03*
X114000000Y-95087500D03*
X113500000Y-95087500D03*
X113000000Y-95087500D03*
X112500000Y-95087500D03*
X112000000Y-95087500D03*
X111500000Y-95087500D03*
X111000000Y-95087500D03*
X110500000Y-95087500D03*
X110000000Y-95087500D03*
D30*
X108587500Y-96500000D03*
X108587500Y-97000000D03*
X108587500Y-97500000D03*
X108587500Y-98000000D03*
X108587500Y-98500000D03*
X108587500Y-99000000D03*
X108587500Y-99500000D03*
X108587500Y-100000000D03*
X108587500Y-100500000D03*
X108587500Y-101000000D03*
X108587500Y-101500000D03*
X108587500Y-102000000D03*
%TD*%
D31*
%TO.C,C6*%
X106250000Y-92275000D03*
X106250000Y-90725000D03*
%TD*%
D16*
%TO.C,R4*%
X123575000Y-102000000D03*
X121925000Y-102000000D03*
%TD*%
D28*
%TO.C,FB1*%
X106250000Y-98787500D03*
X106250000Y-97212500D03*
%TD*%
D31*
%TO.C,C3*%
X104750000Y-92275000D03*
X104750000Y-90725000D03*
%TD*%
D26*
%TO.C,C2*%
X110225000Y-106500000D03*
X111775000Y-106500000D03*
%TD*%
D27*
%TO.C,R10*%
X115000000Y-105425000D03*
X115000000Y-107075000D03*
%TD*%
D31*
%TO.C,C4*%
X107750000Y-95275000D03*
X107750000Y-93725000D03*
%TD*%
D19*
%TO.C,R1*%
X109925000Y-92000000D03*
X111575000Y-92000000D03*
%TD*%
D25*
%TO.C,C5*%
X104750000Y-97225000D03*
X104750000Y-98775000D03*
%TD*%
D32*
%TO.C,Q1*%
X114800000Y-108850000D03*
X114800000Y-109500000D03*
X114800000Y-110150000D03*
X116700000Y-110150000D03*
X116700000Y-109500000D03*
X116700000Y-108850000D03*
%TD*%
D26*
%TO.C,C14*%
X120975000Y-92000000D03*
X122525000Y-92000000D03*
%TD*%
D16*
%TO.C,R17*%
X120575000Y-103500000D03*
X118925000Y-103500000D03*
%TD*%
D19*
%TO.C,R5*%
X117925000Y-90500000D03*
X119575000Y-90500000D03*
%TD*%
D31*
%TO.C,C15*%
X104750000Y-108025000D03*
X104750000Y-106475000D03*
%TD*%
D26*
%TO.C,C7*%
X118975000Y-100500000D03*
X120525000Y-100500000D03*
%TD*%
D33*
%TO.C,J2*%
X104925000Y-88750000D03*
D34*
X104925000Y-87480000D03*
X104925000Y-86210000D03*
X104925000Y-84940000D03*
X104925000Y-83670000D03*
X104925000Y-82400000D03*
X104925000Y-81130000D03*
%TD*%
D25*
%TO.C,C8*%
X108250000Y-103225000D03*
X108250000Y-104775000D03*
%TD*%
D19*
%TO.C,R16*%
X117925000Y-93500000D03*
X119575000Y-93500000D03*
%TD*%
%TO.C,R3*%
X117925000Y-95000000D03*
X119575000Y-95000000D03*
%TD*%
D35*
%TO.C,H2*%
X104750000Y-110250000D03*
%TD*%
D31*
%TO.C,C10*%
X116250000Y-92775000D03*
X116250000Y-91225000D03*
%TD*%
D19*
%TO.C,R14*%
X104675000Y-100500000D03*
X106325000Y-100500000D03*
%TD*%
D27*
%TO.C,R6*%
X117750000Y-83675000D03*
X117750000Y-85325000D03*
%TD*%
D35*
%TO.C,H1*%
X118250000Y-81250000D03*
%TD*%
D25*
%TO.C,C13*%
X119500000Y-105475000D03*
X119500000Y-107025000D03*
%TD*%
D27*
%TO.C,R12*%
X118000000Y-105425000D03*
X118000000Y-107075000D03*
%TD*%
D36*
%TO.C,R7*%
X117750000Y-88325000D03*
X117750000Y-86675000D03*
%TD*%
M02*
