%TF.GenerationSoftware,KiCad,Pcbnew,(6.0.7)*%
%TF.CreationDate,2022-10-02T18:14:58+02:00*%
%TF.ProjectId,k1-aioc,6b312d61-696f-4632-9e6b-696361645f70,rev?*%
%TF.SameCoordinates,Original*%
%TF.FileFunction,Copper,L2,Bot*%
%TF.FilePolarity,Positive*%
%FSLAX46Y46*%
G04 Gerber Fmt 4.6, Leading zero omitted, Abs format (unit mm)*
G04 Created by KiCad (PCBNEW (6.0.7)) date 2022-10-02 18:14:58*
%MOMM*%
%LPD*%
G01*
G04 APERTURE LIST*
%TA.AperFunction,ComponentPad*%
%ADD10R,1.000000X1.000000*%
%TD*%
%TA.AperFunction,ComponentPad*%
%ADD11O,1.000000X1.000000*%
%TD*%
%TA.AperFunction,ComponentPad*%
%ADD12O,0.800000X1.400000*%
%TD*%
%TA.AperFunction,ViaPad*%
%ADD13C,0.600000*%
%TD*%
%TA.AperFunction,ViaPad*%
%ADD14C,0.800000*%
%TD*%
%TA.AperFunction,Conductor*%
%ADD15C,0.250000*%
%TD*%
%TA.AperFunction,Conductor*%
%ADD16C,0.500000*%
%TD*%
G04 APERTURE END LIST*
D10*
%TO.P,J2,1,Pin_1*%
%TO.N,/BOOT0*%
X105250000Y-89020000D03*
D11*
%TO.P,J2,2,Pin_2*%
%TO.N,+3V3*%
X105250000Y-87750000D03*
%TO.P,J2,3,Pin_3*%
%TO.N,/SWCLK*%
X105250000Y-86480000D03*
%TO.P,J2,4,Pin_4*%
%TO.N,GND*%
X105250000Y-85210000D03*
%TO.P,J2,5,Pin_5*%
%TO.N,/SWDIO*%
X105250000Y-83940000D03*
%TO.P,J2,6,Pin_6*%
%TO.N,/NRST*%
X105250000Y-82670000D03*
%TO.P,J2,7,Pin_7*%
%TO.N,/SWO*%
X105250000Y-81400000D03*
%TD*%
D12*
%TO.P,J1,S1,SHIELD*%
%TO.N,GND*%
X115990000Y-81160000D03*
X115630000Y-87110000D03*
X107010000Y-81160000D03*
X107370000Y-87110000D03*
%TD*%
D13*
%TO.N,GND*%
X106750000Y-90000000D03*
%TO.N,/SWO*%
X110000000Y-93799503D03*
D14*
%TO.N,GND*%
X123250000Y-101500000D03*
D13*
X116500000Y-103750000D03*
D14*
X123250000Y-100000000D03*
X121750000Y-100000000D03*
D13*
X105000000Y-99550000D03*
X109000000Y-86250000D03*
X107250000Y-94250000D03*
X115500000Y-97500000D03*
X113000000Y-83500000D03*
X117750000Y-81500000D03*
X105500000Y-94250000D03*
X104500000Y-109000000D03*
X114242052Y-88160946D03*
X116500000Y-94500000D03*
X104500000Y-108000000D03*
X115000000Y-102000000D03*
X116500000Y-102750000D03*
X113000000Y-96500000D03*
X110000000Y-100250000D03*
X109250000Y-103750000D03*
X112250000Y-102000000D03*
X108750000Y-90000000D03*
X111500000Y-108000000D03*
X105500000Y-102750000D03*
X108750000Y-92250000D03*
X112000000Y-97500000D03*
X107250000Y-103750000D03*
X110000000Y-98250000D03*
X114000000Y-99000000D03*
X116000000Y-83500000D03*
X113750000Y-110500000D03*
X109250000Y-102750000D03*
X114500000Y-101000000D03*
X113750000Y-109500000D03*
X105750000Y-99550000D03*
X110000000Y-101000000D03*
X104500000Y-110000000D03*
X116950000Y-90150000D03*
X114000000Y-92000000D03*
X113000000Y-97500000D03*
X113000000Y-102000000D03*
X107750000Y-90000000D03*
X111500000Y-109000000D03*
X107250000Y-104750000D03*
X105500000Y-95000000D03*
X105500000Y-104250000D03*
X116500000Y-95500000D03*
X111500000Y-110000000D03*
X114750000Y-98250000D03*
X107750000Y-92250000D03*
X115750000Y-110000000D03*
X114000000Y-96500000D03*
X116250000Y-90150000D03*
X113750000Y-108500000D03*
X114499130Y-83499207D03*
X114500000Y-86250000D03*
X112000000Y-96500000D03*
X108500000Y-83500000D03*
X109000000Y-88166813D03*
X111500000Y-83500000D03*
X105500000Y-101250000D03*
X115500000Y-99000000D03*
X111000000Y-96500000D03*
X115500000Y-101000000D03*
X111500000Y-102000000D03*
X109250000Y-104750000D03*
X115500000Y-92000000D03*
X117750000Y-88000000D03*
X110000000Y-83500000D03*
%TO.N,/SWCLK*%
X109343521Y-93254987D03*
%TO.N,/SWDIO*%
X110075500Y-92933411D03*
%TO.N,/USB-DP*%
X111350000Y-86250000D03*
X111350000Y-90500000D03*
X111350000Y-92750000D03*
%TO.N,/USB-DN*%
X112150000Y-86250000D03*
X112150000Y-90500000D03*
X112150000Y-92750000D03*
%TO.N,+3V3*%
X110274500Y-97000000D03*
X110750000Y-97500000D03*
X105500000Y-96000000D03*
X107250000Y-97250000D03*
X107250000Y-96500000D03*
%TO.N,+3.3VA*%
X107250000Y-98250000D03*
X111750000Y-99250000D03*
X112500000Y-99250000D03*
X107250000Y-99000000D03*
X111750000Y-100750000D03*
X112500000Y-100750000D03*
%TO.N,Net-(J1-PadA5)*%
X113750000Y-85750000D03*
X112899500Y-89942499D03*
%TO.N,/RADIO-RX-PTT1*%
X118750000Y-109500000D03*
X119550000Y-89350000D03*
%TO.N,/RADIO-TX*%
X118950000Y-88750000D03*
D14*
X118776040Y-98783914D03*
D13*
%TO.N,/NRST*%
X112600000Y-107750000D03*
%TO.N,/BOOT0*%
X106550000Y-99550000D03*
%TD*%
D15*
%TO.N,+3V3*%
X105250000Y-87750000D02*
X106000000Y-87750000D01*
X106000000Y-87750000D02*
X106250000Y-88000000D01*
X106250000Y-88000000D02*
X106250000Y-89616116D01*
X106250000Y-89616116D02*
X105866116Y-90000000D01*
X105866116Y-90000000D02*
X104906396Y-90000000D01*
X104906396Y-90000000D02*
X104775000Y-90131396D01*
X104775000Y-90131396D02*
X104775000Y-95775000D01*
X104775000Y-95775000D02*
X105000000Y-96000000D01*
X105000000Y-96000000D02*
X105500000Y-96000000D01*
%TO.N,/BOOT0*%
X104300000Y-97300000D02*
X104300000Y-89970000D01*
X104325000Y-97325000D02*
X104300000Y-97300000D01*
X104325000Y-99925000D02*
X104325000Y-97325000D01*
X104300000Y-89970000D02*
X105250000Y-89020000D01*
X104575000Y-100175000D02*
X104325000Y-99925000D01*
X106325000Y-100175000D02*
X104575000Y-100175000D01*
X106550000Y-99950000D02*
X106325000Y-100175000D01*
X106550000Y-99550000D02*
X106550000Y-99950000D01*
%TO.N,/SWCLK*%
X109343521Y-93254987D02*
X109343521Y-92781506D01*
X109343521Y-92781506D02*
X109750000Y-92375027D01*
X106000000Y-86500000D02*
X105980000Y-86480000D01*
X109750000Y-92375027D02*
X109750000Y-85750000D01*
X109750000Y-85750000D02*
X109250000Y-85250000D01*
X109250000Y-85250000D02*
X107250000Y-85250000D01*
X107250000Y-85250000D02*
X106000000Y-86500000D01*
X105980000Y-86480000D02*
X105250000Y-86480000D01*
%TO.N,/SWDIO*%
X110075500Y-92933411D02*
X110250000Y-92758911D01*
X109436396Y-84800000D02*
X106800000Y-84800000D01*
X110250000Y-92758911D02*
X110250000Y-85613604D01*
X110250000Y-85613604D02*
X109436396Y-84800000D01*
X106800000Y-84800000D02*
X105940000Y-83940000D01*
X105940000Y-83940000D02*
X105250000Y-83940000D01*
%TO.N,/SWO*%
X110000000Y-93799503D02*
X110200497Y-93799503D01*
X110200497Y-93799503D02*
X110700000Y-93300000D01*
X106986396Y-84350000D02*
X106250000Y-83613604D01*
X110700000Y-93300000D02*
X110700000Y-85427208D01*
X105650000Y-81400000D02*
X105250000Y-81400000D01*
X110700000Y-85427208D02*
X109622792Y-84350000D01*
X109622792Y-84350000D02*
X106986396Y-84350000D01*
X106250000Y-83613604D02*
X106250000Y-82000000D01*
X106250000Y-82000000D02*
X105650000Y-81400000D01*
D16*
%TO.N,+3V3*%
X110274500Y-97000000D02*
X110250000Y-97000000D01*
X110250000Y-97000000D02*
X110750000Y-97500000D01*
X110274500Y-97000000D02*
X109774500Y-96500000D01*
X109774500Y-96500000D02*
X107250000Y-96500000D01*
D15*
%TO.N,/NRST*%
X112600000Y-107750000D02*
X112600000Y-110600000D01*
X112600000Y-110600000D02*
X112075000Y-111125000D01*
X103850000Y-110483884D02*
X103850000Y-83150000D01*
X112075000Y-111125000D02*
X104491116Y-111125000D01*
X104491116Y-111125000D02*
X103850000Y-110483884D01*
X103850000Y-83150000D02*
X104330000Y-82670000D01*
X104330000Y-82670000D02*
X105250000Y-82670000D01*
%TO.N,/RADIO-TX*%
X118776040Y-98783914D02*
X120059954Y-97500000D01*
X123100000Y-97500000D02*
X123550000Y-97050000D01*
X120059954Y-97500000D02*
X123100000Y-97500000D01*
X123550000Y-97050000D02*
X123550000Y-91086396D01*
X123550000Y-91086396D02*
X122963604Y-90500000D01*
X122963604Y-90500000D02*
X119816116Y-90500000D01*
X119816116Y-90500000D02*
X118925000Y-89608884D01*
X118925000Y-89608884D02*
X118925000Y-88775000D01*
X118925000Y-88775000D02*
X118950000Y-88750000D01*
%TO.N,/RADIO-RX-PTT1*%
X119550000Y-89350000D02*
X119550000Y-89597488D01*
X119550000Y-89597488D02*
X119952512Y-90000000D01*
X124000000Y-103025000D02*
X123525000Y-103500000D01*
X119952512Y-90000000D02*
X123100000Y-90000000D01*
X123525000Y-103500000D02*
X123000000Y-103500000D01*
X123100000Y-90000000D02*
X124000000Y-90900000D01*
X124000000Y-90900000D02*
X124000000Y-103025000D01*
X118750000Y-109500000D02*
X118750000Y-108750000D01*
D16*
%TO.N,/USB-DP*%
X111400000Y-92700000D02*
X111350000Y-92750000D01*
X111350000Y-86250000D02*
X111400000Y-86300000D01*
X111400000Y-86300000D02*
X111400000Y-92700000D01*
%TO.N,/USB-DN*%
X112150000Y-86250000D02*
X112100000Y-86300000D01*
X112100000Y-86300000D02*
X112100000Y-92700000D01*
X112100000Y-92700000D02*
X112150000Y-92750000D01*
%TO.N,+3V3*%
X107250000Y-97250000D02*
X107250000Y-96500000D01*
%TO.N,+3.3VA*%
X107500000Y-99250000D02*
X107250000Y-99000000D01*
X112500000Y-99250000D02*
X112500000Y-100750000D01*
X111750000Y-99250000D02*
X107500000Y-99250000D01*
X112100000Y-99250000D02*
X112100000Y-100750000D01*
X111750000Y-99250000D02*
X112250000Y-99250000D01*
X107250000Y-99000000D02*
X107250000Y-98250000D01*
X111750000Y-99250000D02*
X111750000Y-100750000D01*
X112250000Y-99250000D02*
X112500000Y-99250000D01*
D15*
%TO.N,Net-(J1-PadA5)*%
X113250000Y-89591999D02*
X112899500Y-89942499D01*
X113250000Y-86250000D02*
X113250000Y-89591999D01*
X113750000Y-85750000D02*
X113250000Y-86250000D01*
%TD*%
%TA.AperFunction,Conductor*%
%TO.N,GND*%
G36*
X122762170Y-91002421D02*
G01*
X122786073Y-91007175D01*
X122821091Y-91014141D01*
X122866510Y-91032954D01*
X122886329Y-91046196D01*
X122905939Y-91059300D01*
X122940700Y-91094061D01*
X122967045Y-91133488D01*
X122985860Y-91178911D01*
X122997579Y-91237830D01*
X123000000Y-91262410D01*
X123000000Y-96737590D01*
X122997579Y-96762170D01*
X122985860Y-96821089D01*
X122967045Y-96866512D01*
X122940700Y-96905939D01*
X122905939Y-96940700D01*
X122886329Y-96953804D01*
X122866510Y-96967046D01*
X122821091Y-96985859D01*
X122786073Y-96992825D01*
X122762170Y-96997579D01*
X122737590Y-97000000D01*
X117762410Y-97000000D01*
X117737830Y-96997579D01*
X117713927Y-96992825D01*
X117678909Y-96985859D01*
X117633490Y-96967046D01*
X117613671Y-96953804D01*
X117594061Y-96940700D01*
X117559300Y-96905939D01*
X117532955Y-96866512D01*
X117514140Y-96821089D01*
X117502421Y-96762170D01*
X117500000Y-96737590D01*
X117500000Y-91262410D01*
X117502421Y-91237830D01*
X117514140Y-91178911D01*
X117532955Y-91133488D01*
X117559300Y-91094061D01*
X117594061Y-91059300D01*
X117613671Y-91046196D01*
X117633490Y-91032954D01*
X117678909Y-91014141D01*
X117713927Y-91007175D01*
X117737830Y-91002421D01*
X117762410Y-91000000D01*
X122737590Y-91000000D01*
X122762170Y-91002421D01*
G37*
%TD.AperFunction*%
%TD*%
%TA.AperFunction,Conductor*%
%TO.N,/RADIO-RX-PTT1*%
G36*
X123012170Y-103002421D02*
G01*
X123036073Y-103007175D01*
X123071091Y-103014141D01*
X123116510Y-103032954D01*
X123136329Y-103046196D01*
X123155939Y-103059300D01*
X123190700Y-103094061D01*
X123217045Y-103133488D01*
X123235860Y-103178911D01*
X123247579Y-103237830D01*
X123250000Y-103262410D01*
X123250000Y-108737590D01*
X123247579Y-108762170D01*
X123235860Y-108821089D01*
X123217045Y-108866512D01*
X123190700Y-108905939D01*
X123155939Y-108940700D01*
X123136329Y-108953804D01*
X123116510Y-108967046D01*
X123071091Y-108985859D01*
X123036073Y-108992825D01*
X123012170Y-108997579D01*
X122987590Y-109000000D01*
X117762410Y-109000000D01*
X117737830Y-108997579D01*
X117713927Y-108992825D01*
X117678909Y-108985859D01*
X117633490Y-108967046D01*
X117613671Y-108953804D01*
X117594061Y-108940700D01*
X117559300Y-108905939D01*
X117532955Y-108866512D01*
X117514140Y-108821089D01*
X117502421Y-108762170D01*
X117500000Y-108737590D01*
X117500000Y-103262410D01*
X117502421Y-103237830D01*
X117514140Y-103178911D01*
X117532955Y-103133488D01*
X117559300Y-103094061D01*
X117594061Y-103059300D01*
X117613671Y-103046196D01*
X117633490Y-103032954D01*
X117678909Y-103014141D01*
X117713927Y-103007175D01*
X117737830Y-103002421D01*
X117762410Y-103000000D01*
X122987590Y-103000000D01*
X123012170Y-103002421D01*
G37*
%TD.AperFunction*%
%TD*%
%TA.AperFunction,Conductor*%
%TO.N,GND*%
G36*
X106561569Y-80219407D02*
G01*
X106597533Y-80268907D01*
X106597533Y-80330093D01*
X106575546Y-80367270D01*
X106480964Y-80467990D01*
X106473696Y-80477994D01*
X106400093Y-80611876D01*
X106395545Y-80623364D01*
X106357548Y-80771353D01*
X106356000Y-80783605D01*
X106356000Y-80969320D01*
X106360122Y-80982005D01*
X106364243Y-80985000D01*
X107648320Y-80985000D01*
X107661005Y-80980878D01*
X107664000Y-80976757D01*
X107664000Y-80821959D01*
X107663610Y-80815771D01*
X107649269Y-80702245D01*
X107646195Y-80690273D01*
X107589952Y-80548218D01*
X107584001Y-80537393D01*
X107494194Y-80413784D01*
X107485738Y-80404779D01*
X107450685Y-80375781D01*
X107417900Y-80324120D01*
X107421742Y-80263055D01*
X107460743Y-80215911D01*
X107513790Y-80200500D01*
X115483378Y-80200500D01*
X115541569Y-80219407D01*
X115577533Y-80268907D01*
X115577533Y-80330093D01*
X115555546Y-80367270D01*
X115460964Y-80467990D01*
X115453696Y-80477994D01*
X115380093Y-80611876D01*
X115375545Y-80623364D01*
X115337548Y-80771353D01*
X115336000Y-80783605D01*
X115336000Y-80969320D01*
X115340122Y-80982005D01*
X115344243Y-80985000D01*
X116628320Y-80985000D01*
X116641005Y-80980878D01*
X116644000Y-80976757D01*
X116644000Y-80821959D01*
X116643610Y-80815771D01*
X116629269Y-80702245D01*
X116626195Y-80690273D01*
X116569952Y-80548218D01*
X116564001Y-80537393D01*
X116474194Y-80413784D01*
X116465738Y-80404779D01*
X116430685Y-80375781D01*
X116397900Y-80324120D01*
X116401742Y-80263055D01*
X116440743Y-80215911D01*
X116493790Y-80200500D01*
X118965983Y-80200500D01*
X118988169Y-80203018D01*
X118988776Y-80203158D01*
X118988778Y-80203158D01*
X118999641Y-80205656D01*
X119010227Y-80203261D01*
X119024697Y-80204413D01*
X119077063Y-80212706D01*
X119106518Y-80222275D01*
X119162071Y-80250581D01*
X119187128Y-80268785D01*
X119231215Y-80312872D01*
X119249421Y-80337932D01*
X119277723Y-80393479D01*
X119287294Y-80422935D01*
X119294758Y-80470058D01*
X119295619Y-80475497D01*
X119296701Y-80489391D01*
X119294344Y-80499641D01*
X119296804Y-80510513D01*
X119297059Y-80511638D01*
X119299500Y-80533488D01*
X119299500Y-88200775D01*
X119280593Y-88258966D01*
X119231093Y-88294930D01*
X119169907Y-88294930D01*
X119165542Y-88293219D01*
X119162095Y-88290985D01*
X119155337Y-88288964D01*
X119155335Y-88288963D01*
X119031500Y-88251929D01*
X119024739Y-88249907D01*
X118941497Y-88249398D01*
X118888427Y-88249074D01*
X118888426Y-88249074D01*
X118881376Y-88249031D01*
X118874599Y-88250968D01*
X118874598Y-88250968D01*
X118750309Y-88286490D01*
X118750307Y-88286491D01*
X118743529Y-88288428D01*
X118622280Y-88364930D01*
X118617613Y-88370214D01*
X118617611Y-88370216D01*
X118532044Y-88467103D01*
X118532042Y-88467105D01*
X118527377Y-88472388D01*
X118466447Y-88602163D01*
X118465362Y-88609132D01*
X118465361Y-88609135D01*
X118458161Y-88655379D01*
X118444391Y-88743823D01*
X118445306Y-88750820D01*
X118445306Y-88750821D01*
X118458263Y-88849907D01*
X118462980Y-88885979D01*
X118465821Y-88892435D01*
X118465821Y-88892436D01*
X118484584Y-88935077D01*
X118520720Y-89017203D01*
X118571466Y-89077572D01*
X118576283Y-89083303D01*
X118599253Y-89140013D01*
X118599500Y-89147005D01*
X118599500Y-89590350D01*
X118599123Y-89598979D01*
X118595736Y-89637691D01*
X118597978Y-89646058D01*
X118605796Y-89675233D01*
X118607666Y-89683668D01*
X118612786Y-89712706D01*
X118614412Y-89721929D01*
X118618742Y-89729428D01*
X118620738Y-89734913D01*
X118623204Y-89740200D01*
X118625446Y-89748568D01*
X118646013Y-89777940D01*
X118647732Y-89780395D01*
X118652371Y-89787676D01*
X118671806Y-89821339D01*
X118680425Y-89828571D01*
X118701570Y-89846314D01*
X118707938Y-89852149D01*
X119186785Y-90330997D01*
X119214562Y-90385513D01*
X119204991Y-90445945D01*
X119161726Y-90489210D01*
X119116781Y-90500000D01*
X117000000Y-90500000D01*
X117000000Y-93250000D01*
X117500000Y-93250000D01*
X117500000Y-94750000D01*
X117000000Y-94750000D01*
X117000000Y-97500000D01*
X119360620Y-97500000D01*
X119418811Y-97518907D01*
X119454775Y-97568407D01*
X119454775Y-97629593D01*
X119430624Y-97669004D01*
X118939007Y-98160621D01*
X118884490Y-98188398D01*
X118856085Y-98188770D01*
X118776040Y-98178232D01*
X118619278Y-98198870D01*
X118473199Y-98259378D01*
X118347758Y-98355632D01*
X118251504Y-98481073D01*
X118190996Y-98627152D01*
X118170358Y-98783914D01*
X118190996Y-98940676D01*
X118251504Y-99086755D01*
X118347758Y-99212196D01*
X118473199Y-99308450D01*
X118619278Y-99368958D01*
X118776040Y-99389596D01*
X118932802Y-99368958D01*
X119078881Y-99308450D01*
X119204322Y-99212196D01*
X119300576Y-99086755D01*
X119361084Y-98940676D01*
X119381722Y-98783914D01*
X119371184Y-98703872D01*
X119382334Y-98643713D01*
X119399333Y-98620947D01*
X120165784Y-97854496D01*
X120220301Y-97826719D01*
X120235788Y-97825500D01*
X123081466Y-97825500D01*
X123090095Y-97825877D01*
X123128807Y-97829264D01*
X123138305Y-97826719D01*
X123166349Y-97819204D01*
X123174784Y-97817334D01*
X123204517Y-97812092D01*
X123204519Y-97812091D01*
X123213045Y-97810588D01*
X123220544Y-97806258D01*
X123226029Y-97804262D01*
X123231316Y-97801796D01*
X123239684Y-97799554D01*
X123271511Y-97777268D01*
X123278795Y-97772627D01*
X123312455Y-97753194D01*
X123337431Y-97723429D01*
X123343265Y-97717061D01*
X123505496Y-97554830D01*
X123560013Y-97527053D01*
X123620445Y-97536624D01*
X123663710Y-97579889D01*
X123674500Y-97624834D01*
X123674500Y-102849166D01*
X123655593Y-102907357D01*
X123645504Y-102919169D01*
X123577384Y-102987290D01*
X123575207Y-102989467D01*
X123520691Y-103017245D01*
X123460259Y-103007674D01*
X123422890Y-102974468D01*
X123406465Y-102949888D01*
X123374194Y-102910567D01*
X123339433Y-102875806D01*
X123300111Y-102843535D01*
X123298085Y-102842181D01*
X123262697Y-102818535D01*
X123262691Y-102818532D01*
X123260682Y-102817189D01*
X123215816Y-102793207D01*
X123194414Y-102784342D01*
X123172638Y-102775322D01*
X123172634Y-102775320D01*
X123170397Y-102774394D01*
X123168088Y-102773694D01*
X123168078Y-102773690D01*
X123124041Y-102760332D01*
X123124036Y-102760331D01*
X123121716Y-102759627D01*
X123115733Y-102758437D01*
X123063962Y-102748139D01*
X123063957Y-102748138D01*
X123062795Y-102747907D01*
X123037606Y-102744171D01*
X123017515Y-102742192D01*
X123014245Y-102741870D01*
X123014242Y-102741870D01*
X123013026Y-102741750D01*
X123011832Y-102741691D01*
X123011814Y-102741690D01*
X123000703Y-102741144D01*
X122987590Y-102740500D01*
X117762410Y-102740500D01*
X117749297Y-102741144D01*
X117738186Y-102741690D01*
X117738168Y-102741691D01*
X117736974Y-102741750D01*
X117735758Y-102741870D01*
X117735755Y-102741870D01*
X117732485Y-102742192D01*
X117712394Y-102744171D01*
X117687205Y-102747907D01*
X117686043Y-102748138D01*
X117686038Y-102748139D01*
X117634267Y-102758437D01*
X117628284Y-102759627D01*
X117625964Y-102760331D01*
X117625959Y-102760332D01*
X117581922Y-102773690D01*
X117581912Y-102773694D01*
X117579603Y-102774394D01*
X117577366Y-102775320D01*
X117577362Y-102775322D01*
X117555586Y-102784342D01*
X117534184Y-102793207D01*
X117489318Y-102817189D01*
X117487309Y-102818532D01*
X117487303Y-102818535D01*
X117451915Y-102842181D01*
X117449889Y-102843535D01*
X117410567Y-102875806D01*
X117375806Y-102910567D01*
X117343535Y-102949888D01*
X117317190Y-102989315D01*
X117293209Y-103034181D01*
X117274394Y-103079604D01*
X117259626Y-103128288D01*
X117247907Y-103187207D01*
X117244171Y-103212394D01*
X117241750Y-103236974D01*
X117240500Y-103262410D01*
X117240500Y-108737590D01*
X117241750Y-108763026D01*
X117244171Y-108787606D01*
X117247907Y-108812793D01*
X117259626Y-108871712D01*
X117274394Y-108920396D01*
X117293209Y-108965819D01*
X117317190Y-109010685D01*
X117343535Y-109050112D01*
X117375806Y-109089433D01*
X117410567Y-109124194D01*
X117449889Y-109156465D01*
X117451912Y-109157816D01*
X117451915Y-109157819D01*
X117487303Y-109181465D01*
X117487309Y-109181468D01*
X117489318Y-109182811D01*
X117534184Y-109206793D01*
X117555586Y-109215658D01*
X117577362Y-109224678D01*
X117577366Y-109224680D01*
X117579603Y-109225606D01*
X117581912Y-109226306D01*
X117581922Y-109226310D01*
X117625959Y-109239668D01*
X117625964Y-109239669D01*
X117628284Y-109240373D01*
X117630662Y-109240846D01*
X117686038Y-109251861D01*
X117686043Y-109251862D01*
X117687205Y-109252093D01*
X117712394Y-109255829D01*
X117732485Y-109257808D01*
X117735755Y-109258130D01*
X117735758Y-109258130D01*
X117736974Y-109258250D01*
X117738168Y-109258309D01*
X117738186Y-109258310D01*
X117749297Y-109258856D01*
X117762410Y-109259500D01*
X118165268Y-109259500D01*
X118223459Y-109278407D01*
X118259423Y-109327907D01*
X118263089Y-109373730D01*
X118244391Y-109493823D01*
X118245306Y-109500820D01*
X118245306Y-109500821D01*
X118246814Y-109512354D01*
X118262980Y-109635979D01*
X118265821Y-109642435D01*
X118265821Y-109642436D01*
X118273586Y-109660082D01*
X118320720Y-109767203D01*
X118333792Y-109782754D01*
X118408431Y-109871549D01*
X118408434Y-109871551D01*
X118412970Y-109876948D01*
X118418841Y-109880856D01*
X118418842Y-109880857D01*
X118431143Y-109889045D01*
X118532313Y-109956390D01*
X118632920Y-109987821D01*
X118662425Y-109997039D01*
X118662426Y-109997039D01*
X118669157Y-109999142D01*
X118740828Y-110000456D01*
X118805445Y-110001641D01*
X118805447Y-110001641D01*
X118812499Y-110001770D01*
X118819302Y-109999915D01*
X118819304Y-109999915D01*
X118894503Y-109979413D01*
X118950817Y-109964060D01*
X119072991Y-109889045D01*
X119080403Y-109880857D01*
X119164468Y-109787982D01*
X119169200Y-109782754D01*
X119231710Y-109653733D01*
X119235875Y-109628982D01*
X119254862Y-109516124D01*
X119254862Y-109516120D01*
X119255496Y-109512354D01*
X119255647Y-109500000D01*
X119255104Y-109496207D01*
X119237393Y-109372534D01*
X119247860Y-109312251D01*
X119291762Y-109269633D01*
X119335393Y-109259500D01*
X122987590Y-109259500D01*
X123000703Y-109258856D01*
X123011814Y-109258310D01*
X123011832Y-109258309D01*
X123013026Y-109258250D01*
X123014242Y-109258130D01*
X123014245Y-109258130D01*
X123017515Y-109257808D01*
X123037606Y-109255829D01*
X123062795Y-109252093D01*
X123063957Y-109251862D01*
X123063962Y-109251861D01*
X123119338Y-109240846D01*
X123121716Y-109240373D01*
X123124036Y-109239669D01*
X123124041Y-109239668D01*
X123168078Y-109226310D01*
X123168088Y-109226306D01*
X123170397Y-109225606D01*
X123172634Y-109224680D01*
X123172638Y-109224678D01*
X123194414Y-109215658D01*
X123215816Y-109206793D01*
X123260682Y-109182811D01*
X123262691Y-109181468D01*
X123262697Y-109181465D01*
X123298085Y-109157819D01*
X123298088Y-109157816D01*
X123300111Y-109156465D01*
X123339433Y-109124194D01*
X123374194Y-109089433D01*
X123406465Y-109050112D01*
X123432810Y-109010685D01*
X123456791Y-108965819D01*
X123475606Y-108920396D01*
X123490374Y-108871712D01*
X123502093Y-108812793D01*
X123505829Y-108787606D01*
X123508250Y-108763026D01*
X123509500Y-108737590D01*
X123509500Y-103917101D01*
X123528407Y-103858910D01*
X123582872Y-103821475D01*
X123591359Y-103819201D01*
X123599784Y-103817334D01*
X123629517Y-103812092D01*
X123629519Y-103812091D01*
X123638045Y-103810588D01*
X123645544Y-103806258D01*
X123651029Y-103804262D01*
X123656316Y-103801796D01*
X123664684Y-103799554D01*
X123696511Y-103777268D01*
X123703795Y-103772627D01*
X123737455Y-103753194D01*
X123762436Y-103723423D01*
X123768270Y-103717056D01*
X124130497Y-103354830D01*
X124185013Y-103327053D01*
X124245445Y-103336624D01*
X124288710Y-103379889D01*
X124299500Y-103424834D01*
X124299500Y-110965983D01*
X124296982Y-110988169D01*
X124294344Y-110999641D01*
X124296739Y-111010227D01*
X124295587Y-111024697D01*
X124287294Y-111077063D01*
X124277725Y-111106518D01*
X124249419Y-111162071D01*
X124231215Y-111187128D01*
X124187128Y-111231215D01*
X124162068Y-111249421D01*
X124106521Y-111277723D01*
X124077065Y-111287294D01*
X124024499Y-111295619D01*
X124010609Y-111296701D01*
X124000359Y-111294344D01*
X123988359Y-111297059D01*
X123966512Y-111299500D01*
X112599834Y-111299500D01*
X112541643Y-111280593D01*
X112505679Y-111231093D01*
X112505679Y-111169907D01*
X112529830Y-111130496D01*
X112817057Y-110843269D01*
X112823425Y-110837434D01*
X112853194Y-110812455D01*
X112872629Y-110778792D01*
X112877268Y-110771511D01*
X112879729Y-110767996D01*
X112899554Y-110739684D01*
X112901796Y-110731319D01*
X112904258Y-110726039D01*
X112906257Y-110720548D01*
X112910588Y-110713045D01*
X112917337Y-110674771D01*
X112919206Y-110666344D01*
X112927022Y-110637173D01*
X112927022Y-110637170D01*
X112929263Y-110628807D01*
X112925877Y-110590103D01*
X112925500Y-110581475D01*
X112925500Y-108174424D01*
X112944407Y-108116233D01*
X112951102Y-108107988D01*
X113014468Y-108037982D01*
X113019200Y-108032754D01*
X113081710Y-107903733D01*
X113085875Y-107878982D01*
X113104862Y-107766124D01*
X113104862Y-107766120D01*
X113105496Y-107762354D01*
X113105647Y-107750000D01*
X113085323Y-107608082D01*
X113025984Y-107477572D01*
X112932400Y-107368963D01*
X112812095Y-107290985D01*
X112674739Y-107249907D01*
X112591497Y-107249398D01*
X112538427Y-107249074D01*
X112538426Y-107249074D01*
X112531376Y-107249031D01*
X112524599Y-107250968D01*
X112524598Y-107250968D01*
X112400309Y-107286490D01*
X112400307Y-107286491D01*
X112393529Y-107288428D01*
X112272280Y-107364930D01*
X112267613Y-107370214D01*
X112267611Y-107370216D01*
X112182044Y-107467103D01*
X112182042Y-107467105D01*
X112177377Y-107472388D01*
X112116447Y-107602163D01*
X112094391Y-107743823D01*
X112095306Y-107750820D01*
X112095306Y-107750821D01*
X112096814Y-107762354D01*
X112112980Y-107885979D01*
X112115821Y-107892435D01*
X112115821Y-107892436D01*
X112123586Y-107910082D01*
X112170720Y-108017203D01*
X112188187Y-108037982D01*
X112251283Y-108113045D01*
X112274253Y-108169755D01*
X112274500Y-108176747D01*
X112274500Y-110424166D01*
X112255593Y-110482357D01*
X112245504Y-110494170D01*
X111969170Y-110770504D01*
X111914653Y-110798281D01*
X111899166Y-110799500D01*
X104666950Y-110799500D01*
X104608759Y-110780593D01*
X104596946Y-110770504D01*
X104204496Y-110378054D01*
X104176719Y-110323537D01*
X104175500Y-110308050D01*
X104175500Y-100477282D01*
X104194407Y-100419091D01*
X104243907Y-100383127D01*
X104305093Y-100383127D01*
X104350338Y-100413646D01*
X104362545Y-100428194D01*
X104370042Y-100432523D01*
X104370044Y-100432524D01*
X104396206Y-100447628D01*
X104403484Y-100452264D01*
X104435316Y-100474553D01*
X104443682Y-100476795D01*
X104448973Y-100479262D01*
X104454450Y-100481255D01*
X104461955Y-100485588D01*
X104491038Y-100490716D01*
X104500231Y-100492337D01*
X104508654Y-100494204D01*
X104546193Y-100504263D01*
X104584896Y-100500877D01*
X104593525Y-100500500D01*
X106306466Y-100500500D01*
X106315095Y-100500877D01*
X106353807Y-100504264D01*
X106362178Y-100502021D01*
X106391349Y-100494204D01*
X106399784Y-100492334D01*
X106429517Y-100487092D01*
X106429519Y-100487091D01*
X106438045Y-100485588D01*
X106445544Y-100481258D01*
X106451029Y-100479262D01*
X106456316Y-100476796D01*
X106464684Y-100474554D01*
X106494056Y-100453987D01*
X106496511Y-100452268D01*
X106503792Y-100447629D01*
X106537455Y-100428194D01*
X106562431Y-100398429D01*
X106568265Y-100392061D01*
X106767057Y-100193269D01*
X106773425Y-100187434D01*
X106803194Y-100162455D01*
X106822629Y-100128792D01*
X106827268Y-100121511D01*
X106828987Y-100119056D01*
X106849554Y-100089684D01*
X106851796Y-100081316D01*
X106854262Y-100076029D01*
X106856258Y-100070544D01*
X106860588Y-100063045D01*
X106867334Y-100024783D01*
X106869204Y-100016349D01*
X106877022Y-99987173D01*
X106879264Y-99978807D01*
X106878509Y-99970177D01*
X106879215Y-99962108D01*
X106904440Y-99904300D01*
X106964468Y-99837982D01*
X106969200Y-99832754D01*
X107031710Y-99703733D01*
X107032880Y-99696780D01*
X107032881Y-99696776D01*
X107039459Y-99657675D01*
X107040502Y-99651473D01*
X107068802Y-99597227D01*
X107123582Y-99569974D01*
X107183920Y-99580125D01*
X107194416Y-99586457D01*
X107236740Y-99615708D01*
X107239272Y-99617517D01*
X107280861Y-99648236D01*
X107280863Y-99648237D01*
X107286816Y-99652634D01*
X107293632Y-99655027D01*
X107299569Y-99659131D01*
X107306628Y-99661364D01*
X107306629Y-99661364D01*
X107326973Y-99667798D01*
X107355929Y-99676956D01*
X107358814Y-99677918D01*
X107414631Y-99697519D01*
X107420673Y-99697756D01*
X107423347Y-99698277D01*
X107428730Y-99699980D01*
X107435337Y-99700500D01*
X107488541Y-99700500D01*
X107492428Y-99700576D01*
X107549994Y-99702838D01*
X107556773Y-99701041D01*
X107566593Y-99700500D01*
X111200500Y-99700500D01*
X111258691Y-99719407D01*
X111294655Y-99768907D01*
X111299500Y-99799500D01*
X111299500Y-100509680D01*
X111290116Y-100551751D01*
X111266447Y-100602163D01*
X111244391Y-100743823D01*
X111245306Y-100750820D01*
X111245306Y-100750821D01*
X111246814Y-100762354D01*
X111262980Y-100885979D01*
X111265821Y-100892435D01*
X111265821Y-100892436D01*
X111273586Y-100910082D01*
X111320720Y-101017203D01*
X111333792Y-101032754D01*
X111408431Y-101121549D01*
X111408434Y-101121551D01*
X111412970Y-101126948D01*
X111418841Y-101130856D01*
X111418842Y-101130857D01*
X111431143Y-101139045D01*
X111532313Y-101206390D01*
X111632920Y-101237821D01*
X111662425Y-101247039D01*
X111662426Y-101247039D01*
X111669157Y-101249142D01*
X111740828Y-101250456D01*
X111805445Y-101251641D01*
X111805447Y-101251641D01*
X111812499Y-101251770D01*
X111819302Y-101249915D01*
X111819304Y-101249915D01*
X111944013Y-101215915D01*
X111950817Y-101214060D01*
X111956826Y-101210371D01*
X111956834Y-101210367D01*
X111958984Y-101209047D01*
X111961015Y-101208558D01*
X111963302Y-101207568D01*
X111963474Y-101207965D01*
X112018467Y-101194714D01*
X112033135Y-101196972D01*
X112053394Y-101201667D01*
X112064255Y-101204185D01*
X112199384Y-101194617D01*
X112205896Y-101192098D01*
X112266611Y-101197836D01*
X112269974Y-101199662D01*
X112270077Y-101199446D01*
X112276442Y-101202482D01*
X112282313Y-101206390D01*
X112382920Y-101237821D01*
X112412425Y-101247039D01*
X112412426Y-101247039D01*
X112419157Y-101249142D01*
X112490828Y-101250456D01*
X112555445Y-101251641D01*
X112555447Y-101251641D01*
X112562499Y-101251770D01*
X112569302Y-101249915D01*
X112569304Y-101249915D01*
X112644503Y-101229413D01*
X112700817Y-101214060D01*
X112822991Y-101139045D01*
X112830403Y-101130857D01*
X112914468Y-101037982D01*
X112919200Y-101032754D01*
X112981710Y-100903733D01*
X112985875Y-100878982D01*
X113004862Y-100766124D01*
X113004862Y-100766120D01*
X113005496Y-100762354D01*
X113005647Y-100750000D01*
X112985323Y-100608082D01*
X112979731Y-100595782D01*
X112959378Y-100551017D01*
X112950500Y-100510042D01*
X112950500Y-99490870D01*
X112960406Y-99447705D01*
X112978635Y-99410079D01*
X112981710Y-99403733D01*
X112983049Y-99395776D01*
X113004862Y-99266124D01*
X113004862Y-99266120D01*
X113005496Y-99262354D01*
X113005647Y-99250000D01*
X112985323Y-99108082D01*
X112925984Y-98977572D01*
X112832400Y-98868963D01*
X112712095Y-98790985D01*
X112574739Y-98749907D01*
X112491497Y-98749398D01*
X112438427Y-98749074D01*
X112438426Y-98749074D01*
X112431376Y-98749031D01*
X112424599Y-98750968D01*
X112424598Y-98750968D01*
X112316849Y-98781763D01*
X112293529Y-98788428D01*
X112289220Y-98791147D01*
X112250092Y-98799500D01*
X112162966Y-98799500D01*
X112150332Y-98798055D01*
X112150331Y-98798067D01*
X112142957Y-98797487D01*
X112135745Y-98795815D01*
X112091287Y-98798963D01*
X112087190Y-98799253D01*
X112080198Y-98799500D01*
X111999905Y-98799500D01*
X111962565Y-98791290D01*
X111962095Y-98790985D01*
X111955337Y-98788964D01*
X111955335Y-98788963D01*
X111831500Y-98751929D01*
X111824739Y-98749907D01*
X111741497Y-98749398D01*
X111688427Y-98749074D01*
X111688426Y-98749074D01*
X111681376Y-98749031D01*
X111674599Y-98750968D01*
X111674598Y-98750968D01*
X111566849Y-98781763D01*
X111543529Y-98788428D01*
X111539220Y-98791147D01*
X111500092Y-98799500D01*
X107799500Y-98799500D01*
X107741309Y-98780593D01*
X107705345Y-98731093D01*
X107700500Y-98700500D01*
X107700500Y-98490870D01*
X107710406Y-98447705D01*
X107728635Y-98410079D01*
X107731710Y-98403733D01*
X107732880Y-98396779D01*
X107754862Y-98266124D01*
X107754862Y-98266120D01*
X107755496Y-98262354D01*
X107755647Y-98250000D01*
X107735323Y-98108082D01*
X107686986Y-98001770D01*
X107678905Y-97983996D01*
X107678904Y-97983995D01*
X107675984Y-97977572D01*
X107592649Y-97880857D01*
X107587005Y-97874307D01*
X107587004Y-97874306D01*
X107582400Y-97868963D01*
X107527328Y-97833267D01*
X107488781Y-97785751D01*
X107485526Y-97724652D01*
X107518805Y-97673309D01*
X107529374Y-97665826D01*
X107566978Y-97642737D01*
X107572991Y-97639045D01*
X107580403Y-97630857D01*
X107664468Y-97537982D01*
X107669200Y-97532754D01*
X107731710Y-97403733D01*
X107735875Y-97378982D01*
X107754862Y-97266124D01*
X107754862Y-97266120D01*
X107755496Y-97262354D01*
X107755647Y-97250000D01*
X107735323Y-97108082D01*
X107727318Y-97090476D01*
X107720445Y-97029678D01*
X107750620Y-96976451D01*
X107806319Y-96951127D01*
X107817440Y-96950500D01*
X109546889Y-96950500D01*
X109605080Y-96969407D01*
X109616893Y-96979496D01*
X109785430Y-97148033D01*
X109806042Y-97178165D01*
X109838012Y-97250821D01*
X109845220Y-97267203D01*
X109891345Y-97322076D01*
X109932931Y-97371549D01*
X109932934Y-97371551D01*
X109937470Y-97376948D01*
X110056813Y-97456390D01*
X110063339Y-97458429D01*
X110090573Y-97477676D01*
X110260930Y-97648033D01*
X110281542Y-97678165D01*
X110316461Y-97757523D01*
X110320720Y-97767203D01*
X110340711Y-97790985D01*
X110408431Y-97871549D01*
X110408434Y-97871551D01*
X110412970Y-97876948D01*
X110418841Y-97880856D01*
X110418842Y-97880857D01*
X110431143Y-97889045D01*
X110532313Y-97956390D01*
X110632920Y-97987821D01*
X110662425Y-97997039D01*
X110662426Y-97997039D01*
X110669157Y-97999142D01*
X110740828Y-98000456D01*
X110805445Y-98001641D01*
X110805447Y-98001641D01*
X110812499Y-98001770D01*
X110819302Y-97999915D01*
X110819304Y-97999915D01*
X110920270Y-97972388D01*
X110950817Y-97964060D01*
X111072991Y-97889045D01*
X111080403Y-97880857D01*
X111164468Y-97787982D01*
X111169200Y-97782754D01*
X111231710Y-97653733D01*
X111234182Y-97639045D01*
X111254862Y-97516124D01*
X111254862Y-97516120D01*
X111255496Y-97512354D01*
X111255647Y-97500000D01*
X111235323Y-97358082D01*
X111203380Y-97287827D01*
X111178905Y-97233996D01*
X111178904Y-97233995D01*
X111175984Y-97227572D01*
X111115582Y-97157472D01*
X111087005Y-97124307D01*
X111087004Y-97124306D01*
X111082400Y-97118963D01*
X111038450Y-97090476D01*
X110968014Y-97044821D01*
X110968011Y-97044820D01*
X110962095Y-97040985D01*
X110937536Y-97033641D01*
X110895899Y-97008796D01*
X110782308Y-96895205D01*
X110760208Y-96857907D01*
X110759823Y-96858082D01*
X110758213Y-96854541D01*
X110719264Y-96768876D01*
X110703405Y-96733996D01*
X110703404Y-96733995D01*
X110700484Y-96727572D01*
X110606900Y-96618963D01*
X110574990Y-96598280D01*
X110492514Y-96544821D01*
X110492511Y-96544820D01*
X110486595Y-96540985D01*
X110462036Y-96533641D01*
X110420399Y-96508796D01*
X110116119Y-96204516D01*
X110108377Y-96195803D01*
X110090953Y-96173701D01*
X110086372Y-96167890D01*
X110037751Y-96134286D01*
X110035228Y-96132483D01*
X109993639Y-96101764D01*
X109993637Y-96101763D01*
X109987684Y-96097366D01*
X109980868Y-96094973D01*
X109974931Y-96090869D01*
X109967872Y-96088636D01*
X109967871Y-96088636D01*
X109947527Y-96082202D01*
X109918571Y-96073044D01*
X109915686Y-96072082D01*
X109859869Y-96052481D01*
X109853827Y-96052244D01*
X109851153Y-96051723D01*
X109845770Y-96050020D01*
X109839163Y-96049500D01*
X109785959Y-96049500D01*
X109782072Y-96049424D01*
X109731897Y-96047452D01*
X109731894Y-96047452D01*
X109724506Y-96047162D01*
X109717728Y-96048959D01*
X109707903Y-96049500D01*
X107499905Y-96049500D01*
X107462565Y-96041290D01*
X107462095Y-96040985D01*
X107455337Y-96038964D01*
X107455335Y-96038963D01*
X107331500Y-96001929D01*
X107324739Y-95999907D01*
X107241497Y-95999398D01*
X107188427Y-95999074D01*
X107188426Y-95999074D01*
X107181376Y-95999031D01*
X107174599Y-96000968D01*
X107174598Y-96000968D01*
X107050309Y-96036490D01*
X107050307Y-96036491D01*
X107043529Y-96038428D01*
X106922280Y-96114930D01*
X106917613Y-96120214D01*
X106917611Y-96120216D01*
X106832044Y-96217103D01*
X106832042Y-96217105D01*
X106827377Y-96222388D01*
X106766447Y-96352163D01*
X106765362Y-96359132D01*
X106765361Y-96359135D01*
X106750828Y-96452482D01*
X106744391Y-96493823D01*
X106762980Y-96635979D01*
X106765820Y-96642433D01*
X106765821Y-96642437D01*
X106791116Y-96699923D01*
X106799500Y-96739795D01*
X106799500Y-97009680D01*
X106790116Y-97051751D01*
X106766447Y-97102163D01*
X106765362Y-97109132D01*
X106765361Y-97109135D01*
X106755770Y-97170736D01*
X106744391Y-97243823D01*
X106745306Y-97250820D01*
X106745306Y-97250821D01*
X106746331Y-97258656D01*
X106762980Y-97385979D01*
X106765821Y-97392435D01*
X106765821Y-97392436D01*
X106803328Y-97477676D01*
X106820720Y-97517203D01*
X106829000Y-97527053D01*
X106908431Y-97621549D01*
X106908434Y-97621551D01*
X106912970Y-97626948D01*
X106918841Y-97630856D01*
X106918842Y-97630857D01*
X106973897Y-97667505D01*
X107011860Y-97715489D01*
X107014369Y-97776623D01*
X106980464Y-97827556D01*
X106971867Y-97833643D01*
X106922280Y-97864930D01*
X106917613Y-97870214D01*
X106917611Y-97870216D01*
X106832044Y-97967103D01*
X106832042Y-97967105D01*
X106827377Y-97972388D01*
X106766447Y-98102163D01*
X106765362Y-98109132D01*
X106765361Y-98109135D01*
X106751970Y-98195142D01*
X106744391Y-98243823D01*
X106745306Y-98250820D01*
X106745306Y-98250821D01*
X106762065Y-98378982D01*
X106762980Y-98385979D01*
X106765820Y-98392433D01*
X106765821Y-98392437D01*
X106791116Y-98449923D01*
X106799500Y-98489795D01*
X106799500Y-98759680D01*
X106790116Y-98801751D01*
X106766447Y-98852163D01*
X106765362Y-98859132D01*
X106765361Y-98859135D01*
X106748121Y-98969869D01*
X106720487Y-99024458D01*
X106666044Y-99052379D01*
X106635666Y-99052551D01*
X106631496Y-99051928D01*
X106624739Y-99049907D01*
X106553057Y-99049469D01*
X106488427Y-99049074D01*
X106488426Y-99049074D01*
X106481376Y-99049031D01*
X106474599Y-99050968D01*
X106474598Y-99050968D01*
X106350309Y-99086490D01*
X106350307Y-99086491D01*
X106343529Y-99088428D01*
X106222280Y-99164930D01*
X106217613Y-99170214D01*
X106217611Y-99170216D01*
X106132044Y-99267103D01*
X106132042Y-99267105D01*
X106127377Y-99272388D01*
X106066447Y-99402163D01*
X106065362Y-99409132D01*
X106065361Y-99409135D01*
X106059356Y-99447705D01*
X106044391Y-99543823D01*
X106045306Y-99550820D01*
X106045306Y-99550821D01*
X106058468Y-99651474D01*
X106062980Y-99685979D01*
X106065821Y-99692435D01*
X106065821Y-99692436D01*
X106073826Y-99710628D01*
X106079956Y-99771505D01*
X106049133Y-99824359D01*
X105993129Y-99849002D01*
X105983210Y-99849500D01*
X104750834Y-99849500D01*
X104692643Y-99830593D01*
X104680857Y-99820530D01*
X104679523Y-99819197D01*
X104651725Y-99764691D01*
X104650500Y-99749167D01*
X104650500Y-97343523D01*
X104650877Y-97334894D01*
X104653508Y-97304820D01*
X104654263Y-97296193D01*
X104652022Y-97287830D01*
X104652022Y-97287827D01*
X104644206Y-97258656D01*
X104642337Y-97250228D01*
X104641628Y-97246209D01*
X104635588Y-97211955D01*
X104631416Y-97204729D01*
X104625500Y-97171179D01*
X104625500Y-96327565D01*
X104644407Y-96269374D01*
X104693907Y-96233410D01*
X104755093Y-96233410D01*
X104784728Y-96249836D01*
X104787545Y-96253194D01*
X104821205Y-96272627D01*
X104828489Y-96277268D01*
X104860316Y-96299554D01*
X104868684Y-96301796D01*
X104873971Y-96304262D01*
X104879456Y-96306258D01*
X104886955Y-96310588D01*
X104895481Y-96312091D01*
X104895483Y-96312092D01*
X104925216Y-96317334D01*
X104933650Y-96319204D01*
X104971193Y-96329264D01*
X104979822Y-96328509D01*
X105009905Y-96325877D01*
X105018534Y-96325500D01*
X105073612Y-96325500D01*
X105131803Y-96344407D01*
X105149394Y-96360797D01*
X105162970Y-96376948D01*
X105168841Y-96380856D01*
X105168842Y-96380857D01*
X105181143Y-96389045D01*
X105282313Y-96456390D01*
X105379809Y-96486849D01*
X105412425Y-96497039D01*
X105412426Y-96497039D01*
X105419157Y-96499142D01*
X105490828Y-96500456D01*
X105555445Y-96501641D01*
X105555447Y-96501641D01*
X105562499Y-96501770D01*
X105569302Y-96499915D01*
X105569304Y-96499915D01*
X105644503Y-96479413D01*
X105700817Y-96464060D01*
X105822991Y-96389045D01*
X105830403Y-96380857D01*
X105914468Y-96287982D01*
X105919200Y-96282754D01*
X105981710Y-96153733D01*
X105985286Y-96132483D01*
X106004862Y-96016124D01*
X106004862Y-96016120D01*
X106005496Y-96012354D01*
X106005647Y-96000000D01*
X105985323Y-95858082D01*
X105925984Y-95727572D01*
X105832400Y-95618963D01*
X105712095Y-95540985D01*
X105574739Y-95499907D01*
X105491497Y-95499398D01*
X105438427Y-95499074D01*
X105438426Y-95499074D01*
X105431376Y-95499031D01*
X105424599Y-95500968D01*
X105424598Y-95500968D01*
X105300309Y-95536490D01*
X105300307Y-95536491D01*
X105293529Y-95538428D01*
X105283394Y-95544823D01*
X105252328Y-95564424D01*
X105193025Y-95579485D01*
X105136196Y-95556812D01*
X105103546Y-95505066D01*
X105100500Y-95480697D01*
X105100500Y-90424500D01*
X105119407Y-90366309D01*
X105168907Y-90330345D01*
X105199500Y-90325500D01*
X105847582Y-90325500D01*
X105856211Y-90325877D01*
X105894923Y-90329264D01*
X105932466Y-90319204D01*
X105940900Y-90317334D01*
X105970633Y-90312092D01*
X105970635Y-90312091D01*
X105979161Y-90310588D01*
X105986660Y-90306258D01*
X105992145Y-90304262D01*
X105997432Y-90301796D01*
X106005800Y-90299554D01*
X106037627Y-90277268D01*
X106044911Y-90272627D01*
X106078571Y-90253194D01*
X106103547Y-90223429D01*
X106109381Y-90217061D01*
X106467057Y-89859385D01*
X106473425Y-89853550D01*
X106475095Y-89852149D01*
X106503194Y-89828571D01*
X106522629Y-89794908D01*
X106527268Y-89787627D01*
X106532332Y-89780395D01*
X106549554Y-89755800D01*
X106551796Y-89747432D01*
X106554262Y-89742145D01*
X106556258Y-89736660D01*
X106560588Y-89729161D01*
X106563490Y-89712706D01*
X106567334Y-89690900D01*
X106569204Y-89682465D01*
X106577022Y-89653290D01*
X106579264Y-89644923D01*
X106575877Y-89606211D01*
X106575500Y-89597582D01*
X106575500Y-88018523D01*
X106575877Y-88009894D01*
X106578508Y-87979822D01*
X106579263Y-87971193D01*
X106569205Y-87933657D01*
X106567337Y-87925231D01*
X106565716Y-87916038D01*
X106560588Y-87886955D01*
X106556255Y-87879450D01*
X106554262Y-87873973D01*
X106551795Y-87868682D01*
X106549553Y-87860316D01*
X106527264Y-87828484D01*
X106522628Y-87821206D01*
X106507524Y-87795044D01*
X106507523Y-87795042D01*
X106503194Y-87787545D01*
X106473429Y-87762569D01*
X106467062Y-87756735D01*
X106243275Y-87532949D01*
X106237439Y-87526581D01*
X106236156Y-87525052D01*
X106212455Y-87496806D01*
X106178792Y-87477371D01*
X106171511Y-87472732D01*
X106169056Y-87471013D01*
X106139684Y-87450446D01*
X106131316Y-87448204D01*
X106130967Y-87448041D01*
X106716000Y-87448041D01*
X106716390Y-87454229D01*
X106730731Y-87567755D01*
X106733805Y-87579727D01*
X106790048Y-87721782D01*
X106795999Y-87732607D01*
X106885806Y-87856216D01*
X106894262Y-87865221D01*
X107011986Y-87962609D01*
X107022419Y-87969231D01*
X107160016Y-88033979D01*
X107204618Y-88075863D01*
X107216083Y-88135965D01*
X107209328Y-88161442D01*
X107193036Y-88200775D01*
X107189313Y-88209764D01*
X107169534Y-88360000D01*
X107189313Y-88510236D01*
X107191797Y-88516233D01*
X107244819Y-88644240D01*
X107244821Y-88644244D01*
X107247302Y-88650233D01*
X107251248Y-88655375D01*
X107251250Y-88655379D01*
X107323856Y-88750000D01*
X107339549Y-88770451D01*
X107344698Y-88774402D01*
X107454621Y-88858750D01*
X107454625Y-88858752D01*
X107459767Y-88862698D01*
X107465756Y-88865179D01*
X107465760Y-88865181D01*
X107528057Y-88890985D01*
X107599764Y-88920687D01*
X107712280Y-88935500D01*
X108087720Y-88935500D01*
X108200236Y-88920687D01*
X108271943Y-88890985D01*
X108334240Y-88865181D01*
X108334244Y-88865179D01*
X108340233Y-88862698D01*
X108345375Y-88858752D01*
X108345379Y-88858750D01*
X108455302Y-88774402D01*
X108460451Y-88770451D01*
X108476144Y-88750000D01*
X108548750Y-88655379D01*
X108548752Y-88655375D01*
X108552698Y-88650233D01*
X108555179Y-88644244D01*
X108555181Y-88644240D01*
X108608203Y-88516233D01*
X108610687Y-88510236D01*
X108630466Y-88360000D01*
X108610687Y-88209764D01*
X108590671Y-88161442D01*
X108555181Y-88075760D01*
X108555179Y-88075756D01*
X108552698Y-88069767D01*
X108548752Y-88064625D01*
X108548750Y-88064621D01*
X108464402Y-87954698D01*
X108460451Y-87949549D01*
X108434305Y-87929486D01*
X108345379Y-87861250D01*
X108345375Y-87861248D01*
X108340233Y-87857302D01*
X108334244Y-87854821D01*
X108334240Y-87854819D01*
X108206233Y-87801797D01*
X108200236Y-87799313D01*
X108087720Y-87784500D01*
X108075545Y-87784500D01*
X108017354Y-87765593D01*
X107981390Y-87716093D01*
X107981390Y-87654907D01*
X107983498Y-87649053D01*
X107984456Y-87646633D01*
X108022452Y-87498647D01*
X108024000Y-87486395D01*
X108024000Y-87300680D01*
X108019878Y-87287995D01*
X108015757Y-87285000D01*
X106731680Y-87285000D01*
X106718995Y-87289122D01*
X106716000Y-87293243D01*
X106716000Y-87448041D01*
X106130967Y-87448041D01*
X106126029Y-87445738D01*
X106120544Y-87443742D01*
X106113045Y-87439412D01*
X106104519Y-87437909D01*
X106104517Y-87437908D01*
X106074784Y-87432666D01*
X106066349Y-87430796D01*
X106037174Y-87422978D01*
X106028807Y-87420736D01*
X106020178Y-87421491D01*
X105990095Y-87424123D01*
X105981466Y-87424500D01*
X105928409Y-87424500D01*
X105870218Y-87405593D01*
X105846821Y-87381575D01*
X105779312Y-87283349D01*
X105672554Y-87188230D01*
X105641684Y-87135404D01*
X105647761Y-87074521D01*
X105674117Y-87039034D01*
X105764884Y-86961512D01*
X105764890Y-86961506D01*
X105769423Y-86957634D01*
X105796955Y-86919320D01*
X106716000Y-86919320D01*
X106720122Y-86932005D01*
X106724243Y-86935000D01*
X107179320Y-86935000D01*
X107192005Y-86930878D01*
X107195000Y-86926757D01*
X107195000Y-86919320D01*
X107545000Y-86919320D01*
X107549122Y-86932005D01*
X107553243Y-86935000D01*
X108008320Y-86935000D01*
X108021005Y-86930878D01*
X108024000Y-86926757D01*
X108024000Y-86771959D01*
X108023610Y-86765771D01*
X108009269Y-86652245D01*
X108006195Y-86640273D01*
X107949952Y-86498218D01*
X107944001Y-86487393D01*
X107854194Y-86363784D01*
X107845738Y-86354779D01*
X107728014Y-86257391D01*
X107717581Y-86250769D01*
X107579340Y-86185717D01*
X107567584Y-86181898D01*
X107560401Y-86180528D01*
X107547170Y-86182200D01*
X107546982Y-86182376D01*
X107545000Y-86190097D01*
X107545000Y-86919320D01*
X107195000Y-86919320D01*
X107195000Y-86194885D01*
X107191479Y-86184050D01*
X107180089Y-86184050D01*
X107095250Y-86211616D01*
X107084070Y-86216876D01*
X106955067Y-86298744D01*
X106945548Y-86306618D01*
X106840964Y-86417990D01*
X106833696Y-86427994D01*
X106760093Y-86561876D01*
X106755545Y-86573364D01*
X106717548Y-86721353D01*
X106716000Y-86733605D01*
X106716000Y-86919320D01*
X105796955Y-86919320D01*
X105803753Y-86909859D01*
X105838668Y-86861270D01*
X105887979Y-86825048D01*
X105927686Y-86820417D01*
X105930119Y-86820630D01*
X105934633Y-86821025D01*
X105951629Y-86824021D01*
X105971193Y-86829263D01*
X105991367Y-86827498D01*
X106008624Y-86827498D01*
X106028807Y-86829264D01*
X106048377Y-86824020D01*
X106065372Y-86821024D01*
X106076917Y-86820014D01*
X106076918Y-86820014D01*
X106085545Y-86819259D01*
X106103902Y-86810699D01*
X106120110Y-86804799D01*
X106139684Y-86799554D01*
X106156281Y-86787933D01*
X106171219Y-86779308D01*
X106189579Y-86770747D01*
X107355830Y-85604496D01*
X107410347Y-85576719D01*
X107425834Y-85575500D01*
X109074166Y-85575500D01*
X109132357Y-85594407D01*
X109144170Y-85604496D01*
X109395504Y-85855830D01*
X109423281Y-85910347D01*
X109424500Y-85925834D01*
X109424500Y-92199193D01*
X109405593Y-92257384D01*
X109395504Y-92269197D01*
X109126464Y-92538237D01*
X109120097Y-92544071D01*
X109090327Y-92569051D01*
X109085998Y-92576550D01*
X109070894Y-92602711D01*
X109066253Y-92609995D01*
X109043967Y-92641822D01*
X109041725Y-92650190D01*
X109039259Y-92655477D01*
X109037263Y-92660962D01*
X109032933Y-92668461D01*
X109031430Y-92676987D01*
X109031429Y-92676989D01*
X109026187Y-92706722D01*
X109024317Y-92715156D01*
X109014257Y-92752699D01*
X109015012Y-92761328D01*
X109017644Y-92791411D01*
X109018021Y-92800040D01*
X109018021Y-92829946D01*
X108999114Y-92888137D01*
X108993237Y-92895466D01*
X108920898Y-92977375D01*
X108859968Y-93107150D01*
X108858883Y-93114119D01*
X108858882Y-93114122D01*
X108855002Y-93139045D01*
X108837912Y-93248810D01*
X108856501Y-93390966D01*
X108859342Y-93397422D01*
X108859342Y-93397423D01*
X108895147Y-93478795D01*
X108914241Y-93522190D01*
X108927055Y-93537434D01*
X109001952Y-93626536D01*
X109001955Y-93626538D01*
X109006491Y-93631935D01*
X109125834Y-93711377D01*
X109226441Y-93742808D01*
X109255946Y-93752026D01*
X109255947Y-93752026D01*
X109262678Y-93754129D01*
X109324137Y-93755256D01*
X109404521Y-93756730D01*
X109462355Y-93776701D01*
X109497406Y-93826852D01*
X109500870Y-93842876D01*
X109512980Y-93935482D01*
X109570720Y-94066706D01*
X109583792Y-94082257D01*
X109658431Y-94171052D01*
X109658434Y-94171054D01*
X109662970Y-94176451D01*
X109668841Y-94180359D01*
X109668842Y-94180360D01*
X109681143Y-94188548D01*
X109782313Y-94255893D01*
X109882920Y-94287324D01*
X109912425Y-94296542D01*
X109912426Y-94296542D01*
X109919157Y-94298645D01*
X109990828Y-94299959D01*
X110055445Y-94301144D01*
X110055447Y-94301144D01*
X110062499Y-94301273D01*
X110069302Y-94299418D01*
X110069304Y-94299418D01*
X110144503Y-94278916D01*
X110200817Y-94263563D01*
X110322991Y-94188548D01*
X110330403Y-94180360D01*
X110414468Y-94087485D01*
X110419200Y-94082257D01*
X110450575Y-94017499D01*
X110469665Y-93990661D01*
X110917057Y-93543269D01*
X110923425Y-93537434D01*
X110941592Y-93522190D01*
X110953194Y-93512455D01*
X110972629Y-93478792D01*
X110977268Y-93471511D01*
X110978987Y-93469056D01*
X110999554Y-93439684D01*
X111001796Y-93431316D01*
X111004262Y-93426029D01*
X111006258Y-93420544D01*
X111010588Y-93413045D01*
X111013343Y-93397423D01*
X111017334Y-93374784D01*
X111019204Y-93366349D01*
X111027022Y-93337174D01*
X111029264Y-93328807D01*
X111028234Y-93317033D01*
X111029120Y-93313195D01*
X111029264Y-93311549D01*
X111029495Y-93311569D01*
X111041997Y-93257416D01*
X111088175Y-93217275D01*
X111149127Y-93211942D01*
X111156378Y-93213909D01*
X111245771Y-93241836D01*
X111269157Y-93249142D01*
X111340828Y-93250456D01*
X111405445Y-93251641D01*
X111405447Y-93251641D01*
X111412499Y-93251770D01*
X111419302Y-93249915D01*
X111419304Y-93249915D01*
X111494503Y-93229413D01*
X111550817Y-93214060D01*
X111672991Y-93139045D01*
X111677726Y-93133814D01*
X111683151Y-93129310D01*
X111684360Y-93130766D01*
X111729366Y-93104940D01*
X111790199Y-93111497D01*
X111811719Y-93125460D01*
X111812970Y-93126948D01*
X111932313Y-93206390D01*
X112032920Y-93237821D01*
X112062425Y-93247039D01*
X112062426Y-93247039D01*
X112069157Y-93249142D01*
X112140828Y-93250456D01*
X112205445Y-93251641D01*
X112205447Y-93251641D01*
X112212499Y-93251770D01*
X112219302Y-93249915D01*
X112219304Y-93249915D01*
X112294503Y-93229413D01*
X112350817Y-93214060D01*
X112472991Y-93139045D01*
X112480403Y-93130857D01*
X112564468Y-93037982D01*
X112569200Y-93032754D01*
X112631710Y-92903733D01*
X112633099Y-92895481D01*
X112654862Y-92766124D01*
X112654862Y-92766120D01*
X112655496Y-92762354D01*
X112655647Y-92750000D01*
X112635323Y-92608082D01*
X112575984Y-92477572D01*
X112571381Y-92472230D01*
X112567580Y-92466287D01*
X112569875Y-92464819D01*
X112550840Y-92419424D01*
X112550500Y-92411228D01*
X112550500Y-90838958D01*
X112566910Y-90785284D01*
X112569200Y-90782754D01*
X112631710Y-90653733D01*
X112655496Y-90512354D01*
X112656412Y-90512508D01*
X112678897Y-90459872D01*
X112731416Y-90428479D01*
X112782986Y-90430497D01*
X112811925Y-90439538D01*
X112811926Y-90439538D01*
X112818657Y-90441641D01*
X112890328Y-90442955D01*
X112954945Y-90444140D01*
X112954947Y-90444140D01*
X112961999Y-90444269D01*
X112968802Y-90442414D01*
X112968804Y-90442414D01*
X113044003Y-90421912D01*
X113100317Y-90406559D01*
X113222491Y-90331544D01*
X113227621Y-90325877D01*
X113313968Y-90230481D01*
X113318700Y-90225253D01*
X113381210Y-90096232D01*
X113391767Y-90033488D01*
X113404362Y-89958623D01*
X113404362Y-89958619D01*
X113404996Y-89954853D01*
X113405147Y-89942499D01*
X113405636Y-89942505D01*
X113420101Y-89885663D01*
X113433799Y-89868526D01*
X113467057Y-89835268D01*
X113473425Y-89829433D01*
X113474452Y-89828571D01*
X113503194Y-89804454D01*
X113522629Y-89770791D01*
X113527268Y-89763510D01*
X113531337Y-89757699D01*
X113549554Y-89731683D01*
X113551796Y-89723315D01*
X113554262Y-89718028D01*
X113556258Y-89712543D01*
X113560588Y-89705044D01*
X113567334Y-89666782D01*
X113569204Y-89658348D01*
X113577022Y-89629173D01*
X113579264Y-89620806D01*
X113575877Y-89582090D01*
X113575500Y-89573462D01*
X113575500Y-88360000D01*
X114519534Y-88360000D01*
X114539313Y-88510236D01*
X114541797Y-88516233D01*
X114594819Y-88644240D01*
X114594821Y-88644244D01*
X114597302Y-88650233D01*
X114601248Y-88655375D01*
X114601250Y-88655379D01*
X114673856Y-88750000D01*
X114689549Y-88770451D01*
X114694698Y-88774402D01*
X114804621Y-88858750D01*
X114804625Y-88858752D01*
X114809767Y-88862698D01*
X114815756Y-88865179D01*
X114815760Y-88865181D01*
X114878057Y-88890985D01*
X114949764Y-88920687D01*
X115062280Y-88935500D01*
X115137720Y-88935500D01*
X115250236Y-88920687D01*
X115321943Y-88890985D01*
X115384240Y-88865181D01*
X115384244Y-88865179D01*
X115390233Y-88862698D01*
X115395375Y-88858752D01*
X115395379Y-88858750D01*
X115505302Y-88774402D01*
X115510451Y-88770451D01*
X115526144Y-88750000D01*
X115598750Y-88655379D01*
X115598752Y-88655375D01*
X115602698Y-88650233D01*
X115605179Y-88644244D01*
X115605181Y-88644240D01*
X115658203Y-88516233D01*
X115660687Y-88510236D01*
X115680466Y-88360000D01*
X115660687Y-88209764D01*
X115654601Y-88195071D01*
X115649802Y-88134075D01*
X115681772Y-88081906D01*
X115739851Y-88058382D01*
X115747304Y-88057913D01*
X115759445Y-88055597D01*
X115904753Y-88008384D01*
X115915929Y-88003125D01*
X116044933Y-87921256D01*
X116054452Y-87913382D01*
X116159036Y-87802010D01*
X116166304Y-87792006D01*
X116239907Y-87658124D01*
X116244455Y-87646636D01*
X116282452Y-87498647D01*
X116284000Y-87486395D01*
X116284000Y-87300680D01*
X116279878Y-87287995D01*
X116275757Y-87285000D01*
X114991680Y-87285000D01*
X114978995Y-87289122D01*
X114976000Y-87293243D01*
X114976000Y-87448041D01*
X114976390Y-87454229D01*
X114990731Y-87567755D01*
X114993805Y-87579727D01*
X115027592Y-87665064D01*
X115031434Y-87726128D01*
X114998649Y-87777789D01*
X114961166Y-87797135D01*
X114956198Y-87798466D01*
X114949764Y-87799313D01*
X114943772Y-87801795D01*
X114943768Y-87801796D01*
X114815760Y-87854819D01*
X114815756Y-87854821D01*
X114809767Y-87857302D01*
X114804625Y-87861248D01*
X114804621Y-87861250D01*
X114715695Y-87929486D01*
X114689549Y-87949549D01*
X114685598Y-87954698D01*
X114601250Y-88064621D01*
X114601248Y-88064625D01*
X114597302Y-88069767D01*
X114594821Y-88075756D01*
X114594819Y-88075760D01*
X114559329Y-88161442D01*
X114539313Y-88209764D01*
X114519534Y-88360000D01*
X113575500Y-88360000D01*
X113575500Y-86919320D01*
X114976000Y-86919320D01*
X114980122Y-86932005D01*
X114984243Y-86935000D01*
X115439320Y-86935000D01*
X115452005Y-86930878D01*
X115455000Y-86926757D01*
X115455000Y-86919320D01*
X115805000Y-86919320D01*
X115809122Y-86932005D01*
X115813243Y-86935000D01*
X116268320Y-86935000D01*
X116281005Y-86930878D01*
X116284000Y-86926757D01*
X116284000Y-86771959D01*
X116283610Y-86765771D01*
X116269269Y-86652245D01*
X116266195Y-86640273D01*
X116209952Y-86498218D01*
X116204001Y-86487393D01*
X116114194Y-86363784D01*
X116105738Y-86354779D01*
X115988014Y-86257391D01*
X115977581Y-86250769D01*
X115839340Y-86185717D01*
X115827584Y-86181898D01*
X115820401Y-86180528D01*
X115807170Y-86182200D01*
X115806982Y-86182376D01*
X115805000Y-86190097D01*
X115805000Y-86919320D01*
X115455000Y-86919320D01*
X115455000Y-86194885D01*
X115451479Y-86184050D01*
X115440089Y-86184050D01*
X115355250Y-86211616D01*
X115344070Y-86216876D01*
X115215067Y-86298744D01*
X115205548Y-86306618D01*
X115100964Y-86417990D01*
X115093696Y-86427994D01*
X115020093Y-86561876D01*
X115015545Y-86573364D01*
X114977548Y-86721353D01*
X114976000Y-86733605D01*
X114976000Y-86919320D01*
X113575500Y-86919320D01*
X113575500Y-86425834D01*
X113594407Y-86367643D01*
X113604496Y-86355830D01*
X113680677Y-86279649D01*
X113735194Y-86251872D01*
X113752494Y-86250670D01*
X113769439Y-86250981D01*
X113805446Y-86251641D01*
X113805448Y-86251641D01*
X113812499Y-86251770D01*
X113819302Y-86249915D01*
X113819304Y-86249915D01*
X113894503Y-86229413D01*
X113950817Y-86214060D01*
X114072991Y-86139045D01*
X114086281Y-86124363D01*
X114164468Y-86037982D01*
X114169200Y-86032754D01*
X114231710Y-85903733D01*
X114238206Y-85865126D01*
X114254862Y-85766124D01*
X114254862Y-85766120D01*
X114255496Y-85762354D01*
X114255647Y-85750000D01*
X114235323Y-85608082D01*
X114175984Y-85477572D01*
X114109181Y-85400044D01*
X114087005Y-85374307D01*
X114087004Y-85374306D01*
X114082400Y-85368963D01*
X113962095Y-85290985D01*
X113824739Y-85249907D01*
X113741497Y-85249398D01*
X113688427Y-85249074D01*
X113688426Y-85249074D01*
X113681376Y-85249031D01*
X113674599Y-85250968D01*
X113674598Y-85250968D01*
X113550309Y-85286490D01*
X113550307Y-85286491D01*
X113543529Y-85288428D01*
X113422280Y-85364930D01*
X113417613Y-85370214D01*
X113417611Y-85370216D01*
X113332044Y-85467103D01*
X113332042Y-85467105D01*
X113327377Y-85472388D01*
X113266447Y-85602163D01*
X113265362Y-85609132D01*
X113265361Y-85609135D01*
X113252286Y-85693116D01*
X113244391Y-85743823D01*
X113245306Y-85750822D01*
X113245260Y-85754608D01*
X113225643Y-85812564D01*
X113216271Y-85823403D01*
X113032943Y-86006731D01*
X113026576Y-86012565D01*
X112996806Y-86037545D01*
X112992477Y-86045044D01*
X112977373Y-86071205D01*
X112972732Y-86078489D01*
X112950446Y-86110316D01*
X112948204Y-86118684D01*
X112945738Y-86123971D01*
X112943742Y-86129456D01*
X112939412Y-86136955D01*
X112937909Y-86145481D01*
X112937908Y-86145483D01*
X112932666Y-86175216D01*
X112930796Y-86183650D01*
X112920736Y-86221193D01*
X112921491Y-86229822D01*
X112924123Y-86259905D01*
X112924500Y-86268534D01*
X112924500Y-89343351D01*
X112905593Y-89401542D01*
X112856093Y-89437506D01*
X112838935Y-89441435D01*
X112837927Y-89441573D01*
X112830876Y-89441530D01*
X112824100Y-89443467D01*
X112824097Y-89443467D01*
X112699809Y-89478989D01*
X112699807Y-89478990D01*
X112693029Y-89480927D01*
X112688922Y-89483518D01*
X112629085Y-89489912D01*
X112576044Y-89459412D01*
X112551061Y-89403560D01*
X112550500Y-89393040D01*
X112550500Y-86588958D01*
X112566910Y-86535284D01*
X112569200Y-86532754D01*
X112631710Y-86403733D01*
X112639770Y-86355830D01*
X112654862Y-86266124D01*
X112654862Y-86266120D01*
X112655496Y-86262354D01*
X112655647Y-86250000D01*
X112635323Y-86108082D01*
X112598189Y-86026409D01*
X112578905Y-85983996D01*
X112578904Y-85983995D01*
X112575984Y-85977572D01*
X112509626Y-85900560D01*
X112487005Y-85874307D01*
X112487004Y-85874306D01*
X112482400Y-85868963D01*
X112362095Y-85790985D01*
X112224739Y-85749907D01*
X112141497Y-85749398D01*
X112088427Y-85749074D01*
X112088426Y-85749074D01*
X112081376Y-85749031D01*
X112074599Y-85750968D01*
X112074598Y-85750968D01*
X111950309Y-85786490D01*
X111950307Y-85786491D01*
X111943529Y-85788428D01*
X111822280Y-85864930D01*
X111817612Y-85870216D01*
X111814090Y-85873213D01*
X111757521Y-85896529D01*
X111698052Y-85882142D01*
X111686311Y-85873502D01*
X111682400Y-85868963D01*
X111562095Y-85790985D01*
X111424739Y-85749907D01*
X111341497Y-85749398D01*
X111288427Y-85749074D01*
X111288426Y-85749074D01*
X111281376Y-85749031D01*
X111274599Y-85750968D01*
X111274598Y-85750968D01*
X111151705Y-85786091D01*
X111090559Y-85783902D01*
X111042377Y-85746190D01*
X111025500Y-85690902D01*
X111025500Y-85445734D01*
X111025877Y-85437106D01*
X111028508Y-85407028D01*
X111029263Y-85398401D01*
X111027022Y-85390038D01*
X111027022Y-85390035D01*
X111019206Y-85360864D01*
X111017337Y-85352436D01*
X111012092Y-85322693D01*
X111010588Y-85314163D01*
X111006257Y-85306662D01*
X111004258Y-85301168D01*
X111001795Y-85295886D01*
X110999554Y-85287524D01*
X110977259Y-85255683D01*
X110972636Y-85248427D01*
X110953194Y-85214753D01*
X110923435Y-85189782D01*
X110917067Y-85183948D01*
X109866061Y-84132943D01*
X109860226Y-84126575D01*
X109835247Y-84096806D01*
X109801584Y-84077371D01*
X109794303Y-84072732D01*
X109791848Y-84071013D01*
X109762476Y-84050446D01*
X109754108Y-84048204D01*
X109748821Y-84045738D01*
X109743336Y-84043742D01*
X109735837Y-84039412D01*
X109727311Y-84037909D01*
X109727309Y-84037908D01*
X109697576Y-84032666D01*
X109689141Y-84030796D01*
X109659966Y-84022978D01*
X109651599Y-84020736D01*
X109642970Y-84021491D01*
X109612887Y-84024123D01*
X109604258Y-84024500D01*
X107162231Y-84024500D01*
X107104040Y-84005593D01*
X107092228Y-83995504D01*
X106604497Y-83507774D01*
X106576719Y-83453257D01*
X106575500Y-83437770D01*
X106575500Y-82134329D01*
X106594407Y-82076138D01*
X106643907Y-82040174D01*
X106705093Y-82040174D01*
X106716652Y-82044751D01*
X106800660Y-82084283D01*
X106812416Y-82088102D01*
X106819599Y-82089472D01*
X106832830Y-82087800D01*
X106833018Y-82087624D01*
X106835000Y-82079903D01*
X106835000Y-82075115D01*
X107185000Y-82075115D01*
X107188521Y-82085950D01*
X107199911Y-82085950D01*
X107284750Y-82058384D01*
X107295930Y-82053124D01*
X107424933Y-81971256D01*
X107434452Y-81963382D01*
X107539036Y-81852010D01*
X107546304Y-81842006D01*
X107619907Y-81708124D01*
X107624455Y-81696636D01*
X107662452Y-81548647D01*
X107664000Y-81536395D01*
X107664000Y-81498041D01*
X115336000Y-81498041D01*
X115336390Y-81504229D01*
X115350731Y-81617755D01*
X115353805Y-81629727D01*
X115410048Y-81771782D01*
X115415999Y-81782607D01*
X115505806Y-81906216D01*
X115514262Y-81915221D01*
X115631986Y-82012609D01*
X115642419Y-82019231D01*
X115780660Y-82084283D01*
X115792416Y-82088102D01*
X115799599Y-82089472D01*
X115812830Y-82087800D01*
X115813018Y-82087624D01*
X115815000Y-82079903D01*
X115815000Y-82075115D01*
X116165000Y-82075115D01*
X116168521Y-82085950D01*
X116179911Y-82085950D01*
X116264750Y-82058384D01*
X116275930Y-82053124D01*
X116404933Y-81971256D01*
X116414452Y-81963382D01*
X116519036Y-81852010D01*
X116526304Y-81842006D01*
X116599907Y-81708124D01*
X116604455Y-81696636D01*
X116642452Y-81548647D01*
X116644000Y-81536395D01*
X116644000Y-81350680D01*
X116639878Y-81337995D01*
X116635757Y-81335000D01*
X116180680Y-81335000D01*
X116167995Y-81339122D01*
X116165000Y-81343243D01*
X116165000Y-82075115D01*
X115815000Y-82075115D01*
X115815000Y-81350680D01*
X115810878Y-81337995D01*
X115806757Y-81335000D01*
X115351680Y-81335000D01*
X115338995Y-81339122D01*
X115336000Y-81343243D01*
X115336000Y-81498041D01*
X107664000Y-81498041D01*
X107664000Y-81350680D01*
X107659878Y-81337995D01*
X107655757Y-81335000D01*
X107200680Y-81335000D01*
X107187995Y-81339122D01*
X107185000Y-81343243D01*
X107185000Y-82075115D01*
X106835000Y-82075115D01*
X106835000Y-81350680D01*
X106830878Y-81337995D01*
X106826757Y-81335000D01*
X106371680Y-81335000D01*
X106358995Y-81339122D01*
X106356000Y-81343243D01*
X106356000Y-81406666D01*
X106337093Y-81464857D01*
X106287593Y-81500821D01*
X106226407Y-81500821D01*
X106186996Y-81476670D01*
X105946259Y-81235933D01*
X105923654Y-81200923D01*
X105877454Y-81078659D01*
X105875345Y-81073077D01*
X105779312Y-80933349D01*
X105652721Y-80820560D01*
X105502881Y-80741224D01*
X105420661Y-80720571D01*
X105344231Y-80701373D01*
X105344228Y-80701373D01*
X105338441Y-80699919D01*
X105252841Y-80699471D01*
X105174861Y-80699062D01*
X105174859Y-80699062D01*
X105168895Y-80699031D01*
X105163099Y-80700423D01*
X105163095Y-80700423D01*
X105055703Y-80726207D01*
X105004032Y-80738612D01*
X104928701Y-80777493D01*
X104858675Y-80813636D01*
X104858673Y-80813638D01*
X104853369Y-80816375D01*
X104725604Y-80927831D01*
X104628113Y-81066547D01*
X104566524Y-81224513D01*
X104565745Y-81230428D01*
X104565745Y-81230429D01*
X104560737Y-81268474D01*
X104544394Y-81392611D01*
X104545049Y-81398544D01*
X104545049Y-81398548D01*
X104561620Y-81548647D01*
X104562999Y-81561135D01*
X104621266Y-81720356D01*
X104715830Y-81861083D01*
X104827374Y-81962580D01*
X104857687Y-82015725D01*
X104850973Y-82076541D01*
X104825824Y-82110404D01*
X104725604Y-82197831D01*
X104652094Y-82302426D01*
X104603165Y-82339162D01*
X104571097Y-82344500D01*
X104348535Y-82344500D01*
X104339906Y-82344123D01*
X104301194Y-82340736D01*
X104292830Y-82342977D01*
X104263651Y-82350795D01*
X104255222Y-82352664D01*
X104241108Y-82355153D01*
X104216955Y-82359412D01*
X104209454Y-82363743D01*
X104203964Y-82365741D01*
X104198683Y-82368204D01*
X104190316Y-82370446D01*
X104160944Y-82391013D01*
X104158489Y-82392732D01*
X104151208Y-82397371D01*
X104117545Y-82416806D01*
X104111978Y-82423441D01*
X104092569Y-82446571D01*
X104086735Y-82452939D01*
X103869504Y-82670170D01*
X103814987Y-82697947D01*
X103754555Y-82688376D01*
X103711290Y-82645111D01*
X103700500Y-82600166D01*
X103700500Y-80534281D01*
X103703057Y-80511926D01*
X103703141Y-80511565D01*
X103705655Y-80500718D01*
X103705656Y-80500000D01*
X103704658Y-80495626D01*
X103705242Y-80470062D01*
X103712706Y-80422934D01*
X103722277Y-80393479D01*
X103750579Y-80337932D01*
X103768785Y-80312872D01*
X103812872Y-80268785D01*
X103837932Y-80250579D01*
X103893479Y-80222277D01*
X103922935Y-80212706D01*
X103975501Y-80204381D01*
X103989391Y-80203299D01*
X103999641Y-80205656D01*
X104010522Y-80203194D01*
X104010793Y-80203133D01*
X104011641Y-80202941D01*
X104033488Y-80200500D01*
X106503378Y-80200500D01*
X106561569Y-80219407D01*
G37*
%TD.AperFunction*%
%TA.AperFunction,Conductor*%
G36*
X104630164Y-83014407D02*
G01*
X104654143Y-83039282D01*
X104715830Y-83131083D01*
X104827374Y-83232580D01*
X104857687Y-83285725D01*
X104850973Y-83346541D01*
X104825824Y-83380404D01*
X104725604Y-83467831D01*
X104722173Y-83472713D01*
X104722172Y-83472714D01*
X104633143Y-83599390D01*
X104628113Y-83606547D01*
X104566524Y-83764513D01*
X104544394Y-83932611D01*
X104545049Y-83938544D01*
X104545049Y-83938548D01*
X104562043Y-84092477D01*
X104562999Y-84101135D01*
X104621266Y-84260356D01*
X104715830Y-84401083D01*
X104720242Y-84405098D01*
X104720245Y-84405101D01*
X104785214Y-84464218D01*
X104815529Y-84517365D01*
X104808815Y-84578181D01*
X104782484Y-84611703D01*
X104782854Y-84612080D01*
X104779968Y-84614906D01*
X104779540Y-84615451D01*
X104778905Y-84615947D01*
X104665948Y-84726563D01*
X104658997Y-84735086D01*
X104573358Y-84867972D01*
X104568467Y-84877826D01*
X104515030Y-85024642D01*
X104516537Y-85032546D01*
X104517946Y-85033869D01*
X104523004Y-85035000D01*
X105971834Y-85035000D01*
X105982307Y-85031597D01*
X105982182Y-85019688D01*
X105936104Y-84887373D01*
X105931352Y-84877454D01*
X105847575Y-84743381D01*
X105840746Y-84734765D01*
X105729349Y-84622589D01*
X105719479Y-84614652D01*
X105685978Y-84563453D01*
X105688970Y-84502340D01*
X105717220Y-84462220D01*
X105764887Y-84421508D01*
X105769423Y-84417634D01*
X105779980Y-84402942D01*
X105829289Y-84366719D01*
X105890473Y-84366397D01*
X105930381Y-84390707D01*
X106556731Y-85017057D01*
X106562565Y-85023424D01*
X106587545Y-85053194D01*
X106621205Y-85072627D01*
X106628489Y-85077268D01*
X106660316Y-85099554D01*
X106668684Y-85101796D01*
X106673971Y-85104262D01*
X106679456Y-85106258D01*
X106686955Y-85110588D01*
X106695483Y-85112092D01*
X106695484Y-85112092D01*
X106705501Y-85113858D01*
X106759525Y-85142582D01*
X106786348Y-85197574D01*
X106775725Y-85257830D01*
X106758316Y-85281358D01*
X105964098Y-86075576D01*
X105909581Y-86103353D01*
X105849149Y-86093782D01*
X105812507Y-86061648D01*
X105779312Y-86013349D01*
X105715160Y-85956191D01*
X105684290Y-85903363D01*
X105690368Y-85842481D01*
X105712746Y-85810581D01*
X105827240Y-85701549D01*
X105834317Y-85693116D01*
X105921800Y-85561443D01*
X105926828Y-85551661D01*
X105982969Y-85403868D01*
X105984330Y-85398568D01*
X105982360Y-85387392D01*
X105981235Y-85386306D01*
X105975577Y-85385000D01*
X104529226Y-85385000D01*
X104518510Y-85388482D01*
X104518551Y-85400044D01*
X104559458Y-85523016D01*
X104564072Y-85533003D01*
X104645967Y-85668226D01*
X104652678Y-85676941D01*
X104762497Y-85790663D01*
X104770970Y-85797672D01*
X104773366Y-85799240D01*
X104774361Y-85800477D01*
X104775238Y-85801203D01*
X104775089Y-85801383D01*
X104811705Y-85846924D01*
X104814694Y-85908036D01*
X104784238Y-85956682D01*
X104725604Y-86007831D01*
X104722173Y-86012713D01*
X104722172Y-86012714D01*
X104650238Y-86115066D01*
X104628113Y-86146547D01*
X104566524Y-86304513D01*
X104544394Y-86472611D01*
X104545049Y-86478544D01*
X104545049Y-86478548D01*
X104562344Y-86635204D01*
X104562999Y-86641135D01*
X104621266Y-86800356D01*
X104624591Y-86805305D01*
X104624592Y-86805306D01*
X104640691Y-86829264D01*
X104715830Y-86941083D01*
X104827374Y-87042580D01*
X104857687Y-87095725D01*
X104850973Y-87156541D01*
X104825824Y-87190404D01*
X104725604Y-87277831D01*
X104722173Y-87282713D01*
X104722172Y-87282714D01*
X104631544Y-87411665D01*
X104628113Y-87416547D01*
X104566524Y-87574513D01*
X104544394Y-87742611D01*
X104545049Y-87748544D01*
X104545049Y-87748548D01*
X104562344Y-87905204D01*
X104562999Y-87911135D01*
X104621266Y-88070356D01*
X104624591Y-88075304D01*
X104702963Y-88191935D01*
X104719724Y-88250779D01*
X104698697Y-88308238D01*
X104670681Y-88329504D01*
X104671769Y-88331133D01*
X104605448Y-88375448D01*
X104561133Y-88441769D01*
X104549500Y-88500252D01*
X104549500Y-89219166D01*
X104530593Y-89277357D01*
X104520504Y-89289170D01*
X104344504Y-89465170D01*
X104289987Y-89492947D01*
X104229555Y-89483376D01*
X104186290Y-89440111D01*
X104175500Y-89395166D01*
X104175500Y-83325834D01*
X104194407Y-83267643D01*
X104204496Y-83255830D01*
X104435830Y-83024496D01*
X104490347Y-82996719D01*
X104505834Y-82995500D01*
X104571973Y-82995500D01*
X104630164Y-83014407D01*
G37*
%TD.AperFunction*%
%TD*%
M02*
