M48
; DRILL file {KiCad (6.0.8)} date So 30 Okt 2022 16:36:14 CET
; FORMAT={-:-/ absolute / inch / decimal}
; #@! TF.CreationDate,2022-10-30T16:36:14+01:00
; #@! TF.GenerationSoftware,Kicad,Pcbnew,(6.0.8)
; #@! TF.FileFunction,Plated,1,2,PTH
FMAT,2
INCH
; #@! TA.AperFunction,Plated,PTH,ViaDrill
T1C0.0118
; #@! TA.AperFunction,Plated,PTH,ViaDrill
T2C0.0157
; #@! TA.AperFunction,Plated,PTH,ComponentDrill
T3C0.0197
; #@! TA.AperFunction,Plated,PTH,ComponentDrill
T4C0.0256
; #@! TA.AperFunction,Plated,PTH,ComponentDrill
T5C0.0394
%
G90
G05
T1
X4.1142Y-4.2717
X4.1142Y-4.3307
X4.1417Y-3.7303
X4.1437Y-3.5342
X4.1535Y-3.8583
X4.1535Y-3.9272
X4.1535Y-3.9862
X4.1535Y-4.0453
X4.1535Y-4.1043
X4.1654Y-3.7303
X4.1831Y-3.5335
X4.2126Y-3.2873
X4.2224Y-3.5335
X4.2224Y-3.8051
X4.2224Y-3.8327
X4.2224Y-3.8799
X4.2224Y-3.9075
X4.2224Y-4.124
X4.2717Y-3.2874
X4.2913Y-3.6319
X4.3012Y-4.0453
X4.3012Y-4.0846
X4.3012Y-4.124
X4.3031Y-3.6614
X4.3307Y-3.2874
X4.3307Y-3.6929
X4.3307Y-3.8681
X4.3307Y-3.9469
X4.3307Y-3.9764
X4.3346Y-3.6611
X4.3415Y-3.8189
X4.3602Y-3.8386
X4.3701Y-3.7992
X4.3839Y-3.3957
X4.3839Y-3.563
X4.3839Y-3.6713
X4.3898Y-3.2874
X4.3898Y-4.0157
X4.3898Y-4.2717
X4.3898Y-4.3307
X4.3996Y-3.9075
X4.3996Y-3.9665
X4.4094Y-3.7992
X4.4094Y-3.8386
X4.4154Y-3.3957
X4.4154Y-3.563
X4.4154Y-3.6713
X4.4193Y-4.0157
X4.4291Y-3.9075
X4.4291Y-3.9665
X4.4331Y-4.2421
X4.4449Y-3.541
X4.4488Y-3.2874
X4.4488Y-3.7992
X4.4488Y-3.8386
X4.4488Y-4.0157
X4.4685Y-3.3858
X4.4783Y-4.2717
X4.4783Y-4.311
X4.4783Y-4.3504
X4.4882Y-3.622
X4.4882Y-3.7992
X4.4882Y-3.8976
X4.5078Y-3.2874
X4.5079Y-3.9764
X4.5177Y-3.8681
X4.5276Y-4.0157
X4.5472Y-3.622
X4.5472Y-3.8386
X4.5472Y-3.8976
X4.5472Y-3.9764
X4.5571Y-4.3307
X4.5669Y-3.2874
X4.5768Y-3.5492
X4.5866Y-3.7205
X4.5866Y-3.7598
X4.5866Y-4.0453
X4.5866Y-4.0846
X4.6063Y-3.5492
X4.6063Y-3.622
X4.6831Y-3.2776
X4.6831Y-3.3366
X4.6831Y-3.3957
X4.6831Y-3.4547
X4.685Y-4.3602
X4.6852Y-3.4861
X4.6855Y-3.5183
X4.8524Y-3.9469
T2
X4.7933Y-3.9567
X4.8524Y-4.0157
X4.8524Y-4.0748
T4
X4.1309Y-3.1949
X4.1309Y-3.2449
X4.1309Y-3.2949
X4.1309Y-3.3449
X4.1309Y-3.3949
X4.1309Y-3.4449
X4.1309Y-3.4949
T5
X4.6555Y-3.1988
T3
G00X4.213Y-3.2071
M15
G01X4.213Y-3.1835
M16
G05
G00X4.2272Y-3.4413
M15
G01X4.2272Y-3.4177
M16
G05
G00X4.5524Y-3.4413
M15
G01X4.5524Y-3.4177
M16
G05
G00X4.5665Y-3.2071
M15
G01X4.5665Y-3.1835
M16
G05
T0
M30
