%TF.GenerationSoftware,KiCad,Pcbnew,(6.0.7)*%
%TF.CreationDate,2022-10-02T17:25:08+02:00*%
%TF.ProjectId,k1-aioc,6b312d61-696f-4632-9e6b-696361645f70,rev?*%
%TF.SameCoordinates,Original*%
%TF.FileFunction,Copper,L2,Bot*%
%TF.FilePolarity,Positive*%
%FSLAX46Y46*%
G04 Gerber Fmt 4.6, Leading zero omitted, Abs format (unit mm)*
G04 Created by KiCad (PCBNEW (6.0.7)) date 2022-10-02 17:25:08*
%MOMM*%
%LPD*%
G01*
G04 APERTURE LIST*
%TA.AperFunction,ComponentPad*%
%ADD10O,0.800000X1.400000*%
%TD*%
%TA.AperFunction,ComponentPad*%
%ADD11R,1.000000X1.000000*%
%TD*%
%TA.AperFunction,ComponentPad*%
%ADD12O,1.000000X1.000000*%
%TD*%
%TA.AperFunction,ViaPad*%
%ADD13C,0.800000*%
%TD*%
%TA.AperFunction,ViaPad*%
%ADD14C,0.600000*%
%TD*%
%TA.AperFunction,Conductor*%
%ADD15C,0.250000*%
%TD*%
%TA.AperFunction,Conductor*%
%ADD16C,0.500000*%
%TD*%
G04 APERTURE END LIST*
D10*
%TO.P,J1,S1,SHIELD*%
%TO.N,GND*%
X107370000Y-87110000D03*
X107010000Y-81160000D03*
X115630000Y-87110000D03*
X115990000Y-81160000D03*
%TD*%
D11*
%TO.P,J2,1,Pin_1*%
%TO.N,+3V3*%
X105250000Y-89020000D03*
D12*
%TO.P,J2,2,Pin_2*%
%TO.N,/BOOT0*%
X105250000Y-87750000D03*
%TO.P,J2,3,Pin_3*%
%TO.N,/NRST*%
X105250000Y-86480000D03*
%TO.P,J2,4,Pin_4*%
%TO.N,/SWCLK*%
X105250000Y-85210000D03*
%TO.P,J2,5,Pin_5*%
%TO.N,/SWDIO*%
X105250000Y-83940000D03*
%TO.P,J2,6,Pin_6*%
%TO.N,GND*%
X105250000Y-82670000D03*
%TD*%
D13*
%TO.N,GND*%
X123250000Y-101500000D03*
D14*
X116500000Y-103750000D03*
D13*
X123250000Y-100000000D03*
X121750000Y-100000000D03*
D14*
X105000000Y-99550000D03*
X109000000Y-86250000D03*
X107250000Y-94250000D03*
X115500000Y-97500000D03*
X113000000Y-83750000D03*
X117750000Y-81500000D03*
X105500000Y-94250000D03*
X106250000Y-90000000D03*
X104500000Y-109000000D03*
X114242052Y-88160946D03*
X116500000Y-94500000D03*
X104500000Y-108000000D03*
X115000000Y-102000000D03*
X116500000Y-102750000D03*
X113000000Y-96500000D03*
X110000000Y-100250000D03*
X109250000Y-103750000D03*
X112250000Y-102000000D03*
X108250000Y-90000000D03*
X111500000Y-108000000D03*
X105500000Y-102750000D03*
X110250000Y-93500000D03*
X108750000Y-92250000D03*
X112000000Y-97500000D03*
X107250000Y-103750000D03*
X110000000Y-98250000D03*
X114000000Y-99000000D03*
X116000000Y-83750000D03*
X113750000Y-110500000D03*
X109250000Y-102750000D03*
X114500000Y-101000000D03*
X113750000Y-109500000D03*
X105750000Y-99550000D03*
X110000000Y-101000000D03*
X104500000Y-110000000D03*
X116950000Y-90150000D03*
X114000000Y-92000000D03*
X113000000Y-97500000D03*
X113000000Y-102000000D03*
X107244081Y-89993004D03*
X111500000Y-109000000D03*
X107000000Y-83750000D03*
X107250000Y-104750000D03*
X105500000Y-95000000D03*
X105500000Y-104250000D03*
X116500000Y-95500000D03*
X111500000Y-110000000D03*
X114750000Y-98250000D03*
X107750000Y-92250000D03*
X115750000Y-110000000D03*
X114000000Y-96500000D03*
X116250000Y-90150000D03*
X113750000Y-108500000D03*
X114499130Y-83749207D03*
X114500000Y-86250000D03*
X112000000Y-96500000D03*
X108500000Y-83750000D03*
X109000000Y-88166813D03*
X111500000Y-83750000D03*
X105500000Y-101250000D03*
X115500000Y-99000000D03*
X111000000Y-96500000D03*
X115500000Y-101000000D03*
X111500000Y-102000000D03*
X109250000Y-104750000D03*
X115500000Y-92000000D03*
X117750000Y-88000000D03*
X110000000Y-83750000D03*
%TO.N,/SWCLK*%
X109500000Y-92750000D03*
%TO.N,/SWDIO*%
X110502825Y-92741525D03*
%TO.N,/USB-DP*%
X111350000Y-86250000D03*
X111350000Y-90500000D03*
X111350000Y-92750000D03*
%TO.N,/USB-DN*%
X112150000Y-86250000D03*
X112150000Y-90500000D03*
X112150000Y-92750000D03*
%TO.N,+3V3*%
X110000000Y-96750000D03*
X110500000Y-97250000D03*
X105500000Y-96000000D03*
X107250000Y-97250000D03*
X107250000Y-96500000D03*
%TO.N,+3.3VA*%
X107250000Y-98250000D03*
X111750000Y-99250000D03*
X112500000Y-99250000D03*
X107250000Y-99000000D03*
X111750000Y-100750000D03*
X112500000Y-100750000D03*
%TO.N,Net-(J1-PadA5)*%
X113750000Y-85750000D03*
X112899500Y-89942499D03*
%TO.N,/RADIO-RX-PTT1*%
X118750000Y-109500000D03*
X119550000Y-89350000D03*
%TO.N,/RADIO-TX*%
X118950000Y-88750000D03*
D13*
X118776040Y-98783914D03*
D14*
%TO.N,/NRST*%
X112600000Y-107750000D03*
%TO.N,/BOOT0*%
X106550000Y-99550000D03*
%TD*%
D15*
%TO.N,/RADIO-TX*%
X118776040Y-98783914D02*
X120059954Y-97500000D01*
X123100000Y-97500000D02*
X123550000Y-97050000D01*
X120059954Y-97500000D02*
X123100000Y-97500000D01*
X123550000Y-97050000D02*
X123550000Y-91086396D01*
X123550000Y-91086396D02*
X122963604Y-90500000D01*
X122963604Y-90500000D02*
X119816116Y-90500000D01*
X119816116Y-90500000D02*
X118925000Y-89608884D01*
X118925000Y-89608884D02*
X118925000Y-88775000D01*
X118925000Y-88775000D02*
X118950000Y-88750000D01*
%TO.N,/RADIO-RX-PTT1*%
X119550000Y-89350000D02*
X119550000Y-89597488D01*
X119550000Y-89597488D02*
X119952512Y-90000000D01*
X124000000Y-103025000D02*
X123525000Y-103500000D01*
X119952512Y-90000000D02*
X123100000Y-90000000D01*
X123525000Y-103500000D02*
X123000000Y-103500000D01*
X123100000Y-90000000D02*
X124000000Y-90900000D01*
X124000000Y-90900000D02*
X124000000Y-103025000D01*
X118750000Y-109500000D02*
X118750000Y-108750000D01*
%TO.N,/SWCLK*%
X109750000Y-92500000D02*
X109750000Y-85750000D01*
X109210000Y-85210000D02*
X105250000Y-85210000D01*
X109750000Y-85750000D02*
X109210000Y-85210000D01*
X109500000Y-92750000D02*
X109750000Y-92500000D01*
%TO.N,/SWDIO*%
X110250000Y-92500000D02*
X110250000Y-85613604D01*
X106500000Y-84750000D02*
X105690000Y-83940000D01*
X110261300Y-92500000D02*
X110250000Y-92500000D01*
X110502825Y-92741525D02*
X110261300Y-92500000D01*
X110250000Y-85613604D02*
X109386396Y-84750000D01*
X109386396Y-84750000D02*
X106500000Y-84750000D01*
X105690000Y-83940000D02*
X105000000Y-83940000D01*
D16*
%TO.N,/USB-DP*%
X111400000Y-92700000D02*
X111350000Y-92750000D01*
X111350000Y-86250000D02*
X111400000Y-86300000D01*
X111400000Y-86300000D02*
X111400000Y-92700000D01*
%TO.N,/USB-DN*%
X112150000Y-86250000D02*
X112100000Y-86300000D01*
X112100000Y-86300000D02*
X112100000Y-92700000D01*
X112100000Y-92700000D02*
X112150000Y-92750000D01*
D15*
%TO.N,+3V3*%
X104775000Y-90250000D02*
X104775000Y-95000000D01*
D16*
X107250000Y-97250000D02*
X107250000Y-96500000D01*
D15*
X104775000Y-95000000D02*
X104775000Y-95775000D01*
D16*
X110500000Y-97250000D02*
X110000000Y-96750000D01*
D15*
X104775000Y-95775000D02*
X105000000Y-96000000D01*
X105000000Y-96000000D02*
X105500000Y-96000000D01*
D16*
X109750000Y-96500000D02*
X110500000Y-97250000D01*
D15*
X105250000Y-89775000D02*
X104775000Y-90250000D01*
X105250000Y-89020000D02*
X105250000Y-89775000D01*
D16*
X107250000Y-96500000D02*
X109750000Y-96500000D01*
%TO.N,+3.3VA*%
X107500000Y-99250000D02*
X107250000Y-99000000D01*
X112500000Y-99250000D02*
X112500000Y-100750000D01*
X111750000Y-99250000D02*
X107500000Y-99250000D01*
X112100000Y-99250000D02*
X112100000Y-100750000D01*
X111750000Y-99250000D02*
X112250000Y-99250000D01*
X107250000Y-99000000D02*
X107250000Y-98250000D01*
X111750000Y-99250000D02*
X111750000Y-100750000D01*
X112250000Y-99250000D02*
X112500000Y-99250000D01*
D15*
%TO.N,Net-(J1-PadA5)*%
X113250000Y-89591999D02*
X112899500Y-89942499D01*
X113250000Y-86250000D02*
X113250000Y-89591999D01*
X113750000Y-85750000D02*
X113250000Y-86250000D01*
%TO.N,/NRST*%
X112600000Y-107750000D02*
X112600000Y-110600000D01*
X103850000Y-110483884D02*
X103850000Y-87630000D01*
X112075000Y-111125000D02*
X104491116Y-111125000D01*
X112600000Y-110600000D02*
X112075000Y-111125000D01*
X103850000Y-87630000D02*
X105000000Y-86480000D01*
X104491116Y-111125000D02*
X103850000Y-110483884D01*
%TO.N,/BOOT0*%
X104575000Y-100175000D02*
X104325000Y-99925000D01*
X104325000Y-99925000D02*
X104325000Y-97325000D01*
X106550000Y-99550000D02*
X106550000Y-99950000D01*
X104575000Y-87750000D02*
X105250000Y-87750000D01*
X106550000Y-99950000D02*
X106325000Y-100175000D01*
X106325000Y-100175000D02*
X104575000Y-100175000D01*
X104325000Y-88000000D02*
X104575000Y-87750000D01*
X104325000Y-97325000D02*
X104325000Y-88000000D01*
%TD*%
%TA.AperFunction,Conductor*%
%TO.N,GND*%
G36*
X122762170Y-91002421D02*
G01*
X122786073Y-91007175D01*
X122821091Y-91014141D01*
X122866510Y-91032954D01*
X122886329Y-91046196D01*
X122905939Y-91059300D01*
X122940700Y-91094061D01*
X122967045Y-91133488D01*
X122985860Y-91178911D01*
X122997579Y-91237830D01*
X123000000Y-91262410D01*
X123000000Y-96737590D01*
X122997579Y-96762170D01*
X122985860Y-96821089D01*
X122967045Y-96866512D01*
X122940700Y-96905939D01*
X122905939Y-96940700D01*
X122886329Y-96953804D01*
X122866510Y-96967046D01*
X122821091Y-96985859D01*
X122786073Y-96992825D01*
X122762170Y-96997579D01*
X122737590Y-97000000D01*
X117762410Y-97000000D01*
X117737830Y-96997579D01*
X117713927Y-96992825D01*
X117678909Y-96985859D01*
X117633490Y-96967046D01*
X117613671Y-96953804D01*
X117594061Y-96940700D01*
X117559300Y-96905939D01*
X117532955Y-96866512D01*
X117514140Y-96821089D01*
X117502421Y-96762170D01*
X117500000Y-96737590D01*
X117500000Y-91262410D01*
X117502421Y-91237830D01*
X117514140Y-91178911D01*
X117532955Y-91133488D01*
X117559300Y-91094061D01*
X117594061Y-91059300D01*
X117613671Y-91046196D01*
X117633490Y-91032954D01*
X117678909Y-91014141D01*
X117713927Y-91007175D01*
X117737830Y-91002421D01*
X117762410Y-91000000D01*
X122737590Y-91000000D01*
X122762170Y-91002421D01*
G37*
%TD.AperFunction*%
%TD*%
%TA.AperFunction,Conductor*%
%TO.N,/RADIO-RX-PTT1*%
G36*
X123012170Y-103002421D02*
G01*
X123036073Y-103007175D01*
X123071091Y-103014141D01*
X123116510Y-103032954D01*
X123136329Y-103046196D01*
X123155939Y-103059300D01*
X123190700Y-103094061D01*
X123217045Y-103133488D01*
X123235860Y-103178911D01*
X123247579Y-103237830D01*
X123250000Y-103262410D01*
X123250000Y-108737590D01*
X123247579Y-108762170D01*
X123235860Y-108821089D01*
X123217045Y-108866512D01*
X123190700Y-108905939D01*
X123155939Y-108940700D01*
X123136329Y-108953804D01*
X123116510Y-108967046D01*
X123071091Y-108985859D01*
X123036073Y-108992825D01*
X123012170Y-108997579D01*
X122987590Y-109000000D01*
X117762410Y-109000000D01*
X117737830Y-108997579D01*
X117713927Y-108992825D01*
X117678909Y-108985859D01*
X117633490Y-108967046D01*
X117613671Y-108953804D01*
X117594061Y-108940700D01*
X117559300Y-108905939D01*
X117532955Y-108866512D01*
X117514140Y-108821089D01*
X117502421Y-108762170D01*
X117500000Y-108737590D01*
X117500000Y-103262410D01*
X117502421Y-103237830D01*
X117514140Y-103178911D01*
X117532955Y-103133488D01*
X117559300Y-103094061D01*
X117594061Y-103059300D01*
X117613671Y-103046196D01*
X117633490Y-103032954D01*
X117678909Y-103014141D01*
X117713927Y-103007175D01*
X117737830Y-103002421D01*
X117762410Y-103000000D01*
X122987590Y-103000000D01*
X123012170Y-103002421D01*
G37*
%TD.AperFunction*%
%TD*%
%TA.AperFunction,Conductor*%
%TO.N,GND*%
G36*
X106561569Y-80219407D02*
G01*
X106597533Y-80268907D01*
X106597533Y-80330093D01*
X106575546Y-80367270D01*
X106480964Y-80467990D01*
X106473696Y-80477994D01*
X106400093Y-80611876D01*
X106395545Y-80623364D01*
X106357548Y-80771353D01*
X106356000Y-80783605D01*
X106356000Y-80969320D01*
X106360122Y-80982005D01*
X106364243Y-80985000D01*
X107648320Y-80985000D01*
X107661005Y-80980878D01*
X107664000Y-80976757D01*
X107664000Y-80821959D01*
X107663610Y-80815771D01*
X107649269Y-80702245D01*
X107646195Y-80690273D01*
X107589952Y-80548218D01*
X107584001Y-80537393D01*
X107494194Y-80413784D01*
X107485738Y-80404779D01*
X107450685Y-80375781D01*
X107417900Y-80324120D01*
X107421742Y-80263055D01*
X107460743Y-80215911D01*
X107513790Y-80200500D01*
X115483378Y-80200500D01*
X115541569Y-80219407D01*
X115577533Y-80268907D01*
X115577533Y-80330093D01*
X115555546Y-80367270D01*
X115460964Y-80467990D01*
X115453696Y-80477994D01*
X115380093Y-80611876D01*
X115375545Y-80623364D01*
X115337548Y-80771353D01*
X115336000Y-80783605D01*
X115336000Y-80969320D01*
X115340122Y-80982005D01*
X115344243Y-80985000D01*
X116628320Y-80985000D01*
X116641005Y-80980878D01*
X116644000Y-80976757D01*
X116644000Y-80821959D01*
X116643610Y-80815771D01*
X116629269Y-80702245D01*
X116626195Y-80690273D01*
X116569952Y-80548218D01*
X116564001Y-80537393D01*
X116474194Y-80413784D01*
X116465738Y-80404779D01*
X116430685Y-80375781D01*
X116397900Y-80324120D01*
X116401742Y-80263055D01*
X116440743Y-80215911D01*
X116493790Y-80200500D01*
X118965983Y-80200500D01*
X118988169Y-80203018D01*
X118988776Y-80203158D01*
X118988778Y-80203158D01*
X118999641Y-80205656D01*
X119010227Y-80203261D01*
X119024697Y-80204413D01*
X119077063Y-80212706D01*
X119106518Y-80222275D01*
X119162071Y-80250581D01*
X119187128Y-80268785D01*
X119231215Y-80312872D01*
X119249421Y-80337932D01*
X119277723Y-80393479D01*
X119287294Y-80422935D01*
X119294758Y-80470058D01*
X119295619Y-80475497D01*
X119296701Y-80489391D01*
X119294344Y-80499641D01*
X119296804Y-80510513D01*
X119297059Y-80511638D01*
X119299500Y-80533488D01*
X119299500Y-88200775D01*
X119280593Y-88258966D01*
X119231093Y-88294930D01*
X119169907Y-88294930D01*
X119165542Y-88293219D01*
X119162095Y-88290985D01*
X119155337Y-88288964D01*
X119155335Y-88288963D01*
X119031500Y-88251929D01*
X119024739Y-88249907D01*
X118941497Y-88249398D01*
X118888427Y-88249074D01*
X118888426Y-88249074D01*
X118881376Y-88249031D01*
X118874599Y-88250968D01*
X118874598Y-88250968D01*
X118750309Y-88286490D01*
X118750307Y-88286491D01*
X118743529Y-88288428D01*
X118622280Y-88364930D01*
X118617613Y-88370214D01*
X118617611Y-88370216D01*
X118532044Y-88467103D01*
X118532042Y-88467105D01*
X118527377Y-88472388D01*
X118466447Y-88602163D01*
X118465362Y-88609132D01*
X118465361Y-88609135D01*
X118458161Y-88655379D01*
X118444391Y-88743823D01*
X118445306Y-88750820D01*
X118445306Y-88750821D01*
X118458263Y-88849907D01*
X118462980Y-88885979D01*
X118465821Y-88892435D01*
X118465821Y-88892436D01*
X118484584Y-88935077D01*
X118520720Y-89017203D01*
X118571466Y-89077572D01*
X118576283Y-89083303D01*
X118599253Y-89140013D01*
X118599500Y-89147005D01*
X118599500Y-89590350D01*
X118599123Y-89598979D01*
X118595736Y-89637691D01*
X118597978Y-89646058D01*
X118605796Y-89675233D01*
X118607666Y-89683668D01*
X118612786Y-89712706D01*
X118614412Y-89721929D01*
X118618742Y-89729428D01*
X118620738Y-89734913D01*
X118623204Y-89740200D01*
X118625446Y-89748568D01*
X118646013Y-89777940D01*
X118647732Y-89780395D01*
X118652371Y-89787676D01*
X118671806Y-89821339D01*
X118681452Y-89829433D01*
X118701570Y-89846314D01*
X118707938Y-89852149D01*
X119186785Y-90330997D01*
X119214562Y-90385513D01*
X119204991Y-90445945D01*
X119161726Y-90489210D01*
X119116781Y-90500000D01*
X117000000Y-90500000D01*
X117000000Y-93250000D01*
X117500000Y-93250000D01*
X117500000Y-94750000D01*
X117000000Y-94750000D01*
X117000000Y-97500000D01*
X119360620Y-97500000D01*
X119418811Y-97518907D01*
X119454775Y-97568407D01*
X119454775Y-97629593D01*
X119430624Y-97669004D01*
X118939007Y-98160621D01*
X118884490Y-98188398D01*
X118856085Y-98188770D01*
X118776040Y-98178232D01*
X118619278Y-98198870D01*
X118473199Y-98259378D01*
X118347758Y-98355632D01*
X118251504Y-98481073D01*
X118190996Y-98627152D01*
X118170358Y-98783914D01*
X118190996Y-98940676D01*
X118251504Y-99086755D01*
X118347758Y-99212196D01*
X118473199Y-99308450D01*
X118619278Y-99368958D01*
X118776040Y-99389596D01*
X118932802Y-99368958D01*
X119078881Y-99308450D01*
X119204322Y-99212196D01*
X119300576Y-99086755D01*
X119361084Y-98940676D01*
X119381722Y-98783914D01*
X119371184Y-98703872D01*
X119382334Y-98643713D01*
X119399333Y-98620947D01*
X120165784Y-97854496D01*
X120220301Y-97826719D01*
X120235788Y-97825500D01*
X123081466Y-97825500D01*
X123090095Y-97825877D01*
X123128807Y-97829264D01*
X123138305Y-97826719D01*
X123166349Y-97819204D01*
X123174784Y-97817334D01*
X123204517Y-97812092D01*
X123204519Y-97812091D01*
X123213045Y-97810588D01*
X123220544Y-97806258D01*
X123226029Y-97804262D01*
X123231316Y-97801796D01*
X123239684Y-97799554D01*
X123271511Y-97777268D01*
X123278795Y-97772627D01*
X123312455Y-97753194D01*
X123337431Y-97723429D01*
X123343265Y-97717061D01*
X123505496Y-97554830D01*
X123560013Y-97527053D01*
X123620445Y-97536624D01*
X123663710Y-97579889D01*
X123674500Y-97624834D01*
X123674500Y-102849166D01*
X123655593Y-102907357D01*
X123645504Y-102919169D01*
X123577384Y-102987290D01*
X123575207Y-102989467D01*
X123520691Y-103017245D01*
X123460259Y-103007674D01*
X123422890Y-102974468D01*
X123406465Y-102949888D01*
X123374194Y-102910567D01*
X123339433Y-102875806D01*
X123300111Y-102843535D01*
X123298085Y-102842181D01*
X123262697Y-102818535D01*
X123262691Y-102818532D01*
X123260682Y-102817189D01*
X123215816Y-102793207D01*
X123194414Y-102784342D01*
X123172638Y-102775322D01*
X123172634Y-102775320D01*
X123170397Y-102774394D01*
X123168088Y-102773694D01*
X123168078Y-102773690D01*
X123124041Y-102760332D01*
X123124036Y-102760331D01*
X123121716Y-102759627D01*
X123115733Y-102758437D01*
X123063962Y-102748139D01*
X123063957Y-102748138D01*
X123062795Y-102747907D01*
X123037606Y-102744171D01*
X123017515Y-102742192D01*
X123014245Y-102741870D01*
X123014242Y-102741870D01*
X123013026Y-102741750D01*
X123011832Y-102741691D01*
X123011814Y-102741690D01*
X123000703Y-102741144D01*
X122987590Y-102740500D01*
X117762410Y-102740500D01*
X117749297Y-102741144D01*
X117738186Y-102741690D01*
X117738168Y-102741691D01*
X117736974Y-102741750D01*
X117735758Y-102741870D01*
X117735755Y-102741870D01*
X117732485Y-102742192D01*
X117712394Y-102744171D01*
X117687205Y-102747907D01*
X117686043Y-102748138D01*
X117686038Y-102748139D01*
X117634267Y-102758437D01*
X117628284Y-102759627D01*
X117625964Y-102760331D01*
X117625959Y-102760332D01*
X117581922Y-102773690D01*
X117581912Y-102773694D01*
X117579603Y-102774394D01*
X117577366Y-102775320D01*
X117577362Y-102775322D01*
X117555586Y-102784342D01*
X117534184Y-102793207D01*
X117489318Y-102817189D01*
X117487309Y-102818532D01*
X117487303Y-102818535D01*
X117451915Y-102842181D01*
X117449889Y-102843535D01*
X117410567Y-102875806D01*
X117375806Y-102910567D01*
X117343535Y-102949888D01*
X117317190Y-102989315D01*
X117293209Y-103034181D01*
X117274394Y-103079604D01*
X117259626Y-103128288D01*
X117247907Y-103187207D01*
X117244171Y-103212394D01*
X117241750Y-103236974D01*
X117240500Y-103262410D01*
X117240500Y-108737590D01*
X117241750Y-108763026D01*
X117244171Y-108787606D01*
X117247907Y-108812793D01*
X117259626Y-108871712D01*
X117274394Y-108920396D01*
X117293209Y-108965819D01*
X117317190Y-109010685D01*
X117343535Y-109050112D01*
X117375806Y-109089433D01*
X117410567Y-109124194D01*
X117449889Y-109156465D01*
X117451912Y-109157816D01*
X117451915Y-109157819D01*
X117487303Y-109181465D01*
X117487309Y-109181468D01*
X117489318Y-109182811D01*
X117534184Y-109206793D01*
X117555586Y-109215658D01*
X117577362Y-109224678D01*
X117577366Y-109224680D01*
X117579603Y-109225606D01*
X117581912Y-109226306D01*
X117581922Y-109226310D01*
X117625959Y-109239668D01*
X117625964Y-109239669D01*
X117628284Y-109240373D01*
X117630662Y-109240846D01*
X117686038Y-109251861D01*
X117686043Y-109251862D01*
X117687205Y-109252093D01*
X117712394Y-109255829D01*
X117732485Y-109257808D01*
X117735755Y-109258130D01*
X117735758Y-109258130D01*
X117736974Y-109258250D01*
X117738168Y-109258309D01*
X117738186Y-109258310D01*
X117749297Y-109258856D01*
X117762410Y-109259500D01*
X118165268Y-109259500D01*
X118223459Y-109278407D01*
X118259423Y-109327907D01*
X118263089Y-109373730D01*
X118244391Y-109493823D01*
X118245306Y-109500820D01*
X118245306Y-109500821D01*
X118246814Y-109512354D01*
X118262980Y-109635979D01*
X118265821Y-109642435D01*
X118265821Y-109642436D01*
X118273586Y-109660082D01*
X118320720Y-109767203D01*
X118333792Y-109782754D01*
X118408431Y-109871549D01*
X118408434Y-109871551D01*
X118412970Y-109876948D01*
X118418841Y-109880856D01*
X118418842Y-109880857D01*
X118431143Y-109889045D01*
X118532313Y-109956390D01*
X118632920Y-109987821D01*
X118662425Y-109997039D01*
X118662426Y-109997039D01*
X118669157Y-109999142D01*
X118740828Y-110000456D01*
X118805445Y-110001641D01*
X118805447Y-110001641D01*
X118812499Y-110001770D01*
X118819302Y-109999915D01*
X118819304Y-109999915D01*
X118894503Y-109979413D01*
X118950817Y-109964060D01*
X119072991Y-109889045D01*
X119080403Y-109880857D01*
X119164468Y-109787982D01*
X119169200Y-109782754D01*
X119231710Y-109653733D01*
X119235875Y-109628982D01*
X119254862Y-109516124D01*
X119254862Y-109516120D01*
X119255496Y-109512354D01*
X119255647Y-109500000D01*
X119255104Y-109496207D01*
X119237393Y-109372534D01*
X119247860Y-109312251D01*
X119291762Y-109269633D01*
X119335393Y-109259500D01*
X122987590Y-109259500D01*
X123000703Y-109258856D01*
X123011814Y-109258310D01*
X123011832Y-109258309D01*
X123013026Y-109258250D01*
X123014242Y-109258130D01*
X123014245Y-109258130D01*
X123017515Y-109257808D01*
X123037606Y-109255829D01*
X123062795Y-109252093D01*
X123063957Y-109251862D01*
X123063962Y-109251861D01*
X123119338Y-109240846D01*
X123121716Y-109240373D01*
X123124036Y-109239669D01*
X123124041Y-109239668D01*
X123168078Y-109226310D01*
X123168088Y-109226306D01*
X123170397Y-109225606D01*
X123172634Y-109224680D01*
X123172638Y-109224678D01*
X123194414Y-109215658D01*
X123215816Y-109206793D01*
X123260682Y-109182811D01*
X123262691Y-109181468D01*
X123262697Y-109181465D01*
X123298085Y-109157819D01*
X123298088Y-109157816D01*
X123300111Y-109156465D01*
X123339433Y-109124194D01*
X123374194Y-109089433D01*
X123406465Y-109050112D01*
X123432810Y-109010685D01*
X123456791Y-108965819D01*
X123475606Y-108920396D01*
X123490374Y-108871712D01*
X123502093Y-108812793D01*
X123505829Y-108787606D01*
X123508250Y-108763026D01*
X123509500Y-108737590D01*
X123509500Y-103917101D01*
X123528407Y-103858910D01*
X123582872Y-103821475D01*
X123591359Y-103819201D01*
X123599784Y-103817334D01*
X123629517Y-103812092D01*
X123629519Y-103812091D01*
X123638045Y-103810588D01*
X123645544Y-103806258D01*
X123651029Y-103804262D01*
X123656316Y-103801796D01*
X123664684Y-103799554D01*
X123696511Y-103777268D01*
X123703795Y-103772627D01*
X123737455Y-103753194D01*
X123762436Y-103723423D01*
X123768270Y-103717056D01*
X124130497Y-103354830D01*
X124185013Y-103327053D01*
X124245445Y-103336624D01*
X124288710Y-103379889D01*
X124299500Y-103424834D01*
X124299500Y-110965983D01*
X124296982Y-110988169D01*
X124294344Y-110999641D01*
X124296739Y-111010227D01*
X124295587Y-111024697D01*
X124287294Y-111077063D01*
X124277725Y-111106518D01*
X124249419Y-111162071D01*
X124231215Y-111187128D01*
X124187128Y-111231215D01*
X124162068Y-111249421D01*
X124106521Y-111277723D01*
X124077065Y-111287294D01*
X124024499Y-111295619D01*
X124010609Y-111296701D01*
X124000359Y-111294344D01*
X123988359Y-111297059D01*
X123966512Y-111299500D01*
X112599834Y-111299500D01*
X112541643Y-111280593D01*
X112505679Y-111231093D01*
X112505679Y-111169907D01*
X112529830Y-111130496D01*
X112817057Y-110843269D01*
X112823425Y-110837434D01*
X112853194Y-110812455D01*
X112872629Y-110778792D01*
X112877268Y-110771511D01*
X112879729Y-110767996D01*
X112899554Y-110739684D01*
X112901796Y-110731319D01*
X112904258Y-110726039D01*
X112906257Y-110720548D01*
X112910588Y-110713045D01*
X112917337Y-110674771D01*
X112919206Y-110666344D01*
X112927022Y-110637173D01*
X112927022Y-110637170D01*
X112929263Y-110628807D01*
X112925877Y-110590103D01*
X112925500Y-110581475D01*
X112925500Y-108174424D01*
X112944407Y-108116233D01*
X112951102Y-108107988D01*
X113014468Y-108037982D01*
X113019200Y-108032754D01*
X113081710Y-107903733D01*
X113085875Y-107878982D01*
X113104862Y-107766124D01*
X113104862Y-107766120D01*
X113105496Y-107762354D01*
X113105647Y-107750000D01*
X113085323Y-107608082D01*
X113025984Y-107477572D01*
X112932400Y-107368963D01*
X112812095Y-107290985D01*
X112674739Y-107249907D01*
X112591497Y-107249398D01*
X112538427Y-107249074D01*
X112538426Y-107249074D01*
X112531376Y-107249031D01*
X112524599Y-107250968D01*
X112524598Y-107250968D01*
X112400309Y-107286490D01*
X112400307Y-107286491D01*
X112393529Y-107288428D01*
X112272280Y-107364930D01*
X112267613Y-107370214D01*
X112267611Y-107370216D01*
X112182044Y-107467103D01*
X112182042Y-107467105D01*
X112177377Y-107472388D01*
X112116447Y-107602163D01*
X112094391Y-107743823D01*
X112095306Y-107750820D01*
X112095306Y-107750821D01*
X112096814Y-107762354D01*
X112112980Y-107885979D01*
X112115821Y-107892435D01*
X112115821Y-107892436D01*
X112123586Y-107910082D01*
X112170720Y-108017203D01*
X112188187Y-108037982D01*
X112251283Y-108113045D01*
X112274253Y-108169755D01*
X112274500Y-108176747D01*
X112274500Y-110424166D01*
X112255593Y-110482357D01*
X112245504Y-110494170D01*
X111969170Y-110770504D01*
X111914653Y-110798281D01*
X111899166Y-110799500D01*
X104666950Y-110799500D01*
X104608759Y-110780593D01*
X104596946Y-110770504D01*
X104204496Y-110378054D01*
X104176719Y-110323537D01*
X104175500Y-110308050D01*
X104175500Y-100477282D01*
X104194407Y-100419091D01*
X104243907Y-100383127D01*
X104305093Y-100383127D01*
X104350338Y-100413646D01*
X104362545Y-100428194D01*
X104370042Y-100432523D01*
X104370044Y-100432524D01*
X104396206Y-100447628D01*
X104403484Y-100452264D01*
X104435316Y-100474553D01*
X104443682Y-100476795D01*
X104448973Y-100479262D01*
X104454450Y-100481255D01*
X104461955Y-100485588D01*
X104491038Y-100490716D01*
X104500231Y-100492337D01*
X104508654Y-100494204D01*
X104546193Y-100504263D01*
X104584896Y-100500877D01*
X104593525Y-100500500D01*
X106306466Y-100500500D01*
X106315095Y-100500877D01*
X106353807Y-100504264D01*
X106362178Y-100502021D01*
X106391349Y-100494204D01*
X106399784Y-100492334D01*
X106429517Y-100487092D01*
X106429519Y-100487091D01*
X106438045Y-100485588D01*
X106445544Y-100481258D01*
X106451029Y-100479262D01*
X106456316Y-100476796D01*
X106464684Y-100474554D01*
X106494056Y-100453987D01*
X106496511Y-100452268D01*
X106503792Y-100447629D01*
X106537455Y-100428194D01*
X106562431Y-100398429D01*
X106568265Y-100392061D01*
X106767057Y-100193269D01*
X106773425Y-100187434D01*
X106803194Y-100162455D01*
X106822629Y-100128792D01*
X106827268Y-100121511D01*
X106828987Y-100119056D01*
X106849554Y-100089684D01*
X106851796Y-100081316D01*
X106854262Y-100076029D01*
X106856258Y-100070544D01*
X106860588Y-100063045D01*
X106867334Y-100024783D01*
X106869204Y-100016349D01*
X106877022Y-99987173D01*
X106879264Y-99978807D01*
X106878509Y-99970177D01*
X106879215Y-99962108D01*
X106904440Y-99904300D01*
X106964468Y-99837982D01*
X106969200Y-99832754D01*
X107031710Y-99703733D01*
X107032880Y-99696780D01*
X107032881Y-99696776D01*
X107039459Y-99657675D01*
X107040502Y-99651473D01*
X107068802Y-99597227D01*
X107123582Y-99569974D01*
X107183920Y-99580125D01*
X107194416Y-99586457D01*
X107236740Y-99615708D01*
X107239272Y-99617517D01*
X107280861Y-99648236D01*
X107280863Y-99648237D01*
X107286816Y-99652634D01*
X107293632Y-99655027D01*
X107299569Y-99659131D01*
X107306628Y-99661364D01*
X107306629Y-99661364D01*
X107326973Y-99667798D01*
X107355929Y-99676956D01*
X107358814Y-99677918D01*
X107414631Y-99697519D01*
X107420673Y-99697756D01*
X107423347Y-99698277D01*
X107428730Y-99699980D01*
X107435337Y-99700500D01*
X107488541Y-99700500D01*
X107492428Y-99700576D01*
X107549994Y-99702838D01*
X107556773Y-99701041D01*
X107566593Y-99700500D01*
X111200500Y-99700500D01*
X111258691Y-99719407D01*
X111294655Y-99768907D01*
X111299500Y-99799500D01*
X111299500Y-100509680D01*
X111290116Y-100551751D01*
X111266447Y-100602163D01*
X111244391Y-100743823D01*
X111245306Y-100750820D01*
X111245306Y-100750821D01*
X111246814Y-100762354D01*
X111262980Y-100885979D01*
X111265821Y-100892435D01*
X111265821Y-100892436D01*
X111273586Y-100910082D01*
X111320720Y-101017203D01*
X111333792Y-101032754D01*
X111408431Y-101121549D01*
X111408434Y-101121551D01*
X111412970Y-101126948D01*
X111418841Y-101130856D01*
X111418842Y-101130857D01*
X111431143Y-101139045D01*
X111532313Y-101206390D01*
X111632920Y-101237821D01*
X111662425Y-101247039D01*
X111662426Y-101247039D01*
X111669157Y-101249142D01*
X111740828Y-101250456D01*
X111805445Y-101251641D01*
X111805447Y-101251641D01*
X111812499Y-101251770D01*
X111819302Y-101249915D01*
X111819304Y-101249915D01*
X111944013Y-101215915D01*
X111950817Y-101214060D01*
X111956826Y-101210371D01*
X111956834Y-101210367D01*
X111958984Y-101209047D01*
X111961015Y-101208558D01*
X111963302Y-101207568D01*
X111963474Y-101207965D01*
X112018467Y-101194714D01*
X112033135Y-101196972D01*
X112053394Y-101201667D01*
X112064255Y-101204185D01*
X112199384Y-101194617D01*
X112205896Y-101192098D01*
X112266611Y-101197836D01*
X112269974Y-101199662D01*
X112270077Y-101199446D01*
X112276442Y-101202482D01*
X112282313Y-101206390D01*
X112382920Y-101237821D01*
X112412425Y-101247039D01*
X112412426Y-101247039D01*
X112419157Y-101249142D01*
X112490828Y-101250456D01*
X112555445Y-101251641D01*
X112555447Y-101251641D01*
X112562499Y-101251770D01*
X112569302Y-101249915D01*
X112569304Y-101249915D01*
X112644503Y-101229413D01*
X112700817Y-101214060D01*
X112822991Y-101139045D01*
X112830403Y-101130857D01*
X112914468Y-101037982D01*
X112919200Y-101032754D01*
X112981710Y-100903733D01*
X112985875Y-100878982D01*
X113004862Y-100766124D01*
X113004862Y-100766120D01*
X113005496Y-100762354D01*
X113005647Y-100750000D01*
X112985323Y-100608082D01*
X112979731Y-100595782D01*
X112959378Y-100551017D01*
X112950500Y-100510042D01*
X112950500Y-99490870D01*
X112960406Y-99447705D01*
X112978635Y-99410079D01*
X112981710Y-99403733D01*
X112983049Y-99395776D01*
X113004862Y-99266124D01*
X113004862Y-99266120D01*
X113005496Y-99262354D01*
X113005647Y-99250000D01*
X112985323Y-99108082D01*
X112925984Y-98977572D01*
X112832400Y-98868963D01*
X112712095Y-98790985D01*
X112574739Y-98749907D01*
X112491497Y-98749398D01*
X112438427Y-98749074D01*
X112438426Y-98749074D01*
X112431376Y-98749031D01*
X112424599Y-98750968D01*
X112424598Y-98750968D01*
X112316849Y-98781763D01*
X112293529Y-98788428D01*
X112289220Y-98791147D01*
X112250092Y-98799500D01*
X112162966Y-98799500D01*
X112150332Y-98798055D01*
X112150331Y-98798067D01*
X112142957Y-98797487D01*
X112135745Y-98795815D01*
X112091287Y-98798963D01*
X112087190Y-98799253D01*
X112080198Y-98799500D01*
X111999905Y-98799500D01*
X111962565Y-98791290D01*
X111962095Y-98790985D01*
X111955337Y-98788964D01*
X111955335Y-98788963D01*
X111831500Y-98751929D01*
X111824739Y-98749907D01*
X111741497Y-98749398D01*
X111688427Y-98749074D01*
X111688426Y-98749074D01*
X111681376Y-98749031D01*
X111674599Y-98750968D01*
X111674598Y-98750968D01*
X111566849Y-98781763D01*
X111543529Y-98788428D01*
X111539220Y-98791147D01*
X111500092Y-98799500D01*
X107799500Y-98799500D01*
X107741309Y-98780593D01*
X107705345Y-98731093D01*
X107700500Y-98700500D01*
X107700500Y-98490870D01*
X107710406Y-98447705D01*
X107728635Y-98410079D01*
X107731710Y-98403733D01*
X107732880Y-98396779D01*
X107754862Y-98266124D01*
X107754862Y-98266120D01*
X107755496Y-98262354D01*
X107755647Y-98250000D01*
X107735323Y-98108082D01*
X107675984Y-97977572D01*
X107582400Y-97868963D01*
X107527328Y-97833267D01*
X107488781Y-97785751D01*
X107485526Y-97724652D01*
X107518805Y-97673309D01*
X107529374Y-97665826D01*
X107566978Y-97642737D01*
X107572991Y-97639045D01*
X107580403Y-97630857D01*
X107664468Y-97537982D01*
X107669200Y-97532754D01*
X107731710Y-97403733D01*
X107735875Y-97378982D01*
X107754862Y-97266124D01*
X107754862Y-97266120D01*
X107755496Y-97262354D01*
X107755647Y-97250000D01*
X107735323Y-97108082D01*
X107727318Y-97090476D01*
X107720445Y-97029678D01*
X107750620Y-96976451D01*
X107806319Y-96951127D01*
X107817440Y-96950500D01*
X109476771Y-96950500D01*
X109534962Y-96969407D01*
X109563692Y-97005045D01*
X109564152Y-97004759D01*
X109566493Y-97008520D01*
X109567387Y-97009629D01*
X109567410Y-97009680D01*
X109570720Y-97017203D01*
X109582959Y-97031763D01*
X109658431Y-97121549D01*
X109658434Y-97121551D01*
X109662970Y-97126948D01*
X109782313Y-97206390D01*
X109789043Y-97208493D01*
X109789048Y-97208495D01*
X109812833Y-97215926D01*
X109853314Y-97240417D01*
X110010930Y-97398033D01*
X110031542Y-97428165D01*
X110070720Y-97517203D01*
X110079000Y-97527053D01*
X110158431Y-97621549D01*
X110158434Y-97621551D01*
X110162970Y-97626948D01*
X110168841Y-97630856D01*
X110168842Y-97630857D01*
X110181143Y-97639045D01*
X110282313Y-97706390D01*
X110382920Y-97737821D01*
X110412425Y-97747039D01*
X110412426Y-97747039D01*
X110419157Y-97749142D01*
X110490828Y-97750456D01*
X110555445Y-97751641D01*
X110555447Y-97751641D01*
X110562499Y-97751770D01*
X110569302Y-97749915D01*
X110569304Y-97749915D01*
X110678626Y-97720110D01*
X110700817Y-97714060D01*
X110822991Y-97639045D01*
X110830403Y-97630857D01*
X110914468Y-97537982D01*
X110919200Y-97532754D01*
X110981710Y-97403733D01*
X110985875Y-97378982D01*
X111004862Y-97266124D01*
X111004862Y-97266120D01*
X111005496Y-97262354D01*
X111005647Y-97250000D01*
X110985323Y-97108082D01*
X110925984Y-96977572D01*
X110832400Y-96868963D01*
X110800490Y-96848280D01*
X110718014Y-96794821D01*
X110718011Y-96794820D01*
X110712095Y-96790985D01*
X110687536Y-96783641D01*
X110645899Y-96758796D01*
X110489790Y-96602687D01*
X110469672Y-96573659D01*
X110428905Y-96483996D01*
X110428904Y-96483995D01*
X110425984Y-96477572D01*
X110342649Y-96380857D01*
X110337005Y-96374307D01*
X110337004Y-96374306D01*
X110332400Y-96368963D01*
X110271152Y-96329264D01*
X110218014Y-96294821D01*
X110218011Y-96294820D01*
X110212095Y-96290985D01*
X110187536Y-96283641D01*
X110145899Y-96258796D01*
X110091619Y-96204516D01*
X110083877Y-96195803D01*
X110066453Y-96173701D01*
X110061872Y-96167890D01*
X110013251Y-96134286D01*
X110010728Y-96132483D01*
X109969139Y-96101764D01*
X109969137Y-96101763D01*
X109963184Y-96097366D01*
X109956368Y-96094973D01*
X109950431Y-96090869D01*
X109943372Y-96088636D01*
X109943371Y-96088636D01*
X109923027Y-96082202D01*
X109894071Y-96073044D01*
X109891186Y-96072082D01*
X109835369Y-96052481D01*
X109829327Y-96052244D01*
X109826653Y-96051723D01*
X109821270Y-96050020D01*
X109814663Y-96049500D01*
X109761459Y-96049500D01*
X109757572Y-96049424D01*
X109707397Y-96047452D01*
X109707394Y-96047452D01*
X109700006Y-96047162D01*
X109693228Y-96048959D01*
X109683403Y-96049500D01*
X107499905Y-96049500D01*
X107462565Y-96041290D01*
X107462095Y-96040985D01*
X107455337Y-96038964D01*
X107455335Y-96038963D01*
X107331500Y-96001929D01*
X107324739Y-95999907D01*
X107241497Y-95999398D01*
X107188427Y-95999074D01*
X107188426Y-95999074D01*
X107181376Y-95999031D01*
X107174599Y-96000968D01*
X107174598Y-96000968D01*
X107050309Y-96036490D01*
X107050307Y-96036491D01*
X107043529Y-96038428D01*
X106922280Y-96114930D01*
X106917613Y-96120214D01*
X106917611Y-96120216D01*
X106832044Y-96217103D01*
X106832042Y-96217105D01*
X106827377Y-96222388D01*
X106766447Y-96352163D01*
X106765362Y-96359132D01*
X106765361Y-96359135D01*
X106750828Y-96452482D01*
X106744391Y-96493823D01*
X106762980Y-96635979D01*
X106765820Y-96642433D01*
X106765821Y-96642437D01*
X106791116Y-96699923D01*
X106799500Y-96739795D01*
X106799500Y-97009680D01*
X106790116Y-97051751D01*
X106766447Y-97102163D01*
X106765362Y-97109132D01*
X106765361Y-97109135D01*
X106762588Y-97126948D01*
X106744391Y-97243823D01*
X106745306Y-97250820D01*
X106745306Y-97250821D01*
X106746814Y-97262354D01*
X106762980Y-97385979D01*
X106765821Y-97392435D01*
X106765821Y-97392436D01*
X106773586Y-97410082D01*
X106820720Y-97517203D01*
X106829000Y-97527053D01*
X106908431Y-97621549D01*
X106908434Y-97621551D01*
X106912970Y-97626948D01*
X106918841Y-97630856D01*
X106918842Y-97630857D01*
X106973897Y-97667505D01*
X107011860Y-97715489D01*
X107014369Y-97776623D01*
X106980464Y-97827556D01*
X106971867Y-97833643D01*
X106922280Y-97864930D01*
X106917613Y-97870214D01*
X106917611Y-97870216D01*
X106832044Y-97967103D01*
X106832042Y-97967105D01*
X106827377Y-97972388D01*
X106766447Y-98102163D01*
X106765362Y-98109132D01*
X106765361Y-98109135D01*
X106751970Y-98195142D01*
X106744391Y-98243823D01*
X106745306Y-98250820D01*
X106745306Y-98250821D01*
X106762065Y-98378982D01*
X106762980Y-98385979D01*
X106765820Y-98392433D01*
X106765821Y-98392437D01*
X106791116Y-98449923D01*
X106799500Y-98489795D01*
X106799500Y-98759680D01*
X106790116Y-98801751D01*
X106766447Y-98852163D01*
X106765362Y-98859132D01*
X106765361Y-98859135D01*
X106748121Y-98969869D01*
X106720487Y-99024458D01*
X106666044Y-99052379D01*
X106635666Y-99052551D01*
X106631496Y-99051928D01*
X106624739Y-99049907D01*
X106553057Y-99049469D01*
X106488427Y-99049074D01*
X106488426Y-99049074D01*
X106481376Y-99049031D01*
X106474599Y-99050968D01*
X106474598Y-99050968D01*
X106350309Y-99086490D01*
X106350307Y-99086491D01*
X106343529Y-99088428D01*
X106222280Y-99164930D01*
X106217613Y-99170214D01*
X106217611Y-99170216D01*
X106132044Y-99267103D01*
X106132042Y-99267105D01*
X106127377Y-99272388D01*
X106066447Y-99402163D01*
X106065362Y-99409132D01*
X106065361Y-99409135D01*
X106059356Y-99447705D01*
X106044391Y-99543823D01*
X106045306Y-99550820D01*
X106045306Y-99550821D01*
X106058468Y-99651474D01*
X106062980Y-99685979D01*
X106065821Y-99692435D01*
X106065821Y-99692436D01*
X106073826Y-99710628D01*
X106079956Y-99771505D01*
X106049133Y-99824359D01*
X105993129Y-99849002D01*
X105983210Y-99849500D01*
X104750834Y-99849500D01*
X104692643Y-99830593D01*
X104680857Y-99820530D01*
X104679523Y-99819197D01*
X104651725Y-99764691D01*
X104650500Y-99749167D01*
X104650500Y-96345544D01*
X104669407Y-96287353D01*
X104718907Y-96251389D01*
X104780093Y-96251389D01*
X104798997Y-96259806D01*
X104821205Y-96272627D01*
X104828489Y-96277268D01*
X104860316Y-96299554D01*
X104868684Y-96301796D01*
X104873971Y-96304262D01*
X104879456Y-96306258D01*
X104886955Y-96310588D01*
X104895481Y-96312091D01*
X104895483Y-96312092D01*
X104925216Y-96317334D01*
X104933650Y-96319204D01*
X104971193Y-96329264D01*
X104979822Y-96328509D01*
X105009905Y-96325877D01*
X105018534Y-96325500D01*
X105073612Y-96325500D01*
X105131803Y-96344407D01*
X105149394Y-96360797D01*
X105162970Y-96376948D01*
X105168841Y-96380856D01*
X105168842Y-96380857D01*
X105181143Y-96389045D01*
X105282313Y-96456390D01*
X105379809Y-96486849D01*
X105412425Y-96497039D01*
X105412426Y-96497039D01*
X105419157Y-96499142D01*
X105490828Y-96500456D01*
X105555445Y-96501641D01*
X105555447Y-96501641D01*
X105562499Y-96501770D01*
X105569302Y-96499915D01*
X105569304Y-96499915D01*
X105651256Y-96477572D01*
X105700817Y-96464060D01*
X105822991Y-96389045D01*
X105830403Y-96380857D01*
X105914468Y-96287982D01*
X105919200Y-96282754D01*
X105981710Y-96153733D01*
X105985286Y-96132483D01*
X106004862Y-96016124D01*
X106004862Y-96016120D01*
X106005496Y-96012354D01*
X106005647Y-96000000D01*
X105985323Y-95858082D01*
X105925984Y-95727572D01*
X105832400Y-95618963D01*
X105712095Y-95540985D01*
X105574739Y-95499907D01*
X105491497Y-95499398D01*
X105438427Y-95499074D01*
X105438426Y-95499074D01*
X105431376Y-95499031D01*
X105424599Y-95500968D01*
X105424598Y-95500968D01*
X105300309Y-95536490D01*
X105300307Y-95536491D01*
X105293529Y-95538428D01*
X105283394Y-95544823D01*
X105252328Y-95564424D01*
X105193025Y-95579485D01*
X105136196Y-95556812D01*
X105103546Y-95505066D01*
X105100500Y-95480697D01*
X105100500Y-90425833D01*
X105119407Y-90367642D01*
X105129497Y-90355829D01*
X105287989Y-90197338D01*
X105467064Y-90018263D01*
X105473417Y-90012441D01*
X105503194Y-89987455D01*
X105522629Y-89953792D01*
X105527269Y-89946509D01*
X105527405Y-89946316D01*
X105549553Y-89914684D01*
X105551795Y-89906318D01*
X105554262Y-89901027D01*
X105556255Y-89895550D01*
X105560588Y-89888045D01*
X105567337Y-89849769D01*
X105569206Y-89841337D01*
X105579263Y-89803808D01*
X105580044Y-89804017D01*
X105601043Y-89754549D01*
X105653489Y-89723037D01*
X105675758Y-89720500D01*
X105769748Y-89720500D01*
X105796599Y-89715159D01*
X105818666Y-89710770D01*
X105818668Y-89710769D01*
X105828231Y-89708867D01*
X105894552Y-89664552D01*
X105938867Y-89598231D01*
X105942191Y-89581524D01*
X105949552Y-89544512D01*
X105950500Y-89539748D01*
X105950500Y-88500252D01*
X105938867Y-88441769D01*
X105894552Y-88375448D01*
X105828231Y-88331133D01*
X105829531Y-88329188D01*
X105793332Y-88298272D01*
X105779048Y-88238777D01*
X105797347Y-88188773D01*
X105864877Y-88094796D01*
X105864878Y-88094794D01*
X105868361Y-88089947D01*
X105871594Y-88081906D01*
X105929377Y-87938167D01*
X105929378Y-87938165D01*
X105931601Y-87932634D01*
X105932442Y-87926727D01*
X105955034Y-87767985D01*
X105955034Y-87767979D01*
X105955490Y-87764778D01*
X105955645Y-87750000D01*
X105935276Y-87581680D01*
X105884778Y-87448041D01*
X106716000Y-87448041D01*
X106716390Y-87454229D01*
X106730731Y-87567755D01*
X106733805Y-87579727D01*
X106790048Y-87721782D01*
X106795999Y-87732607D01*
X106885806Y-87856216D01*
X106894262Y-87865221D01*
X107011986Y-87962609D01*
X107022419Y-87969231D01*
X107160016Y-88033979D01*
X107204618Y-88075863D01*
X107216083Y-88135965D01*
X107209328Y-88161442D01*
X107193036Y-88200775D01*
X107189313Y-88209764D01*
X107169534Y-88360000D01*
X107189313Y-88510236D01*
X107191797Y-88516233D01*
X107244819Y-88644240D01*
X107244821Y-88644244D01*
X107247302Y-88650233D01*
X107251248Y-88655375D01*
X107251250Y-88655379D01*
X107323856Y-88750000D01*
X107339549Y-88770451D01*
X107344698Y-88774402D01*
X107454621Y-88858750D01*
X107454625Y-88858752D01*
X107459767Y-88862698D01*
X107465756Y-88865179D01*
X107465760Y-88865181D01*
X107528057Y-88890985D01*
X107599764Y-88920687D01*
X107712280Y-88935500D01*
X108087720Y-88935500D01*
X108200236Y-88920687D01*
X108271943Y-88890985D01*
X108334240Y-88865181D01*
X108334244Y-88865179D01*
X108340233Y-88862698D01*
X108345375Y-88858752D01*
X108345379Y-88858750D01*
X108455302Y-88774402D01*
X108460451Y-88770451D01*
X108476144Y-88750000D01*
X108548750Y-88655379D01*
X108548752Y-88655375D01*
X108552698Y-88650233D01*
X108555179Y-88644244D01*
X108555181Y-88644240D01*
X108608203Y-88516233D01*
X108610687Y-88510236D01*
X108630466Y-88360000D01*
X108610687Y-88209764D01*
X108590671Y-88161442D01*
X108555181Y-88075760D01*
X108555179Y-88075756D01*
X108552698Y-88069767D01*
X108548752Y-88064625D01*
X108548750Y-88064621D01*
X108464402Y-87954698D01*
X108460451Y-87949549D01*
X108423579Y-87921256D01*
X108345379Y-87861250D01*
X108345375Y-87861248D01*
X108340233Y-87857302D01*
X108334244Y-87854821D01*
X108334240Y-87854819D01*
X108206233Y-87801797D01*
X108200236Y-87799313D01*
X108087720Y-87784500D01*
X108075545Y-87784500D01*
X108017354Y-87765593D01*
X107981390Y-87716093D01*
X107981390Y-87654907D01*
X107983498Y-87649053D01*
X107984456Y-87646633D01*
X108022452Y-87498647D01*
X108024000Y-87486395D01*
X108024000Y-87300680D01*
X108019878Y-87287995D01*
X108015757Y-87285000D01*
X106731680Y-87285000D01*
X106718995Y-87289122D01*
X106716000Y-87293243D01*
X106716000Y-87448041D01*
X105884778Y-87448041D01*
X105875345Y-87423077D01*
X105779312Y-87283349D01*
X105672554Y-87188230D01*
X105641684Y-87135404D01*
X105647761Y-87074521D01*
X105674117Y-87039034D01*
X105764884Y-86961512D01*
X105764890Y-86961506D01*
X105769423Y-86957634D01*
X105785687Y-86935000D01*
X105796954Y-86919320D01*
X106716000Y-86919320D01*
X106720122Y-86932005D01*
X106724243Y-86935000D01*
X107179320Y-86935000D01*
X107192005Y-86930878D01*
X107195000Y-86926757D01*
X107195000Y-86919320D01*
X107545000Y-86919320D01*
X107549122Y-86932005D01*
X107553243Y-86935000D01*
X108008320Y-86935000D01*
X108021005Y-86930878D01*
X108024000Y-86926757D01*
X108024000Y-86771959D01*
X108023610Y-86765771D01*
X108009269Y-86652245D01*
X108006195Y-86640273D01*
X107949952Y-86498218D01*
X107944001Y-86487393D01*
X107854194Y-86363784D01*
X107845738Y-86354779D01*
X107728014Y-86257391D01*
X107717581Y-86250769D01*
X107579340Y-86185717D01*
X107567584Y-86181898D01*
X107560401Y-86180528D01*
X107547170Y-86182200D01*
X107546982Y-86182376D01*
X107545000Y-86190097D01*
X107545000Y-86919320D01*
X107195000Y-86919320D01*
X107195000Y-86194885D01*
X107191479Y-86184050D01*
X107180089Y-86184050D01*
X107095250Y-86211616D01*
X107084070Y-86216876D01*
X106955067Y-86298744D01*
X106945548Y-86306618D01*
X106840964Y-86417990D01*
X106833696Y-86427994D01*
X106760093Y-86561876D01*
X106755545Y-86573364D01*
X106717548Y-86721353D01*
X106716000Y-86733605D01*
X106716000Y-86919320D01*
X105796954Y-86919320D01*
X105864877Y-86824796D01*
X105864878Y-86824794D01*
X105868361Y-86819947D01*
X105887653Y-86771959D01*
X105929377Y-86668167D01*
X105929378Y-86668165D01*
X105931601Y-86662634D01*
X105933080Y-86652245D01*
X105955034Y-86497985D01*
X105955034Y-86497979D01*
X105955490Y-86494778D01*
X105955645Y-86480000D01*
X105944128Y-86384826D01*
X105935993Y-86317602D01*
X105935992Y-86317599D01*
X105935276Y-86311680D01*
X105875345Y-86153077D01*
X105868239Y-86142737D01*
X105782692Y-86018267D01*
X105779312Y-86013349D01*
X105672554Y-85918230D01*
X105641684Y-85865404D01*
X105647761Y-85804521D01*
X105674117Y-85769034D01*
X105764884Y-85691512D01*
X105764890Y-85691506D01*
X105769423Y-85687634D01*
X105772907Y-85682786D01*
X105849116Y-85576730D01*
X105898427Y-85540507D01*
X105929512Y-85535500D01*
X109034167Y-85535500D01*
X109092358Y-85554407D01*
X109104171Y-85564497D01*
X109395504Y-85855831D01*
X109423281Y-85910347D01*
X109424500Y-85925834D01*
X109424500Y-92176326D01*
X109405593Y-92234517D01*
X109352706Y-92271515D01*
X109293529Y-92288428D01*
X109172280Y-92364930D01*
X109167613Y-92370214D01*
X109167611Y-92370216D01*
X109082044Y-92467103D01*
X109082042Y-92467105D01*
X109077377Y-92472388D01*
X109016447Y-92602163D01*
X108994391Y-92743823D01*
X108995306Y-92750820D01*
X108995306Y-92750821D01*
X108996814Y-92762354D01*
X109012980Y-92885979D01*
X109015821Y-92892435D01*
X109015821Y-92892436D01*
X109023586Y-92910082D01*
X109070720Y-93017203D01*
X109100842Y-93053037D01*
X109158431Y-93121549D01*
X109158434Y-93121551D01*
X109162970Y-93126948D01*
X109168841Y-93130856D01*
X109168842Y-93130857D01*
X109181143Y-93139045D01*
X109282313Y-93206390D01*
X109382920Y-93237821D01*
X109412425Y-93247039D01*
X109412426Y-93247039D01*
X109419157Y-93249142D01*
X109490828Y-93250456D01*
X109555445Y-93251641D01*
X109555447Y-93251641D01*
X109562499Y-93251770D01*
X109569302Y-93249915D01*
X109569304Y-93249915D01*
X109644503Y-93229413D01*
X109700817Y-93214060D01*
X109822991Y-93139045D01*
X109830403Y-93130857D01*
X109914466Y-93037984D01*
X109919200Y-93032754D01*
X109922276Y-93026406D01*
X109922836Y-93025575D01*
X109971050Y-92987906D01*
X110032199Y-92985770D01*
X110080694Y-93017233D01*
X110085207Y-93022602D01*
X110165795Y-93118473D01*
X110171666Y-93122381D01*
X110171667Y-93122382D01*
X110182075Y-93129310D01*
X110285138Y-93197915D01*
X110342751Y-93215914D01*
X110415250Y-93238564D01*
X110415251Y-93238564D01*
X110421982Y-93240667D01*
X110493653Y-93241981D01*
X110558270Y-93243166D01*
X110558272Y-93243166D01*
X110565324Y-93243295D01*
X110572127Y-93241440D01*
X110572129Y-93241440D01*
X110692979Y-93208492D01*
X110703642Y-93205585D01*
X110825816Y-93130570D01*
X110830552Y-93125338D01*
X110848276Y-93105757D01*
X110901344Y-93075304D01*
X110962177Y-93081859D01*
X110997457Y-93108492D01*
X111012970Y-93126948D01*
X111018841Y-93130856D01*
X111018842Y-93130857D01*
X111031143Y-93139045D01*
X111132313Y-93206390D01*
X111232920Y-93237821D01*
X111262425Y-93247039D01*
X111262426Y-93247039D01*
X111269157Y-93249142D01*
X111340828Y-93250456D01*
X111405445Y-93251641D01*
X111405447Y-93251641D01*
X111412499Y-93251770D01*
X111419302Y-93249915D01*
X111419304Y-93249915D01*
X111494503Y-93229413D01*
X111550817Y-93214060D01*
X111672991Y-93139045D01*
X111677726Y-93133814D01*
X111683151Y-93129310D01*
X111684360Y-93130766D01*
X111729366Y-93104940D01*
X111790199Y-93111497D01*
X111811719Y-93125460D01*
X111812970Y-93126948D01*
X111932313Y-93206390D01*
X112032920Y-93237821D01*
X112062425Y-93247039D01*
X112062426Y-93247039D01*
X112069157Y-93249142D01*
X112140828Y-93250456D01*
X112205445Y-93251641D01*
X112205447Y-93251641D01*
X112212499Y-93251770D01*
X112219302Y-93249915D01*
X112219304Y-93249915D01*
X112294503Y-93229413D01*
X112350817Y-93214060D01*
X112472991Y-93139045D01*
X112480403Y-93130857D01*
X112564468Y-93037982D01*
X112569200Y-93032754D01*
X112631710Y-92903733D01*
X112635875Y-92878982D01*
X112654862Y-92766124D01*
X112654862Y-92766120D01*
X112655496Y-92762354D01*
X112655647Y-92750000D01*
X112635323Y-92608082D01*
X112575984Y-92477572D01*
X112571381Y-92472230D01*
X112567580Y-92466287D01*
X112569875Y-92464819D01*
X112550840Y-92419424D01*
X112550500Y-92411228D01*
X112550500Y-90838958D01*
X112566910Y-90785284D01*
X112569200Y-90782754D01*
X112631710Y-90653733D01*
X112655496Y-90512354D01*
X112656412Y-90512508D01*
X112678897Y-90459872D01*
X112731416Y-90428479D01*
X112782986Y-90430497D01*
X112811925Y-90439538D01*
X112811926Y-90439538D01*
X112818657Y-90441641D01*
X112890328Y-90442955D01*
X112954945Y-90444140D01*
X112954947Y-90444140D01*
X112961999Y-90444269D01*
X112968802Y-90442414D01*
X112968804Y-90442414D01*
X113044003Y-90421912D01*
X113100317Y-90406559D01*
X113222491Y-90331544D01*
X113318700Y-90225253D01*
X113381210Y-90096232D01*
X113391767Y-90033488D01*
X113404362Y-89958623D01*
X113404362Y-89958619D01*
X113404996Y-89954853D01*
X113405147Y-89942499D01*
X113405636Y-89942505D01*
X113420101Y-89885663D01*
X113433799Y-89868526D01*
X113467057Y-89835268D01*
X113473425Y-89829433D01*
X113503194Y-89804454D01*
X113522629Y-89770791D01*
X113527268Y-89763510D01*
X113531337Y-89757699D01*
X113549554Y-89731683D01*
X113551796Y-89723315D01*
X113554262Y-89718028D01*
X113556258Y-89712543D01*
X113560588Y-89705044D01*
X113567334Y-89666782D01*
X113569204Y-89658348D01*
X113577022Y-89629173D01*
X113579264Y-89620806D01*
X113575877Y-89582090D01*
X113575500Y-89573462D01*
X113575500Y-88360000D01*
X114519534Y-88360000D01*
X114539313Y-88510236D01*
X114541797Y-88516233D01*
X114594819Y-88644240D01*
X114594821Y-88644244D01*
X114597302Y-88650233D01*
X114601248Y-88655375D01*
X114601250Y-88655379D01*
X114673856Y-88750000D01*
X114689549Y-88770451D01*
X114694698Y-88774402D01*
X114804621Y-88858750D01*
X114804625Y-88858752D01*
X114809767Y-88862698D01*
X114815756Y-88865179D01*
X114815760Y-88865181D01*
X114878057Y-88890985D01*
X114949764Y-88920687D01*
X115062280Y-88935500D01*
X115137720Y-88935500D01*
X115250236Y-88920687D01*
X115321943Y-88890985D01*
X115384240Y-88865181D01*
X115384244Y-88865179D01*
X115390233Y-88862698D01*
X115395375Y-88858752D01*
X115395379Y-88858750D01*
X115505302Y-88774402D01*
X115510451Y-88770451D01*
X115526144Y-88750000D01*
X115598750Y-88655379D01*
X115598752Y-88655375D01*
X115602698Y-88650233D01*
X115605179Y-88644244D01*
X115605181Y-88644240D01*
X115658203Y-88516233D01*
X115660687Y-88510236D01*
X115680466Y-88360000D01*
X115660687Y-88209764D01*
X115654601Y-88195071D01*
X115649802Y-88134075D01*
X115681772Y-88081906D01*
X115739851Y-88058382D01*
X115747304Y-88057913D01*
X115759445Y-88055597D01*
X115904753Y-88008384D01*
X115915929Y-88003125D01*
X116044933Y-87921256D01*
X116054452Y-87913382D01*
X116159036Y-87802010D01*
X116166304Y-87792006D01*
X116239907Y-87658124D01*
X116244455Y-87646636D01*
X116282452Y-87498647D01*
X116284000Y-87486395D01*
X116284000Y-87300680D01*
X116279878Y-87287995D01*
X116275757Y-87285000D01*
X114991680Y-87285000D01*
X114978995Y-87289122D01*
X114976000Y-87293243D01*
X114976000Y-87448041D01*
X114976390Y-87454229D01*
X114990731Y-87567755D01*
X114993805Y-87579727D01*
X115027592Y-87665064D01*
X115031434Y-87726128D01*
X114998649Y-87777789D01*
X114961166Y-87797135D01*
X114956198Y-87798466D01*
X114949764Y-87799313D01*
X114943772Y-87801795D01*
X114943768Y-87801796D01*
X114815760Y-87854819D01*
X114815756Y-87854821D01*
X114809767Y-87857302D01*
X114804625Y-87861248D01*
X114804621Y-87861250D01*
X114726421Y-87921256D01*
X114689549Y-87949549D01*
X114685598Y-87954698D01*
X114601250Y-88064621D01*
X114601248Y-88064625D01*
X114597302Y-88069767D01*
X114594821Y-88075756D01*
X114594819Y-88075760D01*
X114559329Y-88161442D01*
X114539313Y-88209764D01*
X114519534Y-88360000D01*
X113575500Y-88360000D01*
X113575500Y-86919320D01*
X114976000Y-86919320D01*
X114980122Y-86932005D01*
X114984243Y-86935000D01*
X115439320Y-86935000D01*
X115452005Y-86930878D01*
X115455000Y-86926757D01*
X115455000Y-86919320D01*
X115805000Y-86919320D01*
X115809122Y-86932005D01*
X115813243Y-86935000D01*
X116268320Y-86935000D01*
X116281005Y-86930878D01*
X116284000Y-86926757D01*
X116284000Y-86771959D01*
X116283610Y-86765771D01*
X116269269Y-86652245D01*
X116266195Y-86640273D01*
X116209952Y-86498218D01*
X116204001Y-86487393D01*
X116114194Y-86363784D01*
X116105738Y-86354779D01*
X115988014Y-86257391D01*
X115977581Y-86250769D01*
X115839340Y-86185717D01*
X115827584Y-86181898D01*
X115820401Y-86180528D01*
X115807170Y-86182200D01*
X115806982Y-86182376D01*
X115805000Y-86190097D01*
X115805000Y-86919320D01*
X115455000Y-86919320D01*
X115455000Y-86194885D01*
X115451479Y-86184050D01*
X115440089Y-86184050D01*
X115355250Y-86211616D01*
X115344070Y-86216876D01*
X115215067Y-86298744D01*
X115205548Y-86306618D01*
X115100964Y-86417990D01*
X115093696Y-86427994D01*
X115020093Y-86561876D01*
X115015545Y-86573364D01*
X114977548Y-86721353D01*
X114976000Y-86733605D01*
X114976000Y-86919320D01*
X113575500Y-86919320D01*
X113575500Y-86425834D01*
X113594407Y-86367643D01*
X113604496Y-86355830D01*
X113680677Y-86279649D01*
X113735194Y-86251872D01*
X113752494Y-86250670D01*
X113769439Y-86250981D01*
X113805446Y-86251641D01*
X113805448Y-86251641D01*
X113812499Y-86251770D01*
X113819302Y-86249915D01*
X113819304Y-86249915D01*
X113894503Y-86229413D01*
X113950817Y-86214060D01*
X114072991Y-86139045D01*
X114086281Y-86124363D01*
X114164468Y-86037982D01*
X114169200Y-86032754D01*
X114231710Y-85903733D01*
X114234603Y-85886541D01*
X114254862Y-85766124D01*
X114254862Y-85766120D01*
X114255496Y-85762354D01*
X114255647Y-85750000D01*
X114235323Y-85608082D01*
X114204599Y-85540507D01*
X114178905Y-85483996D01*
X114178904Y-85483995D01*
X114175984Y-85477572D01*
X114105337Y-85395583D01*
X114087005Y-85374307D01*
X114087004Y-85374306D01*
X114082400Y-85368963D01*
X113962095Y-85290985D01*
X113824739Y-85249907D01*
X113741497Y-85249398D01*
X113688427Y-85249074D01*
X113688426Y-85249074D01*
X113681376Y-85249031D01*
X113674599Y-85250968D01*
X113674598Y-85250968D01*
X113550309Y-85286490D01*
X113550307Y-85286491D01*
X113543529Y-85288428D01*
X113422280Y-85364930D01*
X113417613Y-85370214D01*
X113417611Y-85370216D01*
X113332044Y-85467103D01*
X113332042Y-85467105D01*
X113327377Y-85472388D01*
X113266447Y-85602163D01*
X113265362Y-85609132D01*
X113265361Y-85609135D01*
X113246086Y-85732934D01*
X113244391Y-85743823D01*
X113245306Y-85750822D01*
X113245260Y-85754608D01*
X113225643Y-85812564D01*
X113216271Y-85823403D01*
X113032943Y-86006731D01*
X113026576Y-86012565D01*
X112996806Y-86037545D01*
X112992477Y-86045044D01*
X112977373Y-86071205D01*
X112972732Y-86078489D01*
X112950446Y-86110316D01*
X112948204Y-86118684D01*
X112945738Y-86123971D01*
X112943742Y-86129456D01*
X112939412Y-86136955D01*
X112937909Y-86145481D01*
X112937908Y-86145483D01*
X112932666Y-86175216D01*
X112930796Y-86183650D01*
X112920736Y-86221193D01*
X112921491Y-86229822D01*
X112924123Y-86259905D01*
X112924500Y-86268534D01*
X112924500Y-89343351D01*
X112905593Y-89401542D01*
X112856093Y-89437506D01*
X112838935Y-89441435D01*
X112837927Y-89441573D01*
X112830876Y-89441530D01*
X112824100Y-89443467D01*
X112824097Y-89443467D01*
X112699809Y-89478989D01*
X112699807Y-89478990D01*
X112693029Y-89480927D01*
X112688922Y-89483518D01*
X112629085Y-89489912D01*
X112576044Y-89459412D01*
X112551061Y-89403560D01*
X112550500Y-89393040D01*
X112550500Y-86588958D01*
X112566910Y-86535284D01*
X112569200Y-86532754D01*
X112631710Y-86403733D01*
X112635875Y-86378982D01*
X112654862Y-86266124D01*
X112654862Y-86266120D01*
X112655496Y-86262354D01*
X112655647Y-86250000D01*
X112635323Y-86108082D01*
X112575984Y-85977572D01*
X112509626Y-85900560D01*
X112487005Y-85874307D01*
X112487004Y-85874306D01*
X112482400Y-85868963D01*
X112362095Y-85790985D01*
X112224739Y-85749907D01*
X112141497Y-85749398D01*
X112088427Y-85749074D01*
X112088426Y-85749074D01*
X112081376Y-85749031D01*
X112074599Y-85750968D01*
X112074598Y-85750968D01*
X111950309Y-85786490D01*
X111950307Y-85786491D01*
X111943529Y-85788428D01*
X111822280Y-85864930D01*
X111817612Y-85870216D01*
X111814090Y-85873213D01*
X111757521Y-85896529D01*
X111698052Y-85882142D01*
X111686311Y-85873502D01*
X111682400Y-85868963D01*
X111562095Y-85790985D01*
X111424739Y-85749907D01*
X111341497Y-85749398D01*
X111288427Y-85749074D01*
X111288426Y-85749074D01*
X111281376Y-85749031D01*
X111274599Y-85750968D01*
X111274598Y-85750968D01*
X111150309Y-85786490D01*
X111150307Y-85786491D01*
X111143529Y-85788428D01*
X111022280Y-85864930D01*
X111017613Y-85870214D01*
X111017611Y-85870216D01*
X110932044Y-85967103D01*
X110932042Y-85967105D01*
X110927377Y-85972388D01*
X110866447Y-86102163D01*
X110865362Y-86109132D01*
X110865361Y-86109135D01*
X110853697Y-86184050D01*
X110844391Y-86243823D01*
X110845306Y-86250820D01*
X110845306Y-86250821D01*
X110852602Y-86306618D01*
X110862980Y-86385979D01*
X110865821Y-86392435D01*
X110865821Y-86392436D01*
X110910853Y-86494778D01*
X110920720Y-86517203D01*
X110926281Y-86523819D01*
X110926283Y-86523821D01*
X110926778Y-86525044D01*
X110928985Y-86528589D01*
X110928369Y-86528972D01*
X110949253Y-86580531D01*
X110949500Y-86587523D01*
X110949500Y-90160923D01*
X110933246Y-90215275D01*
X110932048Y-90217099D01*
X110927377Y-90222388D01*
X110866447Y-90352163D01*
X110865362Y-90359132D01*
X110865361Y-90359135D01*
X110857689Y-90408413D01*
X110844391Y-90493823D01*
X110862980Y-90635979D01*
X110865821Y-90642435D01*
X110865821Y-90642436D01*
X110917656Y-90760239D01*
X110920720Y-90767203D01*
X110926281Y-90773819D01*
X110926283Y-90773821D01*
X110926778Y-90775044D01*
X110928985Y-90778589D01*
X110928369Y-90778972D01*
X110949253Y-90830531D01*
X110949500Y-90837523D01*
X110949500Y-92252412D01*
X110930593Y-92310603D01*
X110881093Y-92346567D01*
X110819907Y-92346567D01*
X110796653Y-92335487D01*
X110720841Y-92286348D01*
X110720842Y-92286348D01*
X110714920Y-92282510D01*
X110646135Y-92261939D01*
X110595801Y-92227152D01*
X110575500Y-92167090D01*
X110575500Y-85632126D01*
X110575877Y-85623497D01*
X110578508Y-85593426D01*
X110579263Y-85584797D01*
X110569205Y-85547261D01*
X110567337Y-85538835D01*
X110564854Y-85524756D01*
X110560588Y-85500559D01*
X110556255Y-85493054D01*
X110554262Y-85487577D01*
X110551795Y-85482286D01*
X110549553Y-85473920D01*
X110527264Y-85442088D01*
X110522628Y-85434810D01*
X110507524Y-85408648D01*
X110507523Y-85408646D01*
X110503194Y-85401149D01*
X110473435Y-85376178D01*
X110467067Y-85370344D01*
X109629664Y-84532941D01*
X109623830Y-84526574D01*
X109604418Y-84503440D01*
X109604417Y-84503439D01*
X109598851Y-84496806D01*
X109565188Y-84477371D01*
X109557907Y-84472732D01*
X109555452Y-84471013D01*
X109526080Y-84450446D01*
X109517712Y-84448204D01*
X109512425Y-84445738D01*
X109506940Y-84443742D01*
X109499441Y-84439412D01*
X109490915Y-84437909D01*
X109490913Y-84437908D01*
X109461180Y-84432666D01*
X109452745Y-84430796D01*
X109423570Y-84422978D01*
X109415203Y-84420736D01*
X109406574Y-84421491D01*
X109376491Y-84424123D01*
X109367862Y-84424500D01*
X106675834Y-84424500D01*
X106617643Y-84405593D01*
X106605830Y-84395504D01*
X105933263Y-83722937D01*
X105927439Y-83716581D01*
X105914638Y-83701325D01*
X105897869Y-83672686D01*
X105877454Y-83618659D01*
X105875345Y-83613077D01*
X105779312Y-83473349D01*
X105715160Y-83416191D01*
X105684290Y-83363363D01*
X105690368Y-83302481D01*
X105712746Y-83270581D01*
X105827240Y-83161549D01*
X105834317Y-83153116D01*
X105921800Y-83021443D01*
X105926828Y-83011661D01*
X105982969Y-82863868D01*
X105984330Y-82858568D01*
X105982360Y-82847392D01*
X105981235Y-82846306D01*
X105975577Y-82845000D01*
X104529226Y-82845000D01*
X104518510Y-82848482D01*
X104518551Y-82860044D01*
X104559458Y-82983016D01*
X104564072Y-82993003D01*
X104645967Y-83128226D01*
X104652678Y-83136941D01*
X104762497Y-83250663D01*
X104770970Y-83257672D01*
X104773366Y-83259240D01*
X104774361Y-83260477D01*
X104775238Y-83261203D01*
X104775089Y-83261383D01*
X104811705Y-83306924D01*
X104814694Y-83368036D01*
X104784238Y-83416682D01*
X104725604Y-83467831D01*
X104628113Y-83606547D01*
X104566524Y-83764513D01*
X104544394Y-83932611D01*
X104562999Y-84101135D01*
X104621266Y-84260356D01*
X104715830Y-84401083D01*
X104827374Y-84502580D01*
X104857687Y-84555725D01*
X104850973Y-84616541D01*
X104825824Y-84650404D01*
X104725604Y-84737831D01*
X104628113Y-84876547D01*
X104566524Y-85034513D01*
X104544394Y-85202611D01*
X104545049Y-85208544D01*
X104545049Y-85208548D01*
X104562344Y-85365204D01*
X104562999Y-85371135D01*
X104621266Y-85530356D01*
X104624591Y-85535305D01*
X104624592Y-85535306D01*
X104637427Y-85554407D01*
X104715830Y-85671083D01*
X104827374Y-85772580D01*
X104857687Y-85825725D01*
X104850973Y-85886541D01*
X104825824Y-85920404D01*
X104725604Y-86007831D01*
X104722173Y-86012713D01*
X104722172Y-86012714D01*
X104650238Y-86115066D01*
X104628113Y-86146547D01*
X104566524Y-86304513D01*
X104565745Y-86310428D01*
X104565745Y-86310429D01*
X104548376Y-86442365D01*
X104520227Y-86499447D01*
X103869504Y-87150170D01*
X103814987Y-87177947D01*
X103754555Y-87168376D01*
X103711290Y-87125111D01*
X103700500Y-87080166D01*
X103700500Y-82484642D01*
X104515030Y-82484642D01*
X104516537Y-82492546D01*
X104517946Y-82493869D01*
X104523004Y-82495000D01*
X105059320Y-82495000D01*
X105072005Y-82490878D01*
X105075000Y-82486757D01*
X105075000Y-82479320D01*
X105425000Y-82479320D01*
X105429122Y-82492005D01*
X105433243Y-82495000D01*
X105971834Y-82495000D01*
X105982307Y-82491597D01*
X105982182Y-82479688D01*
X105936104Y-82347373D01*
X105931352Y-82337454D01*
X105847575Y-82203381D01*
X105840746Y-82194765D01*
X105729351Y-82082590D01*
X105720776Y-82075696D01*
X105587293Y-81990984D01*
X105577412Y-81986166D01*
X105439770Y-81937153D01*
X105428892Y-81936849D01*
X105425000Y-81948282D01*
X105425000Y-82479320D01*
X105075000Y-82479320D01*
X105075000Y-81948716D01*
X105071558Y-81938122D01*
X105059819Y-81938204D01*
X104932174Y-81981658D01*
X104922216Y-81986343D01*
X104787563Y-82069183D01*
X104778904Y-82075948D01*
X104665948Y-82186563D01*
X104658997Y-82195086D01*
X104573358Y-82327972D01*
X104568467Y-82337826D01*
X104515030Y-82484642D01*
X103700500Y-82484642D01*
X103700500Y-81498041D01*
X106356000Y-81498041D01*
X106356390Y-81504229D01*
X106370731Y-81617755D01*
X106373805Y-81629727D01*
X106430048Y-81771782D01*
X106435999Y-81782607D01*
X106525806Y-81906216D01*
X106534262Y-81915221D01*
X106651986Y-82012609D01*
X106662419Y-82019231D01*
X106800660Y-82084283D01*
X106812416Y-82088102D01*
X106819599Y-82089472D01*
X106832830Y-82087800D01*
X106833018Y-82087624D01*
X106835000Y-82079903D01*
X106835000Y-82075115D01*
X107185000Y-82075115D01*
X107188521Y-82085950D01*
X107199911Y-82085950D01*
X107284750Y-82058384D01*
X107295930Y-82053124D01*
X107424933Y-81971256D01*
X107434452Y-81963382D01*
X107539036Y-81852010D01*
X107546304Y-81842006D01*
X107619907Y-81708124D01*
X107624455Y-81696636D01*
X107662452Y-81548647D01*
X107664000Y-81536395D01*
X107664000Y-81498041D01*
X115336000Y-81498041D01*
X115336390Y-81504229D01*
X115350731Y-81617755D01*
X115353805Y-81629727D01*
X115410048Y-81771782D01*
X115415999Y-81782607D01*
X115505806Y-81906216D01*
X115514262Y-81915221D01*
X115631986Y-82012609D01*
X115642419Y-82019231D01*
X115780660Y-82084283D01*
X115792416Y-82088102D01*
X115799599Y-82089472D01*
X115812830Y-82087800D01*
X115813018Y-82087624D01*
X115815000Y-82079903D01*
X115815000Y-82075115D01*
X116165000Y-82075115D01*
X116168521Y-82085950D01*
X116179911Y-82085950D01*
X116264750Y-82058384D01*
X116275930Y-82053124D01*
X116404933Y-81971256D01*
X116414452Y-81963382D01*
X116519036Y-81852010D01*
X116526304Y-81842006D01*
X116599907Y-81708124D01*
X116604455Y-81696636D01*
X116642452Y-81548647D01*
X116644000Y-81536395D01*
X116644000Y-81350680D01*
X116639878Y-81337995D01*
X116635757Y-81335000D01*
X116180680Y-81335000D01*
X116167995Y-81339122D01*
X116165000Y-81343243D01*
X116165000Y-82075115D01*
X115815000Y-82075115D01*
X115815000Y-81350680D01*
X115810878Y-81337995D01*
X115806757Y-81335000D01*
X115351680Y-81335000D01*
X115338995Y-81339122D01*
X115336000Y-81343243D01*
X115336000Y-81498041D01*
X107664000Y-81498041D01*
X107664000Y-81350680D01*
X107659878Y-81337995D01*
X107655757Y-81335000D01*
X107200680Y-81335000D01*
X107187995Y-81339122D01*
X107185000Y-81343243D01*
X107185000Y-82075115D01*
X106835000Y-82075115D01*
X106835000Y-81350680D01*
X106830878Y-81337995D01*
X106826757Y-81335000D01*
X106371680Y-81335000D01*
X106358995Y-81339122D01*
X106356000Y-81343243D01*
X106356000Y-81498041D01*
X103700500Y-81498041D01*
X103700500Y-80534281D01*
X103703057Y-80511926D01*
X103703141Y-80511565D01*
X103705655Y-80500718D01*
X103705656Y-80500000D01*
X103704658Y-80495626D01*
X103705242Y-80470062D01*
X103712706Y-80422934D01*
X103722277Y-80393479D01*
X103750579Y-80337932D01*
X103768785Y-80312872D01*
X103812872Y-80268785D01*
X103837932Y-80250579D01*
X103893479Y-80222277D01*
X103922935Y-80212706D01*
X103975501Y-80204381D01*
X103989391Y-80203299D01*
X103999641Y-80205656D01*
X104010522Y-80203194D01*
X104010793Y-80203133D01*
X104011641Y-80202941D01*
X104033488Y-80200500D01*
X106503378Y-80200500D01*
X106561569Y-80219407D01*
G37*
%TD.AperFunction*%
%TD*%
M02*
