%TF.GenerationSoftware,KiCad,Pcbnew,(6.0.8)*%
%TF.CreationDate,2022-10-30T15:43:18+01:00*%
%TF.ProjectId,k1-aioc,6b312d61-696f-4632-9e6b-696361645f70,rev?*%
%TF.SameCoordinates,Original*%
%TF.FileFunction,Copper,L2,Bot*%
%TF.FilePolarity,Positive*%
%FSLAX46Y46*%
G04 Gerber Fmt 4.6, Leading zero omitted, Abs format (unit mm)*
G04 Created by KiCad (PCBNEW (6.0.8)) date 2022-10-30 15:43:18*
%MOMM*%
%LPD*%
G01*
G04 APERTURE LIST*
G04 Aperture macros list*
%AMRoundRect*
0 Rectangle with rounded corners*
0 $1 Rounding radius*
0 $2 $3 $4 $5 $6 $7 $8 $9 X,Y pos of 4 corners*
0 Add a 4 corners polygon primitive as box body*
4,1,4,$2,$3,$4,$5,$6,$7,$8,$9,$2,$3,0*
0 Add four circle primitives for the rounded corners*
1,1,$1+$1,$2,$3*
1,1,$1+$1,$4,$5*
1,1,$1+$1,$6,$7*
1,1,$1+$1,$8,$9*
0 Add four rect primitives between the rounded corners*
20,1,$1+$1,$2,$3,$4,$5,0*
20,1,$1+$1,$4,$5,$6,$7,0*
20,1,$1+$1,$6,$7,$8,$9,0*
20,1,$1+$1,$8,$9,$2,$3,0*%
G04 Aperture macros list end*
%TA.AperFunction,ComponentPad*%
%ADD10O,0.800000X1.400000*%
%TD*%
%TA.AperFunction,ComponentPad*%
%ADD11R,1.000000X1.000000*%
%TD*%
%TA.AperFunction,ComponentPad*%
%ADD12O,1.000000X1.000000*%
%TD*%
%TA.AperFunction,ComponentPad*%
%ADD13C,2.000000*%
%TD*%
%TA.AperFunction,SMDPad,CuDef*%
%ADD14RoundRect,0.218750X0.218750X0.256250X-0.218750X0.256250X-0.218750X-0.256250X0.218750X-0.256250X0*%
%TD*%
%TA.AperFunction,SMDPad,CuDef*%
%ADD15RoundRect,0.218750X-0.218750X-0.256250X0.218750X-0.256250X0.218750X0.256250X-0.218750X0.256250X0*%
%TD*%
%TA.AperFunction,ViaPad*%
%ADD16C,0.600000*%
%TD*%
%TA.AperFunction,ViaPad*%
%ADD17C,0.800000*%
%TD*%
%TA.AperFunction,Conductor*%
%ADD18C,0.250000*%
%TD*%
%TA.AperFunction,Conductor*%
%ADD19C,0.500000*%
%TD*%
G04 APERTURE END LIST*
D10*
%TO.P,J1,S1,SHIELD*%
%TO.N,GND*%
X107370000Y-87110000D03*
X107010000Y-81160000D03*
X115630000Y-87110000D03*
X115990000Y-81160000D03*
%TD*%
D11*
%TO.P,J2,1,Pin_1*%
%TO.N,/BOOT0*%
X105250000Y-88770000D03*
D12*
%TO.P,J2,2,Pin_2*%
%TO.N,+3V3*%
X105250000Y-87500000D03*
%TO.P,J2,3,Pin_3*%
%TO.N,/SWCLK*%
X105250000Y-86230000D03*
%TO.P,J2,4,Pin_4*%
%TO.N,GND*%
X105250000Y-84960000D03*
%TO.P,J2,5,Pin_5*%
%TO.N,/SWDIO*%
X105250000Y-83690000D03*
%TO.P,J2,6,Pin_6*%
%TO.N,/NRST*%
X105250000Y-82420000D03*
%TO.P,J2,7,Pin_7*%
%TO.N,/SWO*%
X105250000Y-81150000D03*
%TD*%
D13*
%TO.P,H1,1*%
%TO.N,N/C*%
X118250000Y-81250000D03*
%TD*%
D14*
%TO.P,D4,1,K*%
%TO.N,Net-(D1-Pad2)*%
X106287500Y-105000000D03*
%TO.P,D4,2,A*%
%TO.N,Net-(D1-Pad1)*%
X104712500Y-105000000D03*
%TD*%
D15*
%TO.P,D3,1,K*%
%TO.N,Net-(D1-Pad1)*%
X104712500Y-103500000D03*
%TO.P,D3,2,A*%
%TO.N,Net-(D1-Pad2)*%
X106287500Y-103500000D03*
%TD*%
D16*
%TO.N,GND*%
X116500000Y-103750000D03*
X115500000Y-97500000D03*
X113000000Y-83500000D03*
X105800000Y-94750000D03*
X116500000Y-94500000D03*
X118950000Y-83250000D03*
X104500000Y-108500000D03*
X115000000Y-102000000D03*
X116500000Y-102750000D03*
X113000000Y-96500000D03*
X110000000Y-100250000D03*
X118950000Y-84750000D03*
X109250000Y-103750000D03*
X112250000Y-102000000D03*
X107250000Y-89750000D03*
X111500000Y-108500000D03*
X112000000Y-97500000D03*
X105250000Y-89769502D03*
X105500000Y-98000000D03*
D17*
X123250000Y-100000000D03*
D16*
X110000000Y-98250000D03*
X114000000Y-99000000D03*
X116000000Y-83500000D03*
X113750000Y-110500000D03*
X109250000Y-102750000D03*
X114500000Y-101000000D03*
X113750000Y-109500000D03*
X106999730Y-83498631D03*
X105500000Y-99750000D03*
X110000000Y-101000000D03*
X104500000Y-110000000D03*
X117000000Y-90150000D03*
X114000000Y-92000000D03*
X113000000Y-97500000D03*
X113000000Y-102000000D03*
X106250000Y-89750000D03*
X107250000Y-104750000D03*
D17*
X121750000Y-100000000D03*
D16*
X116500000Y-95500000D03*
X111500000Y-110000000D03*
X114750000Y-98250000D03*
X115750000Y-110000000D03*
X114000000Y-96500000D03*
X116250000Y-90150000D03*
X113750000Y-108500000D03*
X114499130Y-83499207D03*
X112000000Y-96500000D03*
X108500000Y-83500000D03*
X105200000Y-94750000D03*
X111500000Y-83500000D03*
D17*
X123250000Y-101500000D03*
D16*
X115500000Y-99000000D03*
X111000000Y-96500000D03*
X115500000Y-101000000D03*
X111500000Y-102000000D03*
X118950000Y-86250000D03*
X109250000Y-104750000D03*
X115500000Y-92000000D03*
X118950000Y-87750000D03*
X110000000Y-83500000D03*
%TO.N,/SWCLK*%
X109299068Y-93000472D03*
%TO.N,/SWDIO*%
X110098525Y-92991979D03*
%TO.N,/USB-DP*%
X111350000Y-86250000D03*
X111350000Y-90500000D03*
X111350000Y-93250000D03*
%TO.N,/USB-DN*%
X112150000Y-86250000D03*
X112150000Y-90500000D03*
X112150000Y-93250000D03*
%TO.N,+3V3*%
X110274500Y-97000000D03*
X110750000Y-97500000D03*
X109000000Y-92250000D03*
X107250000Y-96650000D03*
X107250000Y-97350000D03*
%TO.N,+3.3VA*%
X111750000Y-99250000D03*
X112500000Y-99250000D03*
X107250000Y-99250000D03*
X111750000Y-100750000D03*
X107250000Y-98550000D03*
X112500000Y-100750000D03*
%TO.N,Net-(J1-PadA5)*%
X113750000Y-85750000D03*
X112899500Y-89942499D03*
%TO.N,/RADIO-RX-PTT1*%
X118750000Y-109500000D03*
X119550000Y-89350000D03*
%TO.N,/RADIO-TX*%
X118950000Y-88750000D03*
D17*
X118776040Y-98783914D03*
D16*
%TO.N,/NRST*%
X112600000Y-107750000D03*
%TO.N,/SWO*%
X110000000Y-93799503D03*
%TO.N,/BOOT0*%
X105500000Y-101250000D03*
%TO.N,Net-(D1-Pad1)*%
X105500000Y-104250000D03*
%TO.N,Net-(D1-Pad2)*%
X105500000Y-102750000D03*
%TD*%
D18*
%TO.N,/SWCLK*%
X109625000Y-85625000D02*
X109250000Y-85250000D01*
X106230000Y-85250000D02*
X105250000Y-86230000D01*
X109299068Y-92907552D02*
X109625000Y-92581620D01*
X109625000Y-92581620D02*
X109625000Y-85625000D01*
X109299068Y-93000472D02*
X109299068Y-92907552D01*
X109250000Y-85250000D02*
X106230000Y-85250000D01*
%TO.N,/SWDIO*%
X110098525Y-92991979D02*
X110075500Y-92968954D01*
X106310000Y-84750000D02*
X105250000Y-83690000D01*
X109386396Y-84750000D02*
X106310000Y-84750000D01*
X110075500Y-85439104D02*
X109386396Y-84750000D01*
X110075500Y-92968954D02*
X110075500Y-85439104D01*
D19*
%TO.N,/USB-DP*%
X111400000Y-86300000D02*
X111400000Y-93200000D01*
X111350000Y-86250000D02*
X111400000Y-86300000D01*
X111400000Y-93200000D02*
X111350000Y-93250000D01*
%TO.N,/USB-DN*%
X112100000Y-93200000D02*
X112150000Y-93250000D01*
X112100000Y-86300000D02*
X112100000Y-93200000D01*
X112150000Y-86250000D02*
X112100000Y-86300000D01*
D18*
%TO.N,+3V3*%
X106250000Y-87000000D02*
X105750000Y-87500000D01*
X106750000Y-85750000D02*
X106250000Y-86250000D01*
X109175000Y-92075000D02*
X109175000Y-85925000D01*
D19*
X110274500Y-97000000D02*
X110250000Y-97000000D01*
D18*
X106250000Y-86250000D02*
X106250000Y-87000000D01*
X109000000Y-92250000D02*
X109175000Y-92075000D01*
D19*
X107250000Y-96650000D02*
X107250000Y-97350000D01*
D18*
X109175000Y-85925000D02*
X109000000Y-85750000D01*
D19*
X110250000Y-97000000D02*
X110750000Y-97500000D01*
X107250000Y-96650000D02*
X109900000Y-96650000D01*
X109900000Y-96650000D02*
X110750000Y-97500000D01*
D18*
X109000000Y-85750000D02*
X106750000Y-85750000D01*
X105750000Y-87500000D02*
X105250000Y-87500000D01*
D19*
%TO.N,+3.3VA*%
X112500000Y-99250000D02*
X112500000Y-100750000D01*
X107250000Y-99250000D02*
X107250000Y-98550000D01*
X112100000Y-99250000D02*
X112100000Y-100750000D01*
X111750000Y-99250000D02*
X112250000Y-99250000D01*
X111750000Y-99250000D02*
X111750000Y-100750000D01*
X111750000Y-99250000D02*
X107250000Y-99250000D01*
X112250000Y-99250000D02*
X112500000Y-99250000D01*
D18*
%TO.N,Net-(J1-PadA5)*%
X113250000Y-89591999D02*
X112899500Y-89942499D01*
X113250000Y-86250000D02*
X113250000Y-89591999D01*
X113750000Y-85750000D02*
X113250000Y-86250000D01*
%TO.N,/RADIO-RX-PTT1*%
X119550000Y-89350000D02*
X119550000Y-89597488D01*
X119952512Y-90000000D02*
X123250000Y-90000000D01*
X118750000Y-109500000D02*
X118750000Y-108750000D01*
X123250000Y-90000000D02*
X124000000Y-90750000D01*
X124000000Y-103025000D02*
X123525000Y-103500000D01*
X123525000Y-103500000D02*
X123000000Y-103500000D01*
X119550000Y-89597488D02*
X119952512Y-90000000D01*
X124000000Y-90750000D02*
X124000000Y-103025000D01*
%TO.N,/RADIO-TX*%
X118776040Y-98783914D02*
X120059954Y-97500000D01*
X123100000Y-97500000D02*
X123550000Y-97050000D01*
X120059954Y-97500000D02*
X123100000Y-97500000D01*
X123550000Y-97050000D02*
X123550000Y-90936396D01*
X119816116Y-90500000D02*
X118925000Y-89608884D01*
X118925000Y-89608884D02*
X118925000Y-88775000D01*
X123550000Y-90936396D02*
X123113604Y-90500000D01*
X123113604Y-90500000D02*
X119816116Y-90500000D01*
X118925000Y-88775000D02*
X118950000Y-88750000D01*
%TO.N,/NRST*%
X112075000Y-111125000D02*
X104725000Y-111125000D01*
X103850000Y-110250000D02*
X103850000Y-82900000D01*
X104725000Y-111125000D02*
X103850000Y-110250000D01*
X112600000Y-107750000D02*
X112600000Y-110600000D01*
X104330000Y-82420000D02*
X105250000Y-82420000D01*
X112600000Y-110600000D02*
X112075000Y-111125000D01*
X103850000Y-82900000D02*
X104330000Y-82420000D01*
%TO.N,/SWO*%
X106250000Y-83816392D02*
X106250000Y-82150000D01*
X110250000Y-93799503D02*
X110723525Y-93325978D01*
X110723525Y-92733095D02*
X110525500Y-92535070D01*
X110000000Y-93799503D02*
X110250000Y-93799503D01*
X110723525Y-93325978D02*
X110723525Y-92733095D01*
X110525500Y-85252708D02*
X109522792Y-84250000D01*
X110525500Y-92535070D02*
X110525500Y-85252708D01*
X106683608Y-84250000D02*
X106250000Y-83816392D01*
X109522792Y-84250000D02*
X106683608Y-84250000D01*
X106250000Y-82150000D02*
X105250000Y-81150000D01*
%TO.N,/BOOT0*%
X104300000Y-89720000D02*
X104300000Y-101050000D01*
X104300000Y-101050000D02*
X104500000Y-101250000D01*
X105250000Y-88770000D02*
X104300000Y-89720000D01*
X104500000Y-101250000D02*
X105500000Y-101250000D01*
%TO.N,Net-(D1-Pad1)*%
X104712500Y-103500000D02*
X104712500Y-105000000D01*
X105250000Y-105000000D02*
X104712500Y-105000000D01*
X105500000Y-104750000D02*
X105250000Y-105000000D01*
X105500000Y-104250000D02*
X105500000Y-104750000D01*
%TO.N,Net-(D1-Pad2)*%
X106287500Y-103500000D02*
X106287500Y-105000000D01*
X105500000Y-102750000D02*
X105500000Y-103250000D01*
X105750000Y-103500000D02*
X106287500Y-103500000D01*
X105500000Y-103250000D02*
X105750000Y-103500000D01*
%TD*%
%TA.AperFunction,Conductor*%
%TO.N,GND*%
G36*
X122762170Y-91002421D02*
G01*
X122786073Y-91007175D01*
X122821091Y-91014141D01*
X122866510Y-91032954D01*
X122886329Y-91046196D01*
X122905939Y-91059300D01*
X122940700Y-91094061D01*
X122967045Y-91133488D01*
X122985860Y-91178911D01*
X122997579Y-91237830D01*
X123000000Y-91262410D01*
X123000000Y-96737590D01*
X122997579Y-96762170D01*
X122985860Y-96821089D01*
X122967045Y-96866512D01*
X122940700Y-96905939D01*
X122905939Y-96940700D01*
X122886329Y-96953804D01*
X122866510Y-96967046D01*
X122821091Y-96985859D01*
X122786073Y-96992825D01*
X122762170Y-96997579D01*
X122737590Y-97000000D01*
X117762410Y-97000000D01*
X117737830Y-96997579D01*
X117713927Y-96992825D01*
X117678909Y-96985859D01*
X117633490Y-96967046D01*
X117613671Y-96953804D01*
X117594061Y-96940700D01*
X117559300Y-96905939D01*
X117532955Y-96866512D01*
X117514140Y-96821089D01*
X117502421Y-96762170D01*
X117500000Y-96737590D01*
X117500000Y-91262410D01*
X117502421Y-91237830D01*
X117514140Y-91178911D01*
X117532955Y-91133488D01*
X117559300Y-91094061D01*
X117594061Y-91059300D01*
X117613671Y-91046196D01*
X117633490Y-91032954D01*
X117678909Y-91014141D01*
X117713927Y-91007175D01*
X117737830Y-91002421D01*
X117762410Y-91000000D01*
X122737590Y-91000000D01*
X122762170Y-91002421D01*
G37*
%TD.AperFunction*%
%TD*%
%TA.AperFunction,Conductor*%
%TO.N,/RADIO-RX-PTT1*%
G36*
X123012170Y-103002421D02*
G01*
X123036073Y-103007175D01*
X123071091Y-103014141D01*
X123116510Y-103032954D01*
X123136329Y-103046196D01*
X123155939Y-103059300D01*
X123190700Y-103094061D01*
X123217045Y-103133488D01*
X123235860Y-103178911D01*
X123247579Y-103237830D01*
X123250000Y-103262410D01*
X123250000Y-108737590D01*
X123247579Y-108762170D01*
X123235860Y-108821089D01*
X123217045Y-108866512D01*
X123190700Y-108905939D01*
X123155939Y-108940700D01*
X123136329Y-108953804D01*
X123116510Y-108967046D01*
X123071091Y-108985859D01*
X123036073Y-108992825D01*
X123012170Y-108997579D01*
X122987590Y-109000000D01*
X117762410Y-109000000D01*
X117737830Y-108997579D01*
X117713927Y-108992825D01*
X117678909Y-108985859D01*
X117633490Y-108967046D01*
X117613671Y-108953804D01*
X117594061Y-108940700D01*
X117559300Y-108905939D01*
X117532955Y-108866512D01*
X117514140Y-108821089D01*
X117502421Y-108762170D01*
X117500000Y-108737590D01*
X117500000Y-103262410D01*
X117502421Y-103237830D01*
X117514140Y-103178911D01*
X117532955Y-103133488D01*
X117559300Y-103094061D01*
X117594061Y-103059300D01*
X117613671Y-103046196D01*
X117633490Y-103032954D01*
X117678909Y-103014141D01*
X117713927Y-103007175D01*
X117737830Y-103002421D01*
X117762410Y-103000000D01*
X122987590Y-103000000D01*
X123012170Y-103002421D01*
G37*
%TD.AperFunction*%
%TD*%
%TA.AperFunction,Conductor*%
%TO.N,GND*%
G36*
X106561569Y-80219407D02*
G01*
X106597533Y-80268907D01*
X106597533Y-80330093D01*
X106575546Y-80367270D01*
X106480964Y-80467990D01*
X106473696Y-80477994D01*
X106400093Y-80611876D01*
X106395545Y-80623364D01*
X106357548Y-80771353D01*
X106356000Y-80783605D01*
X106356000Y-80969320D01*
X106360122Y-80982005D01*
X106364243Y-80985000D01*
X107648320Y-80985000D01*
X107661005Y-80980878D01*
X107664000Y-80976757D01*
X107664000Y-80821959D01*
X107663610Y-80815771D01*
X107649269Y-80702245D01*
X107646195Y-80690273D01*
X107589952Y-80548218D01*
X107584001Y-80537393D01*
X107494194Y-80413784D01*
X107485738Y-80404779D01*
X107450685Y-80375781D01*
X107417900Y-80324120D01*
X107421742Y-80263055D01*
X107460743Y-80215911D01*
X107513790Y-80200500D01*
X115483378Y-80200500D01*
X115541569Y-80219407D01*
X115577533Y-80268907D01*
X115577533Y-80330093D01*
X115555546Y-80367270D01*
X115460964Y-80467990D01*
X115453696Y-80477994D01*
X115380093Y-80611876D01*
X115375545Y-80623364D01*
X115337548Y-80771353D01*
X115336000Y-80783605D01*
X115336000Y-80969320D01*
X115340122Y-80982005D01*
X115344243Y-80985000D01*
X116628320Y-80985000D01*
X116641005Y-80980878D01*
X116644000Y-80976757D01*
X116644000Y-80821959D01*
X116643610Y-80815771D01*
X116629269Y-80702245D01*
X116626195Y-80690273D01*
X116569952Y-80548218D01*
X116564001Y-80537393D01*
X116474194Y-80413784D01*
X116465738Y-80404779D01*
X116430685Y-80375781D01*
X116397900Y-80324120D01*
X116401742Y-80263055D01*
X116440743Y-80215911D01*
X116493790Y-80200500D01*
X117362815Y-80200500D01*
X117421006Y-80219407D01*
X117456970Y-80268907D01*
X117456970Y-80330093D01*
X117428090Y-80373932D01*
X117375457Y-80420090D01*
X117372649Y-80423652D01*
X117241945Y-80589451D01*
X117238863Y-80593360D01*
X117236749Y-80597378D01*
X117138770Y-80783605D01*
X117136131Y-80788620D01*
X117126960Y-80818157D01*
X117074346Y-80987602D01*
X117070703Y-80999333D01*
X117044770Y-81218440D01*
X117048343Y-81272957D01*
X117052410Y-81335000D01*
X117059200Y-81438604D01*
X117060316Y-81442997D01*
X117060316Y-81442999D01*
X117108773Y-81633798D01*
X117113511Y-81652452D01*
X117205883Y-81852821D01*
X117333222Y-82033002D01*
X117381367Y-82079903D01*
X117463492Y-82159906D01*
X117491264Y-82186961D01*
X117674717Y-82309540D01*
X117877436Y-82396635D01*
X117955165Y-82414223D01*
X118088206Y-82444328D01*
X118088211Y-82444329D01*
X118092632Y-82445329D01*
X118202865Y-82449660D01*
X118308565Y-82453813D01*
X118308566Y-82453813D01*
X118313098Y-82453991D01*
X118531452Y-82422331D01*
X118535751Y-82420872D01*
X118535754Y-82420871D01*
X118736078Y-82352870D01*
X118740379Y-82351410D01*
X118811944Y-82311332D01*
X118928925Y-82245819D01*
X118932884Y-82243602D01*
X119102518Y-82102518D01*
X119124385Y-82076226D01*
X119176131Y-82043577D01*
X119237186Y-82047579D01*
X119284227Y-82086703D01*
X119299500Y-82139531D01*
X119299500Y-88200775D01*
X119280593Y-88258966D01*
X119231093Y-88294930D01*
X119169907Y-88294930D01*
X119165542Y-88293219D01*
X119162095Y-88290985D01*
X119155337Y-88288964D01*
X119155335Y-88288963D01*
X119031500Y-88251929D01*
X119024739Y-88249907D01*
X118941497Y-88249398D01*
X118888427Y-88249074D01*
X118888426Y-88249074D01*
X118881376Y-88249031D01*
X118874599Y-88250968D01*
X118874598Y-88250968D01*
X118750309Y-88286490D01*
X118750307Y-88286491D01*
X118743529Y-88288428D01*
X118622280Y-88364930D01*
X118617613Y-88370214D01*
X118617611Y-88370216D01*
X118532044Y-88467103D01*
X118532042Y-88467105D01*
X118527377Y-88472388D01*
X118466447Y-88602163D01*
X118465362Y-88609132D01*
X118465361Y-88609135D01*
X118458161Y-88655379D01*
X118444391Y-88743823D01*
X118445306Y-88750820D01*
X118445306Y-88750821D01*
X118458263Y-88849907D01*
X118462980Y-88885979D01*
X118465821Y-88892435D01*
X118465821Y-88892436D01*
X118484584Y-88935077D01*
X118520720Y-89017203D01*
X118571466Y-89077572D01*
X118576283Y-89083303D01*
X118599253Y-89140013D01*
X118599500Y-89147005D01*
X118599500Y-89590350D01*
X118599123Y-89598979D01*
X118595736Y-89637691D01*
X118597978Y-89646058D01*
X118605796Y-89675233D01*
X118607666Y-89683668D01*
X118612786Y-89712706D01*
X118614412Y-89721929D01*
X118618742Y-89729428D01*
X118620738Y-89734913D01*
X118623204Y-89740200D01*
X118625446Y-89748568D01*
X118646013Y-89777940D01*
X118647732Y-89780395D01*
X118652371Y-89787676D01*
X118671806Y-89821339D01*
X118691581Y-89837932D01*
X118701570Y-89846314D01*
X118707938Y-89852149D01*
X119186785Y-90330997D01*
X119214562Y-90385513D01*
X119204991Y-90445945D01*
X119161726Y-90489210D01*
X119116781Y-90500000D01*
X117000000Y-90500000D01*
X117000000Y-93250000D01*
X117500000Y-93250000D01*
X117500000Y-94750000D01*
X117000000Y-94750000D01*
X117000000Y-97500000D01*
X119360620Y-97500000D01*
X119418811Y-97518907D01*
X119454775Y-97568407D01*
X119454775Y-97629593D01*
X119430624Y-97669004D01*
X118939007Y-98160621D01*
X118884490Y-98188398D01*
X118856085Y-98188770D01*
X118776040Y-98178232D01*
X118619278Y-98198870D01*
X118473199Y-98259378D01*
X118347758Y-98355632D01*
X118251504Y-98481073D01*
X118190996Y-98627152D01*
X118170358Y-98783914D01*
X118190996Y-98940676D01*
X118251504Y-99086755D01*
X118347758Y-99212196D01*
X118473199Y-99308450D01*
X118619278Y-99368958D01*
X118776040Y-99389596D01*
X118932802Y-99368958D01*
X119078881Y-99308450D01*
X119204322Y-99212196D01*
X119300576Y-99086755D01*
X119361084Y-98940676D01*
X119381722Y-98783914D01*
X119371184Y-98703872D01*
X119382334Y-98643713D01*
X119399333Y-98620947D01*
X120165784Y-97854496D01*
X120220301Y-97826719D01*
X120235788Y-97825500D01*
X123081466Y-97825500D01*
X123090095Y-97825877D01*
X123128807Y-97829264D01*
X123138305Y-97826719D01*
X123166349Y-97819204D01*
X123174784Y-97817334D01*
X123204517Y-97812092D01*
X123204519Y-97812091D01*
X123213045Y-97810588D01*
X123220544Y-97806258D01*
X123226029Y-97804262D01*
X123231316Y-97801796D01*
X123239684Y-97799554D01*
X123271511Y-97777268D01*
X123278795Y-97772627D01*
X123312455Y-97753194D01*
X123337431Y-97723429D01*
X123343265Y-97717061D01*
X123505496Y-97554830D01*
X123560013Y-97527053D01*
X123620445Y-97536624D01*
X123663710Y-97579889D01*
X123674500Y-97624834D01*
X123674500Y-102849166D01*
X123655593Y-102907357D01*
X123645504Y-102919169D01*
X123577384Y-102987290D01*
X123575207Y-102989467D01*
X123520691Y-103017245D01*
X123460259Y-103007674D01*
X123422890Y-102974468D01*
X123406465Y-102949888D01*
X123374194Y-102910567D01*
X123339433Y-102875806D01*
X123300111Y-102843535D01*
X123293070Y-102838830D01*
X123262697Y-102818535D01*
X123262691Y-102818532D01*
X123260682Y-102817189D01*
X123215816Y-102793207D01*
X123194414Y-102784342D01*
X123172638Y-102775322D01*
X123172634Y-102775320D01*
X123170397Y-102774394D01*
X123168088Y-102773694D01*
X123168078Y-102773690D01*
X123124041Y-102760332D01*
X123124036Y-102760331D01*
X123121716Y-102759627D01*
X123103949Y-102756093D01*
X123063962Y-102748139D01*
X123063957Y-102748138D01*
X123062795Y-102747907D01*
X123037606Y-102744171D01*
X123017515Y-102742192D01*
X123014245Y-102741870D01*
X123014242Y-102741870D01*
X123013026Y-102741750D01*
X123011832Y-102741691D01*
X123011814Y-102741690D01*
X123000703Y-102741144D01*
X122987590Y-102740500D01*
X117762410Y-102740500D01*
X117749297Y-102741144D01*
X117738186Y-102741690D01*
X117738168Y-102741691D01*
X117736974Y-102741750D01*
X117735758Y-102741870D01*
X117735755Y-102741870D01*
X117732485Y-102742192D01*
X117712394Y-102744171D01*
X117687205Y-102747907D01*
X117686043Y-102748138D01*
X117686038Y-102748139D01*
X117646051Y-102756093D01*
X117628284Y-102759627D01*
X117625964Y-102760331D01*
X117625959Y-102760332D01*
X117581922Y-102773690D01*
X117581912Y-102773694D01*
X117579603Y-102774394D01*
X117577366Y-102775320D01*
X117577362Y-102775322D01*
X117555586Y-102784342D01*
X117534184Y-102793207D01*
X117489318Y-102817189D01*
X117487309Y-102818532D01*
X117487303Y-102818535D01*
X117456930Y-102838830D01*
X117449889Y-102843535D01*
X117410567Y-102875806D01*
X117375806Y-102910567D01*
X117343535Y-102949888D01*
X117342185Y-102951908D01*
X117342183Y-102951911D01*
X117327111Y-102974467D01*
X117317190Y-102989315D01*
X117293209Y-103034181D01*
X117274394Y-103079604D01*
X117267010Y-103103946D01*
X117262057Y-103120275D01*
X117259626Y-103128288D01*
X117247907Y-103187207D01*
X117244171Y-103212394D01*
X117241750Y-103236974D01*
X117240500Y-103262410D01*
X117240500Y-108737590D01*
X117241750Y-108763026D01*
X117244171Y-108787606D01*
X117247907Y-108812793D01*
X117259626Y-108871712D01*
X117274394Y-108920396D01*
X117293209Y-108965819D01*
X117317190Y-109010685D01*
X117343535Y-109050112D01*
X117375806Y-109089433D01*
X117410567Y-109124194D01*
X117449889Y-109156465D01*
X117451912Y-109157816D01*
X117451915Y-109157819D01*
X117487303Y-109181465D01*
X117487309Y-109181468D01*
X117489318Y-109182811D01*
X117534184Y-109206793D01*
X117555586Y-109215658D01*
X117577362Y-109224678D01*
X117577366Y-109224680D01*
X117579603Y-109225606D01*
X117581912Y-109226306D01*
X117581922Y-109226310D01*
X117625959Y-109239668D01*
X117625964Y-109239669D01*
X117628284Y-109240373D01*
X117630662Y-109240846D01*
X117686038Y-109251861D01*
X117686043Y-109251862D01*
X117687205Y-109252093D01*
X117712394Y-109255829D01*
X117732485Y-109257808D01*
X117735755Y-109258130D01*
X117735758Y-109258130D01*
X117736974Y-109258250D01*
X117738168Y-109258309D01*
X117738186Y-109258310D01*
X117749297Y-109258856D01*
X117762410Y-109259500D01*
X118165268Y-109259500D01*
X118223459Y-109278407D01*
X118259423Y-109327907D01*
X118263089Y-109373730D01*
X118244391Y-109493823D01*
X118245306Y-109500820D01*
X118245306Y-109500821D01*
X118246814Y-109512354D01*
X118262980Y-109635979D01*
X118265821Y-109642435D01*
X118265821Y-109642436D01*
X118273586Y-109660082D01*
X118320720Y-109767203D01*
X118333792Y-109782754D01*
X118408431Y-109871549D01*
X118408434Y-109871551D01*
X118412970Y-109876948D01*
X118418841Y-109880856D01*
X118418842Y-109880857D01*
X118431143Y-109889045D01*
X118532313Y-109956390D01*
X118632920Y-109987821D01*
X118662425Y-109997039D01*
X118662426Y-109997039D01*
X118669157Y-109999142D01*
X118740828Y-110000456D01*
X118805445Y-110001641D01*
X118805447Y-110001641D01*
X118812499Y-110001770D01*
X118819302Y-109999915D01*
X118819304Y-109999915D01*
X118894503Y-109979413D01*
X118950817Y-109964060D01*
X119072991Y-109889045D01*
X119080403Y-109880857D01*
X119164468Y-109787982D01*
X119169200Y-109782754D01*
X119231710Y-109653733D01*
X119235875Y-109628982D01*
X119254862Y-109516124D01*
X119254862Y-109516120D01*
X119255496Y-109512354D01*
X119255647Y-109500000D01*
X119255104Y-109496207D01*
X119237393Y-109372534D01*
X119247860Y-109312251D01*
X119291762Y-109269633D01*
X119335393Y-109259500D01*
X122987590Y-109259500D01*
X123000703Y-109258856D01*
X123011814Y-109258310D01*
X123011832Y-109258309D01*
X123013026Y-109258250D01*
X123014242Y-109258130D01*
X123014245Y-109258130D01*
X123017515Y-109257808D01*
X123037606Y-109255829D01*
X123062795Y-109252093D01*
X123063957Y-109251862D01*
X123063962Y-109251861D01*
X123119338Y-109240846D01*
X123121716Y-109240373D01*
X123124036Y-109239669D01*
X123124041Y-109239668D01*
X123168078Y-109226310D01*
X123168088Y-109226306D01*
X123170397Y-109225606D01*
X123172634Y-109224680D01*
X123172638Y-109224678D01*
X123194414Y-109215658D01*
X123215816Y-109206793D01*
X123260682Y-109182811D01*
X123262691Y-109181468D01*
X123262697Y-109181465D01*
X123298085Y-109157819D01*
X123298088Y-109157816D01*
X123300111Y-109156465D01*
X123339433Y-109124194D01*
X123374194Y-109089433D01*
X123406465Y-109050112D01*
X123432810Y-109010685D01*
X123456791Y-108965819D01*
X123475606Y-108920396D01*
X123490374Y-108871712D01*
X123502093Y-108812793D01*
X123505829Y-108787606D01*
X123508250Y-108763026D01*
X123509500Y-108737590D01*
X123509500Y-103917101D01*
X123528407Y-103858910D01*
X123582872Y-103821475D01*
X123591359Y-103819201D01*
X123599784Y-103817334D01*
X123629517Y-103812092D01*
X123629519Y-103812091D01*
X123638045Y-103810588D01*
X123645544Y-103806258D01*
X123651029Y-103804262D01*
X123656316Y-103801796D01*
X123664684Y-103799554D01*
X123696511Y-103777268D01*
X123703795Y-103772627D01*
X123704628Y-103772146D01*
X123737455Y-103753194D01*
X123762436Y-103723423D01*
X123768270Y-103717056D01*
X124130497Y-103354830D01*
X124185013Y-103327053D01*
X124245445Y-103336624D01*
X124288710Y-103379889D01*
X124299500Y-103424834D01*
X124299500Y-110965983D01*
X124296982Y-110988169D01*
X124294344Y-110999641D01*
X124296739Y-111010227D01*
X124295587Y-111024697D01*
X124287294Y-111077063D01*
X124277725Y-111106518D01*
X124249419Y-111162071D01*
X124231215Y-111187128D01*
X124187128Y-111231215D01*
X124162068Y-111249421D01*
X124106521Y-111277723D01*
X124077065Y-111287294D01*
X124024499Y-111295619D01*
X124010609Y-111296701D01*
X124000359Y-111294344D01*
X123988359Y-111297059D01*
X123966512Y-111299500D01*
X112599834Y-111299500D01*
X112541643Y-111280593D01*
X112505679Y-111231093D01*
X112505679Y-111169907D01*
X112529830Y-111130496D01*
X112817057Y-110843269D01*
X112823425Y-110837434D01*
X112853194Y-110812455D01*
X112872629Y-110778792D01*
X112877268Y-110771511D01*
X112879729Y-110767996D01*
X112899554Y-110739684D01*
X112901796Y-110731319D01*
X112904258Y-110726039D01*
X112906257Y-110720548D01*
X112910588Y-110713045D01*
X112917337Y-110674771D01*
X112919206Y-110666344D01*
X112927022Y-110637173D01*
X112927022Y-110637170D01*
X112929263Y-110628807D01*
X112925877Y-110590103D01*
X112925500Y-110581475D01*
X112925500Y-108174424D01*
X112944407Y-108116233D01*
X112951102Y-108107988D01*
X113014468Y-108037982D01*
X113019200Y-108032754D01*
X113081710Y-107903733D01*
X113085875Y-107878982D01*
X113104862Y-107766124D01*
X113104862Y-107766120D01*
X113105496Y-107762354D01*
X113105647Y-107750000D01*
X113085323Y-107608082D01*
X113025984Y-107477572D01*
X112932400Y-107368963D01*
X112812095Y-107290985D01*
X112674739Y-107249907D01*
X112591497Y-107249398D01*
X112538427Y-107249074D01*
X112538426Y-107249074D01*
X112531376Y-107249031D01*
X112524599Y-107250968D01*
X112524598Y-107250968D01*
X112400309Y-107286490D01*
X112400307Y-107286491D01*
X112393529Y-107288428D01*
X112272280Y-107364930D01*
X112267613Y-107370214D01*
X112267611Y-107370216D01*
X112182044Y-107467103D01*
X112182042Y-107467105D01*
X112177377Y-107472388D01*
X112116447Y-107602163D01*
X112094391Y-107743823D01*
X112095306Y-107750820D01*
X112095306Y-107750821D01*
X112096814Y-107762354D01*
X112112980Y-107885979D01*
X112115821Y-107892435D01*
X112115821Y-107892436D01*
X112123586Y-107910082D01*
X112170720Y-108017203D01*
X112188187Y-108037982D01*
X112251283Y-108113045D01*
X112274253Y-108169755D01*
X112274500Y-108176747D01*
X112274500Y-110424166D01*
X112255593Y-110482357D01*
X112245504Y-110494170D01*
X111969170Y-110770504D01*
X111914653Y-110798281D01*
X111899166Y-110799500D01*
X104900834Y-110799500D01*
X104842643Y-110780593D01*
X104830830Y-110770504D01*
X104204496Y-110144170D01*
X104176719Y-110089653D01*
X104175500Y-110074166D01*
X104175500Y-105726182D01*
X104194407Y-105667991D01*
X104243907Y-105632027D01*
X104305093Y-105632027D01*
X104319446Y-105637973D01*
X104362580Y-105659951D01*
X104370273Y-105661170D01*
X104370275Y-105661170D01*
X104456908Y-105674891D01*
X104456910Y-105674891D01*
X104460754Y-105675500D01*
X104964246Y-105675500D01*
X104968090Y-105674891D01*
X104968092Y-105674891D01*
X105054725Y-105661170D01*
X105054727Y-105661170D01*
X105062420Y-105659951D01*
X105117224Y-105632027D01*
X105173812Y-105603194D01*
X105173814Y-105603193D01*
X105180751Y-105599658D01*
X105274658Y-105505751D01*
X105334951Y-105387420D01*
X105337662Y-105370303D01*
X105365440Y-105315786D01*
X105387964Y-105300015D01*
X105389684Y-105299554D01*
X105421511Y-105277268D01*
X105428795Y-105272627D01*
X105462455Y-105253194D01*
X105475600Y-105237528D01*
X105527487Y-105205105D01*
X105588523Y-105209372D01*
X105635394Y-105248701D01*
X105648802Y-105289357D01*
X105649500Y-105289246D01*
X105665049Y-105387420D01*
X105725342Y-105505751D01*
X105819249Y-105599658D01*
X105826186Y-105603193D01*
X105826188Y-105603194D01*
X105882776Y-105632027D01*
X105937580Y-105659951D01*
X105945273Y-105661170D01*
X105945275Y-105661170D01*
X106031908Y-105674891D01*
X106031910Y-105674891D01*
X106035754Y-105675500D01*
X106539246Y-105675500D01*
X106543090Y-105674891D01*
X106543092Y-105674891D01*
X106629725Y-105661170D01*
X106629727Y-105661170D01*
X106637420Y-105659951D01*
X106692224Y-105632027D01*
X106748812Y-105603194D01*
X106748814Y-105603193D01*
X106755751Y-105599658D01*
X106849658Y-105505751D01*
X106909951Y-105387420D01*
X106923868Y-105299554D01*
X106924891Y-105293092D01*
X106924891Y-105293090D01*
X106925500Y-105289246D01*
X106925500Y-104710754D01*
X106909951Y-104612580D01*
X106849658Y-104494249D01*
X106755751Y-104400342D01*
X106748814Y-104396807D01*
X106748812Y-104396806D01*
X106667055Y-104355149D01*
X106623790Y-104311884D01*
X106613000Y-104266939D01*
X106613000Y-104233061D01*
X106631907Y-104174870D01*
X106667055Y-104144851D01*
X106748812Y-104103194D01*
X106748814Y-104103193D01*
X106755751Y-104099658D01*
X106849658Y-104005751D01*
X106909951Y-103887420D01*
X106914467Y-103858910D01*
X106924891Y-103793092D01*
X106924891Y-103793090D01*
X106925500Y-103789246D01*
X106925500Y-103210754D01*
X106921584Y-103186028D01*
X106911170Y-103120275D01*
X106911170Y-103120273D01*
X106909951Y-103112580D01*
X106906415Y-103105640D01*
X106853194Y-103001188D01*
X106853193Y-103001186D01*
X106849658Y-102994249D01*
X106755751Y-102900342D01*
X106748814Y-102896807D01*
X106748812Y-102896806D01*
X106644360Y-102843585D01*
X106644359Y-102843585D01*
X106637420Y-102840049D01*
X106629727Y-102838830D01*
X106629725Y-102838830D01*
X106543092Y-102825109D01*
X106543090Y-102825109D01*
X106539246Y-102824500D01*
X106102148Y-102824500D01*
X106043957Y-102805593D01*
X106007993Y-102756093D01*
X106004148Y-102739534D01*
X105986323Y-102615067D01*
X105985323Y-102608082D01*
X105925984Y-102477572D01*
X105832400Y-102368963D01*
X105712095Y-102290985D01*
X105574739Y-102249907D01*
X105491497Y-102249398D01*
X105438427Y-102249074D01*
X105438426Y-102249074D01*
X105431376Y-102249031D01*
X105424599Y-102250968D01*
X105424598Y-102250968D01*
X105300309Y-102286490D01*
X105300307Y-102286491D01*
X105293529Y-102288428D01*
X105172280Y-102364930D01*
X105167613Y-102370214D01*
X105167611Y-102370216D01*
X105082044Y-102467103D01*
X105082042Y-102467105D01*
X105077377Y-102472388D01*
X105016447Y-102602163D01*
X105015362Y-102609132D01*
X105015361Y-102609135D01*
X105004529Y-102678708D01*
X104994900Y-102740559D01*
X104994873Y-102740730D01*
X104967239Y-102795319D01*
X104912796Y-102823240D01*
X104897052Y-102824500D01*
X104460754Y-102824500D01*
X104456910Y-102825109D01*
X104456908Y-102825109D01*
X104370275Y-102838830D01*
X104370273Y-102838830D01*
X104362580Y-102840049D01*
X104355639Y-102843586D01*
X104355638Y-102843586D01*
X104319446Y-102862027D01*
X104259014Y-102871599D01*
X104204497Y-102843822D01*
X104176719Y-102789306D01*
X104175500Y-102773818D01*
X104175500Y-101610321D01*
X104194407Y-101552130D01*
X104243907Y-101516166D01*
X104305093Y-101516166D01*
X104331281Y-101529223D01*
X104360316Y-101549554D01*
X104368683Y-101551796D01*
X104373971Y-101554262D01*
X104379456Y-101556258D01*
X104386955Y-101560588D01*
X104395481Y-101562091D01*
X104395483Y-101562092D01*
X104425216Y-101567334D01*
X104433650Y-101569204D01*
X104471193Y-101579264D01*
X104509908Y-101575877D01*
X104518537Y-101575500D01*
X105073612Y-101575500D01*
X105131803Y-101594407D01*
X105149394Y-101610797D01*
X105162970Y-101626948D01*
X105168841Y-101630856D01*
X105168842Y-101630857D01*
X105181143Y-101639045D01*
X105282313Y-101706390D01*
X105382920Y-101737821D01*
X105412425Y-101747039D01*
X105412426Y-101747039D01*
X105419157Y-101749142D01*
X105490828Y-101750456D01*
X105555445Y-101751641D01*
X105555447Y-101751641D01*
X105562499Y-101751770D01*
X105569302Y-101749915D01*
X105569304Y-101749915D01*
X105644503Y-101729413D01*
X105700817Y-101714060D01*
X105822991Y-101639045D01*
X105830403Y-101630857D01*
X105914468Y-101537982D01*
X105919200Y-101532754D01*
X105981710Y-101403733D01*
X106005496Y-101262354D01*
X106005647Y-101250000D01*
X105985323Y-101108082D01*
X105925984Y-100977572D01*
X105862360Y-100903733D01*
X105837005Y-100874307D01*
X105837004Y-100874306D01*
X105832400Y-100868963D01*
X105712095Y-100790985D01*
X105574739Y-100749907D01*
X105491497Y-100749398D01*
X105438427Y-100749074D01*
X105438426Y-100749074D01*
X105431376Y-100749031D01*
X105424599Y-100750968D01*
X105424598Y-100750968D01*
X105300309Y-100786490D01*
X105300307Y-100786491D01*
X105293529Y-100788428D01*
X105172280Y-100864930D01*
X105167613Y-100870214D01*
X105167611Y-100870216D01*
X105149226Y-100891034D01*
X105096534Y-100922134D01*
X105075022Y-100924500D01*
X104724500Y-100924500D01*
X104666309Y-100905593D01*
X104630345Y-100856093D01*
X104625500Y-100825500D01*
X104625500Y-99243823D01*
X106744391Y-99243823D01*
X106745306Y-99250820D01*
X106745306Y-99250821D01*
X106746814Y-99262354D01*
X106762980Y-99385979D01*
X106765821Y-99392435D01*
X106765821Y-99392436D01*
X106799137Y-99468151D01*
X106820720Y-99517203D01*
X106866845Y-99572076D01*
X106908431Y-99621549D01*
X106908434Y-99621551D01*
X106912970Y-99626948D01*
X107032313Y-99706390D01*
X107132920Y-99737821D01*
X107162425Y-99747039D01*
X107162426Y-99747039D01*
X107169157Y-99749142D01*
X107240828Y-99750456D01*
X107305445Y-99751641D01*
X107305447Y-99751641D01*
X107312499Y-99751770D01*
X107319302Y-99749915D01*
X107319304Y-99749915D01*
X107444013Y-99715915D01*
X107450817Y-99714060D01*
X107456827Y-99710370D01*
X107460820Y-99708642D01*
X107500137Y-99700500D01*
X111200500Y-99700500D01*
X111258691Y-99719407D01*
X111294655Y-99768907D01*
X111299500Y-99799500D01*
X111299500Y-100509680D01*
X111290116Y-100551751D01*
X111266447Y-100602163D01*
X111244391Y-100743823D01*
X111245306Y-100750820D01*
X111245306Y-100750821D01*
X111260253Y-100865126D01*
X111262980Y-100885979D01*
X111265821Y-100892435D01*
X111265821Y-100892436D01*
X111306109Y-100983996D01*
X111320720Y-101017203D01*
X111333792Y-101032754D01*
X111408431Y-101121549D01*
X111408434Y-101121551D01*
X111412970Y-101126948D01*
X111418841Y-101130856D01*
X111418842Y-101130857D01*
X111431143Y-101139045D01*
X111532313Y-101206390D01*
X111632920Y-101237821D01*
X111662425Y-101247039D01*
X111662426Y-101247039D01*
X111669157Y-101249142D01*
X111740828Y-101250456D01*
X111805445Y-101251641D01*
X111805447Y-101251641D01*
X111812499Y-101251770D01*
X111819302Y-101249915D01*
X111819304Y-101249915D01*
X111944013Y-101215915D01*
X111950817Y-101214060D01*
X111956826Y-101210371D01*
X111956834Y-101210367D01*
X111958984Y-101209047D01*
X111961015Y-101208558D01*
X111963302Y-101207568D01*
X111963474Y-101207965D01*
X112018467Y-101194714D01*
X112033135Y-101196972D01*
X112053394Y-101201667D01*
X112064255Y-101204185D01*
X112199384Y-101194617D01*
X112205896Y-101192098D01*
X112266611Y-101197836D01*
X112269974Y-101199662D01*
X112270077Y-101199446D01*
X112276442Y-101202482D01*
X112282313Y-101206390D01*
X112382920Y-101237821D01*
X112412425Y-101247039D01*
X112412426Y-101247039D01*
X112419157Y-101249142D01*
X112490828Y-101250456D01*
X112555445Y-101251641D01*
X112555447Y-101251641D01*
X112562499Y-101251770D01*
X112569302Y-101249915D01*
X112569304Y-101249915D01*
X112644503Y-101229413D01*
X112700817Y-101214060D01*
X112822991Y-101139045D01*
X112830403Y-101130857D01*
X112914468Y-101037982D01*
X112919200Y-101032754D01*
X112960349Y-100947823D01*
X112978634Y-100910082D01*
X112981710Y-100903733D01*
X112985875Y-100878982D01*
X113004862Y-100766124D01*
X113004862Y-100766120D01*
X113005496Y-100762354D01*
X113005647Y-100750000D01*
X112985323Y-100608082D01*
X112979731Y-100595782D01*
X112959378Y-100551017D01*
X112950500Y-100510042D01*
X112950500Y-99490870D01*
X112960406Y-99447705D01*
X112978635Y-99410079D01*
X112981710Y-99403733D01*
X112983611Y-99392436D01*
X113004862Y-99266124D01*
X113004862Y-99266120D01*
X113005496Y-99262354D01*
X113005647Y-99250000D01*
X112985323Y-99108082D01*
X112925984Y-98977572D01*
X112832400Y-98868963D01*
X112712095Y-98790985D01*
X112574739Y-98749907D01*
X112491497Y-98749398D01*
X112438427Y-98749074D01*
X112438426Y-98749074D01*
X112431376Y-98749031D01*
X112424599Y-98750968D01*
X112424598Y-98750968D01*
X112331835Y-98777480D01*
X112293529Y-98788428D01*
X112289220Y-98791147D01*
X112250092Y-98799500D01*
X112162966Y-98799500D01*
X112150332Y-98798055D01*
X112150331Y-98798067D01*
X112142957Y-98797487D01*
X112135745Y-98795815D01*
X112091287Y-98798963D01*
X112087190Y-98799253D01*
X112080198Y-98799500D01*
X111999905Y-98799500D01*
X111962565Y-98791290D01*
X111962095Y-98790985D01*
X111955337Y-98788964D01*
X111955335Y-98788963D01*
X111831500Y-98751929D01*
X111824739Y-98749907D01*
X111741497Y-98749398D01*
X111688427Y-98749074D01*
X111688426Y-98749074D01*
X111681376Y-98749031D01*
X111674599Y-98750968D01*
X111674598Y-98750968D01*
X111581835Y-98777480D01*
X111543529Y-98788428D01*
X111539220Y-98791147D01*
X111500092Y-98799500D01*
X107832645Y-98799500D01*
X107774454Y-98780593D01*
X107738490Y-98731093D01*
X107735017Y-98684075D01*
X107754862Y-98566124D01*
X107754862Y-98566120D01*
X107755496Y-98562354D01*
X107755647Y-98550000D01*
X107735323Y-98408082D01*
X107675984Y-98277572D01*
X107599467Y-98188770D01*
X107587005Y-98174307D01*
X107587004Y-98174306D01*
X107582400Y-98168963D01*
X107462095Y-98090985D01*
X107324739Y-98049907D01*
X107241497Y-98049398D01*
X107188427Y-98049074D01*
X107188426Y-98049074D01*
X107181376Y-98049031D01*
X107174599Y-98050968D01*
X107174598Y-98050968D01*
X107050309Y-98086490D01*
X107050307Y-98086491D01*
X107043529Y-98088428D01*
X106922280Y-98164930D01*
X106917613Y-98170214D01*
X106917611Y-98170216D01*
X106832044Y-98267103D01*
X106832042Y-98267105D01*
X106827377Y-98272388D01*
X106766447Y-98402163D01*
X106765362Y-98409132D01*
X106765361Y-98409135D01*
X106750680Y-98503430D01*
X106744391Y-98543823D01*
X106745306Y-98550820D01*
X106745306Y-98550821D01*
X106746814Y-98562354D01*
X106762980Y-98685979D01*
X106765820Y-98692433D01*
X106765821Y-98692437D01*
X106791116Y-98749923D01*
X106799500Y-98789795D01*
X106799500Y-99009680D01*
X106790116Y-99051751D01*
X106766447Y-99102163D01*
X106744391Y-99243823D01*
X104625500Y-99243823D01*
X104625500Y-97343823D01*
X106744391Y-97343823D01*
X106745306Y-97350820D01*
X106745306Y-97350821D01*
X106759111Y-97456390D01*
X106762980Y-97485979D01*
X106765821Y-97492435D01*
X106765821Y-97492436D01*
X106777469Y-97518907D01*
X106820720Y-97617203D01*
X106864263Y-97669004D01*
X106908431Y-97721549D01*
X106908434Y-97721551D01*
X106912970Y-97726948D01*
X106918841Y-97730856D01*
X106918842Y-97730857D01*
X106931143Y-97739045D01*
X107032313Y-97806390D01*
X107105530Y-97829264D01*
X107162425Y-97847039D01*
X107162426Y-97847039D01*
X107169157Y-97849142D01*
X107240828Y-97850456D01*
X107305445Y-97851641D01*
X107305447Y-97851641D01*
X107312499Y-97851770D01*
X107319302Y-97849915D01*
X107319304Y-97849915D01*
X107403273Y-97827022D01*
X107450817Y-97814060D01*
X107572991Y-97739045D01*
X107580403Y-97730857D01*
X107664468Y-97637982D01*
X107669200Y-97632754D01*
X107731710Y-97503733D01*
X107735875Y-97478982D01*
X107754862Y-97366124D01*
X107754862Y-97366120D01*
X107755496Y-97362354D01*
X107755647Y-97350000D01*
X107755104Y-97346207D01*
X107736104Y-97213534D01*
X107746571Y-97153251D01*
X107790473Y-97110633D01*
X107834104Y-97100500D01*
X109672390Y-97100500D01*
X109730581Y-97119407D01*
X109742392Y-97129495D01*
X109783632Y-97170736D01*
X109804680Y-97191784D01*
X109825292Y-97221914D01*
X109845220Y-97267203D01*
X109849757Y-97272600D01*
X109932931Y-97371549D01*
X109932934Y-97371551D01*
X109937470Y-97376948D01*
X110056813Y-97456390D01*
X110063339Y-97458429D01*
X110090574Y-97477677D01*
X110260930Y-97648034D01*
X110281542Y-97678165D01*
X110317879Y-97760747D01*
X110320720Y-97767203D01*
X110357189Y-97810588D01*
X110408431Y-97871549D01*
X110408434Y-97871551D01*
X110412970Y-97876948D01*
X110418841Y-97880856D01*
X110418842Y-97880857D01*
X110431143Y-97889045D01*
X110532313Y-97956390D01*
X110632920Y-97987821D01*
X110662425Y-97997039D01*
X110662426Y-97997039D01*
X110669157Y-97999142D01*
X110740828Y-98000456D01*
X110805445Y-98001641D01*
X110805447Y-98001641D01*
X110812499Y-98001770D01*
X110819302Y-97999915D01*
X110819304Y-97999915D01*
X110894503Y-97979413D01*
X110950817Y-97964060D01*
X111072991Y-97889045D01*
X111080403Y-97880857D01*
X111164468Y-97787982D01*
X111169200Y-97782754D01*
X111231710Y-97653733D01*
X111235772Y-97629593D01*
X111254862Y-97516124D01*
X111254862Y-97516120D01*
X111255496Y-97512354D01*
X111255647Y-97500000D01*
X111235323Y-97358082D01*
X111213543Y-97310180D01*
X111178905Y-97233996D01*
X111178904Y-97233995D01*
X111175984Y-97227572D01*
X111082400Y-97118963D01*
X110962095Y-97040985D01*
X110937538Y-97033641D01*
X110895900Y-97008796D01*
X110782308Y-96895204D01*
X110760207Y-96857907D01*
X110759823Y-96858082D01*
X110758215Y-96854546D01*
X110756906Y-96851666D01*
X110756905Y-96851663D01*
X110703405Y-96733996D01*
X110703404Y-96733995D01*
X110700484Y-96727572D01*
X110606900Y-96618963D01*
X110486595Y-96540985D01*
X110479837Y-96538964D01*
X110479835Y-96538963D01*
X110448569Y-96529613D01*
X110427082Y-96523187D01*
X110385446Y-96498342D01*
X110241619Y-96354516D01*
X110233876Y-96345802D01*
X110216455Y-96323703D01*
X110216454Y-96323702D01*
X110211872Y-96317890D01*
X110163251Y-96284286D01*
X110160728Y-96282483D01*
X110119139Y-96251764D01*
X110119137Y-96251763D01*
X110113184Y-96247366D01*
X110106368Y-96244973D01*
X110100431Y-96240869D01*
X110093372Y-96238636D01*
X110093371Y-96238636D01*
X110073027Y-96232202D01*
X110044071Y-96223044D01*
X110041186Y-96222082D01*
X109985369Y-96202481D01*
X109979327Y-96202244D01*
X109976653Y-96201723D01*
X109971270Y-96200020D01*
X109964663Y-96199500D01*
X109911459Y-96199500D01*
X109907572Y-96199424D01*
X109857397Y-96197452D01*
X109857394Y-96197452D01*
X109850006Y-96197162D01*
X109843228Y-96198959D01*
X109833403Y-96199500D01*
X107499905Y-96199500D01*
X107462565Y-96191290D01*
X107462095Y-96190985D01*
X107455337Y-96188964D01*
X107455335Y-96188963D01*
X107331500Y-96151929D01*
X107324739Y-96149907D01*
X107241497Y-96149398D01*
X107188427Y-96149074D01*
X107188426Y-96149074D01*
X107181376Y-96149031D01*
X107174599Y-96150968D01*
X107174598Y-96150968D01*
X107050309Y-96186490D01*
X107050307Y-96186491D01*
X107043529Y-96188428D01*
X106922280Y-96264930D01*
X106917613Y-96270214D01*
X106917611Y-96270216D01*
X106832044Y-96367103D01*
X106832042Y-96367105D01*
X106827377Y-96372388D01*
X106766447Y-96502163D01*
X106765362Y-96509132D01*
X106765361Y-96509135D01*
X106759805Y-96544823D01*
X106744391Y-96643823D01*
X106762980Y-96785979D01*
X106765820Y-96792433D01*
X106765821Y-96792437D01*
X106791116Y-96849923D01*
X106799500Y-96889795D01*
X106799500Y-97109680D01*
X106790116Y-97151751D01*
X106766447Y-97202163D01*
X106765362Y-97209132D01*
X106765361Y-97209135D01*
X106759496Y-97246806D01*
X106744391Y-97343823D01*
X104625500Y-97343823D01*
X104625500Y-89895834D01*
X104644407Y-89837643D01*
X104654496Y-89825830D01*
X104980830Y-89499496D01*
X105035347Y-89471719D01*
X105050834Y-89470500D01*
X105769748Y-89470500D01*
X105795995Y-89465279D01*
X105818666Y-89460770D01*
X105818668Y-89460769D01*
X105828231Y-89458867D01*
X105894552Y-89414552D01*
X105938867Y-89348231D01*
X105950500Y-89289748D01*
X105950500Y-88250252D01*
X105943647Y-88215801D01*
X105940770Y-88201334D01*
X105940769Y-88201332D01*
X105938867Y-88191769D01*
X105894552Y-88125448D01*
X105828231Y-88081133D01*
X105829531Y-88079188D01*
X105793332Y-88048272D01*
X105779048Y-87988777D01*
X105797347Y-87938773D01*
X105809935Y-87921256D01*
X105856671Y-87856216D01*
X105864877Y-87844796D01*
X105864878Y-87844794D01*
X105868361Y-87839947D01*
X105871633Y-87831808D01*
X105872882Y-87830234D01*
X105873463Y-87829178D01*
X105873643Y-87829277D01*
X105906706Y-87787635D01*
X105921521Y-87777261D01*
X105928795Y-87772627D01*
X105962455Y-87753194D01*
X105987431Y-87723429D01*
X105993265Y-87717061D01*
X106467057Y-87243269D01*
X106473425Y-87237434D01*
X106503194Y-87212455D01*
X106522629Y-87178792D01*
X106527267Y-87171513D01*
X106535903Y-87159179D01*
X106584767Y-87122355D01*
X106645943Y-87121286D01*
X106696064Y-87156380D01*
X106716000Y-87215961D01*
X106716000Y-87448041D01*
X106716390Y-87454229D01*
X106730731Y-87567755D01*
X106733805Y-87579727D01*
X106790048Y-87721782D01*
X106795999Y-87732607D01*
X106885806Y-87856216D01*
X106894262Y-87865221D01*
X107011986Y-87962609D01*
X107022419Y-87969231D01*
X107160016Y-88033979D01*
X107204618Y-88075863D01*
X107216083Y-88135965D01*
X107209328Y-88161442D01*
X107193036Y-88200775D01*
X107189313Y-88209764D01*
X107169534Y-88360000D01*
X107189313Y-88510236D01*
X107191797Y-88516233D01*
X107244819Y-88644240D01*
X107244821Y-88644244D01*
X107247302Y-88650233D01*
X107251248Y-88655375D01*
X107251250Y-88655379D01*
X107323856Y-88750000D01*
X107339549Y-88770451D01*
X107344698Y-88774402D01*
X107454621Y-88858750D01*
X107454625Y-88858752D01*
X107459767Y-88862698D01*
X107465756Y-88865179D01*
X107465760Y-88865181D01*
X107528057Y-88890985D01*
X107599764Y-88920687D01*
X107712280Y-88935500D01*
X108087720Y-88935500D01*
X108200236Y-88920687D01*
X108271943Y-88890985D01*
X108334240Y-88865181D01*
X108334244Y-88865179D01*
X108340233Y-88862698D01*
X108345375Y-88858752D01*
X108345379Y-88858750D01*
X108455302Y-88774402D01*
X108460451Y-88770451D01*
X108476144Y-88750000D01*
X108548750Y-88655379D01*
X108548752Y-88655375D01*
X108552698Y-88650233D01*
X108555179Y-88644244D01*
X108555181Y-88644240D01*
X108608203Y-88516233D01*
X108610687Y-88510236D01*
X108630466Y-88360000D01*
X108610687Y-88209764D01*
X108590671Y-88161442D01*
X108555181Y-88075760D01*
X108555179Y-88075756D01*
X108552698Y-88069767D01*
X108548752Y-88064625D01*
X108548750Y-88064621D01*
X108464402Y-87954698D01*
X108460451Y-87949549D01*
X108423579Y-87921256D01*
X108345379Y-87861250D01*
X108345375Y-87861248D01*
X108340233Y-87857302D01*
X108334244Y-87854821D01*
X108334240Y-87854819D01*
X108206233Y-87801797D01*
X108200236Y-87799313D01*
X108087720Y-87784500D01*
X108075545Y-87784500D01*
X108017354Y-87765593D01*
X107981390Y-87716093D01*
X107981390Y-87654907D01*
X107983498Y-87649053D01*
X107984456Y-87646633D01*
X108022452Y-87498647D01*
X108024000Y-87486395D01*
X108024000Y-87300680D01*
X108019878Y-87287995D01*
X108015757Y-87285000D01*
X107294000Y-87285000D01*
X107235809Y-87266093D01*
X107199845Y-87216593D01*
X107195000Y-87186000D01*
X107195000Y-87034000D01*
X107213907Y-86975809D01*
X107263407Y-86939845D01*
X107294000Y-86935000D01*
X108008320Y-86935000D01*
X108021005Y-86930878D01*
X108024000Y-86926757D01*
X108024000Y-86771959D01*
X108023610Y-86765771D01*
X108009269Y-86652245D01*
X108006195Y-86640273D01*
X107949952Y-86498218D01*
X107944001Y-86487393D01*
X107854194Y-86363784D01*
X107845738Y-86354779D01*
X107723216Y-86253421D01*
X107724234Y-86252190D01*
X107690113Y-86210945D01*
X107686271Y-86149880D01*
X107719056Y-86098219D01*
X107775944Y-86075695D01*
X107782161Y-86075500D01*
X108750500Y-86075500D01*
X108808691Y-86094407D01*
X108844655Y-86143907D01*
X108849500Y-86174500D01*
X108849500Y-91700318D01*
X108830593Y-91758509D01*
X108793809Y-91788348D01*
X108793529Y-91788428D01*
X108672280Y-91864930D01*
X108667613Y-91870214D01*
X108667611Y-91870216D01*
X108582044Y-91967103D01*
X108582042Y-91967105D01*
X108577377Y-91972388D01*
X108516447Y-92102163D01*
X108494391Y-92243823D01*
X108512980Y-92385979D01*
X108570720Y-92517203D01*
X108616845Y-92572075D01*
X108658431Y-92621549D01*
X108658434Y-92621551D01*
X108662970Y-92626948D01*
X108777632Y-92703274D01*
X108777633Y-92703275D01*
X108782313Y-92706390D01*
X108781772Y-92707203D01*
X108821537Y-92744943D01*
X108832684Y-92805104D01*
X108824146Y-92834252D01*
X108815515Y-92852635D01*
X108793459Y-92994295D01*
X108812048Y-93136451D01*
X108814889Y-93142907D01*
X108814889Y-93142908D01*
X108860343Y-93246209D01*
X108869788Y-93267675D01*
X108896733Y-93299730D01*
X108957499Y-93372021D01*
X108957502Y-93372023D01*
X108962038Y-93377420D01*
X109081381Y-93456862D01*
X109181818Y-93488240D01*
X109211493Y-93497511D01*
X109211494Y-93497511D01*
X109218225Y-93499614D01*
X109289896Y-93500928D01*
X109354513Y-93502113D01*
X109354515Y-93502113D01*
X109361567Y-93502242D01*
X109412925Y-93488240D01*
X109474038Y-93491175D01*
X109521756Y-93529472D01*
X109537850Y-93588503D01*
X109528580Y-93625824D01*
X109516447Y-93651666D01*
X109515362Y-93658635D01*
X109515361Y-93658638D01*
X109507599Y-93708492D01*
X109494391Y-93793326D01*
X109512980Y-93935482D01*
X109515821Y-93941938D01*
X109515821Y-93941939D01*
X109566461Y-94057026D01*
X109570720Y-94066706D01*
X109616845Y-94121578D01*
X109658431Y-94171052D01*
X109658434Y-94171054D01*
X109662970Y-94176451D01*
X109668841Y-94180359D01*
X109668842Y-94180360D01*
X109681143Y-94188548D01*
X109782313Y-94255893D01*
X109882920Y-94287324D01*
X109912425Y-94296542D01*
X109912426Y-94296542D01*
X109919157Y-94298645D01*
X109990828Y-94299959D01*
X110055445Y-94301144D01*
X110055447Y-94301144D01*
X110062499Y-94301273D01*
X110069302Y-94299418D01*
X110069304Y-94299418D01*
X110144503Y-94278916D01*
X110200817Y-94263563D01*
X110322991Y-94188548D01*
X110330403Y-94180360D01*
X110417463Y-94084176D01*
X110441359Y-94064876D01*
X110462455Y-94052697D01*
X110487436Y-94022926D01*
X110493270Y-94016559D01*
X110878799Y-93631031D01*
X110933315Y-93603254D01*
X110993747Y-93612825D01*
X111011067Y-93624684D01*
X111012970Y-93626948D01*
X111018841Y-93630856D01*
X111018842Y-93630857D01*
X111031143Y-93639045D01*
X111132313Y-93706390D01*
X111232920Y-93737821D01*
X111262425Y-93747039D01*
X111262426Y-93747039D01*
X111269157Y-93749142D01*
X111340828Y-93750456D01*
X111405445Y-93751641D01*
X111405447Y-93751641D01*
X111412499Y-93751770D01*
X111419302Y-93749915D01*
X111419304Y-93749915D01*
X111494503Y-93729413D01*
X111550817Y-93714060D01*
X111672991Y-93639045D01*
X111677726Y-93633814D01*
X111683151Y-93629310D01*
X111684360Y-93630766D01*
X111729366Y-93604940D01*
X111790199Y-93611497D01*
X111811719Y-93625460D01*
X111812970Y-93626948D01*
X111932313Y-93706390D01*
X112032920Y-93737821D01*
X112062425Y-93747039D01*
X112062426Y-93747039D01*
X112069157Y-93749142D01*
X112140828Y-93750456D01*
X112205445Y-93751641D01*
X112205447Y-93751641D01*
X112212499Y-93751770D01*
X112219302Y-93749915D01*
X112219304Y-93749915D01*
X112294503Y-93729413D01*
X112350817Y-93714060D01*
X112472991Y-93639045D01*
X112480403Y-93630857D01*
X112564468Y-93537982D01*
X112569200Y-93532754D01*
X112631710Y-93403733D01*
X112635480Y-93381329D01*
X112654862Y-93266124D01*
X112654862Y-93266120D01*
X112655496Y-93262354D01*
X112655647Y-93250000D01*
X112635323Y-93108082D01*
X112622420Y-93079704D01*
X112578903Y-92983991D01*
X112578901Y-92983988D01*
X112575984Y-92977572D01*
X112571381Y-92972230D01*
X112567580Y-92966287D01*
X112569875Y-92964819D01*
X112550840Y-92919424D01*
X112550500Y-92911228D01*
X112550500Y-90838958D01*
X112566910Y-90785284D01*
X112569200Y-90782754D01*
X112631710Y-90653733D01*
X112655496Y-90512354D01*
X112656412Y-90512508D01*
X112678897Y-90459872D01*
X112731416Y-90428479D01*
X112782986Y-90430497D01*
X112811925Y-90439538D01*
X112811926Y-90439538D01*
X112818657Y-90441641D01*
X112890328Y-90442955D01*
X112954945Y-90444140D01*
X112954947Y-90444140D01*
X112961999Y-90444269D01*
X112968802Y-90442414D01*
X112968804Y-90442414D01*
X113050396Y-90420169D01*
X113100317Y-90406559D01*
X113222491Y-90331544D01*
X113318700Y-90225253D01*
X113381210Y-90096232D01*
X113391767Y-90033488D01*
X113404362Y-89958623D01*
X113404362Y-89958619D01*
X113404996Y-89954853D01*
X113405147Y-89942499D01*
X113405636Y-89942505D01*
X113420101Y-89885663D01*
X113433799Y-89868526D01*
X113467057Y-89835268D01*
X113473425Y-89829433D01*
X113503194Y-89804454D01*
X113522629Y-89770791D01*
X113527268Y-89763510D01*
X113531337Y-89757699D01*
X113549554Y-89731683D01*
X113551796Y-89723315D01*
X113554262Y-89718028D01*
X113556258Y-89712543D01*
X113560588Y-89705044D01*
X113567334Y-89666782D01*
X113569204Y-89658348D01*
X113577022Y-89629173D01*
X113579264Y-89620806D01*
X113575877Y-89582090D01*
X113575500Y-89573462D01*
X113575500Y-88360000D01*
X114519534Y-88360000D01*
X114539313Y-88510236D01*
X114541797Y-88516233D01*
X114594819Y-88644240D01*
X114594821Y-88644244D01*
X114597302Y-88650233D01*
X114601248Y-88655375D01*
X114601250Y-88655379D01*
X114673856Y-88750000D01*
X114689549Y-88770451D01*
X114694698Y-88774402D01*
X114804621Y-88858750D01*
X114804625Y-88858752D01*
X114809767Y-88862698D01*
X114815756Y-88865179D01*
X114815760Y-88865181D01*
X114878057Y-88890985D01*
X114949764Y-88920687D01*
X115062280Y-88935500D01*
X115137720Y-88935500D01*
X115250236Y-88920687D01*
X115321943Y-88890985D01*
X115384240Y-88865181D01*
X115384244Y-88865179D01*
X115390233Y-88862698D01*
X115395375Y-88858752D01*
X115395379Y-88858750D01*
X115505302Y-88774402D01*
X115510451Y-88770451D01*
X115526144Y-88750000D01*
X115598750Y-88655379D01*
X115598752Y-88655375D01*
X115602698Y-88650233D01*
X115605179Y-88644244D01*
X115605181Y-88644240D01*
X115658203Y-88516233D01*
X115660687Y-88510236D01*
X115680466Y-88360000D01*
X115660687Y-88209764D01*
X115654601Y-88195071D01*
X115649802Y-88134075D01*
X115681772Y-88081906D01*
X115739851Y-88058382D01*
X115747304Y-88057913D01*
X115759445Y-88055597D01*
X115904753Y-88008384D01*
X115915929Y-88003125D01*
X116044933Y-87921256D01*
X116054452Y-87913382D01*
X116159036Y-87802010D01*
X116166304Y-87792006D01*
X116239907Y-87658124D01*
X116244455Y-87646636D01*
X116282452Y-87498647D01*
X116284000Y-87486395D01*
X116284000Y-87300680D01*
X116279878Y-87287995D01*
X116275757Y-87285000D01*
X114991680Y-87285000D01*
X114978995Y-87289122D01*
X114976000Y-87293243D01*
X114976000Y-87448041D01*
X114976390Y-87454229D01*
X114990731Y-87567755D01*
X114993805Y-87579727D01*
X115027592Y-87665064D01*
X115031434Y-87726128D01*
X114998649Y-87777789D01*
X114961166Y-87797135D01*
X114956198Y-87798466D01*
X114949764Y-87799313D01*
X114943772Y-87801795D01*
X114943768Y-87801796D01*
X114815760Y-87854819D01*
X114815756Y-87854821D01*
X114809767Y-87857302D01*
X114804625Y-87861248D01*
X114804621Y-87861250D01*
X114726421Y-87921256D01*
X114689549Y-87949549D01*
X114685598Y-87954698D01*
X114601250Y-88064621D01*
X114601248Y-88064625D01*
X114597302Y-88069767D01*
X114594821Y-88075756D01*
X114594819Y-88075760D01*
X114559329Y-88161442D01*
X114539313Y-88209764D01*
X114519534Y-88360000D01*
X113575500Y-88360000D01*
X113575500Y-86919320D01*
X114976000Y-86919320D01*
X114980122Y-86932005D01*
X114984243Y-86935000D01*
X115439320Y-86935000D01*
X115452005Y-86930878D01*
X115455000Y-86926757D01*
X115455000Y-86919320D01*
X115805000Y-86919320D01*
X115809122Y-86932005D01*
X115813243Y-86935000D01*
X116268320Y-86935000D01*
X116281005Y-86930878D01*
X116284000Y-86926757D01*
X116284000Y-86771959D01*
X116283610Y-86765771D01*
X116269269Y-86652245D01*
X116266195Y-86640273D01*
X116209952Y-86498218D01*
X116204001Y-86487393D01*
X116114194Y-86363784D01*
X116105738Y-86354779D01*
X115988014Y-86257391D01*
X115977581Y-86250769D01*
X115839340Y-86185717D01*
X115827584Y-86181898D01*
X115820401Y-86180528D01*
X115807170Y-86182200D01*
X115806982Y-86182376D01*
X115805000Y-86190097D01*
X115805000Y-86919320D01*
X115455000Y-86919320D01*
X115455000Y-86194885D01*
X115451479Y-86184050D01*
X115440089Y-86184050D01*
X115355250Y-86211616D01*
X115344070Y-86216876D01*
X115215067Y-86298744D01*
X115205548Y-86306618D01*
X115100964Y-86417990D01*
X115093696Y-86427994D01*
X115020093Y-86561876D01*
X115015545Y-86573364D01*
X114977548Y-86721353D01*
X114976000Y-86733605D01*
X114976000Y-86919320D01*
X113575500Y-86919320D01*
X113575500Y-86425834D01*
X113594407Y-86367643D01*
X113604496Y-86355830D01*
X113680677Y-86279649D01*
X113735194Y-86251872D01*
X113752494Y-86250670D01*
X113769439Y-86250981D01*
X113805446Y-86251641D01*
X113805448Y-86251641D01*
X113812499Y-86251770D01*
X113819302Y-86249915D01*
X113819304Y-86249915D01*
X113919452Y-86222611D01*
X113950817Y-86214060D01*
X114072991Y-86139045D01*
X114086281Y-86124363D01*
X114164468Y-86037982D01*
X114169200Y-86032754D01*
X114231710Y-85903733D01*
X114233741Y-85891665D01*
X114254862Y-85766124D01*
X114254862Y-85766120D01*
X114255496Y-85762354D01*
X114255552Y-85757831D01*
X114255600Y-85753826D01*
X114255647Y-85750000D01*
X114235323Y-85608082D01*
X114175984Y-85477572D01*
X114082400Y-85368963D01*
X113962095Y-85290985D01*
X113824739Y-85249907D01*
X113741497Y-85249398D01*
X113688427Y-85249074D01*
X113688426Y-85249074D01*
X113681376Y-85249031D01*
X113674599Y-85250968D01*
X113674598Y-85250968D01*
X113550309Y-85286490D01*
X113550307Y-85286491D01*
X113543529Y-85288428D01*
X113422280Y-85364930D01*
X113417613Y-85370214D01*
X113417611Y-85370216D01*
X113332044Y-85467103D01*
X113332042Y-85467105D01*
X113327377Y-85472388D01*
X113266447Y-85602163D01*
X113265362Y-85609132D01*
X113265361Y-85609135D01*
X113246086Y-85732934D01*
X113244391Y-85743823D01*
X113245306Y-85750822D01*
X113245260Y-85754608D01*
X113225643Y-85812564D01*
X113216271Y-85823403D01*
X113032943Y-86006731D01*
X113026576Y-86012565D01*
X112996806Y-86037545D01*
X112982872Y-86061680D01*
X112977373Y-86071205D01*
X112972732Y-86078489D01*
X112950446Y-86110316D01*
X112948204Y-86118684D01*
X112945738Y-86123971D01*
X112943742Y-86129456D01*
X112939412Y-86136955D01*
X112937909Y-86145481D01*
X112937908Y-86145483D01*
X112932666Y-86175216D01*
X112930796Y-86183650D01*
X112920736Y-86221193D01*
X112921491Y-86229822D01*
X112924123Y-86259905D01*
X112924500Y-86268534D01*
X112924500Y-89343351D01*
X112905593Y-89401542D01*
X112856093Y-89437506D01*
X112838935Y-89441435D01*
X112837927Y-89441573D01*
X112830876Y-89441530D01*
X112824100Y-89443467D01*
X112824097Y-89443467D01*
X112699809Y-89478989D01*
X112699807Y-89478990D01*
X112693029Y-89480927D01*
X112688922Y-89483518D01*
X112629085Y-89489912D01*
X112576044Y-89459412D01*
X112551061Y-89403560D01*
X112550500Y-89393040D01*
X112550500Y-86588958D01*
X112566910Y-86535284D01*
X112569200Y-86532754D01*
X112631710Y-86403733D01*
X112634828Y-86385204D01*
X112654862Y-86266124D01*
X112654862Y-86266120D01*
X112655496Y-86262354D01*
X112655647Y-86250000D01*
X112635323Y-86108082D01*
X112575984Y-85977572D01*
X112510960Y-85902108D01*
X112487005Y-85874307D01*
X112487004Y-85874306D01*
X112482400Y-85868963D01*
X112362095Y-85790985D01*
X112224739Y-85749907D01*
X112141497Y-85749398D01*
X112088427Y-85749074D01*
X112088426Y-85749074D01*
X112081376Y-85749031D01*
X112074599Y-85750968D01*
X112074598Y-85750968D01*
X111950309Y-85786490D01*
X111950307Y-85786491D01*
X111943529Y-85788428D01*
X111822280Y-85864930D01*
X111817612Y-85870216D01*
X111814090Y-85873213D01*
X111757521Y-85896529D01*
X111698052Y-85882142D01*
X111686311Y-85873502D01*
X111682400Y-85868963D01*
X111562095Y-85790985D01*
X111424739Y-85749907D01*
X111341497Y-85749398D01*
X111288427Y-85749074D01*
X111288426Y-85749074D01*
X111281376Y-85749031D01*
X111274599Y-85750968D01*
X111274598Y-85750968D01*
X111150309Y-85786490D01*
X111150307Y-85786491D01*
X111143529Y-85788428D01*
X111022280Y-85864930D01*
X111017612Y-85870215D01*
X111014164Y-85873150D01*
X110957595Y-85896466D01*
X110898126Y-85882079D01*
X110858470Y-85835484D01*
X110851000Y-85797758D01*
X110851000Y-85271234D01*
X110851377Y-85262606D01*
X110852561Y-85249074D01*
X110854763Y-85223901D01*
X110852522Y-85215538D01*
X110852522Y-85215535D01*
X110844706Y-85186364D01*
X110842837Y-85177936D01*
X110836088Y-85139663D01*
X110831757Y-85132162D01*
X110829758Y-85126668D01*
X110827295Y-85121386D01*
X110825054Y-85113024D01*
X110802759Y-85081183D01*
X110798136Y-85073927D01*
X110778694Y-85040253D01*
X110748935Y-85015282D01*
X110742567Y-85009448D01*
X109766060Y-84032941D01*
X109760226Y-84026574D01*
X109740814Y-84003440D01*
X109740813Y-84003439D01*
X109735247Y-83996806D01*
X109701584Y-83977371D01*
X109694303Y-83972732D01*
X109691848Y-83971013D01*
X109662476Y-83950446D01*
X109654108Y-83948204D01*
X109648821Y-83945738D01*
X109643336Y-83943742D01*
X109635837Y-83939412D01*
X109627311Y-83937909D01*
X109627309Y-83937908D01*
X109597576Y-83932666D01*
X109589141Y-83930796D01*
X109559966Y-83922978D01*
X109551599Y-83920736D01*
X109542970Y-83921491D01*
X109512887Y-83924123D01*
X109504258Y-83924500D01*
X106859442Y-83924500D01*
X106801251Y-83905593D01*
X106789439Y-83895504D01*
X106604497Y-83710563D01*
X106576719Y-83656046D01*
X106575500Y-83640559D01*
X106575500Y-82168534D01*
X106575877Y-82159906D01*
X106577162Y-82145213D01*
X106578751Y-82127053D01*
X106602657Y-82070733D01*
X106655103Y-82039219D01*
X106719526Y-82046104D01*
X106800660Y-82084283D01*
X106812416Y-82088102D01*
X106819599Y-82089472D01*
X106832830Y-82087800D01*
X106833018Y-82087624D01*
X106835000Y-82079903D01*
X106835000Y-82075115D01*
X107185000Y-82075115D01*
X107188521Y-82085950D01*
X107199911Y-82085950D01*
X107284750Y-82058384D01*
X107295930Y-82053124D01*
X107424933Y-81971256D01*
X107434452Y-81963382D01*
X107539036Y-81852010D01*
X107546304Y-81842006D01*
X107619907Y-81708124D01*
X107624455Y-81696636D01*
X107662452Y-81548647D01*
X107664000Y-81536395D01*
X107664000Y-81498041D01*
X115336000Y-81498041D01*
X115336390Y-81504229D01*
X115350731Y-81617755D01*
X115353805Y-81629727D01*
X115410048Y-81771782D01*
X115415999Y-81782607D01*
X115505806Y-81906216D01*
X115514262Y-81915221D01*
X115631986Y-82012609D01*
X115642419Y-82019231D01*
X115780660Y-82084283D01*
X115792416Y-82088102D01*
X115799599Y-82089472D01*
X115812830Y-82087800D01*
X115813018Y-82087624D01*
X115815000Y-82079903D01*
X115815000Y-82075115D01*
X116165000Y-82075115D01*
X116168521Y-82085950D01*
X116179911Y-82085950D01*
X116264750Y-82058384D01*
X116275930Y-82053124D01*
X116404933Y-81971256D01*
X116414452Y-81963382D01*
X116519036Y-81852010D01*
X116526304Y-81842006D01*
X116599907Y-81708124D01*
X116604455Y-81696636D01*
X116642452Y-81548647D01*
X116644000Y-81536395D01*
X116644000Y-81350680D01*
X116639878Y-81337995D01*
X116635757Y-81335000D01*
X116180680Y-81335000D01*
X116167995Y-81339122D01*
X116165000Y-81343243D01*
X116165000Y-82075115D01*
X115815000Y-82075115D01*
X115815000Y-81350680D01*
X115810878Y-81337995D01*
X115806757Y-81335000D01*
X115351680Y-81335000D01*
X115338995Y-81339122D01*
X115336000Y-81343243D01*
X115336000Y-81498041D01*
X107664000Y-81498041D01*
X107664000Y-81350680D01*
X107659878Y-81337995D01*
X107655757Y-81335000D01*
X107200680Y-81335000D01*
X107187995Y-81339122D01*
X107185000Y-81343243D01*
X107185000Y-82075115D01*
X106835000Y-82075115D01*
X106835000Y-81350680D01*
X106830878Y-81337995D01*
X106826757Y-81335000D01*
X106371680Y-81335000D01*
X106358995Y-81339122D01*
X106356000Y-81343243D01*
X106356000Y-81498041D01*
X106356390Y-81504229D01*
X106362347Y-81551386D01*
X106350883Y-81611487D01*
X106306281Y-81653372D01*
X106245578Y-81661041D01*
X106194124Y-81633798D01*
X105961765Y-81401439D01*
X105933988Y-81346922D01*
X105933757Y-81317486D01*
X105955034Y-81167985D01*
X105955034Y-81167979D01*
X105955490Y-81164778D01*
X105955645Y-81150000D01*
X105944680Y-81059394D01*
X105935993Y-80987602D01*
X105935992Y-80987599D01*
X105935276Y-80981680D01*
X105875345Y-80823077D01*
X105854639Y-80792949D01*
X105782692Y-80688267D01*
X105779312Y-80683349D01*
X105652721Y-80570560D01*
X105502881Y-80491224D01*
X105410384Y-80467990D01*
X105344231Y-80451373D01*
X105344228Y-80451373D01*
X105338441Y-80449919D01*
X105252841Y-80449471D01*
X105174861Y-80449062D01*
X105174859Y-80449062D01*
X105168895Y-80449031D01*
X105163099Y-80450423D01*
X105163095Y-80450423D01*
X105055703Y-80476207D01*
X105004032Y-80488612D01*
X104928700Y-80527494D01*
X104858675Y-80563636D01*
X104858673Y-80563638D01*
X104853369Y-80566375D01*
X104725604Y-80677831D01*
X104722173Y-80682713D01*
X104722172Y-80682714D01*
X104697265Y-80718153D01*
X104628113Y-80816547D01*
X104566524Y-80974513D01*
X104544394Y-81142611D01*
X104545049Y-81148544D01*
X104545049Y-81148548D01*
X104558784Y-81272957D01*
X104562999Y-81311135D01*
X104621266Y-81470356D01*
X104624591Y-81475305D01*
X104624592Y-81475306D01*
X104665642Y-81536395D01*
X104715830Y-81611083D01*
X104827374Y-81712580D01*
X104857687Y-81765725D01*
X104850973Y-81826541D01*
X104825824Y-81860404D01*
X104725604Y-81947831D01*
X104652094Y-82052426D01*
X104603165Y-82089162D01*
X104571097Y-82094500D01*
X104348535Y-82094500D01*
X104339906Y-82094123D01*
X104301194Y-82090736D01*
X104292830Y-82092977D01*
X104263651Y-82100795D01*
X104255222Y-82102664D01*
X104241108Y-82105153D01*
X104216955Y-82109412D01*
X104209454Y-82113743D01*
X104203964Y-82115741D01*
X104198683Y-82118204D01*
X104190316Y-82120446D01*
X104163061Y-82139531D01*
X104158489Y-82142732D01*
X104151208Y-82147371D01*
X104117545Y-82166806D01*
X104092569Y-82196571D01*
X104086735Y-82202939D01*
X103869504Y-82420170D01*
X103814987Y-82447947D01*
X103754555Y-82438376D01*
X103711290Y-82395111D01*
X103700500Y-82350166D01*
X103700500Y-81284281D01*
X103703057Y-81261926D01*
X103704388Y-81256183D01*
X103705655Y-81250718D01*
X103705656Y-81250000D01*
X103704411Y-81244542D01*
X103703790Y-81238993D01*
X103704705Y-81238891D01*
X103703284Y-81218173D01*
X103708239Y-81161545D01*
X103709456Y-81147629D01*
X103715689Y-81076388D01*
X103718685Y-81059394D01*
X103761551Y-80899417D01*
X103767453Y-80883201D01*
X103837447Y-80733098D01*
X103846076Y-80718153D01*
X103941066Y-80582492D01*
X103952158Y-80569272D01*
X104069272Y-80452158D01*
X104082492Y-80441066D01*
X104218153Y-80346076D01*
X104233098Y-80337447D01*
X104383201Y-80267453D01*
X104399417Y-80261551D01*
X104559393Y-80218685D01*
X104576388Y-80215689D01*
X104717922Y-80203307D01*
X104727629Y-80203979D01*
X104727630Y-80203138D01*
X104738775Y-80203158D01*
X104749641Y-80205656D01*
X104761641Y-80202941D01*
X104783488Y-80200500D01*
X106503378Y-80200500D01*
X106561569Y-80219407D01*
G37*
%TD.AperFunction*%
%TA.AperFunction,Conductor*%
G36*
X104630164Y-82764407D02*
G01*
X104654143Y-82789282D01*
X104715830Y-82881083D01*
X104827374Y-82982580D01*
X104857687Y-83035725D01*
X104850973Y-83096541D01*
X104825824Y-83130404D01*
X104725604Y-83217831D01*
X104628113Y-83356547D01*
X104566524Y-83514513D01*
X104544394Y-83682611D01*
X104545049Y-83688544D01*
X104545049Y-83688548D01*
X104562344Y-83845204D01*
X104562999Y-83851135D01*
X104621266Y-84010356D01*
X104715830Y-84151083D01*
X104720242Y-84155098D01*
X104720245Y-84155101D01*
X104785214Y-84214218D01*
X104815529Y-84267365D01*
X104808815Y-84328181D01*
X104782484Y-84361703D01*
X104782854Y-84362080D01*
X104779968Y-84364906D01*
X104779540Y-84365451D01*
X104778905Y-84365947D01*
X104665948Y-84476563D01*
X104658997Y-84485086D01*
X104573358Y-84617972D01*
X104568467Y-84627826D01*
X104515030Y-84774642D01*
X104516537Y-84782546D01*
X104517946Y-84783869D01*
X104523004Y-84785000D01*
X105326000Y-84785000D01*
X105384191Y-84803907D01*
X105420155Y-84853407D01*
X105425000Y-84884000D01*
X105425000Y-85036000D01*
X105406093Y-85094191D01*
X105356593Y-85130155D01*
X105326000Y-85135000D01*
X104529226Y-85135000D01*
X104518510Y-85138482D01*
X104518551Y-85150044D01*
X104559458Y-85273016D01*
X104564072Y-85283003D01*
X104645967Y-85418226D01*
X104652678Y-85426941D01*
X104762497Y-85540663D01*
X104770970Y-85547672D01*
X104773366Y-85549240D01*
X104774361Y-85550477D01*
X104775238Y-85551203D01*
X104775089Y-85551383D01*
X104811705Y-85596924D01*
X104814694Y-85658036D01*
X104784238Y-85706682D01*
X104725604Y-85757831D01*
X104722173Y-85762713D01*
X104722172Y-85762714D01*
X104697543Y-85797758D01*
X104628113Y-85896547D01*
X104625945Y-85902108D01*
X104573140Y-86037545D01*
X104566524Y-86054513D01*
X104565745Y-86060428D01*
X104565745Y-86060429D01*
X104561272Y-86094407D01*
X104544394Y-86222611D01*
X104545049Y-86228544D01*
X104545049Y-86228548D01*
X104552799Y-86298744D01*
X104562999Y-86391135D01*
X104621266Y-86550356D01*
X104624591Y-86555305D01*
X104624592Y-86555306D01*
X104641078Y-86579840D01*
X104715830Y-86691083D01*
X104827374Y-86792580D01*
X104857687Y-86845725D01*
X104850973Y-86906541D01*
X104825824Y-86940404D01*
X104725604Y-87027831D01*
X104722173Y-87032713D01*
X104722172Y-87032714D01*
X104635258Y-87156380D01*
X104628113Y-87166547D01*
X104625945Y-87172108D01*
X104580323Y-87289122D01*
X104566524Y-87324513D01*
X104544394Y-87492611D01*
X104545049Y-87498544D01*
X104545049Y-87498548D01*
X104561398Y-87646633D01*
X104562999Y-87661135D01*
X104621266Y-87820356D01*
X104624591Y-87825304D01*
X104702963Y-87941935D01*
X104719724Y-88000779D01*
X104698697Y-88058238D01*
X104670681Y-88079504D01*
X104671769Y-88081133D01*
X104605448Y-88125448D01*
X104561133Y-88191769D01*
X104559231Y-88201332D01*
X104559230Y-88201334D01*
X104556353Y-88215801D01*
X104549500Y-88250252D01*
X104549500Y-88969166D01*
X104530593Y-89027357D01*
X104520504Y-89039170D01*
X104344504Y-89215170D01*
X104289987Y-89242947D01*
X104229555Y-89233376D01*
X104186290Y-89190111D01*
X104175500Y-89145166D01*
X104175500Y-83075834D01*
X104194407Y-83017643D01*
X104204496Y-83005830D01*
X104435830Y-82774496D01*
X104490347Y-82746719D01*
X104505834Y-82745500D01*
X104571973Y-82745500D01*
X104630164Y-82764407D01*
G37*
%TD.AperFunction*%
%TD*%
M02*
