%TF.GenerationSoftware,KiCad,Pcbnew,(6.0.9)*%
%TF.CreationDate,2022-11-19T20:44:54+01:00*%
%TF.ProjectId,k1-aioc,6b312d61-696f-4632-9e6b-696361645f70,rev?*%
%TF.SameCoordinates,Original*%
%TF.FileFunction,Copper,L2,Bot*%
%TF.FilePolarity,Positive*%
%FSLAX46Y46*%
G04 Gerber Fmt 4.6, Leading zero omitted, Abs format (unit mm)*
G04 Created by KiCad (PCBNEW (6.0.9)) date 2022-11-19 20:44:54*
%MOMM*%
%LPD*%
G01*
G04 APERTURE LIST*
G04 Aperture macros list*
%AMRoundRect*
0 Rectangle with rounded corners*
0 $1 Rounding radius*
0 $2 $3 $4 $5 $6 $7 $8 $9 X,Y pos of 4 corners*
0 Add a 4 corners polygon primitive as box body*
4,1,4,$2,$3,$4,$5,$6,$7,$8,$9,$2,$3,0*
0 Add four circle primitives for the rounded corners*
1,1,$1+$1,$2,$3*
1,1,$1+$1,$4,$5*
1,1,$1+$1,$6,$7*
1,1,$1+$1,$8,$9*
0 Add four rect primitives between the rounded corners*
20,1,$1+$1,$2,$3,$4,$5,0*
20,1,$1+$1,$4,$5,$6,$7,0*
20,1,$1+$1,$6,$7,$8,$9,0*
20,1,$1+$1,$8,$9,$2,$3,0*%
G04 Aperture macros list end*
%TA.AperFunction,ComponentPad*%
%ADD10O,0.800000X1.400000*%
%TD*%
%TA.AperFunction,ComponentPad*%
%ADD11R,1.000000X1.000000*%
%TD*%
%TA.AperFunction,ComponentPad*%
%ADD12O,1.000000X1.000000*%
%TD*%
%TA.AperFunction,SMDPad,CuDef*%
%ADD13RoundRect,0.218750X0.218750X0.256250X-0.218750X0.256250X-0.218750X-0.256250X0.218750X-0.256250X0*%
%TD*%
%TA.AperFunction,SMDPad,CuDef*%
%ADD14RoundRect,0.218750X-0.218750X-0.256250X0.218750X-0.256250X0.218750X0.256250X-0.218750X0.256250X0*%
%TD*%
%TA.AperFunction,ViaPad*%
%ADD15C,0.600000*%
%TD*%
%TA.AperFunction,Conductor*%
%ADD16C,0.250000*%
%TD*%
%TA.AperFunction,Conductor*%
%ADD17C,0.500000*%
%TD*%
G04 APERTURE END LIST*
D10*
%TO.P,J1,S1,SHIELD*%
%TO.N,GND*%
X107010000Y-81160000D03*
X115990000Y-81160000D03*
X115630000Y-87110000D03*
X107370000Y-87110000D03*
%TD*%
D11*
%TO.P,J2,1,Pin_1*%
%TO.N,/BOOT0*%
X104925000Y-88750000D03*
D12*
%TO.P,J2,2,Pin_2*%
%TO.N,/SWO*%
X104925000Y-87480000D03*
%TO.P,J2,3,Pin_3*%
%TO.N,/NRST*%
X104925000Y-86210000D03*
%TO.P,J2,4,Pin_4*%
%TO.N,/SWDIO*%
X104925000Y-84940000D03*
%TO.P,J2,5,Pin_5*%
%TO.N,GND*%
X104925000Y-83670000D03*
%TO.P,J2,6,Pin_6*%
%TO.N,/SWCLK*%
X104925000Y-82400000D03*
%TO.P,J2,7,Pin_7*%
%TO.N,+3V3*%
X104925000Y-81130000D03*
%TD*%
D13*
%TO.P,D4,1,K*%
%TO.N,Net-(D1-Pad2)*%
X106287500Y-105000000D03*
%TO.P,D4,2,A*%
%TO.N,Net-(D1-Pad1)*%
X104712500Y-105000000D03*
%TD*%
D14*
%TO.P,D3,1,K*%
%TO.N,Net-(D1-Pad1)*%
X104712500Y-103500000D03*
%TO.P,D3,2,A*%
%TO.N,Net-(D1-Pad2)*%
X106287500Y-103500000D03*
%TD*%
D15*
%TO.N,GND*%
X114250000Y-106250000D03*
X115500000Y-97500000D03*
X113000270Y-83951369D03*
X105800000Y-94750000D03*
X116500000Y-94500000D03*
X118950000Y-83250000D03*
X107750000Y-107500000D03*
X115000000Y-102000000D03*
X113000000Y-96500000D03*
X110000000Y-100250000D03*
X118950000Y-84750000D03*
X109250000Y-103750000D03*
X112250000Y-102000000D03*
X107250000Y-89750000D03*
X113750000Y-110000000D03*
X110750000Y-107500000D03*
X112000000Y-97500000D03*
X105250000Y-89769502D03*
X105500000Y-98000000D03*
X110000000Y-98250000D03*
X114000000Y-99000000D03*
X116000270Y-83951369D03*
X117000000Y-92000000D03*
X109250000Y-102750000D03*
X114500000Y-101000000D03*
X107000000Y-83950000D03*
X105500000Y-99750000D03*
X117250000Y-103750000D03*
X110000000Y-101000000D03*
X106750000Y-107500000D03*
X114000000Y-92000000D03*
X113000000Y-97500000D03*
X113000000Y-102000000D03*
X106250000Y-89750000D03*
X114500000Y-86250000D03*
X107250000Y-104750000D03*
X121750000Y-100500000D03*
X116500000Y-95500000D03*
X111750000Y-107502432D03*
X114750000Y-98250000D03*
X115750000Y-110000000D03*
X114000000Y-96500000D03*
X113750000Y-108500000D03*
X114499400Y-83950576D03*
X112000000Y-96500000D03*
X108500270Y-83951369D03*
X105200000Y-94750000D03*
X116500000Y-103000000D03*
X111500270Y-83951369D03*
X122750000Y-101250000D03*
X115500000Y-99000000D03*
X109250000Y-110000000D03*
X111000000Y-96500000D03*
X115500000Y-101000000D03*
X111500000Y-102000000D03*
X118950000Y-86250000D03*
X109250000Y-104750000D03*
X115500000Y-92000000D03*
X118950000Y-87750000D03*
X110000270Y-83951369D03*
X122750000Y-102750000D03*
X115750000Y-106250000D03*
%TO.N,/SWCLK*%
X110600000Y-92866006D03*
%TO.N,/SWDIO*%
X110600000Y-93774076D03*
%TO.N,/USB-DP*%
X111350000Y-86250000D03*
X111350000Y-90500000D03*
X111350000Y-93250000D03*
%TO.N,/USB-DN*%
X112150000Y-86250000D03*
X112150000Y-90500000D03*
X112150000Y-93250000D03*
%TO.N,+3V3*%
X110274500Y-97000000D03*
X110000000Y-91000000D03*
X110750000Y-97500000D03*
X107250000Y-96650000D03*
X107250000Y-97350000D03*
%TO.N,+3.3VA*%
X111750000Y-99250000D03*
X112500000Y-99250000D03*
X107250000Y-99250000D03*
X111750000Y-100750000D03*
X107250000Y-98550000D03*
X112500000Y-100750000D03*
%TO.N,Net-(J1-PadA5)*%
X113500000Y-86250000D03*
X112899500Y-89942499D03*
%TO.N,/RADIO-RX-PTT1*%
X119000000Y-110750000D03*
X119011829Y-89364195D03*
%TO.N,/RADIO-TX*%
X123250000Y-100250000D03*
X119003182Y-88547732D03*
%TO.N,/NRST*%
X113000000Y-110750000D03*
X104750000Y-109000000D03*
%TO.N,/SWO*%
X109750000Y-93819338D03*
%TO.N,/BOOT0*%
X105500000Y-101250000D03*
%TO.N,Net-(D1-Pad1)*%
X105500000Y-104250000D03*
%TO.N,Net-(D1-Pad2)*%
X105500000Y-102750000D03*
%TD*%
D16*
%TO.N,/SWCLK*%
X105925000Y-83420000D02*
X104925000Y-82420000D01*
X109247792Y-85050000D02*
X106505408Y-85050000D01*
X110600000Y-92483884D02*
X109375000Y-91258884D01*
X110600000Y-92866006D02*
X110600000Y-92483884D01*
X109375000Y-91258884D02*
X109375000Y-90741116D01*
X110075500Y-90040616D02*
X110075500Y-85877708D01*
X106505408Y-85050000D02*
X105925000Y-84469592D01*
X109375000Y-90741116D02*
X110075500Y-90040616D01*
X110075500Y-85877708D02*
X109247792Y-85050000D01*
X105925000Y-84469592D02*
X105925000Y-83420000D01*
%TO.N,/SWDIO*%
X109061396Y-85500000D02*
X106319012Y-85500000D01*
X109625500Y-86064104D02*
X109061396Y-85500000D01*
X109625500Y-89854220D02*
X109625500Y-86064104D01*
X109975000Y-92495280D02*
X108925000Y-91445280D01*
X108925000Y-90554720D02*
X109625500Y-89854220D01*
X110600000Y-93774076D02*
X109975000Y-93149076D01*
X109975000Y-93149076D02*
X109975000Y-92495280D01*
X105779012Y-84960000D02*
X104925000Y-84960000D01*
X106319012Y-85500000D02*
X105779012Y-84960000D01*
X108925000Y-91445280D02*
X108925000Y-90554720D01*
D17*
%TO.N,/USB-DP*%
X111400000Y-86300000D02*
X111400000Y-93200000D01*
X111350000Y-86250000D02*
X111400000Y-86300000D01*
X111400000Y-93200000D02*
X111350000Y-93250000D01*
%TO.N,/USB-DN*%
X112100000Y-93200000D02*
X112150000Y-93250000D01*
X112100000Y-86300000D02*
X112100000Y-93200000D01*
X112150000Y-86250000D02*
X112100000Y-86300000D01*
D16*
%TO.N,+3V3*%
X106691804Y-84600000D02*
X109434188Y-84600000D01*
X104925000Y-81150000D02*
X106375000Y-82600000D01*
D17*
X110274500Y-97000000D02*
X110250000Y-97000000D01*
X107250000Y-96650000D02*
X107250000Y-97350000D01*
D16*
X110525500Y-90474500D02*
X110000000Y-91000000D01*
X106375000Y-82600000D02*
X106375000Y-84283196D01*
X110525500Y-85691312D02*
X110525500Y-90474500D01*
D17*
X110250000Y-97000000D02*
X110750000Y-97500000D01*
X107250000Y-96650000D02*
X109900000Y-96650000D01*
D16*
X109434188Y-84600000D02*
X110525500Y-85691312D01*
D17*
X109900000Y-96650000D02*
X110750000Y-97500000D01*
D16*
X106375000Y-84283196D02*
X106691804Y-84600000D01*
D17*
%TO.N,+3.3VA*%
X112500000Y-99250000D02*
X112500000Y-100750000D01*
X107250000Y-99250000D02*
X107250000Y-98550000D01*
X112100000Y-99250000D02*
X112100000Y-100750000D01*
X111750000Y-99250000D02*
X112250000Y-99250000D01*
X111750000Y-99250000D02*
X111750000Y-100750000D01*
X111750000Y-99250000D02*
X107250000Y-99250000D01*
X112250000Y-99250000D02*
X112500000Y-99250000D01*
D16*
%TO.N,Net-(J1-PadA5)*%
X113250000Y-86500000D02*
X113250000Y-89591999D01*
X113500000Y-86250000D02*
X113250000Y-86500000D01*
X113250000Y-89591999D02*
X112899500Y-89942499D01*
%TO.N,/RADIO-RX-PTT1*%
X124000000Y-92363604D02*
X123386396Y-91750000D01*
X121397634Y-91750000D02*
X119011829Y-89364195D01*
X124000000Y-103750000D02*
X124000000Y-92363604D01*
X123386396Y-91750000D02*
X121397634Y-91750000D01*
X123500000Y-105000000D02*
X122500000Y-105000000D01*
X124000000Y-104500000D02*
X123500000Y-105000000D01*
X124000000Y-103750000D02*
X124000000Y-104500000D01*
X119000000Y-110750000D02*
X119000000Y-109000000D01*
%TO.N,/RADIO-TX*%
X118739195Y-89989195D02*
X118386829Y-89636829D01*
X123200000Y-92200000D02*
X121211238Y-92200000D01*
X123550000Y-92550000D02*
X123200000Y-92200000D01*
X118386829Y-89636829D02*
X118386829Y-89105311D01*
X118386829Y-89105311D02*
X118944408Y-88547732D01*
X118944408Y-88547732D02*
X119003182Y-88547732D01*
X123550000Y-99950000D02*
X123550000Y-92550000D01*
X121211238Y-92200000D02*
X119000433Y-89989195D01*
X123250000Y-100250000D02*
X123550000Y-99950000D01*
X119000433Y-89989195D02*
X118739195Y-89989195D01*
%TO.N,/NRST*%
X104750000Y-109000000D02*
X105250000Y-109000000D01*
X106375000Y-111125000D02*
X106000000Y-110750000D01*
X113000000Y-110750000D02*
X112625000Y-111125000D01*
X104925000Y-86230000D02*
X104270000Y-86230000D01*
X103850000Y-108600000D02*
X103850000Y-106500000D01*
X106000000Y-110750000D02*
X106000000Y-109750000D01*
X104250000Y-109000000D02*
X103850000Y-108600000D01*
X105875000Y-109625000D02*
X105250000Y-109000000D01*
X112625000Y-111125000D02*
X106375000Y-111125000D01*
X103850000Y-86650000D02*
X103850000Y-106600000D01*
X104270000Y-86230000D02*
X103850000Y-86650000D01*
X106000000Y-109750000D02*
X105875000Y-109625000D01*
X105250000Y-109000000D02*
X104250000Y-109000000D01*
%TO.N,/SWO*%
X108475000Y-90368324D02*
X109175500Y-89667824D01*
X108875000Y-85950000D02*
X106475000Y-85950000D01*
X109175500Y-86250500D02*
X108875000Y-85950000D01*
X109525000Y-92681676D02*
X108475000Y-91631676D01*
X106475000Y-85950000D02*
X104925000Y-87500000D01*
X109750000Y-93560472D02*
X109525000Y-93335472D01*
X109525000Y-93335472D02*
X109525000Y-92681676D01*
X108475000Y-91631676D02*
X108475000Y-90368324D01*
X109750000Y-93819338D02*
X109750000Y-93560472D01*
X109175500Y-89667824D02*
X109175500Y-86250500D01*
%TO.N,/BOOT0*%
X104300000Y-101050000D02*
X104500000Y-101250000D01*
X104300000Y-89395000D02*
X104300000Y-101050000D01*
X104925000Y-88770000D02*
X104300000Y-89395000D01*
X104500000Y-101250000D02*
X105500000Y-101250000D01*
%TO.N,Net-(D1-Pad1)*%
X104712500Y-103500000D02*
X104712500Y-105000000D01*
X105250000Y-105000000D02*
X104712500Y-105000000D01*
X105500000Y-104750000D02*
X105250000Y-105000000D01*
X105500000Y-104250000D02*
X105500000Y-104750000D01*
%TO.N,Net-(D1-Pad2)*%
X106287500Y-103500000D02*
X106287500Y-105000000D01*
X105500000Y-102750000D02*
X105500000Y-103250000D01*
X105750000Y-103500000D02*
X106287500Y-103500000D01*
X105500000Y-103250000D02*
X105750000Y-103500000D01*
%TD*%
%TA.AperFunction,Conductor*%
%TO.N,GND*%
G36*
X122762170Y-92752421D02*
G01*
X122786073Y-92757175D01*
X122821091Y-92764141D01*
X122866510Y-92782954D01*
X122886329Y-92796196D01*
X122905939Y-92809300D01*
X122940700Y-92844061D01*
X122967045Y-92883488D01*
X122985860Y-92928911D01*
X122997579Y-92987830D01*
X123000000Y-93012410D01*
X123000000Y-97987590D01*
X122997579Y-98012170D01*
X122985860Y-98071089D01*
X122967045Y-98116512D01*
X122940700Y-98155939D01*
X122905939Y-98190700D01*
X122886329Y-98203804D01*
X122866510Y-98217046D01*
X122821091Y-98235859D01*
X122786073Y-98242825D01*
X122762170Y-98247579D01*
X122737590Y-98250000D01*
X117762410Y-98250000D01*
X117737830Y-98247579D01*
X117713927Y-98242825D01*
X117678909Y-98235859D01*
X117633490Y-98217046D01*
X117613671Y-98203804D01*
X117594061Y-98190700D01*
X117559300Y-98155939D01*
X117532955Y-98116512D01*
X117514140Y-98071089D01*
X117502421Y-98012170D01*
X117500000Y-97987590D01*
X117500000Y-93012410D01*
X117502421Y-92987830D01*
X117514140Y-92928911D01*
X117532955Y-92883488D01*
X117559300Y-92844061D01*
X117594061Y-92809300D01*
X117613671Y-92796196D01*
X117633490Y-92782954D01*
X117678909Y-92764141D01*
X117713927Y-92757175D01*
X117737830Y-92752421D01*
X117762410Y-92750000D01*
X122737590Y-92750000D01*
X122762170Y-92752421D01*
G37*
%TD.AperFunction*%
%TD*%
%TA.AperFunction,Conductor*%
%TO.N,/RADIO-RX-PTT1*%
G36*
X122762170Y-104502421D02*
G01*
X122786073Y-104507175D01*
X122821091Y-104514141D01*
X122866510Y-104532954D01*
X122886329Y-104546196D01*
X122905939Y-104559300D01*
X122940700Y-104594061D01*
X122967045Y-104633488D01*
X122985860Y-104678911D01*
X122997579Y-104737830D01*
X123000000Y-104762410D01*
X123000000Y-109737590D01*
X122997579Y-109762170D01*
X122985860Y-109821089D01*
X122967045Y-109866512D01*
X122940700Y-109905939D01*
X122905939Y-109940700D01*
X122886329Y-109953804D01*
X122866510Y-109967046D01*
X122821091Y-109985859D01*
X122786073Y-109992825D01*
X122762170Y-109997579D01*
X122737590Y-110000000D01*
X117762410Y-110000000D01*
X117737830Y-109997579D01*
X117713927Y-109992825D01*
X117678909Y-109985859D01*
X117633490Y-109967046D01*
X117613671Y-109953804D01*
X117594061Y-109940700D01*
X117559300Y-109905939D01*
X117532955Y-109866512D01*
X117514140Y-109821089D01*
X117502421Y-109762170D01*
X117500000Y-109737590D01*
X117500000Y-104762410D01*
X117502421Y-104737830D01*
X117514140Y-104678911D01*
X117532955Y-104633488D01*
X117559300Y-104594061D01*
X117594061Y-104559300D01*
X117613671Y-104546196D01*
X117633490Y-104532954D01*
X117678909Y-104514141D01*
X117713927Y-104507175D01*
X117737830Y-104502421D01*
X117762410Y-104500000D01*
X122737590Y-104500000D01*
X122762170Y-104502421D01*
G37*
%TD.AperFunction*%
%TD*%
%TA.AperFunction,Conductor*%
%TO.N,GND*%
G36*
X106561569Y-80219407D02*
G01*
X106597533Y-80268907D01*
X106597533Y-80330093D01*
X106575546Y-80367270D01*
X106480964Y-80467990D01*
X106473696Y-80477994D01*
X106400093Y-80611876D01*
X106395545Y-80623364D01*
X106357548Y-80771353D01*
X106356000Y-80783605D01*
X106356000Y-80969320D01*
X106360122Y-80982005D01*
X106364243Y-80985000D01*
X107648320Y-80985000D01*
X107661005Y-80980878D01*
X107664000Y-80976757D01*
X107664000Y-80821959D01*
X107663610Y-80815771D01*
X107649269Y-80702245D01*
X107646195Y-80690273D01*
X107589952Y-80548218D01*
X107584001Y-80537393D01*
X107494194Y-80413784D01*
X107485738Y-80404779D01*
X107450685Y-80375781D01*
X107417900Y-80324120D01*
X107421742Y-80263055D01*
X107460743Y-80215911D01*
X107513790Y-80200500D01*
X115483378Y-80200500D01*
X115541569Y-80219407D01*
X115577533Y-80268907D01*
X115577533Y-80330093D01*
X115555546Y-80367270D01*
X115460964Y-80467990D01*
X115453696Y-80477994D01*
X115380093Y-80611876D01*
X115375545Y-80623364D01*
X115337548Y-80771353D01*
X115336000Y-80783605D01*
X115336000Y-80969320D01*
X115340122Y-80982005D01*
X115344243Y-80985000D01*
X116628320Y-80985000D01*
X116641005Y-80980878D01*
X116644000Y-80976757D01*
X116644000Y-80821959D01*
X116643610Y-80815771D01*
X116629269Y-80702245D01*
X116626195Y-80690273D01*
X116569952Y-80548218D01*
X116564001Y-80537393D01*
X116474194Y-80413784D01*
X116465738Y-80404779D01*
X116430685Y-80375781D01*
X116397900Y-80324120D01*
X116401742Y-80263055D01*
X116440743Y-80215911D01*
X116493790Y-80200500D01*
X118215983Y-80200500D01*
X118238169Y-80203018D01*
X118249641Y-80205656D01*
X118260515Y-80203195D01*
X118271664Y-80203215D01*
X118271663Y-80203935D01*
X118281572Y-80203262D01*
X118402461Y-80213838D01*
X118423613Y-80215689D01*
X118440607Y-80218685D01*
X118600583Y-80261551D01*
X118616799Y-80267453D01*
X118766902Y-80337447D01*
X118781847Y-80346076D01*
X118917508Y-80441066D01*
X118930728Y-80452158D01*
X119047842Y-80569272D01*
X119058934Y-80582492D01*
X119153924Y-80718153D01*
X119162553Y-80733098D01*
X119232547Y-80883201D01*
X119238449Y-80899417D01*
X119281315Y-81059393D01*
X119284311Y-81076388D01*
X119296693Y-81217922D01*
X119296021Y-81227629D01*
X119296862Y-81227630D01*
X119296842Y-81238775D01*
X119294344Y-81249641D01*
X119296804Y-81260513D01*
X119297059Y-81261638D01*
X119299500Y-81283488D01*
X119299500Y-87980966D01*
X119280593Y-88039157D01*
X119231093Y-88075121D01*
X119172135Y-88075815D01*
X119077921Y-88047639D01*
X118994679Y-88047130D01*
X118941609Y-88046806D01*
X118941608Y-88046806D01*
X118934558Y-88046763D01*
X118927781Y-88048700D01*
X118927780Y-88048700D01*
X118803491Y-88084222D01*
X118803489Y-88084223D01*
X118796711Y-88086160D01*
X118675462Y-88162662D01*
X118670795Y-88167946D01*
X118670793Y-88167948D01*
X118585226Y-88264835D01*
X118585224Y-88264837D01*
X118580559Y-88270120D01*
X118519629Y-88399895D01*
X118518544Y-88406864D01*
X118518543Y-88406867D01*
X118503893Y-88500964D01*
X118476076Y-88555738D01*
X118169772Y-88862042D01*
X118163405Y-88867876D01*
X118133635Y-88892856D01*
X118129306Y-88900355D01*
X118114202Y-88926516D01*
X118109561Y-88933800D01*
X118087275Y-88965627D01*
X118085033Y-88973995D01*
X118082567Y-88979282D01*
X118080571Y-88984767D01*
X118076241Y-88992266D01*
X118074738Y-89000792D01*
X118074737Y-89000794D01*
X118069495Y-89030527D01*
X118067625Y-89038961D01*
X118057565Y-89076504D01*
X118058320Y-89085133D01*
X118060952Y-89115216D01*
X118061329Y-89123845D01*
X118061329Y-89618295D01*
X118060952Y-89626924D01*
X118057565Y-89665636D01*
X118059807Y-89674003D01*
X118067625Y-89703178D01*
X118069495Y-89711613D01*
X118074285Y-89738778D01*
X118076241Y-89749874D01*
X118080571Y-89757373D01*
X118082567Y-89762858D01*
X118085033Y-89768145D01*
X118087275Y-89776513D01*
X118101589Y-89796955D01*
X118109561Y-89808340D01*
X118114200Y-89815621D01*
X118133635Y-89849284D01*
X118156567Y-89868526D01*
X118163400Y-89874260D01*
X118169768Y-89880094D01*
X118495926Y-90206252D01*
X118501760Y-90212619D01*
X118526740Y-90242389D01*
X118549067Y-90255279D01*
X118560400Y-90261822D01*
X118567684Y-90266463D01*
X118599511Y-90288749D01*
X118607879Y-90290991D01*
X118613166Y-90293457D01*
X118618651Y-90295453D01*
X118626150Y-90299783D01*
X118634676Y-90301286D01*
X118634678Y-90301287D01*
X118664411Y-90306529D01*
X118672845Y-90308399D01*
X118710388Y-90318459D01*
X118749103Y-90315072D01*
X118757732Y-90314695D01*
X118824599Y-90314695D01*
X118882790Y-90333602D01*
X118894603Y-90343691D01*
X120631907Y-92080996D01*
X120659684Y-92135513D01*
X120650113Y-92195945D01*
X120606848Y-92239210D01*
X120561903Y-92250000D01*
X117250000Y-92250000D01*
X117000000Y-92500000D01*
X117000000Y-94750000D01*
X117500000Y-94750000D01*
X117500000Y-96250000D01*
X117000000Y-96250000D01*
X117000000Y-98502475D01*
X117250000Y-98750000D01*
X123125500Y-98750000D01*
X123183691Y-98768907D01*
X123219655Y-98818407D01*
X123224500Y-98849000D01*
X123224500Y-99662036D01*
X123205593Y-99720227D01*
X123152705Y-99757225D01*
X123050309Y-99786490D01*
X123050307Y-99786491D01*
X123043529Y-99788428D01*
X122922280Y-99864930D01*
X122917613Y-99870214D01*
X122917611Y-99870216D01*
X122832044Y-99967103D01*
X122832042Y-99967105D01*
X122827377Y-99972388D01*
X122766447Y-100102163D01*
X122744391Y-100243823D01*
X122762980Y-100385979D01*
X122820720Y-100517203D01*
X122832959Y-100531763D01*
X122908431Y-100621549D01*
X122908434Y-100621551D01*
X122912970Y-100626948D01*
X123032313Y-100706390D01*
X123129809Y-100736849D01*
X123162425Y-100747039D01*
X123162426Y-100747039D01*
X123169157Y-100749142D01*
X123240828Y-100750456D01*
X123305445Y-100751641D01*
X123305447Y-100751641D01*
X123312499Y-100751770D01*
X123319302Y-100749915D01*
X123319304Y-100749915D01*
X123394503Y-100729413D01*
X123450817Y-100714060D01*
X123523700Y-100669310D01*
X123583181Y-100654974D01*
X123639729Y-100678340D01*
X123671744Y-100730481D01*
X123674500Y-100753676D01*
X123674500Y-104324166D01*
X123655593Y-104382357D01*
X123645504Y-104394170D01*
X123396970Y-104642704D01*
X123342453Y-104670481D01*
X123282021Y-104660910D01*
X123238756Y-104617645D01*
X123232229Y-104601437D01*
X123226316Y-104581944D01*
X123226314Y-104581939D01*
X123225606Y-104579604D01*
X123206791Y-104534181D01*
X123182810Y-104489315D01*
X123181457Y-104487290D01*
X123157817Y-104451911D01*
X123157815Y-104451908D01*
X123156465Y-104449888D01*
X123124194Y-104410567D01*
X123089433Y-104375806D01*
X123050111Y-104343535D01*
X123044894Y-104340049D01*
X123012697Y-104318535D01*
X123012691Y-104318532D01*
X123010682Y-104317189D01*
X122965816Y-104293207D01*
X122944414Y-104284342D01*
X122922638Y-104275322D01*
X122922634Y-104275320D01*
X122920397Y-104274394D01*
X122918088Y-104273694D01*
X122918078Y-104273690D01*
X122874041Y-104260332D01*
X122874036Y-104260331D01*
X122871716Y-104259627D01*
X122865733Y-104258437D01*
X122813962Y-104248139D01*
X122813957Y-104248138D01*
X122812795Y-104247907D01*
X122787606Y-104244171D01*
X122767515Y-104242192D01*
X122764245Y-104241870D01*
X122764242Y-104241870D01*
X122763026Y-104241750D01*
X122761832Y-104241691D01*
X122761814Y-104241690D01*
X122750703Y-104241144D01*
X122737590Y-104240500D01*
X117762410Y-104240500D01*
X117749297Y-104241144D01*
X117738186Y-104241690D01*
X117738168Y-104241691D01*
X117736974Y-104241750D01*
X117735758Y-104241870D01*
X117735755Y-104241870D01*
X117732485Y-104242192D01*
X117712394Y-104244171D01*
X117687205Y-104247907D01*
X117686043Y-104248138D01*
X117686038Y-104248139D01*
X117634267Y-104258437D01*
X117628284Y-104259627D01*
X117625964Y-104260331D01*
X117625959Y-104260332D01*
X117581922Y-104273690D01*
X117581912Y-104273694D01*
X117579603Y-104274394D01*
X117577366Y-104275320D01*
X117577362Y-104275322D01*
X117555586Y-104284342D01*
X117534184Y-104293207D01*
X117489318Y-104317189D01*
X117487309Y-104318532D01*
X117487303Y-104318535D01*
X117455106Y-104340049D01*
X117449889Y-104343535D01*
X117410567Y-104375806D01*
X117375806Y-104410567D01*
X117343535Y-104449888D01*
X117342185Y-104451908D01*
X117342183Y-104451911D01*
X117318543Y-104487290D01*
X117317190Y-104489315D01*
X117293209Y-104534181D01*
X117274394Y-104579604D01*
X117273686Y-104581939D01*
X117262057Y-104620275D01*
X117259626Y-104628288D01*
X117259152Y-104630671D01*
X117259150Y-104630679D01*
X117254044Y-104656351D01*
X117247907Y-104687207D01*
X117244171Y-104712394D01*
X117241750Y-104736974D01*
X117241691Y-104738168D01*
X117241690Y-104738186D01*
X117241144Y-104749297D01*
X117240500Y-104762410D01*
X117240500Y-109737590D01*
X117240559Y-109738781D01*
X117241597Y-109759905D01*
X117241750Y-109763026D01*
X117244171Y-109787606D01*
X117247907Y-109812793D01*
X117248142Y-109813972D01*
X117257236Y-109859694D01*
X117259626Y-109871712D01*
X117274394Y-109920396D01*
X117293209Y-109965819D01*
X117317190Y-110010685D01*
X117318542Y-110012709D01*
X117318543Y-110012710D01*
X117331240Y-110031711D01*
X117343535Y-110050112D01*
X117375806Y-110089433D01*
X117410567Y-110124194D01*
X117449889Y-110156465D01*
X117451912Y-110157816D01*
X117451915Y-110157819D01*
X117487303Y-110181465D01*
X117487309Y-110181468D01*
X117489318Y-110182811D01*
X117534184Y-110206793D01*
X117539387Y-110208948D01*
X117577362Y-110224678D01*
X117577366Y-110224680D01*
X117579603Y-110225606D01*
X117581912Y-110226306D01*
X117581922Y-110226310D01*
X117625959Y-110239668D01*
X117625964Y-110239669D01*
X117628284Y-110240373D01*
X117630662Y-110240846D01*
X117686038Y-110251861D01*
X117686043Y-110251862D01*
X117687205Y-110252093D01*
X117712394Y-110255829D01*
X117732485Y-110257808D01*
X117735755Y-110258130D01*
X117735758Y-110258130D01*
X117736974Y-110258250D01*
X117738168Y-110258309D01*
X117738186Y-110258310D01*
X117749297Y-110258856D01*
X117762410Y-110259500D01*
X118545877Y-110259500D01*
X118604068Y-110278407D01*
X118640032Y-110327907D01*
X118640032Y-110389093D01*
X118620081Y-110424034D01*
X118605446Y-110440606D01*
X118577377Y-110472388D01*
X118516447Y-110602163D01*
X118515362Y-110609132D01*
X118515361Y-110609135D01*
X118504643Y-110677974D01*
X118494391Y-110743823D01*
X118495306Y-110750820D01*
X118495306Y-110750821D01*
X118496814Y-110762354D01*
X118512980Y-110885979D01*
X118515821Y-110892435D01*
X118515821Y-110892436D01*
X118562993Y-110999641D01*
X118570720Y-111017203D01*
X118662970Y-111126948D01*
X118665199Y-111128431D01*
X118694968Y-111179577D01*
X118688786Y-111240449D01*
X118648004Y-111286062D01*
X118598204Y-111299500D01*
X113400898Y-111299500D01*
X113342707Y-111280593D01*
X113306743Y-111231093D01*
X113306743Y-111169907D01*
X113327500Y-111134064D01*
X113414468Y-111037982D01*
X113419200Y-111032754D01*
X113481710Y-110903733D01*
X113485875Y-110878982D01*
X113504862Y-110766124D01*
X113504862Y-110766120D01*
X113505496Y-110762354D01*
X113505647Y-110750000D01*
X113485323Y-110608082D01*
X113425984Y-110477572D01*
X113349745Y-110389093D01*
X113337005Y-110374307D01*
X113337004Y-110374306D01*
X113332400Y-110368963D01*
X113212095Y-110290985D01*
X113074739Y-110249907D01*
X112991497Y-110249398D01*
X112938427Y-110249074D01*
X112938426Y-110249074D01*
X112931376Y-110249031D01*
X112924599Y-110250968D01*
X112924598Y-110250968D01*
X112800309Y-110286490D01*
X112800307Y-110286491D01*
X112793529Y-110288428D01*
X112672280Y-110364930D01*
X112667613Y-110370214D01*
X112667611Y-110370216D01*
X112582044Y-110467103D01*
X112582042Y-110467105D01*
X112577377Y-110472388D01*
X112516447Y-110602163D01*
X112515362Y-110609132D01*
X112515361Y-110609135D01*
X112498765Y-110715730D01*
X112471131Y-110770320D01*
X112416687Y-110798240D01*
X112400944Y-110799500D01*
X106550834Y-110799500D01*
X106492643Y-110780593D01*
X106480830Y-110770504D01*
X106354496Y-110644170D01*
X106326719Y-110589653D01*
X106325500Y-110574166D01*
X106325500Y-109768534D01*
X106325877Y-109759905D01*
X106328509Y-109729822D01*
X106329264Y-109721193D01*
X106319204Y-109683650D01*
X106317334Y-109675216D01*
X106312092Y-109645483D01*
X106312091Y-109645481D01*
X106310588Y-109636955D01*
X106306258Y-109629456D01*
X106304262Y-109623971D01*
X106301796Y-109618684D01*
X106299554Y-109610316D01*
X106277268Y-109578489D01*
X106272627Y-109571205D01*
X106257523Y-109545044D01*
X106253194Y-109537545D01*
X106223429Y-109512569D01*
X106217061Y-109506735D01*
X106125300Y-109414974D01*
X106125298Y-109414971D01*
X105493269Y-108782943D01*
X105487434Y-108776575D01*
X105485122Y-108773819D01*
X105462455Y-108746806D01*
X105428792Y-108727371D01*
X105421511Y-108722732D01*
X105419056Y-108721013D01*
X105389684Y-108700446D01*
X105381316Y-108698204D01*
X105376029Y-108695738D01*
X105370544Y-108693742D01*
X105363045Y-108689412D01*
X105354519Y-108687909D01*
X105354517Y-108687908D01*
X105324784Y-108682666D01*
X105316349Y-108680796D01*
X105287174Y-108672978D01*
X105278807Y-108670736D01*
X105270178Y-108671491D01*
X105240095Y-108674123D01*
X105231466Y-108674500D01*
X105175632Y-108674500D01*
X105117441Y-108655593D01*
X105100634Y-108640124D01*
X105087006Y-108624308D01*
X105087004Y-108624306D01*
X105082400Y-108618963D01*
X104962095Y-108540985D01*
X104824739Y-108499907D01*
X104741497Y-108499398D01*
X104688427Y-108499074D01*
X104688426Y-108499074D01*
X104681376Y-108499031D01*
X104674599Y-108500968D01*
X104674598Y-108500968D01*
X104550309Y-108536490D01*
X104550307Y-108536491D01*
X104543529Y-108538428D01*
X104429689Y-108610255D01*
X104370387Y-108625316D01*
X104313558Y-108602643D01*
X104306859Y-108596532D01*
X104204497Y-108494171D01*
X104176719Y-108439654D01*
X104175500Y-108424167D01*
X104175500Y-105726182D01*
X104194407Y-105667991D01*
X104243907Y-105632027D01*
X104305093Y-105632027D01*
X104319446Y-105637973D01*
X104362580Y-105659951D01*
X104370273Y-105661170D01*
X104370275Y-105661170D01*
X104456908Y-105674891D01*
X104456910Y-105674891D01*
X104460754Y-105675500D01*
X104964246Y-105675500D01*
X104968090Y-105674891D01*
X104968092Y-105674891D01*
X105054725Y-105661170D01*
X105054727Y-105661170D01*
X105062420Y-105659951D01*
X105117224Y-105632027D01*
X105173812Y-105603194D01*
X105173814Y-105603193D01*
X105180751Y-105599658D01*
X105274658Y-105505751D01*
X105334951Y-105387420D01*
X105337662Y-105370303D01*
X105365440Y-105315786D01*
X105387964Y-105300015D01*
X105389684Y-105299554D01*
X105421511Y-105277268D01*
X105428795Y-105272627D01*
X105462455Y-105253194D01*
X105475600Y-105237528D01*
X105527487Y-105205105D01*
X105588523Y-105209372D01*
X105635394Y-105248701D01*
X105648802Y-105289357D01*
X105649500Y-105289246D01*
X105655719Y-105328509D01*
X105665049Y-105387420D01*
X105725342Y-105505751D01*
X105819249Y-105599658D01*
X105826186Y-105603193D01*
X105826188Y-105603194D01*
X105882776Y-105632027D01*
X105937580Y-105659951D01*
X105945273Y-105661170D01*
X105945275Y-105661170D01*
X106031908Y-105674891D01*
X106031910Y-105674891D01*
X106035754Y-105675500D01*
X106539246Y-105675500D01*
X106543090Y-105674891D01*
X106543092Y-105674891D01*
X106629725Y-105661170D01*
X106629727Y-105661170D01*
X106637420Y-105659951D01*
X106692224Y-105632027D01*
X106748812Y-105603194D01*
X106748814Y-105603193D01*
X106755751Y-105599658D01*
X106849658Y-105505751D01*
X106909951Y-105387420D01*
X106919282Y-105328509D01*
X106924891Y-105293092D01*
X106924891Y-105293090D01*
X106925500Y-105289246D01*
X106925500Y-104710754D01*
X106919758Y-104674500D01*
X106911170Y-104620275D01*
X106911170Y-104620273D01*
X106909951Y-104612580D01*
X106893149Y-104579604D01*
X106853194Y-104501188D01*
X106853193Y-104501186D01*
X106849658Y-104494249D01*
X106755751Y-104400342D01*
X106748814Y-104396807D01*
X106748812Y-104396806D01*
X106667055Y-104355149D01*
X106623790Y-104311884D01*
X106613000Y-104266939D01*
X106613000Y-104233061D01*
X106631907Y-104174870D01*
X106667055Y-104144851D01*
X106748812Y-104103194D01*
X106748814Y-104103193D01*
X106755751Y-104099658D01*
X106849658Y-104005751D01*
X106909951Y-103887420D01*
X106925500Y-103789246D01*
X106925500Y-103210754D01*
X106909951Y-103112580D01*
X106849658Y-102994249D01*
X106755751Y-102900342D01*
X106748814Y-102896807D01*
X106748812Y-102896806D01*
X106644360Y-102843585D01*
X106644359Y-102843585D01*
X106637420Y-102840049D01*
X106629727Y-102838830D01*
X106629725Y-102838830D01*
X106543092Y-102825109D01*
X106543090Y-102825109D01*
X106539246Y-102824500D01*
X106102148Y-102824500D01*
X106043957Y-102805593D01*
X106007993Y-102756093D01*
X106004148Y-102739534D01*
X105986323Y-102615067D01*
X105985323Y-102608082D01*
X105925984Y-102477572D01*
X105832400Y-102368963D01*
X105712095Y-102290985D01*
X105574739Y-102249907D01*
X105491497Y-102249398D01*
X105438427Y-102249074D01*
X105438426Y-102249074D01*
X105431376Y-102249031D01*
X105424599Y-102250968D01*
X105424598Y-102250968D01*
X105300309Y-102286490D01*
X105300307Y-102286491D01*
X105293529Y-102288428D01*
X105172280Y-102364930D01*
X105167613Y-102370214D01*
X105167611Y-102370216D01*
X105082044Y-102467103D01*
X105082042Y-102467105D01*
X105077377Y-102472388D01*
X105016447Y-102602163D01*
X105015362Y-102609132D01*
X105015361Y-102609135D01*
X104994873Y-102740730D01*
X104967239Y-102795319D01*
X104912796Y-102823240D01*
X104897052Y-102824500D01*
X104460754Y-102824500D01*
X104456910Y-102825109D01*
X104456908Y-102825109D01*
X104370275Y-102838830D01*
X104370273Y-102838830D01*
X104362580Y-102840049D01*
X104355639Y-102843586D01*
X104355638Y-102843586D01*
X104319446Y-102862027D01*
X104259014Y-102871599D01*
X104204497Y-102843822D01*
X104176719Y-102789306D01*
X104175500Y-102773818D01*
X104175500Y-101610321D01*
X104194407Y-101552130D01*
X104243907Y-101516166D01*
X104305093Y-101516166D01*
X104331281Y-101529223D01*
X104360316Y-101549554D01*
X104368683Y-101551796D01*
X104373971Y-101554262D01*
X104379456Y-101556258D01*
X104386955Y-101560588D01*
X104395481Y-101562091D01*
X104395483Y-101562092D01*
X104425216Y-101567334D01*
X104433650Y-101569204D01*
X104471193Y-101579264D01*
X104509908Y-101575877D01*
X104518537Y-101575500D01*
X105073612Y-101575500D01*
X105131803Y-101594407D01*
X105149394Y-101610797D01*
X105162970Y-101626948D01*
X105168841Y-101630856D01*
X105168842Y-101630857D01*
X105181143Y-101639045D01*
X105282313Y-101706390D01*
X105382920Y-101737821D01*
X105412425Y-101747039D01*
X105412426Y-101747039D01*
X105419157Y-101749142D01*
X105490828Y-101750456D01*
X105555445Y-101751641D01*
X105555447Y-101751641D01*
X105562499Y-101751770D01*
X105569302Y-101749915D01*
X105569304Y-101749915D01*
X105644503Y-101729413D01*
X105700817Y-101714060D01*
X105822991Y-101639045D01*
X105830403Y-101630857D01*
X105914468Y-101537982D01*
X105919200Y-101532754D01*
X105981710Y-101403733D01*
X106005496Y-101262354D01*
X106005647Y-101250000D01*
X105985323Y-101108082D01*
X105925984Y-100977572D01*
X105862360Y-100903733D01*
X105837005Y-100874307D01*
X105837004Y-100874306D01*
X105832400Y-100868963D01*
X105712095Y-100790985D01*
X105574739Y-100749907D01*
X105491497Y-100749398D01*
X105438427Y-100749074D01*
X105438426Y-100749074D01*
X105431376Y-100749031D01*
X105424599Y-100750968D01*
X105424598Y-100750968D01*
X105300309Y-100786490D01*
X105300307Y-100786491D01*
X105293529Y-100788428D01*
X105172280Y-100864930D01*
X105167613Y-100870214D01*
X105167611Y-100870216D01*
X105149226Y-100891034D01*
X105096534Y-100922134D01*
X105075022Y-100924500D01*
X104724500Y-100924500D01*
X104666309Y-100905593D01*
X104630345Y-100856093D01*
X104625500Y-100825500D01*
X104625500Y-99243823D01*
X106744391Y-99243823D01*
X106745306Y-99250820D01*
X106745306Y-99250821D01*
X106746814Y-99262354D01*
X106762980Y-99385979D01*
X106765821Y-99392435D01*
X106765821Y-99392436D01*
X106799137Y-99468151D01*
X106820720Y-99517203D01*
X106866845Y-99572076D01*
X106908431Y-99621549D01*
X106908434Y-99621551D01*
X106912970Y-99626948D01*
X107032313Y-99706390D01*
X107132920Y-99737821D01*
X107162425Y-99747039D01*
X107162426Y-99747039D01*
X107169157Y-99749142D01*
X107240828Y-99750456D01*
X107305445Y-99751641D01*
X107305447Y-99751641D01*
X107312499Y-99751770D01*
X107319302Y-99749915D01*
X107319304Y-99749915D01*
X107444013Y-99715915D01*
X107450817Y-99714060D01*
X107456827Y-99710370D01*
X107460820Y-99708642D01*
X107500137Y-99700500D01*
X111200500Y-99700500D01*
X111258691Y-99719407D01*
X111294655Y-99768907D01*
X111299500Y-99799500D01*
X111299500Y-100509680D01*
X111290116Y-100551751D01*
X111266447Y-100602163D01*
X111265362Y-100609132D01*
X111265361Y-100609135D01*
X111258224Y-100654974D01*
X111244391Y-100743823D01*
X111245306Y-100750820D01*
X111245306Y-100750821D01*
X111260253Y-100865126D01*
X111262980Y-100885979D01*
X111265821Y-100892435D01*
X111265821Y-100892436D01*
X111306109Y-100983996D01*
X111320720Y-101017203D01*
X111333792Y-101032754D01*
X111408431Y-101121549D01*
X111408434Y-101121551D01*
X111412970Y-101126948D01*
X111418841Y-101130856D01*
X111418842Y-101130857D01*
X111431143Y-101139045D01*
X111532313Y-101206390D01*
X111632920Y-101237821D01*
X111662425Y-101247039D01*
X111662426Y-101247039D01*
X111669157Y-101249142D01*
X111740828Y-101250456D01*
X111805445Y-101251641D01*
X111805447Y-101251641D01*
X111812499Y-101251770D01*
X111819302Y-101249915D01*
X111819304Y-101249915D01*
X111944013Y-101215915D01*
X111950817Y-101214060D01*
X111956826Y-101210371D01*
X111956834Y-101210367D01*
X111958984Y-101209047D01*
X111961015Y-101208558D01*
X111963302Y-101207568D01*
X111963474Y-101207965D01*
X112018467Y-101194714D01*
X112033135Y-101196972D01*
X112053394Y-101201667D01*
X112064255Y-101204185D01*
X112199384Y-101194617D01*
X112205896Y-101192098D01*
X112266611Y-101197836D01*
X112269974Y-101199662D01*
X112270077Y-101199446D01*
X112276442Y-101202482D01*
X112282313Y-101206390D01*
X112382920Y-101237821D01*
X112412425Y-101247039D01*
X112412426Y-101247039D01*
X112419157Y-101249142D01*
X112490828Y-101250456D01*
X112555445Y-101251641D01*
X112555447Y-101251641D01*
X112562499Y-101251770D01*
X112569302Y-101249915D01*
X112569304Y-101249915D01*
X112644503Y-101229413D01*
X112700817Y-101214060D01*
X112822991Y-101139045D01*
X112830403Y-101130857D01*
X112914468Y-101037982D01*
X112919200Y-101032754D01*
X112960349Y-100947823D01*
X112978634Y-100910082D01*
X112981710Y-100903733D01*
X112985875Y-100878982D01*
X113004862Y-100766124D01*
X113004862Y-100766120D01*
X113005496Y-100762354D01*
X113005647Y-100750000D01*
X112985323Y-100608082D01*
X112979731Y-100595782D01*
X112959378Y-100551017D01*
X112950500Y-100510042D01*
X112950500Y-99490870D01*
X112960406Y-99447705D01*
X112978635Y-99410079D01*
X112981710Y-99403733D01*
X113005496Y-99262354D01*
X113005647Y-99250000D01*
X112985323Y-99108082D01*
X112925984Y-98977572D01*
X112832400Y-98868963D01*
X112712095Y-98790985D01*
X112574739Y-98749907D01*
X112491497Y-98749398D01*
X112438427Y-98749074D01*
X112438426Y-98749074D01*
X112431376Y-98749031D01*
X112424599Y-98750968D01*
X112424598Y-98750968D01*
X112320943Y-98780593D01*
X112293529Y-98788428D01*
X112289220Y-98791147D01*
X112250092Y-98799500D01*
X112162966Y-98799500D01*
X112150332Y-98798055D01*
X112150331Y-98798067D01*
X112142957Y-98797487D01*
X112135745Y-98795815D01*
X112091287Y-98798963D01*
X112087190Y-98799253D01*
X112080198Y-98799500D01*
X111999905Y-98799500D01*
X111962565Y-98791290D01*
X111962095Y-98790985D01*
X111955337Y-98788964D01*
X111955335Y-98788963D01*
X111831500Y-98751929D01*
X111824739Y-98749907D01*
X111741497Y-98749398D01*
X111688427Y-98749074D01*
X111688426Y-98749074D01*
X111681376Y-98749031D01*
X111674599Y-98750968D01*
X111674598Y-98750968D01*
X111570943Y-98780593D01*
X111543529Y-98788428D01*
X111539220Y-98791147D01*
X111500092Y-98799500D01*
X107832645Y-98799500D01*
X107774454Y-98780593D01*
X107738490Y-98731093D01*
X107735017Y-98684075D01*
X107754862Y-98566124D01*
X107754862Y-98566120D01*
X107755496Y-98562354D01*
X107755647Y-98550000D01*
X107735323Y-98408082D01*
X107675984Y-98277572D01*
X107582400Y-98168963D01*
X107462095Y-98090985D01*
X107324739Y-98049907D01*
X107241497Y-98049398D01*
X107188427Y-98049074D01*
X107188426Y-98049074D01*
X107181376Y-98049031D01*
X107174599Y-98050968D01*
X107174598Y-98050968D01*
X107050309Y-98086490D01*
X107050307Y-98086491D01*
X107043529Y-98088428D01*
X106922280Y-98164930D01*
X106917613Y-98170214D01*
X106917611Y-98170216D01*
X106832044Y-98267103D01*
X106832042Y-98267105D01*
X106827377Y-98272388D01*
X106766447Y-98402163D01*
X106744391Y-98543823D01*
X106745306Y-98550820D01*
X106745306Y-98550821D01*
X106746814Y-98562354D01*
X106762980Y-98685979D01*
X106765820Y-98692433D01*
X106765821Y-98692437D01*
X106791116Y-98749923D01*
X106799500Y-98789795D01*
X106799500Y-99009680D01*
X106790116Y-99051751D01*
X106766447Y-99102163D01*
X106744391Y-99243823D01*
X104625500Y-99243823D01*
X104625500Y-97343823D01*
X106744391Y-97343823D01*
X106745306Y-97350820D01*
X106745306Y-97350821D01*
X106759111Y-97456390D01*
X106762980Y-97485979D01*
X106765821Y-97492435D01*
X106765821Y-97492436D01*
X106773586Y-97510082D01*
X106820720Y-97617203D01*
X106866845Y-97672076D01*
X106908431Y-97721549D01*
X106908434Y-97721551D01*
X106912970Y-97726948D01*
X106918841Y-97730856D01*
X106918842Y-97730857D01*
X106931143Y-97739045D01*
X107032313Y-97806390D01*
X107132920Y-97837821D01*
X107162425Y-97847039D01*
X107162426Y-97847039D01*
X107169157Y-97849142D01*
X107240828Y-97850456D01*
X107305445Y-97851641D01*
X107305447Y-97851641D01*
X107312499Y-97851770D01*
X107319302Y-97849915D01*
X107319304Y-97849915D01*
X107394503Y-97829413D01*
X107450817Y-97814060D01*
X107572991Y-97739045D01*
X107580403Y-97730857D01*
X107664468Y-97637982D01*
X107669200Y-97632754D01*
X107731710Y-97503733D01*
X107735875Y-97478982D01*
X107754862Y-97366124D01*
X107754862Y-97366120D01*
X107755496Y-97362354D01*
X107755647Y-97350000D01*
X107755104Y-97346207D01*
X107736104Y-97213534D01*
X107746571Y-97153251D01*
X107790473Y-97110633D01*
X107834104Y-97100500D01*
X109672390Y-97100500D01*
X109730581Y-97119407D01*
X109742392Y-97129495D01*
X109785264Y-97172368D01*
X109804680Y-97191784D01*
X109825292Y-97221914D01*
X109845220Y-97267203D01*
X109849757Y-97272600D01*
X109932931Y-97371549D01*
X109932934Y-97371551D01*
X109937470Y-97376948D01*
X110056813Y-97456390D01*
X110063339Y-97458429D01*
X110090574Y-97477677D01*
X110260930Y-97648034D01*
X110281542Y-97678165D01*
X110317879Y-97760747D01*
X110320720Y-97767203D01*
X110360107Y-97814060D01*
X110408431Y-97871549D01*
X110408434Y-97871551D01*
X110412970Y-97876948D01*
X110418841Y-97880856D01*
X110418842Y-97880857D01*
X110431143Y-97889045D01*
X110532313Y-97956390D01*
X110632920Y-97987821D01*
X110662425Y-97997039D01*
X110662426Y-97997039D01*
X110669157Y-97999142D01*
X110740828Y-98000456D01*
X110805445Y-98001641D01*
X110805447Y-98001641D01*
X110812499Y-98001770D01*
X110819302Y-97999915D01*
X110819304Y-97999915D01*
X110894503Y-97979413D01*
X110950817Y-97964060D01*
X111072991Y-97889045D01*
X111080403Y-97880857D01*
X111164468Y-97787982D01*
X111169200Y-97782754D01*
X111231710Y-97653733D01*
X111255496Y-97512354D01*
X111255647Y-97500000D01*
X111235323Y-97358082D01*
X111175984Y-97227572D01*
X111082400Y-97118963D01*
X110962095Y-97040985D01*
X110937538Y-97033641D01*
X110895900Y-97008796D01*
X110782308Y-96895204D01*
X110760207Y-96857907D01*
X110759823Y-96858082D01*
X110758215Y-96854546D01*
X110756906Y-96851666D01*
X110756905Y-96851663D01*
X110703405Y-96733996D01*
X110703404Y-96733995D01*
X110700484Y-96727572D01*
X110606900Y-96618963D01*
X110486595Y-96540985D01*
X110479837Y-96538964D01*
X110479835Y-96538963D01*
X110448569Y-96529613D01*
X110427082Y-96523187D01*
X110385446Y-96498342D01*
X110241619Y-96354516D01*
X110233876Y-96345802D01*
X110216455Y-96323703D01*
X110216454Y-96323702D01*
X110211872Y-96317890D01*
X110163251Y-96284286D01*
X110160728Y-96282483D01*
X110119139Y-96251764D01*
X110119137Y-96251763D01*
X110113184Y-96247366D01*
X110106368Y-96244973D01*
X110100431Y-96240869D01*
X110093372Y-96238636D01*
X110093371Y-96238636D01*
X110073027Y-96232202D01*
X110044071Y-96223044D01*
X110041186Y-96222082D01*
X109985369Y-96202481D01*
X109979327Y-96202244D01*
X109976653Y-96201723D01*
X109971270Y-96200020D01*
X109964663Y-96199500D01*
X109911459Y-96199500D01*
X109907572Y-96199424D01*
X109857397Y-96197452D01*
X109857394Y-96197452D01*
X109850006Y-96197162D01*
X109843228Y-96198959D01*
X109833403Y-96199500D01*
X107499905Y-96199500D01*
X107462565Y-96191290D01*
X107462095Y-96190985D01*
X107455337Y-96188964D01*
X107455335Y-96188963D01*
X107331500Y-96151929D01*
X107324739Y-96149907D01*
X107241497Y-96149398D01*
X107188427Y-96149074D01*
X107188426Y-96149074D01*
X107181376Y-96149031D01*
X107174599Y-96150968D01*
X107174598Y-96150968D01*
X107050309Y-96186490D01*
X107050307Y-96186491D01*
X107043529Y-96188428D01*
X106922280Y-96264930D01*
X106917613Y-96270214D01*
X106917611Y-96270216D01*
X106832044Y-96367103D01*
X106832042Y-96367105D01*
X106827377Y-96372388D01*
X106766447Y-96502163D01*
X106765362Y-96509132D01*
X106765361Y-96509135D01*
X106759805Y-96544823D01*
X106744391Y-96643823D01*
X106762980Y-96785979D01*
X106765820Y-96792433D01*
X106765821Y-96792437D01*
X106791116Y-96849923D01*
X106799500Y-96889795D01*
X106799500Y-97109680D01*
X106790116Y-97151751D01*
X106766447Y-97202163D01*
X106765362Y-97209132D01*
X106765361Y-97209135D01*
X106757325Y-97260752D01*
X106744391Y-97343823D01*
X104625500Y-97343823D01*
X104625500Y-89570834D01*
X104644407Y-89512643D01*
X104654496Y-89500830D01*
X104675830Y-89479496D01*
X104730347Y-89451719D01*
X104745834Y-89450500D01*
X105444748Y-89450500D01*
X105470995Y-89445279D01*
X105493666Y-89440770D01*
X105493668Y-89440769D01*
X105503231Y-89438867D01*
X105569552Y-89394552D01*
X105613867Y-89328231D01*
X105625500Y-89269748D01*
X105625500Y-88230252D01*
X105613867Y-88171769D01*
X105569552Y-88105448D01*
X105503231Y-88061133D01*
X105504531Y-88059188D01*
X105468332Y-88028272D01*
X105454048Y-87968777D01*
X105472347Y-87918773D01*
X105539877Y-87824796D01*
X105539878Y-87824794D01*
X105543361Y-87819947D01*
X105550658Y-87801797D01*
X105604377Y-87668167D01*
X105604378Y-87668165D01*
X105606601Y-87662634D01*
X105608878Y-87646636D01*
X105630034Y-87497985D01*
X105630034Y-87497979D01*
X105630490Y-87494778D01*
X105630645Y-87480000D01*
X105626778Y-87448041D01*
X106716000Y-87448041D01*
X106716390Y-87454229D01*
X106730731Y-87567755D01*
X106733805Y-87579727D01*
X106790048Y-87721782D01*
X106795999Y-87732607D01*
X106885806Y-87856216D01*
X106894262Y-87865221D01*
X107011986Y-87962609D01*
X107022419Y-87969231D01*
X107160016Y-88033979D01*
X107204618Y-88075863D01*
X107216083Y-88135965D01*
X107209328Y-88161442D01*
X107191798Y-88203764D01*
X107189313Y-88209764D01*
X107169534Y-88360000D01*
X107189313Y-88510236D01*
X107191797Y-88516233D01*
X107244819Y-88644240D01*
X107244821Y-88644244D01*
X107247302Y-88650233D01*
X107251248Y-88655375D01*
X107251250Y-88655379D01*
X107335598Y-88765302D01*
X107339549Y-88770451D01*
X107344698Y-88774402D01*
X107454621Y-88858750D01*
X107454625Y-88858752D01*
X107459767Y-88862698D01*
X107465756Y-88865179D01*
X107465760Y-88865181D01*
X107590742Y-88916950D01*
X107599764Y-88920687D01*
X107712280Y-88935500D01*
X108087720Y-88935500D01*
X108200236Y-88920687D01*
X108209258Y-88916950D01*
X108334240Y-88865181D01*
X108334244Y-88865179D01*
X108340233Y-88862698D01*
X108345375Y-88858752D01*
X108345379Y-88858750D01*
X108455302Y-88774402D01*
X108460451Y-88770451D01*
X108464402Y-88765302D01*
X108548750Y-88655379D01*
X108548752Y-88655375D01*
X108552698Y-88650233D01*
X108555179Y-88644244D01*
X108555181Y-88644240D01*
X108608203Y-88516233D01*
X108610687Y-88510236D01*
X108630466Y-88360000D01*
X108610687Y-88209764D01*
X108583160Y-88143308D01*
X108555181Y-88075760D01*
X108555179Y-88075756D01*
X108552698Y-88069767D01*
X108548752Y-88064625D01*
X108548750Y-88064621D01*
X108464402Y-87954698D01*
X108460451Y-87949549D01*
X108420343Y-87918773D01*
X108345379Y-87861250D01*
X108345375Y-87861248D01*
X108340233Y-87857302D01*
X108334244Y-87854821D01*
X108334240Y-87854819D01*
X108206233Y-87801797D01*
X108200236Y-87799313D01*
X108087720Y-87784500D01*
X108075545Y-87784500D01*
X108017354Y-87765593D01*
X107981390Y-87716093D01*
X107981390Y-87654907D01*
X107983498Y-87649053D01*
X107984456Y-87646633D01*
X108022452Y-87498647D01*
X108024000Y-87486395D01*
X108024000Y-87300680D01*
X108019878Y-87287995D01*
X108015757Y-87285000D01*
X106731680Y-87285000D01*
X106718995Y-87289122D01*
X106716000Y-87293243D01*
X106716000Y-87448041D01*
X105626778Y-87448041D01*
X105612110Y-87326835D01*
X105623890Y-87266794D01*
X105640389Y-87244937D01*
X106580830Y-86304496D01*
X106635347Y-86276719D01*
X106650834Y-86275500D01*
X106750190Y-86275500D01*
X106808381Y-86294407D01*
X106844345Y-86343907D01*
X106844345Y-86405093D01*
X106835735Y-86422003D01*
X106836698Y-86422533D01*
X106760093Y-86561876D01*
X106755545Y-86573364D01*
X106717548Y-86721353D01*
X106716000Y-86733605D01*
X106716000Y-86919320D01*
X106720122Y-86932005D01*
X106724243Y-86935000D01*
X108008320Y-86935000D01*
X108021005Y-86930878D01*
X108024000Y-86926757D01*
X108024000Y-86771959D01*
X108023610Y-86765771D01*
X108009269Y-86652245D01*
X108006195Y-86640273D01*
X107949952Y-86498218D01*
X107944001Y-86487393D01*
X107904258Y-86432691D01*
X107885351Y-86374500D01*
X107904258Y-86316309D01*
X107953759Y-86280345D01*
X107984351Y-86275500D01*
X108699167Y-86275500D01*
X108757358Y-86294407D01*
X108769171Y-86304497D01*
X108821004Y-86356331D01*
X108848781Y-86410848D01*
X108850000Y-86426334D01*
X108850000Y-89491990D01*
X108831093Y-89550181D01*
X108821004Y-89561994D01*
X108257943Y-90125055D01*
X108251576Y-90130889D01*
X108221806Y-90155869D01*
X108217477Y-90163368D01*
X108202373Y-90189529D01*
X108197732Y-90196813D01*
X108175446Y-90228640D01*
X108173204Y-90237008D01*
X108170738Y-90242295D01*
X108168742Y-90247780D01*
X108164412Y-90255279D01*
X108162909Y-90263805D01*
X108162908Y-90263807D01*
X108157666Y-90293540D01*
X108155796Y-90301974D01*
X108145736Y-90339517D01*
X108146491Y-90348146D01*
X108149123Y-90378229D01*
X108149500Y-90386858D01*
X108149500Y-91613142D01*
X108149123Y-91621771D01*
X108145736Y-91660483D01*
X108147978Y-91668850D01*
X108155796Y-91698025D01*
X108157666Y-91706459D01*
X108164412Y-91744721D01*
X108168742Y-91752220D01*
X108170738Y-91757705D01*
X108173204Y-91762992D01*
X108175446Y-91771360D01*
X108196013Y-91800732D01*
X108197732Y-91803187D01*
X108202371Y-91810468D01*
X108221806Y-91844131D01*
X108251570Y-91869106D01*
X108257938Y-91874940D01*
X109170504Y-92787507D01*
X109198281Y-92842024D01*
X109199500Y-92857511D01*
X109199500Y-93316938D01*
X109199123Y-93325567D01*
X109195736Y-93364279D01*
X109197978Y-93372646D01*
X109205796Y-93401821D01*
X109207666Y-93410255D01*
X109214412Y-93448517D01*
X109218742Y-93456016D01*
X109220738Y-93461501D01*
X109223204Y-93466788D01*
X109225446Y-93475156D01*
X109246013Y-93504528D01*
X109247732Y-93506983D01*
X109252371Y-93514264D01*
X109271806Y-93547926D01*
X109269970Y-93548986D01*
X109288539Y-93594934D01*
X109279396Y-93643922D01*
X109266447Y-93671501D01*
X109244391Y-93813161D01*
X109262980Y-93955317D01*
X109320720Y-94086541D01*
X109333792Y-94102092D01*
X109408431Y-94190887D01*
X109408434Y-94190889D01*
X109412970Y-94196286D01*
X109418841Y-94200194D01*
X109418842Y-94200195D01*
X109431143Y-94208383D01*
X109532313Y-94275728D01*
X109632920Y-94307159D01*
X109662425Y-94316377D01*
X109662426Y-94316377D01*
X109669157Y-94318480D01*
X109740828Y-94319794D01*
X109805445Y-94320979D01*
X109805447Y-94320979D01*
X109812499Y-94321108D01*
X109819302Y-94319253D01*
X109819304Y-94319253D01*
X109894503Y-94298751D01*
X109950817Y-94283398D01*
X110072991Y-94208383D01*
X110088828Y-94190887D01*
X110113960Y-94163121D01*
X110121303Y-94155008D01*
X110174371Y-94124554D01*
X110235204Y-94131108D01*
X110259454Y-94146842D01*
X110262970Y-94151024D01*
X110382313Y-94230466D01*
X110482920Y-94261897D01*
X110512425Y-94271115D01*
X110512426Y-94271115D01*
X110519157Y-94273218D01*
X110590828Y-94274532D01*
X110655445Y-94275717D01*
X110655447Y-94275717D01*
X110662499Y-94275846D01*
X110669302Y-94273991D01*
X110669304Y-94273991D01*
X110744503Y-94253489D01*
X110800817Y-94238136D01*
X110922991Y-94163121D01*
X110930335Y-94155008D01*
X111014468Y-94062058D01*
X111019200Y-94056830D01*
X111081710Y-93927809D01*
X111082880Y-93920856D01*
X111082881Y-93920852D01*
X111099821Y-93820159D01*
X111100801Y-93814338D01*
X111129100Y-93760092D01*
X111183880Y-93732839D01*
X111227948Y-93736268D01*
X111269157Y-93749142D01*
X111340828Y-93750456D01*
X111405445Y-93751641D01*
X111405447Y-93751641D01*
X111412499Y-93751770D01*
X111419302Y-93749915D01*
X111419304Y-93749915D01*
X111494503Y-93729413D01*
X111550817Y-93714060D01*
X111672991Y-93639045D01*
X111677726Y-93633814D01*
X111683151Y-93629310D01*
X111684360Y-93630766D01*
X111729366Y-93604940D01*
X111790199Y-93611497D01*
X111811719Y-93625460D01*
X111812970Y-93626948D01*
X111932313Y-93706390D01*
X112016973Y-93732839D01*
X112062425Y-93747039D01*
X112062426Y-93747039D01*
X112069157Y-93749142D01*
X112140828Y-93750456D01*
X112205445Y-93751641D01*
X112205447Y-93751641D01*
X112212499Y-93751770D01*
X112219302Y-93749915D01*
X112219304Y-93749915D01*
X112294503Y-93729413D01*
X112350817Y-93714060D01*
X112472991Y-93639045D01*
X112480403Y-93630857D01*
X112564468Y-93537982D01*
X112569200Y-93532754D01*
X112631710Y-93403733D01*
X112636941Y-93372646D01*
X112654862Y-93266124D01*
X112654862Y-93266120D01*
X112655496Y-93262354D01*
X112655647Y-93250000D01*
X112635323Y-93108082D01*
X112575984Y-92977572D01*
X112571381Y-92972230D01*
X112567580Y-92966287D01*
X112569875Y-92964819D01*
X112550840Y-92919424D01*
X112550500Y-92911228D01*
X112550500Y-90838958D01*
X112566910Y-90785284D01*
X112569200Y-90782754D01*
X112631710Y-90653733D01*
X112655496Y-90512354D01*
X112656412Y-90512508D01*
X112678897Y-90459872D01*
X112731416Y-90428479D01*
X112782986Y-90430497D01*
X112811925Y-90439538D01*
X112811926Y-90439538D01*
X112818657Y-90441641D01*
X112890328Y-90442955D01*
X112954945Y-90444140D01*
X112954947Y-90444140D01*
X112961999Y-90444269D01*
X112968802Y-90442414D01*
X112968804Y-90442414D01*
X113044003Y-90421912D01*
X113100317Y-90406559D01*
X113222491Y-90331544D01*
X113244454Y-90307280D01*
X113313968Y-90230481D01*
X113318700Y-90225253D01*
X113381210Y-90096232D01*
X113404996Y-89954853D01*
X113405147Y-89942499D01*
X113405636Y-89942505D01*
X113420101Y-89885663D01*
X113433799Y-89868526D01*
X113467057Y-89835268D01*
X113473425Y-89829433D01*
X113494340Y-89811883D01*
X113503194Y-89804454D01*
X113522629Y-89770791D01*
X113527268Y-89763510D01*
X113536816Y-89749874D01*
X113549554Y-89731683D01*
X113551796Y-89723315D01*
X113554262Y-89718028D01*
X113556258Y-89712543D01*
X113560588Y-89705044D01*
X113567334Y-89666782D01*
X113569204Y-89658348D01*
X113577022Y-89629173D01*
X113579264Y-89620806D01*
X113575877Y-89582090D01*
X113575500Y-89573462D01*
X113575500Y-88360000D01*
X114519534Y-88360000D01*
X114539313Y-88510236D01*
X114541797Y-88516233D01*
X114594819Y-88644240D01*
X114594821Y-88644244D01*
X114597302Y-88650233D01*
X114601248Y-88655375D01*
X114601250Y-88655379D01*
X114685598Y-88765302D01*
X114689549Y-88770451D01*
X114694698Y-88774402D01*
X114804621Y-88858750D01*
X114804625Y-88858752D01*
X114809767Y-88862698D01*
X114815756Y-88865179D01*
X114815760Y-88865181D01*
X114940742Y-88916950D01*
X114949764Y-88920687D01*
X115062280Y-88935500D01*
X115137720Y-88935500D01*
X115250236Y-88920687D01*
X115259258Y-88916950D01*
X115384240Y-88865181D01*
X115384244Y-88865179D01*
X115390233Y-88862698D01*
X115395375Y-88858752D01*
X115395379Y-88858750D01*
X115505302Y-88774402D01*
X115510451Y-88770451D01*
X115514402Y-88765302D01*
X115598750Y-88655379D01*
X115598752Y-88655375D01*
X115602698Y-88650233D01*
X115605179Y-88644244D01*
X115605181Y-88644240D01*
X115658203Y-88516233D01*
X115660687Y-88510236D01*
X115680466Y-88360000D01*
X115660687Y-88209764D01*
X115654601Y-88195071D01*
X115649802Y-88134075D01*
X115681772Y-88081906D01*
X115739851Y-88058382D01*
X115747304Y-88057913D01*
X115759445Y-88055597D01*
X115904753Y-88008384D01*
X115915929Y-88003125D01*
X116044933Y-87921256D01*
X116054452Y-87913382D01*
X116159036Y-87802010D01*
X116166304Y-87792006D01*
X116239907Y-87658124D01*
X116244455Y-87646636D01*
X116282452Y-87498647D01*
X116284000Y-87486395D01*
X116284000Y-87300680D01*
X116279878Y-87287995D01*
X116275757Y-87285000D01*
X114991680Y-87285000D01*
X114978995Y-87289122D01*
X114976000Y-87293243D01*
X114976000Y-87448041D01*
X114976390Y-87454229D01*
X114990731Y-87567755D01*
X114993805Y-87579727D01*
X115027592Y-87665064D01*
X115031434Y-87726128D01*
X114998649Y-87777789D01*
X114961166Y-87797135D01*
X114956198Y-87798466D01*
X114949764Y-87799313D01*
X114943772Y-87801795D01*
X114943768Y-87801796D01*
X114815760Y-87854819D01*
X114815756Y-87854821D01*
X114809767Y-87857302D01*
X114804625Y-87861248D01*
X114804621Y-87861250D01*
X114729657Y-87918773D01*
X114689549Y-87949549D01*
X114685598Y-87954698D01*
X114601250Y-88064621D01*
X114601248Y-88064625D01*
X114597302Y-88069767D01*
X114594821Y-88075756D01*
X114594819Y-88075760D01*
X114566840Y-88143308D01*
X114539313Y-88209764D01*
X114519534Y-88360000D01*
X113575500Y-88360000D01*
X113575500Y-86919320D01*
X114976000Y-86919320D01*
X114980122Y-86932005D01*
X114984243Y-86935000D01*
X115439320Y-86935000D01*
X115452005Y-86930878D01*
X115455000Y-86926757D01*
X115455000Y-86919320D01*
X115805000Y-86919320D01*
X115809122Y-86932005D01*
X115813243Y-86935000D01*
X116268320Y-86935000D01*
X116281005Y-86930878D01*
X116284000Y-86926757D01*
X116284000Y-86771959D01*
X116283610Y-86765771D01*
X116269269Y-86652245D01*
X116266195Y-86640273D01*
X116209952Y-86498218D01*
X116204001Y-86487393D01*
X116114194Y-86363784D01*
X116105738Y-86354779D01*
X115988014Y-86257391D01*
X115977581Y-86250769D01*
X115839340Y-86185717D01*
X115827584Y-86181898D01*
X115820401Y-86180528D01*
X115807170Y-86182200D01*
X115806982Y-86182376D01*
X115805000Y-86190097D01*
X115805000Y-86919320D01*
X115455000Y-86919320D01*
X115455000Y-86194885D01*
X115451479Y-86184050D01*
X115440089Y-86184050D01*
X115355250Y-86211616D01*
X115344070Y-86216876D01*
X115215067Y-86298744D01*
X115205548Y-86306618D01*
X115100964Y-86417990D01*
X115093696Y-86427994D01*
X115020093Y-86561876D01*
X115015545Y-86573364D01*
X114977548Y-86721353D01*
X114976000Y-86733605D01*
X114976000Y-86919320D01*
X113575500Y-86919320D01*
X113575500Y-86823849D01*
X113594407Y-86765658D01*
X113648459Y-86728335D01*
X113674067Y-86721353D01*
X113700817Y-86714060D01*
X113822991Y-86639045D01*
X113919200Y-86532754D01*
X113971302Y-86425216D01*
X113978634Y-86410082D01*
X113981710Y-86403733D01*
X113986629Y-86374500D01*
X114004862Y-86266124D01*
X114004862Y-86266120D01*
X114005496Y-86262354D01*
X114005647Y-86250000D01*
X113985323Y-86108082D01*
X113955132Y-86041680D01*
X113928905Y-85983996D01*
X113928904Y-85983995D01*
X113925984Y-85977572D01*
X113849371Y-85888659D01*
X113837005Y-85874307D01*
X113837004Y-85874306D01*
X113832400Y-85868963D01*
X113712095Y-85790985D01*
X113574739Y-85749907D01*
X113491497Y-85749398D01*
X113438427Y-85749074D01*
X113438426Y-85749074D01*
X113431376Y-85749031D01*
X113424599Y-85750968D01*
X113424598Y-85750968D01*
X113300309Y-85786490D01*
X113300307Y-85786491D01*
X113293529Y-85788428D01*
X113172280Y-85864930D01*
X113167613Y-85870214D01*
X113167611Y-85870216D01*
X113082044Y-85967103D01*
X113082042Y-85967105D01*
X113077377Y-85972388D01*
X113074381Y-85978770D01*
X113074380Y-85978771D01*
X113071927Y-85983996D01*
X113016447Y-86102163D01*
X113015362Y-86109132D01*
X113015361Y-86109135D01*
X113003958Y-86182376D01*
X112994391Y-86243823D01*
X112995306Y-86250821D01*
X112995220Y-86257870D01*
X112993506Y-86257849D01*
X112982719Y-86311945D01*
X112977372Y-86321206D01*
X112972732Y-86328489D01*
X112950446Y-86360316D01*
X112948204Y-86368684D01*
X112945738Y-86373971D01*
X112943742Y-86379456D01*
X112939412Y-86386955D01*
X112937909Y-86395481D01*
X112937908Y-86395483D01*
X112932666Y-86425216D01*
X112930796Y-86433650D01*
X112920736Y-86471193D01*
X112921491Y-86479822D01*
X112924123Y-86509905D01*
X112924500Y-86518534D01*
X112924500Y-89343351D01*
X112905593Y-89401542D01*
X112856093Y-89437506D01*
X112838935Y-89441435D01*
X112837927Y-89441573D01*
X112830876Y-89441530D01*
X112824100Y-89443467D01*
X112824097Y-89443467D01*
X112699809Y-89478989D01*
X112699807Y-89478990D01*
X112693029Y-89480927D01*
X112688922Y-89483518D01*
X112629085Y-89489912D01*
X112576044Y-89459412D01*
X112551061Y-89403560D01*
X112550500Y-89393040D01*
X112550500Y-86588958D01*
X112566910Y-86535284D01*
X112569200Y-86532754D01*
X112621302Y-86425216D01*
X112628634Y-86410082D01*
X112631710Y-86403733D01*
X112636629Y-86374500D01*
X112654862Y-86266124D01*
X112654862Y-86266120D01*
X112655496Y-86262354D01*
X112655647Y-86250000D01*
X112635323Y-86108082D01*
X112605132Y-86041680D01*
X112578905Y-85983996D01*
X112578904Y-85983995D01*
X112575984Y-85977572D01*
X112499371Y-85888659D01*
X112487005Y-85874307D01*
X112487004Y-85874306D01*
X112482400Y-85868963D01*
X112362095Y-85790985D01*
X112224739Y-85749907D01*
X112141497Y-85749398D01*
X112088427Y-85749074D01*
X112088426Y-85749074D01*
X112081376Y-85749031D01*
X112074599Y-85750968D01*
X112074598Y-85750968D01*
X111950309Y-85786490D01*
X111950307Y-85786491D01*
X111943529Y-85788428D01*
X111822280Y-85864930D01*
X111817612Y-85870216D01*
X111814090Y-85873213D01*
X111757521Y-85896529D01*
X111698052Y-85882142D01*
X111686311Y-85873502D01*
X111682400Y-85868963D01*
X111562095Y-85790985D01*
X111424739Y-85749907D01*
X111341497Y-85749398D01*
X111288427Y-85749074D01*
X111288426Y-85749074D01*
X111281376Y-85749031D01*
X111274599Y-85750968D01*
X111274598Y-85750968D01*
X111150309Y-85786490D01*
X111150307Y-85786491D01*
X111143529Y-85788428D01*
X111022280Y-85864930D01*
X111017612Y-85870215D01*
X111014164Y-85873150D01*
X110957595Y-85896466D01*
X110898126Y-85882079D01*
X110858470Y-85835484D01*
X110851000Y-85797758D01*
X110851000Y-85709838D01*
X110851377Y-85701210D01*
X110854008Y-85671132D01*
X110854763Y-85662505D01*
X110852522Y-85654142D01*
X110852522Y-85654139D01*
X110844706Y-85624968D01*
X110842837Y-85616540D01*
X110837592Y-85586797D01*
X110836088Y-85578267D01*
X110831757Y-85570766D01*
X110829758Y-85565272D01*
X110827295Y-85559990D01*
X110825054Y-85551628D01*
X110802759Y-85519787D01*
X110798136Y-85512531D01*
X110778694Y-85478857D01*
X110748935Y-85453886D01*
X110742567Y-85448052D01*
X109677457Y-84382943D01*
X109671622Y-84376575D01*
X109654672Y-84356375D01*
X109646643Y-84346806D01*
X109612980Y-84327371D01*
X109605699Y-84322732D01*
X109603244Y-84321013D01*
X109573872Y-84300446D01*
X109565504Y-84298204D01*
X109560217Y-84295738D01*
X109554732Y-84293742D01*
X109547233Y-84289412D01*
X109538707Y-84287909D01*
X109538705Y-84287908D01*
X109508972Y-84282666D01*
X109500537Y-84280796D01*
X109471362Y-84272978D01*
X109462995Y-84270736D01*
X109454366Y-84271491D01*
X109424283Y-84274123D01*
X109415654Y-84274500D01*
X106867638Y-84274500D01*
X106809447Y-84255593D01*
X106797634Y-84245504D01*
X106729496Y-84177366D01*
X106701719Y-84122849D01*
X106700500Y-84107362D01*
X106700500Y-82618534D01*
X106700877Y-82609905D01*
X106703509Y-82579822D01*
X106704264Y-82571193D01*
X106699980Y-82555204D01*
X106694204Y-82533651D01*
X106692334Y-82525216D01*
X106687092Y-82495483D01*
X106687091Y-82495481D01*
X106685588Y-82486955D01*
X106681258Y-82479456D01*
X106679262Y-82473971D01*
X106676796Y-82468684D01*
X106674554Y-82460316D01*
X106652268Y-82428489D01*
X106647627Y-82421205D01*
X106628194Y-82387545D01*
X106598429Y-82362569D01*
X106592061Y-82356735D01*
X105733367Y-81498041D01*
X106356000Y-81498041D01*
X106356390Y-81504229D01*
X106370731Y-81617755D01*
X106373805Y-81629727D01*
X106430048Y-81771782D01*
X106435999Y-81782607D01*
X106525806Y-81906216D01*
X106534262Y-81915221D01*
X106651986Y-82012609D01*
X106662419Y-82019231D01*
X106800660Y-82084283D01*
X106812416Y-82088102D01*
X106819599Y-82089472D01*
X106832830Y-82087800D01*
X106833018Y-82087624D01*
X106835000Y-82079903D01*
X106835000Y-82075115D01*
X107185000Y-82075115D01*
X107188521Y-82085950D01*
X107199911Y-82085950D01*
X107284750Y-82058384D01*
X107295930Y-82053124D01*
X107424933Y-81971256D01*
X107434452Y-81963382D01*
X107539036Y-81852010D01*
X107546304Y-81842006D01*
X107619907Y-81708124D01*
X107624455Y-81696636D01*
X107662452Y-81548647D01*
X107664000Y-81536395D01*
X107664000Y-81498041D01*
X115336000Y-81498041D01*
X115336390Y-81504229D01*
X115350731Y-81617755D01*
X115353805Y-81629727D01*
X115410048Y-81771782D01*
X115415999Y-81782607D01*
X115505806Y-81906216D01*
X115514262Y-81915221D01*
X115631986Y-82012609D01*
X115642419Y-82019231D01*
X115780660Y-82084283D01*
X115792416Y-82088102D01*
X115799599Y-82089472D01*
X115812830Y-82087800D01*
X115813018Y-82087624D01*
X115815000Y-82079903D01*
X115815000Y-82075115D01*
X116165000Y-82075115D01*
X116168521Y-82085950D01*
X116179911Y-82085950D01*
X116264750Y-82058384D01*
X116275930Y-82053124D01*
X116404933Y-81971256D01*
X116414452Y-81963382D01*
X116519036Y-81852010D01*
X116526304Y-81842006D01*
X116599907Y-81708124D01*
X116604455Y-81696636D01*
X116642452Y-81548647D01*
X116644000Y-81536395D01*
X116644000Y-81350680D01*
X116639878Y-81337995D01*
X116635757Y-81335000D01*
X116180680Y-81335000D01*
X116167995Y-81339122D01*
X116165000Y-81343243D01*
X116165000Y-82075115D01*
X115815000Y-82075115D01*
X115815000Y-81350680D01*
X115810878Y-81337995D01*
X115806757Y-81335000D01*
X115351680Y-81335000D01*
X115338995Y-81339122D01*
X115336000Y-81343243D01*
X115336000Y-81498041D01*
X107664000Y-81498041D01*
X107664000Y-81350680D01*
X107659878Y-81337995D01*
X107655757Y-81335000D01*
X107200680Y-81335000D01*
X107187995Y-81339122D01*
X107185000Y-81343243D01*
X107185000Y-82075115D01*
X106835000Y-82075115D01*
X106835000Y-81350680D01*
X106830878Y-81337995D01*
X106826757Y-81335000D01*
X106371680Y-81335000D01*
X106358995Y-81339122D01*
X106356000Y-81343243D01*
X106356000Y-81498041D01*
X105733367Y-81498041D01*
X105634039Y-81398713D01*
X105606262Y-81344196D01*
X105607908Y-81312820D01*
X105606601Y-81312634D01*
X105622120Y-81203591D01*
X117419922Y-81203591D01*
X117429321Y-81382921D01*
X117477008Y-81556049D01*
X117560760Y-81714898D01*
X117564220Y-81718992D01*
X117564221Y-81718994D01*
X117668173Y-81842006D01*
X117676668Y-81852058D01*
X117819326Y-81961128D01*
X117982077Y-82037020D01*
X117987304Y-82038188D01*
X117987306Y-82038189D01*
X118092333Y-82061665D01*
X118157328Y-82076193D01*
X118161401Y-82076421D01*
X118161433Y-82076423D01*
X118161450Y-82076423D01*
X118162819Y-82076500D01*
X118294866Y-82076500D01*
X118324232Y-82073310D01*
X118423200Y-82062559D01*
X118423205Y-82062558D01*
X118428525Y-82061980D01*
X118598722Y-82004703D01*
X118654387Y-81971256D01*
X118748052Y-81914976D01*
X118748055Y-81914974D01*
X118752648Y-81912214D01*
X118883123Y-81788830D01*
X118984060Y-81640306D01*
X119050748Y-81473573D01*
X119080078Y-81296409D01*
X119072131Y-81144778D01*
X119070960Y-81122434D01*
X119070960Y-81122431D01*
X119070679Y-81117079D01*
X119022992Y-80943951D01*
X118939240Y-80785102D01*
X118927622Y-80771353D01*
X118826792Y-80652036D01*
X118826790Y-80652034D01*
X118823332Y-80647942D01*
X118680674Y-80538872D01*
X118517923Y-80462980D01*
X118512696Y-80461812D01*
X118512694Y-80461811D01*
X118388978Y-80434158D01*
X118342672Y-80423807D01*
X118338599Y-80423579D01*
X118338567Y-80423577D01*
X118338550Y-80423577D01*
X118337181Y-80423500D01*
X118205134Y-80423500D01*
X118175768Y-80426690D01*
X118076800Y-80437441D01*
X118076795Y-80437442D01*
X118071475Y-80438020D01*
X117901278Y-80495297D01*
X117896683Y-80498058D01*
X117751948Y-80585024D01*
X117751945Y-80585026D01*
X117747352Y-80587786D01*
X117743460Y-80591466D01*
X117743458Y-80591468D01*
X117709729Y-80623364D01*
X117616877Y-80711170D01*
X117515940Y-80859694D01*
X117513949Y-80864673D01*
X117465822Y-80985000D01*
X117449252Y-81026427D01*
X117419922Y-81203591D01*
X105622120Y-81203591D01*
X105630034Y-81147985D01*
X105630034Y-81147979D01*
X105630490Y-81144778D01*
X105630645Y-81130000D01*
X105612736Y-80982005D01*
X105610993Y-80967602D01*
X105610992Y-80967599D01*
X105610276Y-80961680D01*
X105550345Y-80803077D01*
X105536963Y-80783605D01*
X105457692Y-80668267D01*
X105454312Y-80663349D01*
X105327721Y-80550560D01*
X105311800Y-80542130D01*
X105292412Y-80531865D01*
X105177881Y-80471224D01*
X105057819Y-80441066D01*
X105019231Y-80431373D01*
X105019228Y-80431373D01*
X105013441Y-80429919D01*
X104927841Y-80429471D01*
X104849861Y-80429062D01*
X104849859Y-80429062D01*
X104843895Y-80429031D01*
X104838099Y-80430423D01*
X104838095Y-80430423D01*
X104747566Y-80452158D01*
X104679032Y-80468612D01*
X104603701Y-80507493D01*
X104533675Y-80543636D01*
X104533673Y-80543638D01*
X104528369Y-80546375D01*
X104400604Y-80657831D01*
X104397173Y-80662713D01*
X104397172Y-80662714D01*
X104314035Y-80781006D01*
X104303113Y-80796547D01*
X104241524Y-80954513D01*
X104240745Y-80960428D01*
X104240745Y-80960429D01*
X104238053Y-80980878D01*
X104219394Y-81122611D01*
X104220049Y-81128544D01*
X104220049Y-81128548D01*
X104235992Y-81272957D01*
X104237999Y-81291135D01*
X104296266Y-81450356D01*
X104390830Y-81591083D01*
X104502374Y-81692580D01*
X104532687Y-81745725D01*
X104525973Y-81806541D01*
X104500824Y-81840404D01*
X104400604Y-81927831D01*
X104397173Y-81932713D01*
X104397172Y-81932714D01*
X104345376Y-82006412D01*
X104303113Y-82066547D01*
X104241524Y-82224513D01*
X104219394Y-82392611D01*
X104220049Y-82398544D01*
X104220049Y-82398548D01*
X104234965Y-82533651D01*
X104237999Y-82561135D01*
X104296266Y-82720356D01*
X104390830Y-82861083D01*
X104395242Y-82865098D01*
X104395245Y-82865101D01*
X104460214Y-82924218D01*
X104490529Y-82977365D01*
X104483815Y-83038181D01*
X104457484Y-83071703D01*
X104457854Y-83072080D01*
X104454968Y-83074906D01*
X104454540Y-83075451D01*
X104453905Y-83075947D01*
X104340948Y-83186563D01*
X104333997Y-83195086D01*
X104248358Y-83327972D01*
X104243467Y-83337826D01*
X104190030Y-83484642D01*
X104191537Y-83492546D01*
X104192946Y-83493869D01*
X104198004Y-83495000D01*
X105001000Y-83495000D01*
X105059191Y-83513907D01*
X105095155Y-83563407D01*
X105100000Y-83594000D01*
X105100000Y-83746000D01*
X105081093Y-83804191D01*
X105031593Y-83840155D01*
X105001000Y-83845000D01*
X104204226Y-83845000D01*
X104193510Y-83848482D01*
X104193551Y-83860044D01*
X104234458Y-83983016D01*
X104239072Y-83993003D01*
X104320967Y-84128226D01*
X104327678Y-84136941D01*
X104437497Y-84250663D01*
X104445970Y-84257672D01*
X104448366Y-84259240D01*
X104449361Y-84260477D01*
X104450238Y-84261203D01*
X104450089Y-84261383D01*
X104486705Y-84306924D01*
X104489694Y-84368036D01*
X104459238Y-84416682D01*
X104400604Y-84467831D01*
X104397173Y-84472713D01*
X104397172Y-84472714D01*
X104349801Y-84540117D01*
X104303113Y-84606547D01*
X104241524Y-84764513D01*
X104219394Y-84932611D01*
X104237999Y-85101135D01*
X104296266Y-85260356D01*
X104390830Y-85401083D01*
X104502374Y-85502580D01*
X104532687Y-85555725D01*
X104525973Y-85616541D01*
X104500824Y-85650404D01*
X104400604Y-85737831D01*
X104314409Y-85860475D01*
X104265480Y-85897211D01*
X104246593Y-85901208D01*
X104241193Y-85900736D01*
X104232826Y-85902978D01*
X104203651Y-85910796D01*
X104195216Y-85912666D01*
X104165483Y-85917908D01*
X104165481Y-85917909D01*
X104156955Y-85919412D01*
X104149456Y-85923742D01*
X104143971Y-85925738D01*
X104138684Y-85928204D01*
X104130316Y-85930446D01*
X104106547Y-85947090D01*
X104098489Y-85952732D01*
X104091208Y-85957371D01*
X104057545Y-85976806D01*
X104051978Y-85983441D01*
X104032569Y-86006571D01*
X104026735Y-86012939D01*
X103869504Y-86170170D01*
X103814987Y-86197947D01*
X103754555Y-86188376D01*
X103711290Y-86145111D01*
X103700500Y-86100166D01*
X103700500Y-81284281D01*
X103703057Y-81261926D01*
X103703141Y-81261565D01*
X103705655Y-81250718D01*
X103705656Y-81250000D01*
X103704411Y-81244542D01*
X103703790Y-81238993D01*
X103704705Y-81238891D01*
X103703284Y-81218173D01*
X103715689Y-81076388D01*
X103718685Y-81059394D01*
X103761551Y-80899417D01*
X103767453Y-80883201D01*
X103837447Y-80733098D01*
X103846076Y-80718153D01*
X103941066Y-80582492D01*
X103952158Y-80569272D01*
X104069272Y-80452158D01*
X104082492Y-80441066D01*
X104218153Y-80346076D01*
X104233098Y-80337447D01*
X104383201Y-80267453D01*
X104399417Y-80261551D01*
X104559393Y-80218685D01*
X104576388Y-80215689D01*
X104717922Y-80203307D01*
X104727629Y-80203979D01*
X104727630Y-80203138D01*
X104738775Y-80203158D01*
X104749641Y-80205656D01*
X104761641Y-80202941D01*
X104783488Y-80200500D01*
X106503378Y-80200500D01*
X106561569Y-80219407D01*
G37*
%TD.AperFunction*%
%TD*%
M02*
